<?xml version="1.0" encoding="UTF-8"?>
<svg id="uuid-da6c27a1-11b4-499a-beae-627b52c45dea" data-name="Ebene 1" xmlns="http://www.w3.org/2000/svg" width="293.233" height="96.32" viewBox="0 0 293.233 96.32">
  <defs>
    <style>
      .uuid-f9eb023e-3ae8-4672-b1a8-7c2e911f136f {
        fill: #fff;
      }
    </style>
  </defs>
  <g id="uuid-47a85942-ac95-4ba6-8ea2-1f68d7ca13bf" data-name="DMF Slogan Weiss RGB">
    <g id="uuid-ca9d5a25-b5db-42a6-aaef-b203c7b76322" data-name="Gruppe 5641">
      <path id="uuid-81bb9801-e2a4-4665-b908-c896509e2f81" data-name="Pfad 7845" class="uuid-f9eb023e-3ae8-4672-b1a8-7c2e911f136f" d="m132.70703,3.632h-3.836v5.507h3.836c1.52072.11232,2.84454-1.02942,2.95688-2.55013.1123-1.52071-1.02942-2.84455-2.55014-2.95687-.13541-.01-.27133-.01-.40674,0m3.16299,17.223l-4.07199-8.318h-2.927v8.318h-4.07199V0h8.172c4.246,0,6.76599,2.9,6.76599,6.385.06967,2.4636-1.47452,4.68495-3.80801,5.478l4.655,8.991-4.71399.001Z"/>
      <path id="uuid-46dfd8b9-889b-45db-9160-d93ae27b523b" data-name="Pfad 7846" class="uuid-f9eb023e-3ae8-4672-b1a8-7c2e911f136f" d="m151.74401,21.03c-4.276,0-7.67297-2.9-7.67297-7.323V.001h4.07001v13.56c0,2.4,1.40601,3.836,3.59998,3.836s3.63202-1.435,3.63202-3.836V.001h4.04102v13.71c0,4.424-3.40002,7.323-7.67297,7.323"/>
    </g>
    <path id="uuid-3bb7c71b-6e13-4a7c-a756-ab951196e1a7" data-name="Pfad 7847" class="uuid-f9eb023e-3ae8-4672-b1a8-7c2e911f136f" d="m176.28997.001v12.77L168.03198.001h-3.63397v20.852h4.07202v-12.8l8.26001,12.8h3.63202V.001h-4.07208Z"/>
    <g id="uuid-24c90061-727c-47d6-9837-5834533f5ec9" data-name="Gruppe 5642">
      <path id="uuid-c3734958-bdbd-44c8-8043-332cef07558a" data-name="Pfad 7848" class="uuid-f9eb023e-3ae8-4672-b1a8-7c2e911f136f" d="m195.85504,4.921c-.74933-.89412-1.88245-1.374-3.04602-1.29h-3.07501v13.592h3.07501c1.16357.08399,2.29669-.39589,3.04602-1.29.76202-.935.87799-2.43.87799-5.593s-.117-4.481-.87799-5.419m2.84198,13.941c-1.49524,1.37405-3.47876,2.09154-5.50702,1.992h-7.52698V0h7.52698c2.02808-.0983,4.01117.61902,5.50702,1.992,2.34399,2.344,2.10797,5.214,2.10797,8.348s.23602,6.18-2.10797,8.522"/>
      <path id="uuid-9644f9b5-660a-49b6-9273-b7b241183b4f" data-name="Pfad 7849" class="uuid-f9eb023e-3ae8-4672-b1a8-7c2e911f136f" d="m212.75604,21.03c-4.27698,0-7.67297-2.9-7.67297-7.323V.001h4.07001v13.56c0,2.4,1.40601,3.836,3.59998,3.836s3.63098-1.435,3.63098-3.836V.001h4.04102v13.71c0,4.424-3.40002,7.323-7.672,7.323"/>
      <path id="uuid-4c314243-93c2-44b4-81ff-43e824107259" data-name="Pfad 7850" class="uuid-f9eb023e-3ae8-4672-b1a8-7c2e911f136f" d="m8.317,39.339h-4.247v5.12601h4.248c1.41551.08842,2.63469-.98738,2.72312-2.40289.08843-1.4155-.98738-2.63469-2.40289-2.72311-.10664-.00667-.21359-.00667-.32023,0m-.264-8.465h-3.984v4.8h3.984c1.728,0,2.694-.966,2.694-2.39999s-.966-2.39999-2.694-2.39999m.673,17.22301H0v-20.85402h8.375c4.072,0,6.444,2.285,6.444,5.85899.014,1.80409-.98029,3.46509-2.577,4.30499,1.8356.81599,2.97728,2.68007,2.87,4.686,0,3.89999-2.665,6-6.385,6"/>
    </g>
    <path id="uuid-8a7a3abe-fb28-4bfe-a939-22583b9847a7" data-name="Pfad 7851" class="uuid-f9eb023e-3ae8-4672-b1a8-7c2e911f136f" d="m19.707,48.09799v-20.85399h13.736v3.632h-9.664v4.89301h8.228v3.632h-8.229v5.067h9.664v3.632l-13.73499-.00203Z"/>
    <g id="uuid-b08851f2-d3ef-4fb7-ad98-7149df4c6d8c" data-name="Gruppe 5643">
      <path id="uuid-7907b7e0-766f-4b69-a882-062abe4ad305" data-name="Pfad 7852" class="uuid-f9eb023e-3ae8-4672-b1a8-7c2e911f136f" d="m43.60999,48.27299c-3.16299,0-5.564-.674-7.61501-2.75301l2.63699-2.63699c1.37102,1.24574,3.18954,1.88068,5.03799,1.759,2.39999,0,3.689-.909,3.689-2.577.04112-.65047-.19209-1.28841-.64301-1.759-.51917-.43909-1.16797-.69586-1.847-.731l-2.51801-.35201c-1.49702-.13187-2.91313-.73711-4.043-1.728-1.03987-1.10341-1.57951-2.58633-1.492-4.10001,0-3.72,2.75301-6.326,7.263-6.326,2.48621-.16444,4.92821.71637,6.737,2.42999l-2.577,2.549c-1.17401-1.0352-2.7162-1.55263-4.27699-1.435-2.168,0-3.222,1.2-3.222,2.63699-.01219.56117.21036,1.10196.614,1.492.54929.45955,1.22284.74533,1.935.821l2.459.35001c1.4655.09976,2.86105.66408,3.98399,1.61099,1.13419,1.18315,1.71881,2.78857,1.61099,4.424,0,4.041-3.368,6.326-7.73199,6.326"/>
      <path id="uuid-fb2f5c97-afdf-422f-b354-b90c78cd674a" data-name="Pfad 7853" class="uuid-f9eb023e-3ae8-4672-b1a8-7c2e911f136f" d="m61.18401,48.27299c-3.16299,0-5.564-.674-7.61501-2.75301l2.63699-2.63699c1.37102,1.24574,3.18954,1.88068,5.03799,1.759,2.39999,0,3.689-.909,3.689-2.577.04112-.65047-.19209-1.28841-.64301-1.759-.51917-.43909-1.16797-.69586-1.847-.731l-2.51801-.35201c-1.49702-.13187-2.91313-.73711-4.043-1.728-1.03987-1.10341-1.57951-2.58633-1.492-4.10001,0-3.72,2.75301-6.326,7.263-6.326,2.48621-.16444,4.92821.71637,6.737,2.42999l-2.577,2.549c-1.17401-1.0352-2.7162-1.55263-4.27699-1.435-2.168,0-3.222,1.2-3.222,2.63699-.01219.56117.21036,1.10196.614,1.492.54929.45955,1.22284.74533,1.935.821l2.459.35001c1.4655.09976,2.86105.66408,3.98399,1.61099,1.13419,1.18315,1.71881,2.78857,1.61099,4.424,0,4.041-3.367,6.326-7.73199,6.326"/>
    </g>
    <path id="uuid-fc323b46-d0c9-41fd-97b5-c12e2a391143" data-name="Pfad 7854" class="uuid-f9eb023e-3ae8-4672-b1a8-7c2e911f136f" d="m73.193,48.09799v-20.85399h13.73599v3.632h-9.66501v4.89301h8.229v3.632h-8.229v5.067h9.66501v3.632l-13.73599-.00203Z"/>
    <g id="uuid-157b13dd-17d6-4220-8dbd-2af1ded6e77d" data-name="Gruppe 5644">
      <path id="uuid-6e9e9ebc-414a-43d5-88d7-6c6919253012" data-name="Pfad 7855" class="uuid-f9eb023e-3ae8-4672-b1a8-7c2e911f136f" d="m99.261,30.874h-3.83499v5.507h3.836c1.52072.1123,2.84454-1.02945,2.95685-2.55016.1123-1.52072-1.02945-2.84454-2.55017-2.95685-.13538-.00999-.2713-.00999-.40668,0m3.16299,17.22299l-4.07199-8.31799h-2.927v8.31799h-4.07199v-20.85399h8.172c4.246,0,6.76401,2.89999,6.76401,6.38499.07074,2.463-1.47226,4.68443-3.80499,5.478l4.655,8.991h-4.71503Z"/>
      <path id="uuid-f1d5fb1d-ab8c-48b4-aeb4-d69785ae0873" data-name="Pfad 7856" class="uuid-f9eb023e-3ae8-4672-b1a8-7c2e911f136f" d="m126.50001,39.339h-4.24799v5.12601h4.24799c1.4155.08842,2.6347-.98738,2.72311-2.40289.08844-1.4155-.98737-2.63469-2.40289-2.72311-.10663-.00667-.21359-.00667-.32022,0m-.26401-8.465h-3.98401v4.8h3.98401c1.728,0,2.694-.966,2.694-2.39999s-.966-2.39999-2.694-2.39999m.673,17.22301h-8.729v-20.85402h8.37701c4.07199,0,6.44501,2.285,6.44501,5.85899.01401,1.80409-.98029,3.46509-2.577,4.30499,1.8356.81599,2.97726,2.68007,2.87,4.686,0,3.89999-2.66501,6-6.38501,6"/>
    </g>
    <path id="uuid-25c1f04f-70db-4691-8176-384bfe658a20" data-name="Pfad 7857" class="uuid-f9eb023e-3ae8-4672-b1a8-7c2e911f136f" d="m137.89303,48.09799v-20.85399h13.73602v3.632h-9.66498v4.89301h8.23395v3.632h-8.229v5.067h9.66498v3.632l-13.74097-.00203Z"/>
    <path id="uuid-1b913140-533b-4390-a5bf-21eb157fc663" data-name="Pfad 7858" class="uuid-f9eb023e-3ae8-4672-b1a8-7c2e911f136f" d="m163.96103,30.875h-3.836v5.507h3.836c1.52069.1123,2.84454-1.02945,2.95685-2.55016.1123-1.52072-1.02942-2.84454-2.55017-2.95685-.13538-.00999-.2713-.00999-.40668,0m3.16302,17.22299l-4.07202-8.31799h-2.927v8.31799h-4.07202v-20.85399h8.172c4.24597,0,6.76599,2.89999,6.76599,6.38499.06964,2.46359-1.47449,4.68494-3.80798,5.478l4.65503,8.991h-4.71399Z"/>
    <path id="uuid-fa03db3e-1d63-4143-a4eb-2f5eb745a8d3" data-name="Pfad 7859" class="uuid-f9eb023e-3ae8-4672-b1a8-7c2e911f136f" d="m182.64703,33.395l-2.63702,7.58501h5.18597l-2.54895-7.58501Zm4.862,14.7l-1.22998-3.69099h-7.41101l-1.25897,3.69099h-4.24597l7.58502-20.854h3.19397l7.61499,20.854h-4.24805Z"/>
    <path id="uuid-9298a398-10d4-40e8-9f4a-f977634eeb36" data-name="Pfad 7860" class="uuid-f9eb023e-3ae8-4672-b1a8-7c2e911f136f" d="m210.17996,48.09799v-20.85399h13.73602v3.632h-9.66602v4.89301h8.229v3.632h-8.229v5.067h9.664v3.632l-13.73401-.00203Z"/>
    <path id="uuid-b21527f2-3280-456c-9cb4-4af3e9cf5d39" data-name="Pfad 7861" class="uuid-f9eb023e-3ae8-4672-b1a8-7c2e911f136f" d="m240.66903,48.09799l-8.26001-12.8v12.8h-4.07001v-20.85399h3.63202l8.258,12.77v-12.77h4.07202v20.854l-3.63202-.00002Z"/>
    <path id="uuid-1c1a3105-d5d8-4c90-9bcb-9b7edd9921d0" data-name="Pfad 7862" class="uuid-f9eb023e-3ae8-4672-b1a8-7c2e911f136f" d="m245.07299.001h-4.78503l-5.41901,11.276L229.42096.001h-4.01202v20.854h4.06903v-12.156l4.01202,7.908h2.75299l3.98199-7.908v12.156h4.07202V4.068h.77301c24.35132-.00091,44.09271,19.73901,44.09363,44.09035s-19.73901,44.09274-44.09033,44.09364c-24.28638.00092-44.00079-19.63777-44.09332-43.924v-17.452h5.45001v-3.632h-14.96698v3.632h5.448v17.454c.09387,26.59731,21.73138,48.08259,48.32867,47.9887,26.59735-.09389,48.08264-21.73138,47.98871-48.3287C293.13476,21.45838,271.59979.00006,245.06799.001"/>
  </g>
</svg>