<svg xmlns="http://www.w3.org/2000/svg" width="35.328" height="35.329" viewBox="0 0 35.328 35.329">
  <g id="Group_9059" data-name="Group 9059" transform="translate(-863.92 -1034.249)">
    <path id="Path_10998" data-name="Path 10998" d="M0,0A.778.778,0,0,0,0-1.474L-12.624-8.762c-.705-.407-1.276-.077-1.276.737V6.551c0,.814.571,1.144,1.276.737Z" transform="translate(890.158 1052.482)" fill="none" stroke="#fff" stroke-width="1.5"/>
    <path id="Path_10999" data-name="Path 10999" d="M0,0A16.914,16.914,0,0,0,16.914-16.914,16.914,16.914,0,0,0,0-33.829,16.914,16.914,0,0,0-16.914-16.914,16.914,16.914,0,0,0,0,0Z" transform="translate(881.584 1068.828)" fill="none" stroke="#fff" stroke-width="1.5"/>
  </g>
</svg>
