<svg xmlns="http://www.w3.org/2000/svg" xmlns:xlink="http://www.w3.org/1999/xlink" width="1095.916" height="1386.149" viewBox="0 0 1095.916 1386.149">
  <defs>
    <clipPath id="clip-path">
      <rect id="Rechteck_1766" data-name="Rechteck 1766" width="359.372" height="733.037" transform="translate(0 0)"/>
    </clipPath>
    <clipPath id="clip-path-2">
      <rect id="Rechteck_1641" data-name="Rechteck 1641" width="369.522" height="753.74"/>
    </clipPath>
    <clipPath id="clip-path-148">
      <rect id="Rechteck_1638" data-name="Rechteck 1638" width="417.812" height="847.287"/>
    </clipPath>
  </defs>
  <g id="Gruppe_9048" data-name="Gruppe 9048" transform="translate(0 -207)">
    <g id="Gruppe_8348" data-name="Gruppe 8348" transform="matrix(0.572, -0.82, 0.82, 0.572, 289.158, 1173.485)" clip-path="url(#clip-path)">
      <rect id="Rechteck_1765" data-name="Rechteck 1765" width="5.218" height="27.225" transform="translate(862.811 261.361)" fill="#406033"/>
    </g>
    <g id="Gruppe_8477" data-name="Gruppe 8477" transform="translate(0 -10.713)">
      <g id="Gruppe_8226" data-name="Gruppe 8226" transform="translate(148.834 349.986)" clip-path="url(#clip-path-2)">
        <path id="Pfad_10451" data-name="Pfad 10451" d="M240.591,1.4l12.6,3.966s14.23,7.932,13.764,15.863-28.227,80.95-26.361,90.747,10.731,17.263,10.731,17.263,6.532,1.866,6.3,6.3-33.126-2.566-33.126-2.566-1.166-9.8-.467-27.294c.933-17.5,24.495-70.918,24.495-70.918L226.361,2.333Z" transform="translate(149.46 -216.255)" fill="#faa05f"/>
      </g>
      <g id="Gruppe_8227" data-name="Gruppe 8227" transform="translate(148.834 349.986)" clip-path="url(#clip-path-2)">
        <path id="Pfad_10452" data-name="Pfad 10452" d="M246.8,45.1l-21-2.1-.7,15.863s10.964,1.866,18.663,2.333Z" transform="translate(151.187 -160.808)" fill="#bcb19a"/>
      </g>
      <g id="Gruppe_8228" data-name="Gruppe 8228" transform="translate(148.834 349.986)" clip-path="url(#clip-path-2)">
        <path id="Pfad_10453" data-name="Pfad 10453" d="M226.12,47.967a43.3,43.3,0,0,1-2.8,10.964c-2.1,4.666-3.266,12.831.467,14.464,3.733,1.4,10.5-.7,19.6,2.333,8.865,3.266,35.226,4.432,32.893-.933s-15.163-12.6-19.829-16.33c-4.666-3.5-4.9-3.266-7.7-3.5s-12.831-3.266-16.8-5.832c-3.966-2.333-5.832-1.166-5.832-1.166" transform="translate(146.201 -154.577)" fill="#17343f"/>
      </g>
      <g id="Gruppe_8229" data-name="Gruppe 8229" transform="translate(148.834 349.986)" clip-path="url(#clip-path-2)">
        <path id="Pfad_10454" data-name="Pfad 10454" d="M234.355-1.061S272.614,14.8,275.88,25.067c3.266,10.031-34.293,103.578-34.759,114.309l-11.2-1.866s2.333-71.152,14.23-89.348c12.131-18.2-23.795-31.96-32.66-41.991-8.865-10.265,22.862-7.232,22.862-7.232" transform="translate(130.968 -220.092)" fill="#fcb477"/>
      </g>
      <g id="Gruppe_8230" data-name="Gruppe 8230" transform="translate(148.834 349.986)" clip-path="url(#clip-path-2)">
        <path id="Pfad_10455" data-name="Pfad 10455" d="M238.8,54.4l-21-2.1-.7,15.863s10.964,1.866,18.663,2.333Z" transform="translate(140.524 -148.413)" fill="#899eaa"/>
      </g>
      <g id="Gruppe_8231" data-name="Gruppe 8231" transform="translate(148.834 349.986)" clip-path="url(#clip-path-2)">
        <path id="Pfad_10456" data-name="Pfad 10456" d="M222.786,56.8A5.527,5.527,0,0,0,217.42,61a39.9,39.9,0,0,1-2.1,7c-2.1,4.666-3.266,12.831.467,14.464,3.733,1.4,10.5-.7,19.6,2.333,8.865,3.266,35.226,4.432,32.893-.933s-24.728-19.6-27.527-19.829-8.4-3.733-12.364-6.065a21.705,21.705,0,0,0-5.6-1.166" transform="translate(135.538 -142.415)" fill="#405d64"/>
      </g>
      <g id="Gruppe_8232" data-name="Gruppe 8232" transform="translate(148.834 349.986)" clip-path="url(#clip-path-2)">
        <path id="Pfad_10457" data-name="Pfad 10457" d="M214.793-23.5A27.065,27.065,0,0,0,201.5-6.47c-3.266,12.364,3.733,50.623,3.733,50.623l28.227,1.4,2.8-9.565,3.966,11.2s46.657-5.366,50.156-5.132S264.016,17.791,255.851,4.494c-7.7-13.53-41.058-27.994-41.058-27.994" transform="translate(118.569 -249.442)" fill="#83a30e"/>
      </g>
      <g id="Gruppe_8233" data-name="Gruppe 8233" transform="translate(148.834 349.986)" clip-path="url(#clip-path-2)">
        <path id="Pfad_10458" data-name="Pfad 10458" d="M498.353-39.94,504.185,62s27.761,20.3,42.224,66.719c14.7,46.657,15.63,112.909,15.63,112.909l-13.764,5.132a166.326,166.326,0,0,0-7.7-27.061c-20.529-55.522-51.789-130.639-67.652-151.868C452.4,40.543,434.9-72.6,434.9-72.6Z" transform="translate(430.817 -314.885)" fill="#fcb477"/>
      </g>
      <g id="Gruppe_8234" data-name="Gruppe 8234" transform="translate(148.834 349.986)" clip-path="url(#clip-path-2)">
        <path id="Pfad_10459" data-name="Pfad 10459" d="M543.018,87.954s-13.53,4.9-22.862,8.4c-9.565,3.5-24.028,10.265-28.927,11.9-4.666,1.866-25.895-3.033-26.128-7s15.63-8.865,22.162-15.863,16.563-25.428,19.6-24.028,14.93-5.132,18.663-3.266c3.733,1.633,18.9,26.594,17.5,29.86" transform="translate(471.067 -141.142)" fill="#7b763f"/>
      </g>
      <g id="Gruppe_8235" data-name="Gruppe 8235" transform="translate(148.834 349.986)" clip-path="url(#clip-path-2)">
        <path id="Pfad_10460" data-name="Pfad 10460" d="M533.553,68.6C493.661,76.765,508.591,84,468,87.5c10.264.233,24.961-1.166,33.826-6.532,4.9-3.033,10.264-4.9,15.63-7,5.132-1.866,10.5-3.733,16.1-5.366" transform="translate(474.934 -126.688)" fill="#7b763f"/>
      </g>
      <g id="Gruppe_8236" data-name="Gruppe 8236" transform="translate(148.834 349.986)" clip-path="url(#clip-path-2)">
        <path id="Pfad_10461" data-name="Pfad 10461" d="M492.8,71.5a1.587,1.587,0,0,1-1.866.933A109.167,109.167,0,0,0,476.7,68.7l2.1-2.8a116.693,116.693,0,0,1,13.3,3.5,2.352,2.352,0,0,1,.7,2.1" transform="translate(486.529 -130.286)" fill="#7b763f"/>
      </g>
      <g id="Gruppe_8237" data-name="Gruppe 8237" transform="translate(148.834 349.986)" clip-path="url(#clip-path-2)">
        <path id="Pfad_10462" data-name="Pfad 10462" d="M489.331,69.532a1.5,1.5,0,0,1-2.1.233,36.454,36.454,0,0,0-7.932-4.9,24.432,24.432,0,0,1,1.866-2.566,45.837,45.837,0,0,1,8.165,5.132,1.741,1.741,0,0,1,0,2.1" transform="translate(489.995 -135.085)" fill="#7b763f"/>
      </g>
      <g id="Gruppe_8238" data-name="Gruppe 8238" transform="translate(148.834 349.986)" clip-path="url(#clip-path-2)">
        <path id="Pfad_10463" data-name="Pfad 10463" d="M517.755-17.42s3.966,13.764,6.765,23.562,8.165,24.961,9.565,29.627c1.4,4.9-4.9,25.661-9.1,25.428-3.966,0-7.7-16.33-14-23.328-6.532-7.232-24.028-18.429-22.4-21.229s-3.733-15.4-1.866-18.9c1.866-3.733,27.994-16.8,31.027-15.163" transform="translate(499.363 -241.525)" fill="#7b763f"/>
      </g>
      <g id="Gruppe_8239" data-name="Gruppe 8239" transform="translate(148.834 349.986)" clip-path="url(#clip-path-2)">
        <path id="Pfad_10464" data-name="Pfad 10464" d="M497.6-15.2c4.9,40.358,13.53,26.128,13.764,66.953,1.166-10.264.933-24.961-3.733-34.059a77.384,77.384,0,0,1-5.6-16.1A163.049,163.049,0,0,1,497.6-15.2" transform="translate(514.386 -238.38)" fill="#7b763f"/>
      </g>
      <g id="Gruppe_8240" data-name="Gruppe 8240" transform="translate(148.834 349.986)" clip-path="url(#clip-path-2)">
        <path id="Pfad_10465" data-name="Pfad 10465" d="M500.032-2.7a1.536,1.536,0,0,1,.7,2.1,88.209,88.209,0,0,0-4.666,14c-.933-.7-1.633-1.4-2.566-2.1a79.106,79.106,0,0,1,4.666-13.064,1.264,1.264,0,0,1,1.866-.933" transform="translate(508.921 -221.957)" fill="#7b763f"/>
      </g>
      <g id="Gruppe_8241" data-name="Gruppe 8241" transform="translate(148.834 349.986)" clip-path="url(#clip-path-2)">
        <path id="Pfad_10466" data-name="Pfad 10466" d="M497.932-2.681a1.308,1.308,0,0,1,0,2.1,40.016,40.016,0,0,0-5.6,7.465A21.044,21.044,0,0,1,490,4.784a39.881,39.881,0,0,1,5.832-7.7,1.5,1.5,0,0,1,2.1.233" transform="translate(504.256 -222.438)" fill="#7b763f"/>
      </g>
      <g id="Gruppe_8242" data-name="Gruppe 8242" transform="translate(148.834 349.986)" clip-path="url(#clip-path-2)">
        <path id="Pfad_10467" data-name="Pfad 10467" d="M43.232,34.6l17.03,7.232s-1.633,13.53-2.8,23.562L34.6,58.862C43.232,50,43.232,34.6,43.232,34.6" transform="translate(-102.719 -172.004)" fill="#fcb477"/>
      </g>
      <g id="Gruppe_8243" data-name="Gruppe 8243" transform="translate(148.834 349.986)" clip-path="url(#clip-path-2)">
        <path id="Pfad_10468" data-name="Pfad 10468" d="M87.165,42l17.03,7.232s-1.633,13.53-2.8,23.562L78.3,66.262C87.165,57.4,87.165,42,87.165,42" transform="translate(-44.474 -162.141)" fill="#fcb477"/>
      </g>
      <g id="Gruppe_8244" data-name="Gruppe 8244" transform="translate(148.834 349.986)" clip-path="url(#clip-path-2)">
        <path id="Pfad_10469" data-name="Pfad 10469" d="M113.15-107.833,85.156-83.572S79.557,65.5,75.591,82.76,32.9,239.06,32.9,239.06l28.694,8.165s58.554-115.709,56.221-131.805c-2.1-15.863,48.056-164.465,48.056-164.465L115.716-108.3Z" transform="translate(-104.985 -362.467)" fill="#7b763f"/>
      </g>
      <g id="Gruppe_8245" data-name="Gruppe 8245" transform="translate(148.834 349.986)" clip-path="url(#clip-path-2)">
        <path id="Pfad_10470" data-name="Pfad 10470" d="M78.631-104.2,65.8-101.167l9.565,54.588S106.858,67.03,109.191,105.289c2.1,38.259-18.429,144.4-18.429,144.4l36.392,1.4s31.493-107.777,24.262-139.037,3.266-167.731,3.266-167.731V-94.169Z" transform="translate(-61.134 -357.002)" fill="#6c6331"/>
      </g>
      <g id="Gruppe_8246" data-name="Gruppe 8246" transform="translate(148.834 349.986)" clip-path="url(#clip-path-2)">
        <path id="Pfad_10471" data-name="Pfad 10471" d="M85.074,77.861s-12.6.233-21.462.233-22.862,1.4-27.294,1.4-20.529-10.265-19.6-13.53c.933-3.5,15.63-2.8,23.1-6.765s17.5-15.63,20.762-15.4c2.8.233,17.5,3.266,20.062,5.832,2.333,2.566,6.532,25.895,4.432,28.227" transform="translate(-126.599 -159.744)" fill="#333339"/>
      </g>
      <g id="Gruppe_8247" data-name="Gruppe 8247" transform="translate(148.834 349.986)" clip-path="url(#clip-path-2)">
        <path id="Pfad_10472" data-name="Pfad 10472" d="M19.7,52.3h0c3.5.933,9.565,8.632,18.663,11.2,7,2.1,35.926-2.1,48.29-3.966.467,4.2.233,7.7-.467,8.4,0,0-13.064.233-22.162.233C54.925,68.4,40.462,69.8,35.8,69.8S14.567,58.365,15.734,54.633C16.2,53.7,17.6,53,19.7,52.3" transform="translate(-127.943 -148.413)" fill="#838272"/>
      </g>
      <g id="Gruppe_8248" data-name="Gruppe 8248" transform="translate(148.834 349.986)" clip-path="url(#clip-path-2)">
        <path id="Pfad_10473" data-name="Pfad 10473" d="M110.7,50.148s-.7,12.364-.933,20.529c-.467,8.4,3.966,15.163-9.1,16.33-12.831,1.166-26.361-2.566-27.528-7.932s12.131-17.5,12.364-23.1c.233-5.366,3.966-7.465,6.065-5.6s19.129-.233,19.129-.233" transform="translate(-51.446 -151.86)" fill="#333339"/>
      </g>
      <g id="Gruppe_8249" data-name="Gruppe 8249" transform="translate(148.834 349.986)" clip-path="url(#clip-path-2)">
        <path id="Pfad_10474" data-name="Pfad 10474" d="M108.913,66.732c-2.333,2.333-5.6,2.566-8.865,2.566-7.465,0-23.562-1.166-26.828-7.7a7.017,7.017,0,0,0,1.866,5.132c8.631,9.8,32.426,8.4,33.826,0" transform="translate(-51.292 -136.018)" fill="#838272"/>
      </g>
      <g id="Gruppe_8250" data-name="Gruppe 8250" transform="translate(148.834 349.986)" clip-path="url(#clip-path-2)">
        <path id="Pfad_10475" data-name="Pfad 10475" d="M4.9,424.1a38.683,38.683,0,0,1,22.629,20.3c7.465,16.1,7.7,72.551,18.9,83.749,11.2,10.964,40.825,58.088,49.456,58.554,10.964.7,22.862-7.932,41.991-7.932s-10.5,4.9-16.1,6.765c-5.366,1.633-5.366,5.6-5.366,8.4,0,2.566,18.429-.233,15.4,2.566-2.8,2.8-31.493,7-46.657,1.4-15.4-5.6-61.587-58.554-69.052-70.685S4.9,424.1,4.9,424.1" transform="translate(-142.304 347.137)" fill="#faa05f"/>
      </g>
      <g id="Gruppe_8251" data-name="Gruppe 8251" transform="translate(148.834 349.986)" clip-path="url(#clip-path-2)">
        <path id="Pfad_10476" data-name="Pfad 10476" d="M7.3,433.8s-1.4-14.464,12.364-10.264c15.4,4.666,38.025,68.119,38.025,68.119L5.9,497.021A87.294,87.294,0,0,0-.629,469.96C-6.695,455.264,7.3,433.8,7.3,433.8" transform="translate(-151.705 345.367)" fill="#5c460c"/>
      </g>
      <g id="Gruppe_8252" data-name="Gruppe 8252" transform="translate(148.834 349.986)" clip-path="url(#clip-path-2)">
        <path id="Pfad_10477" data-name="Pfad 10477" d="M-24,435.757s22.629,20.762,32.193,23.795c10.964,3.033,43.857-3.966,43.857-3.966l-21-30.56L10.993,389.8c-.233,0-20.062,38.958-34.993,45.957" transform="translate(-180.823 301.42)" fill="#838272"/>
      </g>
      <g id="Gruppe_8253" data-name="Gruppe 8253" transform="translate(148.834 349.986)" clip-path="url(#clip-path-2)">
        <path id="Pfad_10478" data-name="Pfad 10478" d="M-1.306,441.055C-8.538,405.6,24.355,385.3,24.355,385.3s.467,52.256,24.728,57.854c-4.2,16.8-22.162,17.73-38.259,22.162-6.3-4.9-9.331-10.964-12.131-24.262" transform="translate(-151.961 295.423)" fill="#838272"/>
      </g>
      <g id="Gruppe_8254" data-name="Gruppe 8254" transform="translate(148.834 349.986)" clip-path="url(#clip-path-2)">
        <path id="Pfad_10479" data-name="Pfad 10479" d="M-10.379,564.015a8.659,8.659,0,0,1-4.9-8.632c1.633-13.064.933-33.593-.7-44.324-1.4-7.7-3.033-14.7-3.966-20.3-5.366-26.594-13.064-82.816,59.254-69.519,4.666.933,30.094,42.224,30.094,54.122,0,6.3-4.2,37.092-7.932,64.386,0,0-2.1,13.531-1.866,24.495,0,3.966-5.832,3.966-7.232,7.465-3.5,8.4-42.691,1.633-62.753-7.7" transform="translate(-179.748 340.66)" fill="#7b763f"/>
      </g>
      <g id="Gruppe_8255" data-name="Gruppe 8255" transform="translate(148.834 349.986)" clip-path="url(#clip-path-2)">
        <path id="Pfad_10480" data-name="Pfad 10480" d="M16.728,419.729C7.863,425.795-.535,421.6-7.3,411.564v-.233c.233-5.366.467-10.264.467-10.731l22.4,5.132c.467.467.7,6.765,1.166,14" transform="translate(-158.565 315.815)" fill="#faa05f"/>
      </g>
      <g id="Gruppe_8256" data-name="Gruppe 8256" transform="translate(148.834 349.986)" clip-path="url(#clip-path-2)">
        <path id="Pfad_10481" data-name="Pfad 10481" d="M381.729,396.707s22.162-1.166,30.094,19.6c7.7,20.762,6.765,63.92-3.733,76.051s-8.865,43.391-17.963,52.489-32.66,13.3-32.66-8.4c0,0,11.431,2.566,14.23-10.964,0,0-16.33,10.5-24.495-5.6-7.932-16.1,9.1-17.5,9.1-17.5s-8.4,10.964,1.866,8.632c10.031-2.333,15.863-11.431,15.863-23.1s-17.03-4.2-15.4-25.661c2.1-21,15.63-66.253,23.1-65.553" transform="translate(311.124 310.61)" fill="#674419"/>
      </g>
      <g id="Gruppe_8257" data-name="Gruppe 8257" transform="translate(148.834 349.986)" clip-path="url(#clip-path-2)">
        <path id="Pfad_10482" data-name="Pfad 10482" d="M355.593,427.7s2.8,42.691,3.733,90.281-19.129,80.483-29.394,87.248-53.189-1.4-53.189-1.4-2.1,2.333-6.065,6.3-8.632-2.566-9.565-5.132c-.7-2.566-4.666-10.731-2.566-11.431,2.333-.7,11.2-10.031,24.262-2.333,12.831,7.7,36.859-7.465,41.058-21.462,4.666-14.23,15.164-139.97,31.727-142.07" transform="translate(194.957 351.935)" fill="#faa05f"/>
      </g>
      <g id="Gruppe_8258" data-name="Gruppe 8258" transform="translate(148.834 349.986)" clip-path="url(#clip-path-2)">
        <path id="Pfad_10483" data-name="Pfad 10483" d="M312.028,521.5,288,519.635s15.164-83.982,25.895-94.713,7.7,99.146,7.7,99.146Z" transform="translate(235.023 347.248)" fill="#f8ae3d"/>
      </g>
      <g id="Gruppe_8259" data-name="Gruppe 8259" transform="translate(148.834 349.986)" clip-path="url(#clip-path-2)">
        <path id="Pfad_10484" data-name="Pfad 10484" d="M290.566,592.245c-.233-.467,7-103.345,8.632-120.375,1.633-17.263,14.23-47.357,29.86-52.256,10.264-3.266,42.924-.7,50.856,14.464,22.4,42.924,1.633,193.159,1.633,193.159-27.527,6.765-67.886,16.8-93.547,0,0-1.167,2.333-34.526,2.566-34.993" transform="translate(235.023 339.491)" fill="#fcd889"/>
      </g>
      <g id="Gruppe_8260" data-name="Gruppe 8260" transform="translate(148.834 349.986)" clip-path="url(#clip-path-2)">
        <path id="Pfad_10485" data-name="Pfad 10485" d="M442.469,438.7s-47.59,87.015-73.018,87.015-69.519-19.829-69.519-19.829L296.9,518.716s54.588,42.924,83.982,31.96c31.26-11.664,72.085-36.626,72.085-36.626Z" transform="translate(246.885 366.596)" fill="#faa05f"/>
      </g>
      <g id="Gruppe_8261" data-name="Gruppe 8261" transform="translate(148.834 349.986)" clip-path="url(#clip-path-2)">
        <path id="Pfad_10486" data-name="Pfad 10486" d="M263.618,609.125c1.166-1.166,17.5-2.1,17.5-2.1h0c10.5-1.633,45.957-34.06,56.221-47.357,7.7-9.8,14.7-56.688,26.361-86.548,11.9-29.86,27.527-41.058,31.493-42.458,11.9-3.966,24.262-.933,28.461,18.9C427.617,469.622,376.061,568.3,364.4,582.3c-8.865,10.731-57.854,41.991-80.95,42.458l-5.6,2.1a2.121,2.121,0,0,0-.467,3.732s-8.865.933-8.865-1.166-1.166-.7-2.333-1.866a10.051,10.051,0,0,1-1.866-3.5s.467-1.866-2.8-3.732c-3.266-1.4.7-10.031,2.1-11.2" transform="translate(198.051 353.871)" fill="#fcb477"/>
      </g>
      <g id="Gruppe_8262" data-name="Gruppe 8262" transform="translate(148.834 349.986)" clip-path="url(#clip-path-2)">
        <path id="Pfad_10487" data-name="Pfad 10487" d="M353.822,423.04s-12.364-2.8-23.8,10.5S299,507.722,299,507.722l48.057,31.027s26.361-58.554,26.361-81.649c.233-23.1-13.53-34.059-19.6-34.059" transform="translate(249.684 345.397)" fill="#f8ae3d"/>
      </g>
      <g id="Gruppe_8263" data-name="Gruppe 8263" transform="translate(148.834 349.986)" clip-path="url(#clip-path-2)">
        <path id="Pfad_10488" data-name="Pfad 10488" d="M308.763,380.539s-12.131,16.8-13.764,27.994c-1.633,11.664-3.5,30.094-3.5,30.094l5.132-.233s4.432,10.031,4.666,17.03c.233,6.765,10.964,2.333,17.03,2.1,6.3-.233,20.062-5.832,24.961-25.661,5.132-19.6,14.23-54.822-34.526-51.322" transform="translate(239.688 288.753)" fill="#fcb477"/>
      </g>
      <g id="Gruppe_8264" data-name="Gruppe 8264" transform="translate(148.834 349.986)" clip-path="url(#clip-path-2)">
        <path id="Pfad_10489" data-name="Pfad 10489" d="M338.093,445.123c3.966,8.632-4.432,10.031-13.3,13.064-6.065,2.1-12.131,3.733-15.163,4.666a1.636,1.636,0,0,1-2.1-1.633,176.718,176.718,0,0,0-2.1-20.762c-.7-4.432-1.166-8.631-1.633-10.964,1.167-3.266,10.731-28.694,10.031-27.061h0L315.7,397.3Z" transform="translate(256.081 311.417)" fill="#fcb477"/>
      </g>
      <g id="Gruppe_8265" data-name="Gruppe 8265" transform="translate(148.834 349.986)" clip-path="url(#clip-path-2)">
        <path id="Pfad_10490" data-name="Pfad 10490" d="M293.248,379.431c-.467.933-10.031,21.229,7.232,28.461s21.229-3.966,25.895,2.8-3.5,17.963.233,24.028l5.6.933s1.166-3.5,3.266-3.5c2.333,0,3.266,17.263,7,17.03,3.733,0,10.5-14.93,13.764-21.929s9.8-30.094-3.5-35.693-18.9-.933-18.9-6.765c-.233-5.6-5.6.467-5.6.467s-3.266-4.2-1.4-9.1-14-6.3-17.5,3.5c-3.266,10.264-10.031-10.731-16.1-.233" transform="translate(237.939 278.196)" fill="#333339"/>
      </g>
      <g id="Gruppe_8266" data-name="Gruppe 8266" transform="translate(148.834 349.986)" clip-path="url(#clip-path-2)">
        <path id="Pfad_10491" data-name="Pfad 10491" d="M307.6,399.238s0,11.2,2.8,11.2,8.4-6.532,7.232-13.3-9.1-5.6-10.031,2.1" transform="translate(261.146 305.28)" fill="#fcb477"/>
      </g>
      <g id="Gruppe_8267" data-name="Gruppe 8267" transform="translate(148.834 349.986)" clip-path="url(#clip-path-2)">
        <path id="Pfad_10492" data-name="Pfad 10492" d="M308.585,396.361s-1.166,4.432.933,6.532c2.1,1.866,5.832-3.033,3.733-6.532-2.566-3.733-4.432-2.566-4.666,0" transform="translate(262.028 306.99)" fill="#faa05f"/>
      </g>
      <g id="Gruppe_8268" data-name="Gruppe 8268" transform="translate(148.834 349.986)" clip-path="url(#clip-path-2)">
        <path id="Pfad_10493" data-name="Pfad 10493" d="M316.631,429.36c-1.633,1.866-7.7,5.832-11.2,8.4-.7-6.065-1.633-10.964-1.633-10.964s3.266,2.566,10.031-27.294v.233h0c.467,2.333,5.132,27.061,2.8,29.627" transform="translate(256.081 314.349)" fill="#faa05f"/>
      </g>
      <g id="Gruppe_8269" data-name="Gruppe 8269" transform="translate(148.834 349.986)" clip-path="url(#clip-path-2)">
        <path id="Pfad_10494" data-name="Pfad 10494" d="M295.8,425.561a59.851,59.851,0,0,0-.7,7c0,2.566,6.532,5.132,12.131,3.5,5.6-1.866,13.53-5.6,15.4-7.7,1.866-1.866,2.8-28.227,2.8-28.227l-5.132-.933s-2.1,17.03-4.2,19.363c-2.1,2.1-20.3,7-20.3,7" transform="translate(244.486 313.949)" fill="#333339"/>
      </g>
      <g id="Gruppe_8270" data-name="Gruppe 8270" transform="translate(148.834 349.986)" clip-path="url(#clip-path-2)">
        <path id="Pfad_10495" data-name="Pfad 10495" d="M371.97,441.636s9.331-4.9,18.663-5.132c10.264-.233,31.727,6.765,32.426,7.465,1.4,1.4,1.4,41.991,1.4,41.991s-12.131,57.154,19.829,95.88c0,0-47.823,48.29-82.349,33.36,0,0,6.065-84.682-9.565-111.743-6.3-10.964,0-27.294,7.465-40.825,7.7-13.764,12.131-21,12.131-21" transform="translate(317.384 363.661)" fill="#e33e21"/>
      </g>
      <g id="Gruppe_8271" data-name="Gruppe 8271" transform="translate(148.834 349.986)" clip-path="url(#clip-path-2)">
        <path id="Pfad_10496" data-name="Pfad 10496" d="M489.193,452.205s-8.865-16.8-29.627-10.5-33.593,68.819-44.557,78.15c-11.2,9.331-89.581,31.96-91.447,32.66s-18.429.233-20.762,1.167.933,4.666,0,7a7.88,7.88,0,0,0-.467,6.065c.933,2.333,2.333,3.733,3.266,6.3s18.9,1.633,24.495-4.666,72.085-10.5,87.481-18.429c15.63-7.932,76.051-86.082,71.618-97.746" transform="translate(253.583 368.721)" fill="#fcb477"/>
      </g>
      <g id="Gruppe_8272" data-name="Gruppe 8272" transform="translate(148.834 349.986)" clip-path="url(#clip-path-2)">
        <path id="Pfad_10497" data-name="Pfad 10497" d="M355.2,430.364s14.7,40.825,11.664,43.857,21.7-.933,23.328-12.831L375.962,418Z" transform="translate(324.589 339.006)" fill="#fcb477"/>
      </g>
      <g id="Gruppe_8273" data-name="Gruppe 8273" transform="translate(148.834 349.986)" clip-path="url(#clip-path-2)">
        <path id="Pfad_10498" data-name="Pfad 10498" d="M375.962,418,355.2,430.6a50.847,50.847,0,0,0,2.333,6.3c7.232-2.1,18.9-6.065,21.462-10.265Z" transform="translate(324.589 339.006)" fill="#faa05f"/>
      </g>
      <g id="Gruppe_8274" data-name="Gruppe 8274" transform="translate(148.834 349.986)" clip-path="url(#clip-path-2)">
        <path id="Pfad_10499" data-name="Pfad 10499" d="M383.625,411.064l-31.493,17.263s-6.532.233-6.532-7.232c0-7.232,7.932-14.464,16.1-18.663s18.429-5.832,18.429-5.832Z" transform="translate(311.794 310.484)" fill="#674419"/>
      </g>
      <g id="Gruppe_8275" data-name="Gruppe 8275" transform="translate(148.834 349.986)" clip-path="url(#clip-path-2)">
        <path id="Pfad_10500" data-name="Pfad 10500" d="M373.6,399.4s-12.131,2.1-15.4,7.932-4.2,19.6-7.465,22.862a14.726,14.726,0,0,1-6.065,3.966s-.933,1.4,2.333,3.033.7,3.5-1.166,3.5c-2.1,0-.233,3.966,1.166,4.2,0,0-2.1.7-1.633,2.566a3.446,3.446,0,0,0,1.4,2.333,15.009,15.009,0,0,1-.933,4.9c-.933,2.333,1.4,9.331,17.5,6.3,0,0,23.562-5.6,25.195-12.131s11.9-31.027,3.033-39.892c-9.1-9.1-17.963-9.565-17.963-9.565" transform="translate(310.391 314.216)" fill="#fcb477"/>
      </g>
      <g id="Gruppe_8276" data-name="Gruppe 8276" transform="translate(148.834 349.986)" clip-path="url(#clip-path-2)">
        <path id="Pfad_10501" data-name="Pfad 10501" d="M383.459,397.043s-4.2-2.566-19.129,1.633-18.429,19.6-18.429,19.6,9.565-6.532,15.63-6.532,19.6-2.333,21.929-4.432c2.1-2.333,0-10.265,0-10.265" transform="translate(312.194 310.04)" fill="#855539"/>
      </g>
      <g id="Gruppe_8277" data-name="Gruppe 8277" transform="translate(148.834 349.986)" clip-path="url(#clip-path-2)">
        <path id="Pfad_10502" data-name="Pfad 10502" d="M368.267,396.3c-2.1,0-15.63,14-11.9,25.195,3.5,11.2,12.131,6.065,17.263,9.1,5.366,3.033-.933,16.8,0,22.162.933,5.6,15.863,37.325,15.863,37.325s12.6-67.186,4.9-79.783c-7.7-12.131-26.128-14-26.128-14" transform="translate(325.286 310.084)" fill="#855539"/>
      </g>
      <g id="Gruppe_8278" data-name="Gruppe 8278" transform="translate(148.834 349.986)" clip-path="url(#clip-path-2)">
        <path id="Pfad_10503" data-name="Pfad 10503" d="M366.718,433.66s-10.731,4.2-2.1,27.294c10.5,28.227,38.259,38.025,24.728,51.556s-11.9,70.918,36.859,57.621c0,0-26.361-2.8-20.529-18.429s27.994,1.166,27.994-16.563-10.264-9.331-14.23-29.627,7.465-10.964,4.432-31.727S387.014,402.4,387.014,402.4Z" transform="translate(332.667 318.214)" fill="#855539"/>
      </g>
      <g id="Gruppe_8279" data-name="Gruppe 8279" transform="translate(148.834 349.986)" clip-path="url(#clip-path-2)">
        <path id="Pfad_10504" data-name="Pfad 10504" d="M15.71,405.6c.933.933,1.166,30.327,5.132,38.259,0,0,10.964,41.758,3.5,42.691-6.532.7-29.86-33.593-31.027-39.425-1.633-7.7,0-46.424,0-46.424Z" transform="translate(-158.713 315.948)" fill="#fcb477"/>
      </g>
      <g id="Gruppe_8280" data-name="Gruppe 8280" transform="translate(148.834 349.986)" clip-path="url(#clip-path-2)">
        <path id="Pfad_10505" data-name="Pfad 10505" d="M17.7,375.884s11.664,2.333,13.064,12.6c1.166,9.331,3.033,17.263,1.866,27.761a33.191,33.191,0,0,0-8.165-3.966C11.631,408.077.2,382.649-.267,381.483l-.233-.467v-.467a6.89,6.89,0,0,1,.467-3.033c8.165-3.5,17.73-1.633,17.73-1.633" transform="translate(-149.502 282.21)" fill="#faa05f"/>
      </g>
      <g id="Gruppe_8281" data-name="Gruppe 8281" transform="translate(148.834 349.986)" clip-path="url(#clip-path-2)">
        <path id="Pfad_10506" data-name="Pfad 10506" d="M15.662,417.9C7.5,423.5-.2,419.529-6.5,410.431V410.2c.233-4.9.467-9.565.467-9.8L14.5,405.066c.467.233.7,6.066,1.166,12.831" transform="translate(-157.499 315.548)" fill="#faa05f"/>
      </g>
      <g id="Gruppe_8282" data-name="Gruppe 8282" transform="translate(148.834 349.986)" clip-path="url(#clip-path-2)">
        <path id="Pfad_10507" data-name="Pfad 10507" d="M16.309,374.3s12.6,0,16.1,10.031,7.232,18.2,7.465,30.327c.233,12.364-3.733,29.627-15.163,34.526s-27.761-12.131-29.86-22.629S-15.184,399.261-9.119,386.9c6.3-12.364,25.428-12.6,25.428-12.6" transform="translate(-163.978 280.761)" fill="#fcb477"/>
      </g>
      <g id="Gruppe_8283" data-name="Gruppe 8283" transform="translate(148.834 349.986)" clip-path="url(#clip-path-2)">
        <path id="Pfad_10508" data-name="Pfad 10508" d="M-8.8,411.193C-7.87,393,8.46,375.034,25.956,372.7c14.7-1.866,24.961,11.664,24.961,12.131-.933.233-9.8-1.866-21.929,10.265-5.6,11.9.467,17.03-8.865,18.663a7.474,7.474,0,0,1-4.666-.233c-1.4,18.9,0,24.728,15.163,59.954a39.052,39.052,0,0,1-11.431,1.866c-.467-6.3-4.9-17.03-4.9-17.03,1.633,6.065-.233,12.364-2.333,17.03A46.423,46.423,0,0,1-.872,472.78c3.033-9.331,1.4-24.961,1.4-24.961-.7,12.131-5.366,18.2-10.031,21.462a48.932,48.932,0,0,1-14.7-10.731c14.7-9.565,14.464-29.394,15.4-47.357" transform="translate(-181.09 278.395)" fill="#d3d6d1"/>
      </g>
      <g id="Gruppe_8284" data-name="Gruppe 8284" transform="translate(148.834 349.986)" clip-path="url(#clip-path-2)">
        <path id="Pfad_10509" data-name="Pfad 10509" d="M1.946,374.255s10.031-2.8,19.363,2.1c9.565,4.9,15.863,33.826,11.9,39.425-3.733,5.6,15.4,4.432,4.666,7.465-10.964,3.266-45.49-45.024-35.926-48.99" transform="translate(-148.448 279.64)" fill="#bfb4af"/>
      </g>
      <g id="Gruppe_8285" data-name="Gruppe 8285" transform="translate(148.834 349.986)" clip-path="url(#clip-path-2)">
        <path id="Pfad_10510" data-name="Pfad 10510" d="M472.887,154.034c8.632-5.366,17.5,2.8,29.394,19.829s33.126,25.428,39.425,46.19-16.1,38.725-30.56,20.529c-14.464-18.429-37.325-58.554-40.825-72.085s2.566-14.464,2.566-14.464" transform="translate(476.578 -14.996)" fill="#d3d6d1"/>
      </g>
      <g id="Gruppe_8286" data-name="Gruppe 8286" transform="translate(148.834 349.986)" clip-path="url(#clip-path-2)">
        <path id="Pfad_10511" data-name="Pfad 10511" d="M501.049,137.482l-.933,1.166-17.5,2.333a17.8,17.8,0,0,1-1.866-6.065h0v-.467l-1.633-12.831h0a2.3,2.3,0,0,1,2.1-2.8h0a2.461,2.461,0,0,1,2.8,2.333v-.233l.233.233.233-.233-.233-1.633a2.461,2.461,0,0,1,2.333-2.8,2.586,2.586,0,0,1,2.8,2.333v.467l.233.233.233-.233-.233-1.166a2.474,2.474,0,1,1,4.9-.7l.233,1.633.233.233.233-.233v-.7a2.474,2.474,0,1,1,4.9-.7l1.4,10.5.233,7.232a2.112,2.112,0,0,1-.7,2.1" transform="translate(489.708 -64.464)" fill="#eb9c6a"/>
      </g>
      <g id="Gruppe_8287" data-name="Gruppe 8287" transform="translate(148.834 349.986)" clip-path="url(#clip-path-2)">
        <path id="Pfad_10512" data-name="Pfad 10512" d="M481.353,116.62h0a2.739,2.739,0,0,0-2.333,3.266l.7,5.832a2.838,2.838,0,0,0,5.6-.933l-.7-5.832a2.985,2.985,0,0,0-3.266-2.333" transform="translate(489.575 -62.732)" fill="#eb9c6a"/>
      </g>
      <g id="Gruppe_8288" data-name="Gruppe 8288" transform="translate(148.834 349.986)" clip-path="url(#clip-path-2)">
        <path id="Pfad_10513" data-name="Pfad 10513" d="M485.75,114.217h0a2.809,2.809,0,0,0-2.333,3.033l1.166,9.8a2.706,2.706,0,0,0,5.366-.7l-1.166-9.8a2.674,2.674,0,0,0-3.033-2.333" transform="translate(495.442 -65.927)" fill="#eb9c6a"/>
      </g>
      <g id="Gruppe_8289" data-name="Gruppe 8289" transform="translate(148.834 349.986)" clip-path="url(#clip-path-2)">
        <path id="Pfad_10514" data-name="Pfad 10514" d="M483.45,114.817h0a2.809,2.809,0,0,0-2.333,3.033l1.166,9.8a2.705,2.705,0,1,0,5.365-.7l-1.166-9.8a2.555,2.555,0,0,0-3.033-2.333" transform="translate(492.377 -65.128)" fill="#eb9c6a"/>
      </g>
      <g id="Gruppe_8290" data-name="Gruppe 8290" transform="translate(148.834 349.986)" clip-path="url(#clip-path-2)">
        <path id="Pfad_10515" data-name="Pfad 10515" d="M488.05,114.317h0a2.809,2.809,0,0,0-2.333,3.033l1.166,8.865a2.706,2.706,0,0,0,5.366-.7l-1.166-8.865a2.555,2.555,0,0,0-3.033-2.333" transform="translate(498.508 -65.794)" fill="#eb9c6a"/>
      </g>
      <g id="Gruppe_8291" data-name="Gruppe 8291" transform="translate(148.834 349.986)" clip-path="url(#clip-path-2)">
        <path id="Pfad_10516" data-name="Pfad 10516" d="M464.8,117.333l15.163,37.792,2.1-.7,2.566-4.2L471.8,117.566l-4.9-1.166Z" transform="translate(470.669 -62.978)" fill="#5b3f00"/>
      </g>
      <g id="Gruppe_8292" data-name="Gruppe 8292" transform="translate(148.834 349.986)" clip-path="url(#clip-path-2)">
        <path id="Pfad_10517" data-name="Pfad 10517" d="M523.789,145.624c8.165,6.532,17.5,8.865,25.661,5.6a18.909,18.909,0,0,0,4.2-2.333l.933-.7-2.566-6.765c.466-.233.7-.467,1.166-.7l-13.764-34.293a10.1,10.1,0,0,0-1.166.233L535.687,99.9l-1.167.233a24.608,24.608,0,0,0-4.432,1.166c-7.932,3.266-13.3,11.2-14.7,21.7a33.1,33.1,0,0,0-4.666,11.664l-27.061,10.964-2.8-6.765-1.633.7-1.866-4.9-3.266,1.4,11.431,28.461,3.266-1.4-1.866-4.9,1.633-.7-2.8-6.765,27.061-10.964a20.1,20.1,0,0,0,10.964,5.832m26.594,1.4a10.9,10.9,0,0,1-2.333,1.166c-5.365,2.1-11.431,1.4-17.263-1.633a39.527,39.527,0,0,0,16.8-3.033c.467-.233.7-.233,1.166-.467Zm-19.6-42.224a8.268,8.268,0,0,1,2.566-.7l1.633,3.966c-.467.233-.7.233-1.167.467a44.355,44.355,0,0,0-14.23,9.331c2.1-6.3,5.832-10.964,11.2-13.064" transform="translate(483.064 -84.97)" fill="#fbce0f"/>
      </g>
      <g id="Gruppe_8293" data-name="Gruppe 8293" transform="translate(148.834 349.986)" clip-path="url(#clip-path-2)">
        <path id="Pfad_10518" data-name="Pfad 10518" d="M520.724,132.162c8.165,6.532,17.5,8.865,25.661,5.6a18.911,18.911,0,0,0,4.2-2.333l.933-.7-2.566-6.765c.467-.233.7-.467,1.166-.7L543.353,110,476.4,136.828l5.6,14.23,3.266-1.4-1.866-4.9,1.633-.7-2.566-6.765,27.061-10.964a21.645,21.645,0,0,0,11.2,5.832m24.028-2.1c.467-.233.7-.233,1.167-.467l1.633,3.966a10.893,10.893,0,0,1-2.333,1.166c-5.365,2.1-11.431,1.4-17.263-1.633a43.465,43.465,0,0,0,16.8-3.033" transform="translate(486.13 -71.508)" fill="#edad05"/>
      </g>
      <g id="Gruppe_8294" data-name="Gruppe 8294" transform="matrix(0.929, -0.37, 0.37, 0.929, 191.336, 708.357)" clip-path="url(#clip-path-2)">
        <rect id="Rechteck_1709" data-name="Rechteck 1709" width="16.097" height="37.092" transform="translate(947.133 49.923)" fill="#8e6005"/>
      </g>
      <g id="Gruppe_8295" data-name="Gruppe 8295" transform="matrix(0.929, -0.37, 0.37, 0.929, 191.398, 708.468)" clip-path="url(#clip-path-2)">
        <rect id="Rechteck_1711" data-name="Rechteck 1711" width="7.232" height="22.629" transform="translate(951.799 57.155)" fill="#ceb969"/>
      </g>
      <g id="Gruppe_8296" data-name="Gruppe 8296" transform="translate(148.834 349.986)" clip-path="url(#clip-path-2)">
        <path id="Pfad_10519" data-name="Pfad 10519" d="M481.433,116.417h0a2.849,2.849,0,0,0-2.333,3.033l.7,5.366a2.705,2.705,0,1,0,5.366-.7l-.7-5.366a2.809,2.809,0,0,0-3.033-2.333" transform="translate(489.728 -62.995)" fill="#fcb477"/>
      </g>
      <g id="Gruppe_8297" data-name="Gruppe 8297" transform="translate(148.834 349.986)" clip-path="url(#clip-path-2)">
        <path id="Pfad_10520" data-name="Pfad 10520" d="M485.82,114.12h0a2.41,2.41,0,0,0-2.1,2.8l1.167,9.331a2.474,2.474,0,1,0,4.9-.7l-1.166-9.331a2.3,2.3,0,0,0-2.8-2.1" transform="translate(495.839 -66.064)" fill="#fcb477"/>
      </g>
      <g id="Gruppe_8298" data-name="Gruppe 8298" transform="translate(148.834 349.986)" clip-path="url(#clip-path-2)">
        <path id="Pfad_10521" data-name="Pfad 10521" d="M483.633,114.617h0a2.849,2.849,0,0,0-2.333,3.033l1.166,9.331a2.706,2.706,0,0,0,5.366-.7l-1.166-9.331a2.809,2.809,0,0,0-3.033-2.333" transform="translate(492.66 -65.394)" fill="#fcb477"/>
      </g>
      <g id="Gruppe_8299" data-name="Gruppe 8299" transform="translate(148.834 349.986)" clip-path="url(#clip-path-2)">
        <path id="Pfad_10522" data-name="Pfad 10522" d="M488.233,114.117h0a2.771,2.771,0,0,0-2.333,2.8l1.166,8.4a2.577,2.577,0,1,0,5.132-.467l-1.166-8.4a2.354,2.354,0,0,0-2.8-2.333" transform="translate(498.792 -66.061)" fill="#fcb477"/>
      </g>
      <g id="Gruppe_8300" data-name="Gruppe 8300" transform="translate(148.834 349.986)" clip-path="url(#clip-path-2)">
        <path id="Pfad_10523" data-name="Pfad 10523" d="M478.4,158.1,498.929,134.3a42.608,42.608,0,0,0,3.033-3.733,4.7,4.7,0,0,0,.7-2.566c0-2.566-.233-7.7-.233-7.7-5.365-.233-10.731,4.2-10.264,7.232-.467-3.033-10.731.467-10.731.467h0a35.593,35.593,0,0,0,1.866,6.065Z" transform="translate(488.795 -57.785)" fill="#fcb477"/>
      </g>
      <g id="Gruppe_8301" data-name="Gruppe 8301" transform="translate(148.834 349.986)" clip-path="url(#clip-path-2)">
        <path id="Pfad_10524" data-name="Pfad 10524" d="M495.083,121.285h0a2.6,2.6,0,0,0-3.733.233l-3.966,4.666a2.644,2.644,0,1,0,3.966,3.5l3.966-4.666a2.617,2.617,0,0,0-.233-3.733" transform="translate(499.873 -57.365)" fill="#fcb477"/>
      </g>
      <g id="Gruppe_8302" data-name="Gruppe 8302" transform="translate(148.834 349.986)" clip-path="url(#clip-path-2)">
        <path id="Pfad_10525" data-name="Pfad 10525" d="M490.483,117.317h0a2.9,2.9,0,0,0-2.566,3.266l.933,6.765a2.937,2.937,0,1,0,5.832-.7l-.933-6.765a2.9,2.9,0,0,0-3.266-2.566" transform="translate(501.44 -61.795)" fill="#fcb477"/>
      </g>
      <g id="Gruppe_8303" data-name="Gruppe 8303" transform="translate(148.834 349.986)" clip-path="url(#clip-path-2)">
        <path id="Pfad_10526" data-name="Pfad 10526" d="M496.324,124.437a3.314,3.314,0,0,0-1.633-4.666,19.279,19.279,0,0,1-3.033-1.633l-3.266-2.1a2.13,2.13,0,0,0-2.566.467,4.151,4.151,0,0,0,1.4,5.6l3.733,3.033c1.633,1.633-.467-1.866.467-3.733Z" transform="translate(497.933 -63.783)" fill="#fcb477"/>
      </g>
      <g id="Gruppe_8304" data-name="Gruppe 8304" transform="translate(148.834 349.986)" clip-path="url(#clip-path-2)">
        <path id="Pfad_10527" data-name="Pfad 10527" d="M496.524,124.137a3.314,3.314,0,0,0-1.633-4.666,19.286,19.286,0,0,1-3.033-1.633l-3.266-2.1a2.13,2.13,0,0,0-2.566.467,4.151,4.151,0,0,0,1.4,5.6l3.733,3.033a3.426,3.426,0,0,0,5.365-.7" transform="translate(498.199 -64.183)" fill="#fcb477"/>
      </g>
      <g id="Gruppe_8305" data-name="Gruppe 8305" transform="translate(148.834 349.986)" clip-path="url(#clip-path-2)">
        <path id="Pfad_10528" data-name="Pfad 10528" d="M508.286,130.366c-7.232,26.828-8.165,58.088-16.8,70.918-9.565,14-19.829,7-22.162-1.166-2.1-7.232,10.964-48.057,25.895-73.718Z" transform="translate(476.406 -49.65)" fill="#d3d6d1"/>
      </g>
      <g id="Gruppe_8306" data-name="Gruppe 8306" transform="translate(148.834 349.986)" clip-path="url(#clip-path-2)">
        <path id="Pfad_10529" data-name="Pfad 10529" d="M512.558,355.5c8.4,1.166,16.563,1.633,17.5,3.966.7,2.333,1.866,17.03,1.866,17.03H514.658l-2.566-1.866L498.561,376.5H471.5v-4.2s22.862-5.832,26.594-8.165c4.666-2.8,14.464-8.632,14.464-8.632" transform="translate(479.599 255.704)" fill="#00443b"/>
      </g>
      <g id="Gruppe_8307" data-name="Gruppe 8307" transform="translate(148.834 349.986)" clip-path="url(#clip-path-2)">
        <path id="Pfad_10530" data-name="Pfad 10530" d="M540.758,356.2c8.4,1.166,16.563,1.633,17.5,3.966.7,2.333,1.866,17.03,1.866,17.03H542.858l-2.566-1.866-13.53,1.866H499.7V373s22.862-5.832,26.594-8.165c4.666-2.8,14.464-8.631,14.464-8.631" transform="translate(517.185 256.637)" fill="#00443b"/>
      </g>
      <g id="Gruppe_8308" data-name="Gruppe 8308" transform="translate(148.834 349.986)" clip-path="url(#clip-path-2)">
        <path id="Pfad_10531" data-name="Pfad 10531" d="M520.868,390.943c3.5-46.424,23.1-116.875,5.832-138.1-17.5-21.462-25.428-15.863-25.428-15.863-35.459,5.366-17.03,126.44-14,152.568v2.8c2.8,31.727,3.5,125.507,3.5,125.507l28.461.233s-.467-49.689,1.866-69.752c1.166-10.264,2.1-30.793,0-45.257V390.943Z" transform="translate(490.651 96.853)" fill="#787879"/>
      </g>
      <g id="Gruppe_8309" data-name="Gruppe 8309" transform="translate(148.834 349.986)" clip-path="url(#clip-path-2)">
        <path id="Pfad_10532" data-name="Pfad 10532" d="M537.759,152.3,512.1,153.466l-9.8,61.82,24.961,3.966Z" transform="translate(520.65 -15.129)" fill="#fcb477"/>
      </g>
      <g id="Gruppe_8310" data-name="Gruppe 8310" transform="translate(148.834 349.986)" clip-path="url(#clip-path-2)">
        <path id="Pfad_10533" data-name="Pfad 10533" d="M572.242,529.037s-7.232-51.789-7.232-72.085c0-13.3-3.966-33.593-4.432-49.689,0,0-2.8-26.128-2.8-26.594,4.666-44.324-4.432-95.88-10.964-119.675C539.583,234.4,515.788,229.5,515.788,229.5c-14.23,4.2-24.961,8.4-25.428,26.128-.467,18.9-4.666,28.927,6.532,52.022,19.129,39.658,20.3,55.988,22.4,65.086.467,2.566,6.532,46.19,7.465,48.523,2.566,23.8,16.33,110.81,16.33,110.81Z" transform="translate(503.197 87.766)" fill="#a0a0a0"/>
      </g>
      <g id="Gruppe_8311" data-name="Gruppe 8311" transform="translate(148.834 349.986)" clip-path="url(#clip-path-2)">
        <path id="Pfad_10534" data-name="Pfad 10534" d="M539.522,178.914c-16.563-1.166-6.065-3.733-9.1-3.733-24.262-1.4-30.56,7.465-36.159,28.694-6.065,22.862,1.866,26.594-2.566,51.089a650.079,650.079,0,0,0-8.4,73.718,249.784,249.784,0,0,0,43.624,7.7c15.163,1.166,24.028,1.4,28.927,0,0-3.733.933-9.565,2.566-16.1,7.232-30.56,31.493-93.547,31.96-109.177.7-20.3-20.062-28.694-35.693-32.66-4.666-1.4-10.964.933-15.163.467" transform="translate(495.326 15.178)" fill="#d3d6d1"/>
      </g>
      <g id="Gruppe_8312" data-name="Gruppe 8312" transform="translate(148.834 349.986)" clip-path="url(#clip-path-2)">
        <path id="Pfad_10535" data-name="Pfad 10535" d="M619.634,185.291c-2.566-10.031-17.5-9.331-38.025-5.132-20.3,4.2-36.859.7-55.755,11.2s-22.629,22.629,6.3,29.86c22.629,5.832,67.419-16.563,79.083-24.028,12.131-7.232,8.4-11.9,8.4-11.9" transform="translate(532.322 18.133)" fill="#d3d6d1"/>
      </g>
      <g id="Gruppe_8313" data-name="Gruppe 8313" transform="translate(148.834 349.986)" clip-path="url(#clip-path-2)">
        <path id="Pfad_10536" data-name="Pfad 10536" d="M603.178,155.744c-15.164,20.529-47.357,47.59-52.722,61.12s4.9,17.5,11.664,15.163,41.758-48.056,50.156-71.851c8.865-23.795-9.1-4.432-9.1-4.432" transform="translate(582.838 -20.44)" fill="#d3d6d1"/>
      </g>
      <g id="Gruppe_8314" data-name="Gruppe 8314" transform="translate(148.834 349.986)" clip-path="url(#clip-path-2)">
        <path id="Pfad_10537" data-name="Pfad 10537" d="M599.95,153.3c-24.961,26.128-45.724,45.957-50.156,56.921-5.365,13.53,6.065,19.6,12.831,17.263,5.6-1.866,32.193-30.794,49.923-68.119Z" transform="translate(582.1 -13.796)" fill="#d3d6d1"/>
      </g>
      <g id="Gruppe_8315" data-name="Gruppe 8315" transform="translate(148.834 349.986)" clip-path="url(#clip-path-2)">
        <path id="Pfad_10538" data-name="Pfad 10538" d="M526.159,180.9l-3.966,3.266S492.1,224.991,490.7,287.977l9.1,14.7,12.831-8.4c-5.6-51.322,15.164-110.11,15.164-110.11Z" transform="translate(505.189 22.99)" fill="#a1c710"/>
      </g>
      <g id="Gruppe_8316" data-name="Gruppe 8316" transform="translate(148.834 349.986)" clip-path="url(#clip-path-2)">
        <path id="Pfad_10539" data-name="Pfad 10539" d="M503.9,178.366l.467,11.431,5.6,2.1,7.465-11.431-6.3-3.266Z" transform="translate(522.783 18.059)" fill="#a1c710"/>
      </g>
      <g id="Gruppe_8317" data-name="Gruppe 8317" transform="translate(148.834 349.986)" clip-path="url(#clip-path-2)">
        <path id="Pfad_10540" data-name="Pfad 10540" d="M500.984,179.865a21.593,21.593,0,0,1,8.865-7.465s2.1,9.331,9.8,8.865c7.932-.467,15.163-6.532,15.163-6.532s3.266,4.9,3.266,10.264c0,5.6-10.964,13.3-10.964,13.3s-4.432-13.53-14.23-14.7c-10.031-1.166-13.764,8.865-13.764,8.865s-2.1-7,1.866-12.6" transform="translate(515.668 11.661)" fill="#fff"/>
      </g>
      <g id="Gruppe_8318" data-name="Gruppe 8318" transform="translate(148.834 349.986)" clip-path="url(#clip-path-2)">
        <path id="Pfad_10541" data-name="Pfad 10541" d="M516.6,143.3c-14.464,7.7-14,33.36-14,33.36l26.361-23.795Z" transform="translate(521.049 -27.125)" fill="#69615b"/>
      </g>
      <g id="Gruppe_8319" data-name="Gruppe 8319" transform="translate(148.834 349.986)" clip-path="url(#clip-path-2)">
        <path id="Pfad_10542" data-name="Pfad 10542" d="M551.634,156.565c-10.264-17.5-21.7-15.63-32.66-4.9s-25.895,33.826-19.363,41.525c6.532,7.932,23.562,11.664,34.526.7,3.266-3.266,7.932-6.065,10.964-9.8,7-9.331,10.5-20.529,6.532-27.528" transform="translate(514.94 -26.859)" fill="#fcb477"/>
      </g>
      <g id="Gruppe_8320" data-name="Gruppe 8320" transform="translate(148.834 349.986)" clip-path="url(#clip-path-2)">
        <path id="Pfad_10543" data-name="Pfad 10543" d="M533.422,138c-13.53,3.5-15.163,10.5-7.7,16.563s13.764,11.664,25.428,15.163c-11.431,5.132-12.831,29.627-20.062,28.694-7.465-.933-9.8-13.53-21.929-18.429-7.465-3.033-19.129,19.829-12.131,25.428s26.361,13.53,32.193,7.465c5.832-5.832,10.265-25.195,16.8-27.761,6.532-2.333,3.266,6.065-2.1,9.1l-.7,5.6c5.366-4.9,12.6-11.9,16.1-18.2,6.065-10.731,7.7-21.929-3.5-27.294-11.2-5.132-14.7-2.8-20.062-8.165-5.132-5.132-2.333-8.165-2.333-8.165" transform="translate(510.756 -34.189)" fill="#69615b"/>
      </g>
      <g id="Gruppe_8321" data-name="Gruppe 8321" transform="translate(148.834 349.986)" clip-path="url(#clip-path-2)">
        <path id="Pfad_10544" data-name="Pfad 10544" d="M385,201.126s17.73,16.33,25.195,18.663c8.632,2.566,34.293-3.033,34.293-3.033l-16.563-23.795L412.061,165.2c.233,0-15.4,30.56-27.061,35.926" transform="translate(364.308 2.065)" fill="#5b3f00"/>
      </g>
      <g id="Gruppe_8322" data-name="Gruppe 8322" transform="translate(148.834 349.986)" clip-path="url(#clip-path-2)">
        <path id="Pfad_10545" data-name="Pfad 10545" d="M402.856,205.324c-5.6-27.761,20.062-43.624,20.062-43.624s.467,40.825,19.362,45.257c-3.266,13.064-17.263,14-29.86,17.5-5.132-3.733-7.465-8.631-9.565-19.129" transform="translate(387.043 -2.6)" fill="#5b3f00"/>
      </g>
      <g id="Gruppe_8323" data-name="Gruppe 8323" transform="translate(148.834 349.986)" clip-path="url(#clip-path-2)">
        <path id="Pfad_10546" data-name="Pfad 10546" d="M417,188.73c-7,4.666-13.53,1.4-18.9-6.3V182.2c.233-4.2.233-8.165.233-8.4l17.5,3.966c.7.233.7,5.132,1.166,10.964" transform="translate(381.768 13.527)" fill="#faa05f"/>
      </g>
      <g id="Gruppe_8324" data-name="Gruppe 8324" transform="translate(148.834 349.986)" clip-path="url(#clip-path-2)">
        <path id="Pfad_10547" data-name="Pfad 10547" d="M433.361,269.033c7.465-1.866,7.932-14,5.132-29.16s-2.8-29.86-10.264-43.857S403.5,180.852,405.6,197.882s12.364,52.022,16.8,61.354c6.065,12.6,10.964,9.8,10.964,9.8" transform="translate(391.531 28.87)" fill="#e33e21"/>
      </g>
      <g id="Gruppe_8325" data-name="Gruppe 8325" transform="translate(148.834 349.986)" clip-path="url(#clip-path-2)">
        <path id="Pfad_10548" data-name="Pfad 10548" d="M412.3,239.373c-14.464,1.166-13.064,17.963-13.3,71.851,0,22.4,9.8,41.525,9.1,61.12-5.132,10.731-9.331,29.16-9.1,47.123.233,20.529,3.966,33.826,7.465,77.917,0,0,11.664,2.333,10.964-8.4-1.866-28.927,11.431-100.545,13.3-115.942v-2.8c2.8-9.8,4.9-24.262,8.165-49.923,6.532-53.422,1.866-83.282-26.594-80.95" transform="translate(382.962 100.755)" fill="#fcb477"/>
      </g>
      <g id="Gruppe_8326" data-name="Gruppe 8326" transform="translate(148.834 349.986)" clip-path="url(#clip-path-2)">
        <path id="Pfad_10549" data-name="Pfad 10549" d="M412.6,234.905c-14.464-.467-18.43,17.5-24.728,70.918-2.8,22.862,1.633,41.291,2.566,60.887,0,.933-.233,9.331-.233,10.031-5.832,9.1-7.932,22.629-7.465,41.758.466,20.529,5.832,55.055,4.9,83.749l12.364,1.4c-3.733-53.189,10.964-100.312,12.6-115.709a45,45,0,0,1,.233-5.832c5.132-15.63,10.031-37.792,16.563-63.92,13.064-51.789,11.664-82.116-16.8-83.282" transform="translate(361.207 94.958)" fill="#fcb477"/>
      </g>
      <g id="Gruppe_8327" data-name="Gruppe 8327" transform="translate(148.834 349.986)" clip-path="url(#clip-path-2)">
        <path id="Pfad_10550" data-name="Pfad 10550" d="M380.4,353.873c9.331-42.691,14-87.015,15.863-97.279,4.2-19.363,12.364-16.33,14.93-28.227l15.63.7,27.294-1.166s10.964,31.26,11.9,51.089c2.1,10.265-.233,48.523-2.1,70.685.467,0-59.954,12.364-83.516,4.2" transform="translate(358.177 85.634)" fill="#7c706a"/>
      </g>
      <g id="Gruppe_8328" data-name="Gruppe 8328" transform="translate(148.834 349.986)" clip-path="url(#clip-path-2)">
        <path id="Pfad_10551" data-name="Pfad 10551" d="M448.3,222.212c0-4.9-4.2-31.493-10.5-34.759-8.865-4.432-28.694-3.033-28.694-3.033s-10.964,1.4-18.2,6.3c-12.131,7,3.732,46.657,3.732,46.657,3.266,15.163,6.3,32.426,6.065,49.223,12.6,15.163,43.158,9.565,42.924,0-.7-35.226,4.666-51.322,4.666-64.386" transform="translate(366.096 27.402)" fill="#fcb477"/>
      </g>
      <g id="Gruppe_8329" data-name="Gruppe 8329" transform="translate(148.834 349.986)" clip-path="url(#clip-path-2)">
        <path id="Pfad_10552" data-name="Pfad 10552" d="M427.047,210.394c5.132,9.331,10.264,15.63,12.364,24.262,6.765,27.528-1.4,52.955-1.166,63.686.233,14.23-28.694,18.429-37.092,15.164s-9.8-6.065-9.8-6.065,7.7-15.4,6.532-30.793c-1.166-15.63-7.465-31.727-10.031-52.256s-5.6-21,.467-30.094c5.832-8.632,27.994-10.5,27.994-10.5s-1.633,5.132,10.731,26.594" transform="translate(364.019 26.855)" fill="#9f230b"/>
      </g>
      <g id="Gruppe_8330" data-name="Gruppe 8330" transform="translate(148.834 349.986)" clip-path="url(#clip-path-2)">
        <path id="Pfad_10553" data-name="Pfad 10553" d="M402.2,183.4c18.2,6.532,16.1,22.862,15.4,42.458-.233,10.5-1.166,38.259-3.033,50.156-1.633,9.8-3.5,20.3-.233,26.594,3.266,6.065,19.829,8.865,18.663,4.432-1.4-5.366-6.532-16.33-7.232-23.1a105.731,105.731,0,0,1,5.132-43.857c4.666-13.3,3.266-21.229-1.166-30.327-3.266-7-4.2-17.963-9.331-21-5.366-3.5-18.2-5.366-18.2-5.366" transform="translate(387.233 26.322)" fill="#9f230b"/>
      </g>
      <g id="Gruppe_8331" data-name="Gruppe 8331" transform="translate(148.834 349.986)" clip-path="url(#clip-path-2)">
        <path id="Pfad_10554" data-name="Pfad 10554" d="M403.5,277.116c8.632-1.633,8.165-15.163,5.6-31.96-2.566-17.03,5.366-31.493-2.8-47.357-3.966-7.7-5.832-12.364-10.964-11.2-5.365,1.166-13.53,8.632-12.6,18.663,1.866,19.129,3.5,51.089,9.331,61.12S403.5,277.116,403.5,277.116" transform="translate(361.201 30.352)" fill="#e33e21"/>
      </g>
      <g id="Gruppe_8332" data-name="Gruppe 8332" transform="translate(148.834 349.986)" clip-path="url(#clip-path-2)">
        <path id="Pfad_10555" data-name="Pfad 10555" d="M400.134,183.6c-8.4.467,2.333,25.895,2.333,25.895l6.065-2.333-4.432,4.9s11.9,10.031,16.1,18.429,4.2,26.594,4.2,26.594,3.966-24.495-3.733-38.259c-7.7-14-19.129-19.6-20.529-30.794a19.591,19.591,0,0,1,0-4.432" transform="translate(380.2 26.589)" fill="#fff"/>
      </g>
      <g id="Gruppe_8333" data-name="Gruppe 8333" transform="translate(148.834 349.986)" clip-path="url(#clip-path-2)">
        <path id="Pfad_10556" data-name="Pfad 10556" d="M404.6,183.831c9.1.933,14.7,19.363,14.7,19.363l-5.132.933,4.9,2.566s-2.8,14.464-4.432,25.195a43.666,43.666,0,0,0,0,13.53s-3.733-10.031-2.1-26.594c.933-9.1,2.1-13.764,0-21.929-.467-1.633-1.633-4.9-2.1-6.3-2.1-6.765-4.432-7-5.832-6.765" transform="translate(390.432 26.825)" fill="#fff"/>
      </g>
      <g id="Gruppe_8334" data-name="Gruppe 8334" transform="translate(148.834 349.986)" clip-path="url(#clip-path-2)">
        <path id="Pfad_10557" data-name="Pfad 10557" d="M463.724,249.314c-12.364-14-24.728-30.327-33.36-34.526-11.664-5.832-18.663,3.033-17.03,9.1,2.333,8.865,21.929,22.862,40.358,36.159Z" transform="translate(401.76 65.619)" fill="#e33e21"/>
      </g>
      <g id="Gruppe_8335" data-name="Gruppe 8335" transform="translate(148.834 349.986)" clip-path="url(#clip-path-2)">
        <path id="Pfad_10558" data-name="Pfad 10558" d="M431.8,229.3v9.8c4.666,3.5,9.1,6.3,12.364,8.865,18.429,12.831,5.366-6.765,5.366-6.765-3.5-3.733-7-7.7-10.5-11.664H431.8Z" transform="translate(426.685 87.5)" fill="#f4ab7d"/>
      </g>
      <g id="Gruppe_8336" data-name="Gruppe 8336" transform="translate(148.834 349.986)" clip-path="url(#clip-path-2)">
        <path id="Pfad_10559" data-name="Pfad 10559" d="M448.225,234.7a2.689,2.689,0,0,1,2.8,2.8v2.8l.233,3.033a1.754,1.754,0,0,1-1.167,1.633,3.319,3.319,0,0,1-3.5-3.033l-.933-3.733a2.662,2.662,0,0,1,2.566-3.5" transform="translate(445.019 94.697)" fill="#f4ab7d"/>
      </g>
      <g id="Gruppe_8337" data-name="Gruppe 8337" transform="translate(148.834 349.986)" clip-path="url(#clip-path-2)">
        <path id="Pfad_10560" data-name="Pfad 10560" d="M452.623,240.124h0a2.334,2.334,0,0,1-3.266.7l-4.432-3.033a2.362,2.362,0,0,1,2.566-3.966l4.432,3.033c1.166.467,1.4,2.1.7,3.266" transform="translate(442.721 93.006)" fill="#f4ab7d"/>
      </g>
      <g id="Gruppe_8338" data-name="Gruppe 8338" transform="translate(148.834 349.986)" clip-path="url(#clip-path-2)">
        <path id="Pfad_10561" data-name="Pfad 10561" d="M450.724,234.959h0a2.149,2.149,0,0,1-1.633,2.566l-4.9,1.166a2.151,2.151,0,0,1-.933-4.2l4.9-1.166a2.149,2.149,0,0,1,2.566,1.633" transform="translate(439.721 92.805)" fill="#f4ab7d"/>
      </g>
      <g id="Gruppe_8339" data-name="Gruppe 8339" transform="translate(148.834 349.986)" clip-path="url(#clip-path-2)">
        <path id="Pfad_10562" data-name="Pfad 10562" d="M447.331,233.8l-1.167.233L438,245.7a14.17,14.17,0,0,0,3.733,3.732h0l.233.233,5.132.933c.467.467,5.6,0,14.464-1.866,2.8-.7-2.8-9.331-6.765-11.664-2.333-1.166-5.132-2.8-5.132-2.8a3.836,3.836,0,0,0-2.333-.467" transform="translate(434.949 93.497)" fill="#f4ab7d"/>
      </g>
      <g id="Gruppe_8340" data-name="Gruppe 8340" transform="translate(148.834 349.986)" clip-path="url(#clip-path-2)">
        <path id="Pfad_10563" data-name="Pfad 10563" d="M434.566,230.9l17.263,7.7c.233,0,3.5-.933,3.733-.933a3.467,3.467,0,0,1,2.1.467c1.866.933,5.365,3.033,5.365,3.033-1.866,3.733-7.232,3.033-8.865,4.666,3.033,2.1-.233,9.8-3.966,7.7l-.233-.233h0a27.97,27.97,0,0,1-3.733-3.732L432,234.633Z" transform="translate(426.951 89.632)" fill="#f4ab7d"/>
      </g>
      <g id="Gruppe_8341" data-name="Gruppe 8341" transform="translate(148.834 349.986)" clip-path="url(#clip-path-2)">
        <path id="Pfad_10564" data-name="Pfad 10564" d="M464.356,309.712,415.6,275.886,461.557,210.1l48.756,34.059Z" transform="translate(405.093 61.909)" fill="#1e5e06"/>
      </g>
      <g id="Gruppe_8342" data-name="Gruppe 8342" transform="translate(148.834 349.986)" clip-path="url(#clip-path-2)">
        <path id="Pfad_10565" data-name="Pfad 10565" d="M463.923,308.846,415.4,274.786,461.357,209l48.523,34.059Z" transform="translate(404.826 60.443)" fill="#7aae62"/>
      </g>
      <g id="Gruppe_8343" data-name="Gruppe 8343" transform="translate(148.834 349.986)" clip-path="url(#clip-path-2)">
        <path id="Pfad_10566" data-name="Pfad 10566" d="M463.823,307.212,415.3,273.386,461.257,207.6l48.756,34.059Z" transform="translate(404.693 58.577)" fill="#ededed"/>
      </g>
      <g id="Gruppe_8344" data-name="Gruppe 8344" transform="translate(148.834 349.986)" clip-path="url(#clip-path-2)">
        <path id="Pfad_10567" data-name="Pfad 10567" d="M431.6,244.63l-6.3-4.432,8.865-12.6,6.3,4.432Z" transform="translate(418.021 85.234)" fill="#a1c710"/>
      </g>
      <g id="Gruppe_8345" data-name="Gruppe 8345" transform="translate(148.834 349.986)" clip-path="url(#clip-path-2)">
        <path id="Pfad_10568" data-name="Pfad 10568" d="M438.7,247.231l-6.3-4.432,5.6-8.4,6.532,4.432Z" transform="translate(427.485 94.297)" fill="#a1c710"/>
      </g>
      <g id="Gruppe_8346" data-name="Gruppe 8346" transform="translate(148.834 349.986)" clip-path="url(#clip-path-2)">
        <path id="Pfad_10569" data-name="Pfad 10569" d="M435.2,249l-6.3-4.432L439.864,228.7l6.3,4.432Z" transform="translate(422.82 86.7)" fill="#a1c710"/>
      </g>
      <g id="Gruppe_8347" data-name="Gruppe 8347" transform="translate(148.834 349.986)" clip-path="url(#clip-path-2)">
        <path id="Pfad_10570" data-name="Pfad 10570" d="M458.229,240.02a2.311,2.311,0,0,0-1.866-2.566l-7.232-.933a2.311,2.311,0,0,0-2.566,1.866,2.221,2.221,0,0,0,.467,1.633,2.317,2.317,0,0,0-2.566,2.1v.933a2.7,2.7,0,0,0-1.633,1.166,2.267,2.267,0,0,0,.233,2.1,3.221,3.221,0,0,0-.933.7,2.212,2.212,0,0,0,.467,3.033l3.5,2.566a2.212,2.212,0,0,0,3.033-.467,2.119,2.119,0,0,0,0-2.333l1.866.933a2.087,2.087,0,1,0,1.866-3.732l-2.566-1.166,4.9.7a2.107,2.107,0,0,0,2.566-2.1,3.257,3.257,0,0,0-.7-2.1,4.351,4.351,0,0,0,1.166-2.333" transform="translate(439.914 97.076)" fill="#f4ab7d"/>
      </g>
      <g id="Gruppe_8349" data-name="Gruppe 8349" transform="translate(148.834 349.986)" clip-path="url(#clip-path-2)">
        <path id="Pfad_10571" data-name="Pfad 10571" d="M443.2,213.224c2.1-1.633,5.366-1.4,7.932.467s3.966,4.9,3.033,7.232Z" transform="translate(441.879 64.617)" fill="#406033"/>
      </g>
      <g id="Gruppe_8350" data-name="Gruppe 8350" transform="translate(148.834 349.986)" clip-path="url(#clip-path-2)">
        <path id="Pfad_10572" data-name="Pfad 10572" d="M403.967,221.2c10.731,4.9,21.929,10.731,30.56,14.7,20.3,9.331.933,8.4.933,8.4-6.765-1.4-14.464-2.8-22.162-3.966,0,0-8.4-16.1-9.8-18.663Z" transform="translate(388.965 76.704)" fill="#f4ab7d"/>
      </g>
      <g id="Gruppe_8351" data-name="Gruppe 8351" transform="translate(148.834 349.986)" clip-path="url(#clip-path-2)">
        <path id="Pfad_10573" data-name="Pfad 10573" d="M439.217,246.992c-19.129-3.266-37.092-6.3-45.49-11.9-10.964-7-5.132-15.863.7-17.73,7.232-2.1,31.027,7.7,46.657,15.163Z" transform="translate(367.712 71.207)" fill="#e33e21"/>
      </g>
      <g id="Gruppe_8352" data-name="Gruppe 8352" transform="translate(148.834 349.986)" clip-path="url(#clip-path-2)">
        <path id="Pfad_10574" data-name="Pfad 10574" d="M420.6,238.866h0A1.8,1.8,0,0,1,422.233,237l10.264-.7a1.754,1.754,0,0,1,.233,3.5l-10.264.7a1.653,1.653,0,0,1-1.866-1.633" transform="translate(411.757 96.829)" fill="#f4ab7d"/>
      </g>
      <g id="Gruppe_8353" data-name="Gruppe 8353" transform="translate(148.834 349.986)" clip-path="url(#clip-path-2)">
        <path id="Pfad_10575" data-name="Pfad 10575" d="M421.5,238.238h0a1.472,1.472,0,0,1,2.1-.933l9.8,3.733a1.64,1.64,0,0,1,.933,2.333,1.472,1.472,0,0,1-2.1.933l-9.8-3.733a1.769,1.769,0,0,1-.933-2.333" transform="translate(412.719 97.925)" fill="#f4ab7d"/>
      </g>
      <g id="Gruppe_8354" data-name="Gruppe 8354" transform="translate(148.834 349.986)" clip-path="url(#clip-path-2)">
        <path id="Pfad_10576" data-name="Pfad 10576" d="M416.119,234.828l6.765,12.364a2.329,2.329,0,0,0,.933,1.166l13.764,12.364a.812.812,0,0,0,1.166-.233,3.172,3.172,0,0,0-.233-3.966l-7.932-9.1a8.875,8.875,0,0,1-1.866-3.966l-.933-5.6s1.866-8.632-5.832-9.8c-4.666-.7-6.065,2.1-6.3,3.966a3.618,3.618,0,0,0,.467,2.8" transform="translate(405.041 85.704)" fill="#f4ab7d"/>
      </g>
      <g id="Gruppe_8355" data-name="Gruppe 8355" transform="translate(148.834 349.986)" clip-path="url(#clip-path-2)">
        <path id="Pfad_10577" data-name="Pfad 10577" d="M420.337,228.7h0a4.189,4.189,0,0,0-2.8,5.832l.233.467a4.156,4.156,0,0,0,3.733,2.333l4.666.7a6.974,6.974,0,0,1,3.966,2.333l1.4,1.633c1.4,1.633,4.666,2.333,5.6,1.166a1.234,1.234,0,0,0-.233-1.866L424.07,229.638a3.5,3.5,0,0,0-3.733-.933" transform="translate(407.121 86.462)" fill="#f4ab7d"/>
      </g>
      <g id="Gruppe_8356" data-name="Gruppe 8356" transform="translate(148.834 349.986)" clip-path="url(#clip-path-2)">
        <path id="Pfad_10578" data-name="Pfad 10578" d="M414.23,334.754c3.966,28.227,6.065,29.627,7.932,33.126s9.331,16.8,10.5,17.963c1.4,1.166,7.465,4.666,7.465,4.666l1.633,5.366-20.529.233L409.1,380.944l-11.2-8.165a12.5,12.5,0,0,1,1.866-5.6c1.866-3.266,8.165-10.5,5.6-25.428-2.333-15.164,8.865-7,8.865-7" transform="translate(381.502 225.127)" fill="#fcb477"/>
      </g>
      <g id="Gruppe_8357" data-name="Gruppe 8357" transform="translate(148.834 349.986)" clip-path="url(#clip-path-2)">
        <path id="Pfad_10579" data-name="Pfad 10579" d="M441.1,370.628c-1.866,4.432-9.8,5.6-15.4,2.1a48.723,48.723,0,0,1-17.5-17.73c-1.633-2.8-7.232-7.7-7.232-7.7s-4.432,3.733-3.733,8.4,1.4,5.832,1.4,5.832,13.3,3.966,16.8,8.165c3.966,4.666,4.2,8.4,10.5,8.4s21.7.467,25.895,0c3.033-.467,3.966-3.5.467-4.432a54.456,54.456,0,0,1-11.2-3.033" transform="translate(380.526 244.775)" fill="#010000"/>
      </g>
      <g id="Gruppe_8358" data-name="Gruppe 8358" transform="translate(148.834 349.986)" clip-path="url(#clip-path-2)">
        <path id="Pfad_10580" data-name="Pfad 10580" d="M402.524,352.568c-4.2-.467-5.6.467-4.666,2.333,2.566,5.366,3.266,17.03,3.266,17.03h1.633s-.933-14.464,2.333-15.63c3.266-1.4-2.566-3.733-2.566-3.733" transform="translate(381.077 251.638)" fill="#010000"/>
      </g>
      <g id="Gruppe_8359" data-name="Gruppe 8359" transform="translate(148.834 349.986)" clip-path="url(#clip-path-2)">
        <path id="Pfad_10581" data-name="Pfad 10581" d="M397.43,334.754c3.966,28.227,6.065,29.627,7.932,33.126s9.331,16.8,10.5,17.963c1.4,1.166,7.465,4.666,7.465,4.666l1.633,5.366-20.529.233L392.3,380.944l-11.2-8.165a12.5,12.5,0,0,1,1.866-5.6c1.866-3.266,8.165-10.5,5.6-25.428-2.1-15.164,8.865-7,8.865-7" transform="translate(359.11 225.127)" fill="#fcb477"/>
      </g>
      <g id="Gruppe_8360" data-name="Gruppe 8360" transform="translate(148.834 349.986)" clip-path="url(#clip-path-2)">
        <path id="Pfad_10582" data-name="Pfad 10582" d="M424.4,370.628c-1.866,4.432-9.8,5.6-15.4,2.1a48.723,48.723,0,0,1-17.5-17.73c-1.633-2.8-7.232-7.7-7.232-7.7s-4.432,3.733-3.733,8.4,1.4,5.832,1.4,5.832,13.3,3.966,16.8,8.165c3.966,4.666,4.2,8.4,10.5,8.4s21.7.467,25.895,0c3.033-.467,3.966-3.5.467-4.432a54.456,54.456,0,0,1-11.2-3.033" transform="translate(358.267 244.775)" fill="#010000"/>
      </g>
      <g id="Gruppe_8361" data-name="Gruppe 8361" transform="translate(148.834 349.986)" clip-path="url(#clip-path-2)">
        <path id="Pfad_10583" data-name="Pfad 10583" d="M385.824,352.568c-4.2-.467-5.6.467-4.666,2.333,2.566,5.366,3.266,17.03,3.266,17.03h1.633s-.933-14.464,2.333-15.63c3.266-1.4-2.566-3.733-2.566-3.733" transform="translate(358.819 251.638)" fill="#010000"/>
      </g>
      <g id="Gruppe_8362" data-name="Gruppe 8362" transform="translate(148.834 349.986)" clip-path="url(#clip-path-2)">
        <path id="Pfad_10584" data-name="Pfad 10584" d="M416.254,177.666c.7.7.933,23.562,4.2,30.094,0,0,2.8,14.23-3.033,14.7-5.132.7-17.73-12.6-18.9-17.263-1.4-6.065.233-31.493.233-31.493Z" transform="translate(381.578 13.394)" fill="#fcb477"/>
      </g>
      <g id="Gruppe_8363" data-name="Gruppe 8363" transform="translate(148.834 349.986)" clip-path="url(#clip-path-2)">
        <path id="Pfad_10585" data-name="Pfad 10585" d="M416.063,187.264c-6.3,4.2-12.364,1.4-17.263-5.832V181.2c.233-3.966.233-7.465.233-7.7l16.1,3.733c.466.233.7,4.666.933,10.031" transform="translate(382.701 13.127)" fill="#faa05f"/>
      </g>
      <g id="Gruppe_8364" data-name="Gruppe 8364" transform="translate(148.834 349.986)" clip-path="url(#clip-path-2)">
        <path id="Pfad_10586" data-name="Pfad 10586" d="M417.864,154.361s9.1,1.866,10.265,9.8c.933,7.232,2.333,13.53,1.4,21.7A24.679,24.679,0,0,0,423,182.822c-10.031-3.5-18.9-23.328-19.363-24.262l-.233-.467v-.467a10.464,10.464,0,0,1,.233-2.566c6.765-2.1,14.23-.7,14.23-.7" transform="translate(388.832 -12.991)" fill="#faa05f"/>
      </g>
      <g id="Gruppe_8365" data-name="Gruppe 8365" transform="translate(148.834 349.986)" clip-path="url(#clip-path-2)">
        <path id="Pfad_10587" data-name="Pfad 10587" d="M416.618,153.1s10.031,0,12.6,7.7c2.8,7.7,5.6,14.23,5.832,23.795s-3.033,23.328-11.9,27.061-21.7-9.565-23.328-17.73-7.7-21.462-3.033-31.027,19.829-9.8,19.829-9.8" transform="translate(377.714 -14.063)" fill="#fcb477"/>
      </g>
      <g id="Gruppe_8366" data-name="Gruppe 8366" transform="translate(148.834 349.986)" clip-path="url(#clip-path-2)">
        <path id="Pfad_10588" data-name="Pfad 10588" d="M396.5,181.967c.933-14.23,13.531-28.461,27.294-30.094,11.431-1.4,19.6,9.1,19.6,9.565-.7.233-7.7-1.4-17.03,8.165-4.432,9.331.233,13.3-7,14.7a7.589,7.589,0,0,1-3.5-.233c-1.166,14.7,0,19.363,11.9,46.89a42,42,0,0,1-8.865,1.633c-.233-4.9-3.733-13.53-3.733-13.53,1.4,4.666,0,9.565-1.866,13.3a44.991,44.991,0,0,1-10.031-1.866c2.333-7.232,1.166-19.6,1.166-19.6-.466,9.565-4.2,14.23-7.7,16.8a37.286,37.286,0,0,1-11.431-8.4c10.5-7.7,10.264-23.328,11.2-37.325" transform="translate(364.708 -15.869)" fill="#8e6005"/>
      </g>
      <g id="Gruppe_8367" data-name="Gruppe 8367" transform="translate(148.834 349.986)" clip-path="url(#clip-path-2)">
        <path id="Pfad_10589" data-name="Pfad 10589" d="M404.046,170.315s-1.633-6.3-4.9-4.9-4.2,6.532-1.4,10.264,8.4,0,6.3-5.365" transform="translate(379.088 2.082)" fill="#faa05f"/>
      </g>
      <g id="Gruppe_8368" data-name="Gruppe 8368" transform="translate(148.834 349.986)" clip-path="url(#clip-path-2)">
        <path id="Pfad_10590" data-name="Pfad 10590" d="M401.313,170.266s-.7-3.966-2.333-3.966-2.1,3.5-1.4,5.366a2.021,2.021,0,0,0,3.733-1.4" transform="translate(380.655 3.531)" fill="#fcb477"/>
      </g>
      <g id="Gruppe_8369" data-name="Gruppe 8369" transform="translate(148.834 349.986)" clip-path="url(#clip-path-2)">
        <path id="Pfad_10591" data-name="Pfad 10591" d="M405.3,153.036a23.418,23.418,0,0,1,15.163,1.633c7.465,3.966,12.364,26.361,9.331,30.793s12.131,3.5,3.733,5.832c-8.632,2.8-35.459-35.226-28.227-38.259" transform="translate(389.733 -14.932)" fill="#af710b"/>
      </g>
      <g id="Gruppe_8370" data-name="Gruppe 8370" transform="translate(148.834 349.986)" clip-path="url(#clip-path-2)">
        <path id="Pfad_10592" data-name="Pfad 10592" d="M106.021,359.9h0a52.27,52.27,0,0,0-20.529,9.8l-3.5,2.8a2.885,2.885,0,0,0-.7,3.5c2.333,4.432,38.025,49.456,44.324,60.887,6.3,11.2,18.9,21.929,25.428,16.8-19.129-47.59-21.7-64.153-21.7-64.153Z" transform="translate(-40.934 261.568)" fill="#a0642e"/>
      </g>
      <g id="Gruppe_8371" data-name="Gruppe 8371" transform="translate(148.834 349.986)" clip-path="url(#clip-path-2)">
        <path id="Pfad_10593" data-name="Pfad 10593" d="M144.681,385.7c-2.1,11.2,42.924,34.059,59.954,44.557,2.333,1.4,8.4,11.2-26.361,9.1-20.062-1.166-53.422-17.5-54.822-19.129-7-7.932-2.1-21.7-2.1-21.7Z" transform="translate(10.686 295.956)" fill="#e6e7e8"/>
      </g>
      <g id="Gruppe_8372" data-name="Gruppe 8372" transform="translate(148.834 349.986)" clip-path="url(#clip-path-2)">
        <path id="Pfad_10594" data-name="Pfad 10594" d="M149.289,384.053c-2.1,11.2,25.895,34.293,50.856,47.823,7,3.733,6.765,4.666,3.733,6.765s-14,4.2-29.86,1.633c-23.328-3.733-25.661-10.031-50.623-19.829-9.331-3.733,3.266-26.361-3.266-34.059-6.3-8.165,29.16-2.333,29.16-2.333" transform="translate(10.277 291.071)" fill="#a0642e"/>
      </g>
      <g id="Gruppe_8476" data-name="Gruppe 8476" transform="translate(0 217.713)">
        <g id="Gruppe_8225" data-name="Gruppe 8225">
          <g id="Gruppe_8222" data-name="Gruppe 8222" clip-path="url(#clip-path-148)">
            <path id="Pfad_10448" data-name="Pfad 10448" d="M411.979,200.633h.233c.233.233,0,.233-.233,0M70.685,98.454A652.565,652.565,0,0,0,0,102.42v.7a652.565,652.565,0,0,1,70.685-3.966,623.446,623.446,0,0,1,95.413,7.232,720.1,720.1,0,0,1,88.415,19.363,156.278,156.278,0,0,0,13.064,33.826A166.322,166.322,0,0,0,291.372,193.4a215.816,215.816,0,0,0,60.654,46.19,1276.741,1276.741,0,0,1-14.464,165.865,777.7,777.7,0,0,1-44.791,165.4,652.869,652.869,0,0,1-37.325,77.217,500.48,500.48,0,0,1-48.756,69.985c-7.465,8.865-15.4,17.263-23.562,25.428,8.4-8.4,16.33-17.03,24.028-25.894a514.192,514.192,0,0,0,49.223-70.452A672.21,672.21,0,0,0,293.7,569.921a813.243,813.243,0,0,0,44.324-165.4,1196.8,1196.8,0,0,0,14.464-165.865,220.87,220.87,0,0,1-60.654-45.724,190.758,190.758,0,0,1-24.262-33.826,156.274,156.274,0,0,1-13.064-33.826A721.822,721.822,0,0,0,166.1,105.453a656.525,656.525,0,0,0-95.413-7m0-59.254c-13.53,0-26.361.467-39.192,1.166Q15.747,41.416,0,43.166V83.991a602.2,602.2,0,0,1,70.918-3.966A599.068,599.068,0,0,1,168.9,87.956a724.426,724.426,0,0,1,96.113,21.929l5.132,1.4,1.166,5.132a141.472,141.472,0,0,0,33.593,65.32,205.6,205.6,0,0,0,59.954,45.024l4.9,2.566v5.6a1138.924,1138.924,0,0,1-17.03,173.33A789.264,789.264,0,0,1,304.2,575.52a673.93,673.93,0,0,1-39.892,77.45,477.587,477.587,0,0,1-52.022,69.985c-10.031,10.731-20.062,20.762-31.027,30.56a384.243,384.243,0,0,1-33.826,27.294,318.385,318.385,0,0,1-76.517,41.058A335.76,335.76,0,0,0,145.1,778.01c5.366-4.2,10.5-8.631,15.863-13.064-5.366,4.666-10.731,8.865-16.1,13.064a337.917,337.917,0,0,1-73.951,43.857h-.233c-.933-.466-1.866-.7-2.8-1.166A321.215,321.215,0,0,1,0,784.542V843.33c41.525,24.961,70.918,31.96,70.918,31.96s28.694-7,69.752-31.26a431.424,431.424,0,0,0,61.82-45.024c42.458-36.859,87.948-90.514,125.973-168.2a759.174,759.174,0,0,0,37.559-94.013c4.432-14.464,8.865-29.86,13.064-45.49,5.6-21.229,10.5-43.158,14.464-66.253a1225.957,1225.957,0,0,0,18.2-224.419C405.681,199,306.535,167.74,309.568,81.658A628.491,628.491,0,0,0,206.223,52.73c-16.1-3.033-33.593-6.065-52.256-8.165-11.9-1.4-24.495-3.033-37.559-3.733C101.479,39.667,86.315,39.2,70.685,39.2" transform="translate(0 -33.601)" fill="#d7d6d6"/>
          </g>
          <g id="Gruppe_8223" data-name="Gruppe 8223" clip-path="url(#clip-path-148)">
            <path id="Pfad_10449" data-name="Pfad 10449" d="M67.886,786.214c.933.466,1.866.7,2.8,1.166h.233c-1.166-.467-2.1-.7-3.033-1.166M70.685,64.9A652.561,652.561,0,0,0,0,68.866v676.99c21.929,16.8,45.724,30.327,70.685,41.525a337.924,337.924,0,0,0,73.951-43.857c5.366-4.2,10.964-8.632,16.1-13.064,5.6-4.9,11.2-10.031,16.563-15.163,1.866-1.866,3.733-3.5,5.6-5.366,8.165-8.165,16.1-16.8,23.562-25.428a494.581,494.581,0,0,0,48.756-69.985A672.219,672.219,0,0,0,292.538,537.3a814.42,814.42,0,0,0,44.791-165.4,1203.092,1203.092,0,0,0,14.464-165.865,220.267,220.267,0,0,1-60.654-46.19c-9.331-10.031-17.03-21.7-23.795-33.826A156.279,156.279,0,0,1,254.28,92.194,602.778,602.778,0,0,0,166.1,72.132,625.684,625.684,0,0,0,70.685,64.9" transform="translate(0 0.653)" fill="#eee"/>
          </g>
          <g id="Gruppe_8224" data-name="Gruppe 8224" clip-path="url(#clip-path-148)">
            <path id="Pfad_10450" data-name="Pfad 10450" d="M0,756.785v4.432a310.021,310.021,0,0,0,67.886,35.926c.933.467,1.866.7,2.8,1.166h0A342.474,342.474,0,0,1,0,756.785M70.918,56.7A656.852,656.852,0,0,0,0,60.666V79.1a652.563,652.563,0,0,1,70.685-3.966A623.444,623.444,0,0,1,166.1,82.361a721.822,721.822,0,0,1,88.415,19.829,156.279,156.279,0,0,0,13.064,33.826,175.18,175.18,0,0,0,24.262,33.826,212.013,212.013,0,0,0,60.654,45.724,1273.182,1273.182,0,0,1-14.464,165.865A805.217,805.217,0,0,1,293.7,546.83a652.866,652.866,0,0,1-37.325,77.217A514.2,514.2,0,0,1,207.156,694.5c-7.7,8.865-15.63,17.5-24.028,25.895-1.866,1.866-3.733,3.732-5.6,5.365-5.366,5.366-10.964,10.264-16.563,15.163-5.132,4.432-10.5,8.865-15.863,13.064a318.623,318.623,0,0,1-74.184,43.857,310.417,310.417,0,0,0,76.517-41.058,384.24,384.24,0,0,0,33.826-27.294c10.731-9.8,20.762-19.829,31.027-30.56a508.115,508.115,0,0,0,52.256-69.752,673.935,673.935,0,0,0,39.892-77.45,793.254,793.254,0,0,0,48.523-167.265c10.031-57.388,16.1-115.242,17.03-173.33v-5.6l-4.9-2.566a202.564,202.564,0,0,1-59.954-45.024,143.7,143.7,0,0,1-33.593-65.32l-1.166-5.132-5.132-1.4a689.484,689.484,0,0,0-96.113-21.929A660.548,660.548,0,0,0,70.918,56.7" transform="translate(0 -10.276)" fill="#c5c3c3"/>
          </g>
        </g>
        <g id="Gruppe_8373" data-name="Gruppe 8373" transform="translate(148.834 132.273)" clip-path="url(#clip-path-2)">
          <path id="Pfad_10595" data-name="Pfad 10595" d="M195.517,234.7l3.5,20.762,5.832,26.128,16.33,87.948a232.64,232.64,0,0,1,4.666,52.489,39.226,39.226,0,0,1-15.863,30.094l-5.832,4.2-33.826-3.966,2.1-33.126L119.7,247.3Z" transform="translate(10.706 94.697)" fill="#727272"/>
        </g>
      </g>
      <g id="Gruppe_8374" data-name="Gruppe 8374" transform="translate(148.834 349.986)" clip-path="url(#clip-path-2)">
        <path id="Pfad_10596" data-name="Pfad 10596" d="M201.284,236.4l-2.1,36.859c-.467,7.232-7.932,33.593-11.431,42.924l-15.4,113.609s-4.666,147.9,0,162.832c-8.865,9.565-35.226,5.366-35.226,5.366l-13.064-78.15c-1.866-19.829-5.132-43.158-2.1-63.453l3.5-22.862S104.938,274.892,105.4,265.094l1.166-27.761Z" transform="translate(-8.358 96.963)" fill="#5d5e5d"/>
      </g>
      <g id="Gruppe_8375" data-name="Gruppe 8375" transform="translate(148.834 349.986)" clip-path="url(#clip-path-2)">
        <path id="Pfad_10597" data-name="Pfad 10597" d="M188.788,228.422,173.158,173.6c-11.2,8.165-32.66,13.3-41.758,12.364,0,0,33.826,73.718,43.391,72.318s17.73.933,30.56-5.366c16.1-7.932,29.86-16.563,41.525-19.363,11.664-3.033-7.465-17.5-7.465-17.5Z" transform="translate(26.3 13.26)" fill="#fcb477"/>
      </g>
      <g id="Gruppe_8376" data-name="Gruppe 8376" transform="translate(148.834 349.986)" clip-path="url(#clip-path-2)">
        <path id="Pfad_10598" data-name="Pfad 10598" d="M194.663,198.088c-3.966.7-1.633-6.765-1.4-11.2.233-5.366-2.8-8.632-6.065-8.165-.933.233.233,9.1-.7,11.2-.7,1.633-3.266,9.331-3.266,9.331l-6.532,9.8s3.5,19.829,7.932,18.663a36.221,36.221,0,0,1,7.232-.7c3.966,0,3.033.933,6.765-.7a41.346,41.346,0,0,0,7.232-3.5c3.733-2.333,1.4-5.132,1.4-5.132,5.366-2.333,2.333-7.232,2.333-7.232a4.61,4.61,0,0,0-.233-6.065l-.467-.467c.933-2.1,0-5.832-2.1-5.832-.233-.467-2.333-2.1-12.131,0" transform="translate(86.678 20.033)" fill="#fcb477"/>
      </g>
      <g id="Gruppe_8377" data-name="Gruppe 8377" transform="translate(148.834 349.986)" clip-path="url(#clip-path-2)">
        <path id="Pfad_10599" data-name="Pfad 10599" d="M162.693,168.929c7.7,12.364,22.162,44.557,33.126,74.651-10.5,4.9-21.229,9.1-31.493,13.3C153.595,220.718,129.8,148.4,129.8,148.4s21.7,2.566,32.893,20.529" transform="translate(24.167 -20.327)" fill="#9f230b"/>
      </g>
      <g id="Gruppe_8378" data-name="Gruppe 8378" transform="translate(148.834 349.986)" clip-path="url(#clip-path-2)">
        <path id="Pfad_10600" data-name="Pfad 10600" d="M173.35,147.9s33.826,2.566,39.425,53.889c2.8,24.728,18.429,147.669,20.529,169.364,0,0-103.345,16.8-122.474,12.6,0,0,5.366-92.38-8.165-132.739s0-92.847,9.331-99.612c3.033-2.1,61.354-3.5,61.354-3.5" transform="translate(-19.616 -20.994)" fill="#e33e21"/>
      </g>
      <g id="Gruppe_8379" data-name="Gruppe 8379" transform="translate(148.834 349.986)" clip-path="url(#clip-path-2)">
        <path id="Pfad_10601" data-name="Pfad 10601" d="M155.139,100.2S172.4,118.629,175.9,131.927c3.733,13.764,8.865,35.692,8.865,35.692l-6.065.7s-3.966,12.831-3.033,21-12.6,4.432-20.3,5.132c-7.465.7-24.961-3.966-33.826-27.061-9.1-23.1-25.428-63.92,33.593-67.186" transform="translate(0.928 -84.57)" fill="#fcb477"/>
      </g>
      <g id="Gruppe_8380" data-name="Gruppe 8380" transform="translate(148.834 349.986)" clip-path="url(#clip-path-2)">
        <path id="Pfad_10602" data-name="Pfad 10602" d="M112.4,183.82c0,5.366,9.565,15.163,17.963,22.862,7,6.532,20.3,11.2,24.262,3.033,2.566-5.132.933-16.1.933-17.5-.7-5.132-3.033-10.5-3.033-19.829,0-5.6.233-10.5.233-13.53-2.1-3.733-17.03-32.893-16.1-31.027h0L133.629,122Z" transform="translate(0.976 -55.514)" fill="#fcb477"/>
      </g>
      <g id="Gruppe_8381" data-name="Gruppe 8381" transform="translate(148.834 349.986)" clip-path="url(#clip-path-2)">
        <path id="Pfad_10603" data-name="Pfad 10603" d="M183.02,95.549c.933,1.166,15.163,24.028-4.432,35.459s-26.128-1.4-30.56,7.232c-4.666,8.865,7,21,3.266,28.927l-6.765,2.1s-1.866-3.966-4.432-3.733c-2.8.233-1.4,21-5.832,21.462s-14.7-16.33-19.829-24.028c-4.9-7.7-16.33-34.759-1.4-43.391,14.93-8.865,22.4-3.966,21.7-10.964-.7-6.765,7-.467,7-.467s3.266-5.6.233-11.2,15.863-9.565,21.7,1.633c5.6,11.431,10.5-15.163,19.363-3.033" transform="translate(-8.057 -96.249)" fill="#5b3f00"/>
      </g>
      <g id="Gruppe_8382" data-name="Gruppe 8382" transform="translate(148.834 349.986)" clip-path="url(#clip-path-2)">
        <path id="Pfad_10604" data-name="Pfad 10604" d="M129.675,123.686s1.633,13.53-1.633,13.764-11.2-6.532-10.731-14.93c.467-7.932,9.8-7.932,12.364,1.166" transform="translate(7.496 -62.566)" fill="#fcb477"/>
      </g>
      <g id="Gruppe_8383" data-name="Gruppe 8383" transform="translate(148.834 349.986)" clip-path="url(#clip-path-2)">
        <path id="Pfad_10605" data-name="Pfad 10605" d="M124.19,161.026c2.333,1.866,10.031,5.832,14.7,8.165,0-7.465.233-13.53.233-13.53s-3.5,3.733-16.1-31.26v.233h0c-.233,3.266-2.1,33.826,1.166,36.392" transform="translate(14.147 -52.315)" fill="#faa05f"/>
      </g>
      <g id="Gruppe_8384" data-name="Gruppe 8384" transform="translate(148.834 349.986)" clip-path="url(#clip-path-2)">
        <path id="Pfad_10606" data-name="Pfad 10606" d="M162.025,152.027a48.469,48.469,0,0,1,1.866,8.165c.233,3.033-7,7.232-14,5.832-7-1.166-17.03-4.9-19.6-7s-7.7-33.36-7.7-33.36l6.065-1.866s5.132,20.3,7.932,22.629c2.8,2.566,25.428,5.6,25.428,5.6" transform="translate(14.571 -53.115)" fill="#5b3f00"/>
      </g>
      <g id="Gruppe_8385" data-name="Gruppe 8385" transform="translate(148.834 349.986)" clip-path="url(#clip-path-2)">
        <path id="Pfad_10607" data-name="Pfad 10607" d="M129.816,430.22c-5.832-10.031-38.492-53.655-46.657-65.32l-1.166.933a2.885,2.885,0,0,0-.7,3.5c2.333,4.432,38.025,49.456,44.324,60.887,5.832,10.031,16.33,19.6,23.1,17.963-6.3-1.866-14.23-9.8-18.9-17.963" transform="translate(-40.934 268.233)" fill="#e6e7e8"/>
      </g>
      <g id="Gruppe_8386" data-name="Gruppe 8386" transform="translate(148.834 349.986)" clip-path="url(#clip-path-2)">
        <path id="Pfad_10608" data-name="Pfad 10608" d="M260.5,343.093,122.859,461.835s-11.431.933-22.862-10.964-12.6-21.7-12.6-21.7L192.378,329.1l27.527-18.9Z" transform="translate(-32.345 195.326)" fill="#727272"/>
      </g>
      <g id="Gruppe_8387" data-name="Gruppe 8387" transform="translate(148.834 349.986)" clip-path="url(#clip-path-2)">
        <path id="Pfad_10609" data-name="Pfad 10609" d="M118.685,256.951l15.863-56.221c-13.53,0-39.658-10.731-46.657-17.03,0,0-8.632,83.749,0,88.415,8.632,4.432,17.5,13.064,31.493,18.2,27.761,10.031,65.553,17.03,65.553,17.03l-5.132-17.03Z" transform="translate(-36.803 26.722)" fill="#fcb477"/>
      </g>
      <g id="Gruppe_8388" data-name="Gruppe 8388" transform="translate(148.834 349.986)" clip-path="url(#clip-path-2)">
        <path id="Pfad_10610" data-name="Pfad 10610" d="M168.3,230.5a6.369,6.369,0,0,1-2.8,5.6l-.233-.233a9.32,9.32,0,0,1-.467-4.432,3.626,3.626,0,0,1-.233-7.232,3.546,3.546,0,0,1,3.5,3.266,13.3,13.3,0,0,1,.233,3.033" transform="translate(66.152 80.702)" fill="#657a10"/>
      </g>
      <g id="Gruppe_8389" data-name="Gruppe 8389" transform="translate(148.834 349.986)" clip-path="url(#clip-path-2)">
        <path id="Pfad_10611" data-name="Pfad 10611" d="M161.721,217.666c-.467.233-.933,0-.933-.7-.233-.467-.233-.933.233-1.166a1.4,1.4,0,0,1,.933.233c.233.467.233,1.4-.233,1.633" transform="translate(65.265 69.506)" fill="#fff"/>
      </g>
      <g id="Gruppe_8390" data-name="Gruppe 8390" transform="translate(148.834 349.986)" clip-path="url(#clip-path-2)">
        <path id="Pfad_10612" data-name="Pfad 10612" d="M160.766,234.1a1.55,1.55,0,0,1-1.166-.933,3.53,3.53,0,0,0,1.633-3.266,4.015,4.015,0,0,0-.467-2.8h.467c.933,0,1.633,1.633,1.4,3.733.233,1.866-.7,3.5-1.866,3.266" transform="translate(63.886 84.567)" fill="#83a30e"/>
      </g>
      <g id="Gruppe_8391" data-name="Gruppe 8391" transform="translate(148.834 349.986)" clip-path="url(#clip-path-2)">
        <path id="Pfad_10613" data-name="Pfad 10613" d="M163.966,231.565a1.55,1.55,0,0,1-1.166-.933,3.53,3.53,0,0,0,1.633-3.266V225.5c0-.233-.233-.467-.233-.7h.467c.933.233,1.633,1.633,1.4,3.733,0,1.633-.933,3.266-2.1,3.033" transform="translate(68.151 81.502)" fill="#83a30e"/>
      </g>
      <g id="Gruppe_8392" data-name="Gruppe 8392" transform="translate(148.834 349.986)" clip-path="url(#clip-path-2)">
        <path id="Pfad_10614" data-name="Pfad 10614" d="M147.886,214.6c2.8-2.1,5.832,2.8,5.832,2.8-.933,1.4-2.566,3.5-4.2,5.832a74.852,74.852,0,0,0-5.6,10.5c-.933-7.7,1.4-17.03,3.966-19.129" transform="translate(42.707 67.208)" fill="#657a10"/>
      </g>
      <g id="Gruppe_8393" data-name="Gruppe 8393" transform="translate(148.834 349.986)" clip-path="url(#clip-path-2)">
        <path id="Pfad_10615" data-name="Pfad 10615" d="M155.9,218.289l2.1-4.2a71.372,71.372,0,0,1,4.666-7.7c1.166-1.866,3.033-3.966,4.2-2.8s.7,4.432.7,4.432a111.525,111.525,0,0,1-2.8,12.131h0a9.5,9.5,0,0,0-8.865-1.866" transform="translate(58.954 52.787)" fill="#657a10"/>
      </g>
      <g id="Gruppe_8394" data-name="Gruppe 8394" transform="translate(148.834 349.986)" clip-path="url(#clip-path-2)">
        <path id="Pfad_10616" data-name="Pfad 10616" d="M161.073,215.279c-.933.467-1.166,2.1-.233,3.966.7,1.866,2.1,2.8,3.033,2.333,2.333-.933-.467-7.465-2.8-6.3" transform="translate(64.746 68.627)" fill="#010000"/>
      </g>
      <g id="Gruppe_8395" data-name="Gruppe 8395" transform="translate(148.834 349.986)" clip-path="url(#clip-path-2)">
        <path id="Pfad_10617" data-name="Pfad 10617" d="M159.057,223.425a3.2,3.2,0,0,0-6.3,1.166,3.4,3.4,0,0,0,3.733,2.8,3.7,3.7,0,0,0,2.566-3.966Z" transform="translate(54.631 76.112)" fill="#010000"/>
      </g>
      <g id="Gruppe_8396" data-name="Gruppe 8396" transform="translate(148.834 349.986)" clip-path="url(#clip-path-2)">
        <path id="Pfad_10618" data-name="Pfad 10618" d="M167.964,205.027c-1.166-1.166-3.033.933-4.2,2.8-.7,1.166-2.8,4.666-4.666,7.7a35.237,35.237,0,0,0-2.1,4.2l-2.1.7a35.178,35.178,0,0,1,2.8-6.065,42.18,42.18,0,0,1,4.432-6.765c4.2-4.9,5.6-6.3,7.7-4.9,3.033,3.966-2.8,20.529-2.8,20.529-.467-.467-.7-1.166-1.166-1.4a111.521,111.521,0,0,0,2.8-12.131c0-.233.467-3.5-.7-4.666" transform="translate(57.622 51.352)" fill="#83a30e"/>
      </g>
      <g id="Gruppe_8397" data-name="Gruppe 8397" transform="translate(148.834 349.986)" clip-path="url(#clip-path-2)">
        <path id="Pfad_10619" data-name="Pfad 10619" d="M147.862,215.209c2.333-2.8,4.666-2.1,5.132-1.866h0a6.86,6.86,0,0,1,3.266,3.5s-.467.7-1.633,2.1c0,0-3.266-4.9-5.832-2.8-2.8,2.1-5.132,11.431-3.966,19.129C143.9,237.371,143.2,239,143.2,239c-1.166-8.165.7-19.363,4.666-23.795" transform="translate(41.565 65.898)" fill="#83a30e"/>
      </g>
      <g id="Gruppe_8398" data-name="Gruppe 8398" transform="translate(148.834 349.986)" clip-path="url(#clip-path-2)">
        <path id="Pfad_10620" data-name="Pfad 10620" d="M208.791,245.637s1.866.7,3.266,1.4a39.424,39.424,0,0,0-10.264-27.294,8.937,8.937,0,0,0-8.631-1.866l-2.1.7a11.9,11.9,0,0,1-3.733-5.6,4.7,4.7,0,0,1,.467-3.966c-1.166-.467-2.1-1.166-3.266-1.633-20.529-8.631-42.924-2.1-52.256,14.464a21.329,21.329,0,0,0-1.633,3.266c-.233.467-.467,1.166-.7,1.633-5.6,15.4.933,32.893,15.163,43.624a44.787,44.787,0,0,0,10.264,5.832,11.372,11.372,0,0,0,2.566.933,44.081,44.081,0,0,0,9.565,2.333,43.508,43.508,0,0,0,18.2-1.166,36.262,36.262,0,0,0,5.366-1.866,34.8,34.8,0,0,0,7-4.2c-2.333-.933-4.666-2.1-4.666-2.1s-3.266-2.333-1.633-7.7c2.1-5.132,8.865-16.1,17.03-16.8m-50.156-14c2.1-5.366,6.065-7.7,11.2-6.765a6.875,6.875,0,0,1,3.033,1.166h0a6.859,6.859,0,0,1,3.266,3.5s-.467.7-1.633,2.1c-.933,1.4-2.566,3.5-4.2,5.832a74.859,74.859,0,0,0-5.6,10.5c-.933,2.1-1.633,3.733-1.633,3.733-6.765-4.9-6.3-14.7-4.432-20.062Zm17.73-13.764a2.633,2.633,0,0,1-2.566-.7s-3.966-2.333-6.532-3.733a53.658,53.658,0,0,0-9.8-3.266c-1.866-.467-3.033-.467-3.033-1.166,0-.467,1.166-1.4,2.8-1.4s3.266,0,8.865,1.866a75.393,75.393,0,0,1,11.431,5.832,1.567,1.567,0,0,1-1.166,2.566Zm15.63,28.461a3.274,3.274,0,0,1-6.532.467,3.166,3.166,0,0,1,2.8-3.5,3.575,3.575,0,0,1,3.733,3.033Zm14.93-9.331c-.933.467-2.333-.7-3.033-2.566s-.7-3.5.233-3.966c2.333-.933,5.132,5.6,2.8,6.532Z" transform="translate(21.694 53.2)" fill="#a1c710"/>
      </g>
      <g id="Gruppe_8399" data-name="Gruppe 8399" transform="translate(148.834 349.986)" clip-path="url(#clip-path-2)">
        <path id="Pfad_10621" data-name="Pfad 10621" d="M148.1,239.1a4.773,4.773,0,0,1-4.666,4.2,5.166,5.166,0,0,1-6.3-4.2v-.233c-.233-.933-1.166-5.132-1.633-6.765a44.79,44.79,0,0,0,10.264,5.832A10.755,10.755,0,0,0,148.1,239.1" transform="translate(31.765 91.232)" fill="#83a30e"/>
      </g>
      <g id="Gruppe_8400" data-name="Gruppe 8400" transform="translate(148.834 349.986)" clip-path="url(#clip-path-2)">
        <path id="Pfad_10622" data-name="Pfad 10622" d="M161.229,215.7a2.633,2.633,0,0,1-2.566-.7s-3.966-2.333-6.532-3.733a82.185,82.185,0,0,0-9.8-3.5c-1.866-.467-3.033-.467-3.033-1.166,0-.467,1.166-1.4,2.8-1.4s3.266,0,8.865,1.866A75.4,75.4,0,0,1,162.4,212.9c.467.933.467,2.566-1.166,2.8" transform="translate(36.829 55.378)" fill="#83a30e"/>
      </g>
      <g id="Gruppe_8401" data-name="Gruppe 8401" transform="translate(148.834 349.986)" clip-path="url(#clip-path-2)">
        <path id="Pfad_10623" data-name="Pfad 10623" d="M152.977,212.774a6.874,6.874,0,0,1,3.033,1.166c-.467-.233-2.8-.933-5.132,1.866-3.966,4.666-5.832,15.63-4.432,23.795-7-4.9-6.532-14.464-4.666-19.829,2.1-5.6,6.3-7.7,11.2-7" transform="translate(38.549 65.3)" fill="#c6dd36"/>
      </g>
      <g id="Gruppe_8402" data-name="Gruppe 8402" transform="translate(148.834 349.986)" clip-path="url(#clip-path-2)">
        <path id="Pfad_10624" data-name="Pfad 10624" d="M163.2,235.6l-.467,7.932s.233,3.033-7.465,3.966c-7.932.933-7.932-2.8-8.165-3.5-.233-.467-1.633-5.366-2.1-7.232a43.507,43.507,0,0,0,18.2-1.166" transform="translate(44.427 95.896)" fill="#83a30e"/>
      </g>
      <g id="Gruppe_8403" data-name="Gruppe 8403" transform="translate(148.834 349.986)" clip-path="url(#clip-path-2)">
        <path id="Pfad_10625" data-name="Pfad 10625" d="M172.1,224.266a19.764,19.764,0,0,0-9.8,11.431c-2.1,5.366-1.633,10.031.233,12.131a5.087,5.087,0,0,0,1.166.933l.467.233a2.1,2.1,0,0,0,1.166.233s.233,3.266-3.966,4.666a7.076,7.076,0,0,1-6.065-1.4,34.8,34.8,0,0,0,7-4.2c-2.333-.933-4.666-2.1-4.666-2.1s-3.266-2.333-1.633-7.7c1.866-5.366,8.4-16.33,16.563-16.8,0,0,1.866.7,3.266,1.4v.467a5.97,5.97,0,0,0-3.733.7" transform="translate(58.155 77.37)" fill="#83a30e"/>
      </g>
      <g id="Gruppe_8404" data-name="Gruppe 8404" transform="translate(148.834 349.986)" clip-path="url(#clip-path-2)">
        <path id="Pfad_10626" data-name="Pfad 10626" d="M164.5,208.3a42.18,42.18,0,0,0-4.432,6.765c-.933,1.866-1.866,3.966-2.8,6.065a13.178,13.178,0,0,1-3.733-5.6,4.7,4.7,0,0,1,.467-3.966,39.926,39.926,0,0,1,4.2-4.666c3.966-3.966,10.5-7.465,13.53-3.5-1.633-1.4-3.266,0-7.232,4.9" transform="translate(55.484 50.65)" fill="#c6dd36"/>
      </g>
      <g id="Gruppe_8405" data-name="Gruppe 8405" transform="translate(148.834 349.986)" clip-path="url(#clip-path-2)">
        <path id="Pfad_10627" data-name="Pfad 10627" d="M175.086,223.1a4.7,4.7,0,0,0-2.566-.7,6.075,6.075,0,0,0-3.5.933,21.018,21.018,0,0,0-10.031,11.431c-2.1,5.366-1.633,10.031.233,12.131a5.087,5.087,0,0,0,1.166.933l.467.233a2.1,2.1,0,0,0,1.166.233,9.8,9.8,0,0,0,7.465-2.566,25.265,25.265,0,0,0,7.932-13.3c.933-5.6-.933-8.165-2.333-9.331Zm-9.331,14c-.233,1.866-1.166,3.266-2.1,3.266a1.55,1.55,0,0,1-1.166-.933,5.918,5.918,0,0,1-.467-2.8,4.081,4.081,0,0,1,1.633-3.266h.467c1.166.233,1.866,1.866,1.633,3.733Zm7.465-5.6c-.233,1.866-1.166,3.266-2.1,3.266a1.55,1.55,0,0,1-1.166-.933V233.6a4.634,4.634,0,0,1-.233-2.566,4.081,4.081,0,0,1,1.633-3.266h.467c.933.233,1.633,1.866,1.4,3.733Z" transform="translate(61.23 78.303)" fill="#c6dd36"/>
      </g>
      <g id="Gruppe_8406" data-name="Gruppe 8406" transform="translate(148.834 349.986)" clip-path="url(#clip-path-2)">
        <path id="Pfad_10628" data-name="Pfad 10628" d="M161.6,229.9a4.082,4.082,0,0,1-1.633,3.266,5.918,5.918,0,0,1-.467-2.8,4.081,4.081,0,0,1,1.633-3.266,4.015,4.015,0,0,1,.467,2.8" transform="translate(63.753 84.567)" fill="#657a10"/>
      </g>
      <g id="Gruppe_8407" data-name="Gruppe 8407" transform="translate(148.834 349.986)" clip-path="url(#clip-path-2)">
        <path id="Pfad_10629" data-name="Pfad 10629" d="M176.655,250.393l-22.862-9.331c-2.1-.933-3.266-3.733-2.566-6.3a4.346,4.346,0,0,1,2.1-2.8l5.132-3.033c3.266-3.266,4.432-6.532,2.566-9.331l-17.263,13.064-18.429,9.8L123,254.359l11.9,6.765a38.322,38.322,0,0,0,18.2,3.966c3.733,1.4,6.3-3.5,6.3-3.5.233-.933,3.033-1.866,3.5-2.566l1.4-1.4a4.3,4.3,0,0,0,1.166-3.733s7.7,2.333,8.632,1.4a4.542,4.542,0,0,0,2.566-4.9" transform="translate(15.104 74.571)" fill="#fcb477"/>
      </g>
      <g id="Gruppe_8408" data-name="Gruppe 8408" transform="translate(148.834 349.986)" clip-path="url(#clip-path-2)">
        <path id="Pfad_10630" data-name="Pfad 10630" d="M128.724,149.507c2.1-.233,7.232-3.966,10.964,36.859.933,10.964-2.566,49.223-7,78.85-14-3.033-33.826-3.033-48.29-2.8.233-47.123,14.7-108.477,44.324-112.909" transform="translate(-36.344 -19.101)" fill="#9f230b"/>
      </g>
    </g>
  </g>
</svg>
