<?xml version="1.0" encoding="UTF-8"?>
<svg id="uuid-48064707-a6fd-4d8a-ad82-34244ff7d462" data-name="Gruppe 8128" xmlns="http://www.w3.org/2000/svg" width="191.145" height="403.58499" viewBox="0 0 191.145 403.58499">
  <defs>
    <style>
      .uuid-b26513aa-daff-4cb1-ba49-774d37962408 {
        fill: #faa05f;
      }

      .uuid-2e5dfc6e-0ded-47bc-a5ea-fb36aed86b77 {
        fill: #00443c;
      }

      .uuid-857b5ef1-98ec-4058-8b0d-27e42c492b6b {
        fill: #fcb477;
      }

      .uuid-18e13aa9-090c-47ab-8f1e-8026b2c81147 {
        fill: #745916;
      }

      .uuid-1f37be11-fcc1-4887-bdca-c0829b289e5a {
        fill: #9e240b;
      }

      .uuid-d5f01f5d-d204-468d-a410-20c62155385f {
        fill: #8d6105;
      }

      .uuid-3e15bf78-2957-4c24-b20a-b62be1ed5493 {
        fill: #e33e22;
      }

      .uuid-acbed978-12f6-4eb9-af57-c9ab8eb164b7 {
        fill: #5d5d5c;
      }

      .uuid-851df648-8ea6-4dd2-83a8-773823725f89 {
        fill: #787878;
      }
    </style>
  </defs>
  <g id="uuid-b81b8c36-43d7-4d0f-bdeb-6ec3c740ca06" data-name="Gruppe 8127">
    <path id="uuid-9134eee5-50b1-4b9c-9ed7-5d68e8b286f9" data-name="Pfad 10374" class="uuid-857b5ef1-98ec-4058-8b0d-27e42c492b6b" d="m53.314,352.73599l6.79199,28.29999h10l.37701-28.29999h-17.16901Z"/>
    <path id="uuid-f5db51f5-3f77-4ab5-8dc4-e27f8e9f9548" data-name="Pfad 10375" class="uuid-857b5ef1-98ec-4058-8b0d-27e42c492b6b" d="m138.12601,353.962l19.05701,27.07501,7.547-9.52802-11.604-21.32098-15,3.77399Z"/>
    <path id="uuid-7cfa4749-3c1b-46e3-9e07-a00b7b29688f" data-name="Pfad 10376" class="uuid-18e13aa9-090c-47ab-8f1e-8026b2c81147" d="m73.40903,1.415c-3.52417-.96806-7.24829-.93552-10.755.094.51245-.67257,1.1973-1.19398,1.98196-1.509-1.79199.094-5.47202,2.642-5.47202,2.642-26.60001-4.528-23.11301,32.547-20.94299,40.849s-6.03799,12.83-17.547,22.075C-1.21301,83.207.01398,100.56599.01398,100.56599c.189.09399.47198.189.66.283.755-2.26401,2.547-6.7,4.52802-7.642,0,.189-1.41501,5.849-1.70001,8.96201,8.29999,4.05701,24.245,13.491,35.47198,20.189-.47247-1.783-.63217-3.63443-.47198-5.472l2.547,6.79201c5.94299,3.58501,10.09399,6.132,10.09399,6.132-1.98099-6.7,22.16998-48.96201,36.41498-63.019,2.83002-6.7,2.16998-17.358,2.07501-18.208.94299,8.4.47198,13.3-.28302,16.132,11.51202-15.56401-5.84692-59.99801-15.94092-63.30001Z"/>
    <path id="uuid-9c5e7359-89f5-4d39-b545-03ad2cf1ad8a" data-name="Pfad 10377" class="uuid-857b5ef1-98ec-4058-8b0d-27e42c492b6b" d="m79.82401,67.264c.09399,0-8.11301,4.245-14.245,2.642-5.755-1.6-9.52802-9.057-9.43399-9.057,2.453-.472,3.11301-3.868,3.11301-18.3l1.13199.189,18.58499,3.679s-.37701,5.849-.47198,11.321c0,4.62.28299,9.05399,1.32098,9.52599Z"/>
    <path id="uuid-4c9ebc87-0c9b-4adc-a5b5-1c80ed45cc9a" data-name="Pfad 10378" class="uuid-b26513aa-daff-4cb1-ba49-774d37962408" d="m79.06702,46.415c-.34152,2.94331-.49915,5.90506-.47198,8.868-10.37701-.283-20.56601-8.774-22.82999-13.962l23.30197,5.094Z"/>
    <path id="uuid-27dd7cf9-019d-46bc-a9a8-c4ac61ca639f" data-name="Pfad 10379" class="uuid-851df648-8ea6-4dd2-83a8-773823725f89" d="m161.70999,365.00001c-2.55771.7254-5.18015,1.19934-7.82999,1.41501-.84683.07507-1.69696.10645-2.547.09399-2.64554-.19464-5.26703-.63693-7.82999-1.32101h-.189c-1.03799-.28299-1.79199-.47198-2.17001-.56601l-2.547-6.32101s-16.509-22.82999-30.28299-66.79199c0,0-3.58499-9.151-3.96201-10.189-7.547-22.07501-23.491-45.849-31.70001-70.94299-1.32101-3.96201-5.09399-2.82999-6.22601-6.41501-.37701-1.13199-.66-2.26401-.94299-3.39999-6.133-21.12799-7.83301-35.09099-9.43298-49.90199l49.71701,12.83s19.71698,90.095,55.94296,201.51001Z"/>
    <path id="uuid-1596a8d7-056f-457a-a7ed-0d6bdda764be" data-name="Pfad 10380" class="uuid-857b5ef1-98ec-4058-8b0d-27e42c492b6b" d="m80.38998,51.604s-21.41501,4.151-25.28299-12.453c-3.77399-16.6-9.245-27.17,4.811-30.566,13.96201-3.4,19.34.943,21.70001,6.321,2.35696,5.28301,4.81097,34.62201-1.22803,36.69801Z"/>
    <path id="uuid-3b6c16dd-34c0-4954-b6cb-5a623292eb30" data-name="Pfad 10381" class="uuid-d5f01f5d-d204-468d-a410-20c62155385f" d="m71.711,6.604s-3.01901,18.962-12.64099,23.585-14.52798,2.83-14.52798,2.83c4.1084-5.4102,6.2092-12.07989,5.94299-18.868-.095,0,14.52798-14.906,21.22598-7.547Z"/>
    <path id="uuid-29dd35ea-fd54-402e-b6a8-271aa466ae27" data-name="Pfad 10382" class="uuid-d5f01f5d-d204-468d-a410-20c62155385f" d="m68.59702,8.679s6.88699,3.208,9.245,7.17c2.358,3.96201,4.811,12.642,7.547,11.792,0,0,3.39999-14.623-5-20.849-8.96201-6.509-11.79199,1.887-11.79199,1.887Z"/>
    <path id="uuid-0c1395b7-b7ca-433e-a10e-a7024e31a0ee" data-name="Pfad 10383" class="uuid-857b5ef1-98ec-4058-8b0d-27e42c492b6b" d="m59.72998,379.43401c.43497,3.91681-.01651,7.88129-1.32101,11.60001,0,0-1.60001,7.547,5.755,7.642s9.245-.56601,8.39999-5.189-2.453-12.547-2.453-12.547l-10.38098-1.50601Z"/>
    <path id="uuid-cfdcd088-80eb-4300-aabb-c4e481b2c656" data-name="Pfad 10384" class="uuid-2e5dfc6e-0ded-47bc-a5ea-fb36aed86b77" d="m58.40799,391.03802s-1.41501,7.07501-.56601,10.849c0,0,2.26401,1.70001,7.642,1.70001,5.09399,0,7.73599-1.70001,7.73599-1.70001,0,0,.189-7.73599-1.22601-11.03799.09402-.00003-5.18896,7.92499-13.58597.189Z"/>
    <path id="uuid-a101925b-a5d9-4401-a7a3-a5ad546f5781" data-name="Pfad 10385" class="uuid-857b5ef1-98ec-4058-8b0d-27e42c492b6b" d="m182.55998,394.339s-13.67899-15.09399-17.82999-22.82999l-10.189,5.189,22.642,21.32098,5.28299-.66.09399-3.01999Z"/>
    <path id="uuid-5d55eaac-08a9-44d1-92f7-3c3c04ab5b5d" data-name="Pfad 10386" class="uuid-2e5dfc6e-0ded-47bc-a5ea-fb36aed86b77" d="m191.14398,403.20699s-14.62299,0-17.17001-.28299-4.52802-3.86801-7.26401-9.34c-1.13199-2.26401-3.58499-3.491-6.13199-4.151v12.642h-3.86801l-3.67899-13.39999c-2.453-4.43399-.189-8.491,1.509-11.98099,1.98099,0,7.26401,1.32101,17.358,12.73599,3.29999,3.77399,6.98099,5.09399,10.56601,4.90601.09399,0,.09399.09399.189.09399,8.39902,3.77698,8.491,8.77698,8.491,8.77698Z"/>
    <path id="uuid-f6968492-55c3-4d70-a9d7-39dfb0a32cd2" data-name="Pfad 10387" class="uuid-acbed978-12f6-4eb9-af57-c9ab8eb164b7" d="m143.59702,365.28301c-2.73599-1.79199-.189,0-.189,0l-2.17001-.56601h-.09399s-18.866-29.05701-32.73599-73.01901c-.28299-1.03799-6.60001-17.07501-6.98099-18.11301-7.547-22.07501-18.491-30.37701-26.79199-55.37698-1.32101-3.96201-7.07501-10.37701-8.11301-13.96201-.37701-1.13199-.66-2.26401-.94299-3.39999l8.77399-6.7s26.41501,42.73601,34.52798,82.924c6.79099,33.21301,34.716,88.21301,34.716,88.21301Z"/>
    <path id="uuid-cd3d322b-0b7f-4d70-b0b8-9a5dfcc3949e" data-name="Pfad 10388" class="uuid-851df648-8ea6-4dd2-83a8-773823725f89" d="m75.29599,280.66c.189,19.52798-.849,64.52798-3.39999,83.11301,0,0-2.453,2.17001-8.39999,2.17001-6.13199,0-8.86801-2.26401-8.86801-2.26401-6.41501-32.358-8.11301-66.79199-11.41501-89.811-2.73599-18.96201-6.79199-28.86801-8.67899-42.82999-1.60001-12.35901-3.96201-21.60001-4.62299-30.755-.09399-1.22601-.189-2.453-.189-3.679-.09399-1.60001-.09399-3.11301-.189-4.528v-4.34h.189l12.35901-1.226,35.37701-5.56599c-.55804,34.24399-2.25705,88.39899-2.16205,99.71597Z"/>
    <path id="uuid-0fb696ca-9a8d-44ea-bdc1-8a1c95a41fca" data-name="Pfad 10389" class="uuid-3e15bf78-2957-4c24-b20a-b62be1ed5493" d="m79.82401,59.528c6.509-.377,16.32098-.189,20.66,4.151,8.20801,8.208,23.67899,55.189,23.11301,60.566-.189,2.075-8.39999,1.132-11.13199-1.79201-12.64099-13.20801-30.28299-44.90601-36.98099-58.679,1.54599-1.31008,2.99637-2.72903,4.33997-4.24599Z"/>
    <path id="uuid-3b214194-0eed-4c0d-934b-5e7dc0a2715c" data-name="Pfad 10390" class="uuid-3e15bf78-2957-4c24-b20a-b62be1ed5493" d="m108.87997,172.35799c2.642,15.189-81.03799,30.66-81.60001,13.20799-.14185-5.00314-.01599-10.0103.37701-15,1.03799-17.26401,3.86801-38.58499,5.189-50.377.66-5.377-1.41501-29.528.09399-42.64101.16122-1.69193.47687-3.36557.94299-5,3.01901-9.906,20.37701-12.83,23.491-12.83,14.245,12.264,21.32101,0,21.32101,0,0,0,21.41501,23.491,24.43399,30.849,3.01901,7.453.56601,45.377,1.41501,58.58501.845,12.54602,1.694,7.73502,4.336,23.20601Z"/>
    <path id="uuid-77934309-5947-443f-9e69-4a734edec663" data-name="Pfad 10391" class="uuid-1f37be11-fcc1-4887-bdca-c0829b289e5a" d="m57.93698,136.88699s.849,55.849-11.22601,56.41499c-5.94299.283-15.37701-1.60001-18.86801-4.623-5.37701-11.132,3.67899-56.79201,5-68.491.66-5.377-1.41501-29.528.09399-42.64101.37701.09399.755.283,1.22601.377,35.47205,6.88702,26.98203,51.41502,23.77402,58.96301Z"/>
    <path id="uuid-33963e54-2997-42a9-b397-ad3f7a477ca5" data-name="Pfad 10392" class="uuid-b26513aa-daff-4cb1-ba49-774d37962408" d="m122.56,125.094s-21.03799,6.88699-46.70001-4.151c0,0-6.98099-.66-10.47198.189,0,0,.755-6.981,4.151-8.868s18.01901,2.17,22.35901,1.60001c9.53-1.22301,26.134-2.261,30.66199,11.23Z"/>
    <path id="uuid-9e60cdb4-3df9-4072-bc68-c568d4d883bb" data-name="Pfad 10393" class="uuid-b26513aa-daff-4cb1-ba49-774d37962408" d="m73.02802,111.887c-.28299,0-9.90601,1.226-11.70001,2.453-1.70001,1.226-.189,5.472,3.01901,5.849,3.30701.377,8.681-8.302,8.681-8.302Z"/>
    <path id="uuid-fb4a6c2b-ef45-4c50-a333-a525733de5ae" data-name="Pfad 10394" class="uuid-857b5ef1-98ec-4058-8b0d-27e42c492b6b" d="m46.711,118.30199s27.453-1.03799,52.453-5.849c0,0,4.52802,0,4.05701,4.05701-.56601,3.96201-43.20801,26.226-52.547,21.981l-3.96301-20.18901Z"/>
    <path id="uuid-11a90274-3cdb-4b92-81cb-d65dbb1e444e" data-name="Pfad 10395" class="uuid-857b5ef1-98ec-4058-8b0d-27e42c492b6b" d="m99.069,112.548s2.92499-3.491,4.71701-3.491,6.509,2.358,7.26401,4.43401c.66,2.075-5.56601.56599-7.92499,3.11301-2.35703,2.45299-4.05603-4.05602-4.05603-4.05602Z"/>
    <path id="uuid-0f590fc5-160b-4f54-a085-f2c68ec5d35a" data-name="Pfad 10396" class="uuid-3e15bf78-2957-4c24-b20a-b62be1ed5493" d="m57.466,59.717s-23.11301.094-26.51001,8.4c-6.13199,15.189,14.151,65.37699,19.52802,70.47199,2.26401,2.17,13.01901-1.226,13.01901-15.755-.00003-7.55099-.56601-51.41699-6.03702-63.11699Z"/>
  </g>
</svg>