<?xml version="1.0" encoding="UTF-8"?>
<svg id="uuid-ca176b29-8254-4367-9e6f-a1f35d7549d5" data-name="Gruppe 8126" xmlns="http://www.w3.org/2000/svg" width="203.55099" height="537.93597" viewBox="0 0 203.55099 537.93597">
  <defs>
    <style>
      .uuid-08b06ab2-c741-4dda-8077-5295e77c2001 {
        fill: #faa05f;
      }

      .uuid-8ce3e160-1f78-413f-a0e1-9c9043ef95c5 {
        fill: #00443c;
      }

      .uuid-8e00158e-47ae-4fb4-8840-cff8ae2ba9bf {
        fill: #fcb477;
      }

      .uuid-e5ae0099-d3db-4ff6-9701-7b0bf0c615be {
        fill: #035339;
      }

      .uuid-980318d0-a650-4a40-8792-254b05d7eb86 {
        fill: #8d6105;
      }

      .uuid-b18871f4-910a-4001-9b9e-15cad9ea8b4d {
        fill: #bbb099;
      }

      .uuid-49a9dfdc-b7d5-4673-82ab-e432cfbf8a0b {
        fill: #5b460c;
      }

      .uuid-2dc558b4-e503-4eb5-9618-3c88d0503c4b {
        fill: #5b3f00;
      }

      .uuid-2541ee49-16f5-4639-ab7b-155d83662aec {
        fill: #7aae63;
      }
    </style>
  </defs>
  <g id="uuid-45d9cf2e-449e-411b-a503-8a90202e8851" data-name="Gruppe 8115">
    <path id="uuid-9367d992-bca1-4425-b892-785ed17ea096" data-name="Pfad 10355" class="uuid-08b06ab2-c741-4dda-8077-5295e77c2001" d="m57.769,34.115h0c-1.82776,2.081-1.62247,5.24968.45853,7.07745.23949.21034.49847.39737.77347.55856l.493.246c1.58385.98436,3.58916.98436,5.173,0l5.05-2.217c1.76836-.69704,3.71883-.78362,5.54199-.246l2.463.616c2.586.739,6.158-.739,6.39999-2.709h0c.11157-.90608-.5325-1.73106-1.43858-1.84263-.01312-.00162-.02626-.00307-.03941-.00437l-20.2-3.2c-1.74821-.24557-3.50328.40051-4.67499,1.721Z"/>
  </g>
  <path id="uuid-59c80dc8-9eca-4417-beea-97ecd505366f" data-name="Pfad 10356" class="uuid-08b06ab2-c741-4dda-8077-5295e77c2001" d="m54.31999,55.298c2.586-4.8,5.173-9.36,7.759-13.424,4.92599-7.759-4.8-10.592-4.8-10.592-5.66899,5.78801-12.31599,12.68501-18.847,19.70501l15.888,4.311Z"/>
  <g id="uuid-94f8db30-c860-4066-93a1-39995b10b511" data-name="Gruppe 8116">
    <path id="uuid-0a6ffb4a-f509-420a-bdca-be5c06626731" data-name="Pfad 10357" class="uuid-8e00158e-47ae-4fb4-8840-cff8ae2ba9bf" d="m87.82,462.58499l6.39999,50.742-13.91299,10.22198,29.065,1.23199-2.34-11.207-1.231-53.57498-17.981,2.586Z"/>
  </g>
  <path id="uuid-4e2aae4a-fe3b-40ec-b759-4c424327a95f" data-name="Pfad 10358" class="uuid-980318d0-a650-4a40-8792-254b05d7eb86" d="m110.851,534.018l-2.463-16.87299s-.862,4.55701-8.744,4.55701c-8.005,0-9.36-5.173-10.10001-4.92599-.616.246-20.69099,6.28101-29.558,8.991-2.61197.76453-4.65448,2.80704-5.41901,5.41901l-.86198,2.83197,49.263,3.32501,7.883-3.32501Z"/>
  <rect id="uuid-ee1aa3dd-e38c-4a9e-b87e-fc39e0f42ecb" data-name="Rechteck 1635" class="uuid-2dc558b4-e503-4eb5-9618-3c88d0503c4b" x="80.66321" y="507.05886" width="3.325" height="57.14605" transform="translate(-453.41918 617.21899) rotate(-89.921)"/>
  <path id="uuid-cfef7c59-1cc3-41b8-95a4-5deff0f49d9a" data-name="Pfad 10359" class="uuid-b18871f4-910a-4001-9b9e-15cad9ea8b4d" d="m101.12,243.23599c-10.222-26.849-35.22301-24.38499-39.657-7.636-11.823,43.84502-2.95599,126.36101-1.478,142.98802,2.09399,22.90799,41.381,54.19,41.87399,6.28101.61601-67.85803,11.08401-110.47101-.739-141.63303Z"/>
  <g id="uuid-fb6fa350-9ae1-4d4d-8a90-6cb5a8c40434" data-name="Gruppe 8119">
    <g id="uuid-9e013ad4-a016-48b1-b176-3bdc386f1b9b" data-name="Gruppe 8118">
      <g id="uuid-86a1e0af-c90f-48f8-8734-2359dbc1c07f" data-name="Gruppe 8117">
        <path id="uuid-946eb20a-24d5-4a33-a8d0-31fa346dc30a" data-name="Pfad 10360" class="uuid-b18871f4-910a-4001-9b9e-15cad9ea8b4d" d="m101.367,375.88098c1.355,37.564,10.715,126.854,10.715,126.854l-20.814,1.84698s-12.562-38.54901-31.159-125.13c-3.07901-13.91599,40.519-24.38397,41.258-3.57098Z"/>
      </g>
    </g>
  </g>
  <path id="uuid-b00fea0e-8e1a-480e-8ccd-1067b269ef87" data-name="Pfad 10361" class="uuid-8e00158e-47ae-4fb4-8840-cff8ae2ba9bf" d="m121.31901,473.67001l8.867,50.86499,11.946-1.108-2.217-49.13998-18.59601-.617Z"/>
  <path id="uuid-f7d7fd3f-37df-4aec-aa46-9258c51e6b2f" data-name="Pfad 10362" class="uuid-980318d0-a650-4a40-8792-254b05d7eb86" d="m128.339,516.77501l15.64101.12299,14.77901,15.88699-32.39101,2.21802,1.97099-18.228Z"/>
  <rect id="uuid-43fd7cc6-f5b3-47e2-9e49-bee485c9ff17" data-name="Rechteck 1636" class="uuid-2dc558b4-e503-4eb5-9618-3c88d0503c4b" x="126.401" y="533.995" width="32.883" height="3.941"/>
  <path id="uuid-20f20c64-5ca0-44cb-af6d-cdbbf8514fa0" data-name="Pfad 10363" class="uuid-2dc558b4-e503-4eb5-9618-3c88d0503c4b" d="m126.368,534.50999c0-3.20001,3.448-5.78799,14.65601-5.66501s18.22701,1.60001,18.22701,5.66501c0,3.94101-17.36501,1.60001-17.36501,1.60001l-15.51801-1.60001Z"/>
  <g id="uuid-d6b351eb-55c7-4e41-8c67-8690f1736669" data-name="Gruppe 8124">
    <g id="uuid-d3db26df-a4cc-4ce2-a6a9-e9ce04c6dd3c" data-name="Gruppe 8123">
      <g id="uuid-cc4b0926-0abe-4e5d-8f1b-5f98c9b15009" data-name="Gruppe 8120">
        <path id="uuid-40d57168-5640-400b-9e20-7b785a4af550" data-name="Pfad 10364" class="uuid-b18871f4-910a-4001-9b9e-15cad9ea8b4d" d="m137.21,241.39101c-11.33099-25.987-59.116-17.981-61.94901-.985-7.26601,44.58398,31.405,129.81,33.992,146.19,3.69501,22.66101,43.47501,37.31702,40.14999-10.46899-4.56099-67.61401.98102-104.43802-12.19299-134.73601Z"/>
      </g>
      <g id="uuid-d2b01655-4531-4e62-8ac4-8357b2b75c49" data-name="Gruppe 8122">
        <g id="uuid-1b5f0a8a-41dd-46bc-a4c5-fb9858bff6f1" data-name="Gruppe 8121">
          <path id="uuid-83bcde25-b403-4286-a355-c42631182e48" data-name="Pfad 10365" class="uuid-b18871f4-910a-4001-9b9e-15cad9ea8b4d" d="m149.522,376.12799c.616,20.93701-5.173,125.86899-5.173,125.86899l-19.952.616s-17.242-109.73502-16.62599-124.021c.616-14.04099,41.13499-23.27798,41.75099-2.46399Z"/>
        </g>
      </g>
    </g>
  </g>
  <path id="uuid-2949ed7b-4e21-4239-a8e3-710f60a6ff88" data-name="Pfad 10366" class="uuid-8e00158e-47ae-4fb4-8840-cff8ae2ba9bf" d="m133.635,110.35001c-8.867-1.478-19.09-4.92599-25.987-4.92599-6.52699,0-18.72,2.83299-28.942,5.173,1.60001,11.084,13.05499,20.56799,26.972,20.56799,14.77901-.00101,27.464-8.74101,27.957-20.815Z"/>
  <path id="uuid-4c9e36a7-d4ed-402b-acf1-f6934af1f137" data-name="Pfad 4290" class="uuid-2541ee49-16f5-4639-ab7b-155d83662aec" d="m91.884,100.128l5.541-7.266,27.711,3.448-37.31601,161.33899-25.98599-1.60001-1.108-98.64999,16.011-41.258,15.147-16.01299Z"/>
  <path id="uuid-7dfd9b92-7705-486d-9d73-0a79032924d9" data-name="Pfad 4291" class="uuid-8ce3e160-1f78-413f-a0e1-9c9043ef95c5" d="m95.45499,96.187s-32.63699,45.938-32.75999,69.83099c-.246,24.26199,9.853,60.10001,9.853,60.10001l-16.62599,69.215s-3.94099-13.67099,3.94099-67c-2.09399-20.814-6.158-82.26999-5.66499-95.94101,0,0-40.88901-10.345-50.12601-24.509s-.616-22.661,4.8-28.7,37.68901-41.00399,37.68901-41.00399l12.562,18.72-29.188,32.88c-.246.12701,37.687,11.95,65.51999,6.408Z"/>
  <path id="uuid-d6226389-7b48-4afa-83a9-32401f78c52d" data-name="Pfad 4295" class="uuid-8ce3e160-1f78-413f-a0e1-9c9043ef95c5" d="m136.71399,96.187c-1.81479,23.26955-9.43701,45.71227-22.16901,65.274-21.18298,31.65201-42.24299,64.782-42.24299,64.782l15.271,74.144s48.771-2.09399,62.07199-28.20001c0,0-9.483-38.42599-10.468-43.968-1.108-5.54201,22.045-48.52501,22.045-48.52501l9.237-57.146c.12302-.00497-31.40498-23.65097-33.745-26.36098Z"/>
  <path id="uuid-3582f636-5aa1-46e4-a969-97ea1320c956" data-name="Pfad 4296" class="uuid-e5ae0099-d3db-4ff6-9701-7b0bf0c615be" d="m136.714,96.187c-1.97099-2.094-7.26601-5.665-9.114-8.005,0,0-44.953,106.533-55.3,137.938l44.707-54.806.369-13.547,7.759-1.847c.125.123,17.36699-31.283,11.57899-59.733Z"/>
  <path id="uuid-437c4959-d673-4bae-b2ff-5008b7c6bcc1" data-name="Pfad 4297" class="uuid-e5ae0099-d3db-4ff6-9701-7b0bf0c615be" d="m72.425,226.24301s-5.41901-41.01201.369-71.18599,24.386-61.94902,24.386-61.94902c0,0-26.233,26.356-30.91299,38.179l2.586,6.52699-6.158,5.173c-.123.121-3.94099,41.136,9.73,83.25601Z"/>
  <path id="uuid-83470518-1602-4581-8c63-d3fc8ca650e4" data-name="Pfad 10367" class="uuid-8e00158e-47ae-4fb4-8840-cff8ae2ba9bf" d="m96.564,35.47l31.159,5.419s-.862,40.519,0,47.416c-1.724,3.94099-2.71001,7.02-3.57201,9.114-29.435,41.87399-29.558,4.43401-29.558,4.43401l1.97101-66.383Z"/>
  <path id="uuid-d46b6c74-6a10-45c1-a98a-41022692a954" data-name="Pfad 10368" class="uuid-8e00158e-47ae-4fb4-8840-cff8ae2ba9bf" d="m120.33299,11.084c-22.41501-10.469-33.007-1.847-37.563,14.9s-9.114,47.539,2.83299,50.988c11.946,3.572,36.578-2.833,40.76599-19.829s6.52603-40.147-6.03598-46.059Z"/>
  <path id="uuid-0e53d220-2beb-48f2-ae41-980a318d9781" data-name="Pfad 10369" class="uuid-49a9dfdc-b7d5-4673-82ab-e432cfbf8a0b" d="m79.937,0c-11.946,11.454-8.744,19.09,2.95599,20.321s25.617,0,25.617,0c0,0,8.375,34.115,0,37.564-8.375,3.572-10.222-6.158-26.233-3.572-9.853,1.6-6.89999,30.3,4.064,31.406,10.961,1.23199,29.92799-6.4,32.144-15.518s-5.173-30.667,0-36.825,9.606-1.724,9.36,2.956c-.369,4.68-.985,25.987-.985,25.987,0,0,9.73-22.538,9.114-36.332S129.447.493,114.298,2.217c-15.272,1.724-17.119,6.281-26.233,4.311-9.11299-1.848-8.12799-6.528-8.12799-6.528Z"/>
  <path id="uuid-44a6a540-0267-4e10-92e9-4656e8ec7e61" data-name="Pfad 10370" class="uuid-8e00158e-47ae-4fb4-8840-cff8ae2ba9bf" d="m138.561,285.11399c9.606-24.509,23.646-60.47101,32.637-72.541,8.991-12.19299,9.976-12.06999,11.7-4.8s-16.75,55.422-32.883,75.98898c-16.134,20.44104-11.454,1.35202-11.454,1.35202Z"/>
  <path id="uuid-1ecad81b-7cfb-4fad-af07-327f60567a95" data-name="Pfad 10371" class="uuid-8e00158e-47ae-4fb4-8840-cff8ae2ba9bf" d="m146.813,303.95601c2.586-1.84698.369-13.29999,1.724-19.582-1.355-6.77399-7.26601-1.724-9.976-1.108-1.24275.2417-2.36908.89178-3.2,1.84698,0,0-1.355,1.60001-3.2,3.69501-.00401-.12302,11.819,17.11899,14.65199,15.14801Z"/>
  <g id="uuid-a701e307-ff3e-47e9-906f-c2a6211c0f95" data-name="Gruppe 8125">
    <path id="uuid-c7688e64-31aa-4882-95e9-4b945c35d14b" data-name="Pfad 10372" class="uuid-8e00158e-47ae-4fb4-8840-cff8ae2ba9bf" d="m140.409,283.51199h0c2.31998.79758,3.55414,3.32486,2.75656,5.64484-.10605.30844-.24574.60431-.41656.88217l-.246.49301c-.8231,1.45145-2.39804,2.31061-4.064,2.21701l-4.92599.36899c-1.69933.17212-3.27672.96082-4.43401,2.21701l-1.60001,1.60001c-1.724,1.60001-5.173,2.09399-6.158.616h0c-.4836-.63901-.3576-1.54904.2814-2.03262.02843-.02155.05765-.04199.0876-.06137l14.408-11.20703c1.16193-1.08234,2.85522-1.37222,4.311-.73801Z"/>
  </g>
  <path id="uuid-0c5267e2-8bd7-47b3-82c6-adf28b743995" data-name="Pfad 4302" class="uuid-e5ae0099-d3db-4ff6-9701-7b0bf0c615be" d="m175.016,128.20901c-3.03014-7.10875-11.07924-10.61989-18.351-8.005-1.35686.47038-2.6746,1.04683-3.941,1.724-12.192,6.64999-13.547,24.26199-8.247,34.854,5.419,10.715,26.233,47.047,26.233,47.047l-31.9,60.71701s1.478,13.548,21.8,15.39499c0,0,35.839-55.3,40.642-64.043,4.67999-8.621,1.478-18.228-2.95599-31.159-3.57501-9.97601-17.492-42.983-23.28001-56.53Z"/>
  <path id="uuid-e303d8f2-6fcc-420d-bbd7-f6ec251c278c" data-name="Pfad 10373" class="uuid-08b06ab2-c741-4dda-8077-5295e77c2001" d="m57.523,30.42l15.76399-5.912c.59361-.20219,1.22116-.28577,1.847-.246l23.52299.862c.47682-.01842.8783.35318.89671.82999.00363.09394-.00809.18784-.03471.27801h0c-.23132,1.82719-1.73503,3.22823-3.57399,3.33l-15.272,1.232c-1.91582.15032-3.7515.83299-5.3,1.971l-5.78799,4.311s-5.912,9.36-13.79401,3.818c-4.92599-3.572-4.43401-3.079-2.95599-5.05,1.30351-2.0167,2.8813-3.84221,4.688-5.424Z"/>
</svg>