<?xml version="1.0" encoding="UTF-8"?>
<svg id="uuid-0650230e-9bd5-4cf3-85a3-772d969ba587" data-name="Ebene 1" xmlns="http://www.w3.org/2000/svg" width="150" height="150" xmlns:xlink="http://www.w3.org/1999/xlink" viewBox="0 0 150 150">
  <defs>
    <style>
      .uuid-167d61bc-40ba-4632-ba2d-a7c5670a5f29 {
        fill: none;
      }

      .uuid-0380ab91-7fad-40a4-bf7c-f87c6026a7bb {
        fill: url(#uuid-0bcf4475-84d8-435e-89f0-c58b8cf7167f);
      }

      .uuid-d2278030-1a9c-4d92-bf31-ee39da98b509 {
        clip-path: url(#uuid-8e145810-4588-46e8-ba85-baf25fc17f02);
      }

      .uuid-03b7b8bc-51ec-4454-89fc-af5d229acdd8 {
        fill: #00443c;
      }

      .uuid-743bd127-86bd-49e0-8a4b-ca1e133b0b0c {
        clip-path: url(#uuid-d75911a0-7851-4a76-9cba-016cdc345a8a);
      }
    </style>
    <clipPath id="uuid-8e145810-4588-46e8-ba85-baf25fc17f02">
      <path class="uuid-167d61bc-40ba-4632-ba2d-a7c5670a5f29" d="m75,0v5.80984c38.19463.04629,69.14502,30.99854,69.188,69.19216h0c-.04243,38.19238-30.9946,69.14238-69.188,69.18315h0c-38.19318-.04133-69.14501-30.991-69.188-69.18315H0c.04739,41.40061,33.59829,74.95061,75,74.998h0c41.4017-.04739,74.95261-33.5974,75-74.998h0C149.95427,33.60006,116.40305.04794,75,0Z"/>
    </clipPath>
    <linearGradient id="uuid-0bcf4475-84d8-435e-89f0-c58b8cf7167f" data-name="Unbenannter Verlauf" x1="-1173.48373" y1="1322.24615" x2="-1173.20973" y2="1322.32715" gradientTransform="translate(900318.73767 53818.66996) rotate(-45) scale(510.126 -510.126)" gradientUnits="userSpaceOnUse">
      <stop offset="0" stop-color="#84a214"/>
      <stop offset="1" stop-color="#a2c617"/>
    </linearGradient>
    <clipPath id="uuid-d75911a0-7851-4a76-9cba-016cdc345a8a">
      <rect class="uuid-167d61bc-40ba-4632-ba2d-a7c5670a5f29" x="26.99899" y="30.75216" width="95.737" height="81.38583"/>
    </clipPath>
  </defs>
  <g id="uuid-974435db-f61b-408a-b4ed-24796093d8d0" data-name="Gruppe 9046">
    <g id="uuid-68bd245a-3fea-46fa-afa6-c34e5b5d175d" data-name="Gruppe 8059">
      <g class="uuid-d2278030-1a9c-4d92-bf31-ee39da98b509">
        <g id="uuid-d2397f57-b9dc-441d-9c4c-638e7cd48fca" data-name="Gruppe 5660">
          <g id="uuid-020c6968-240b-4c4a-9688-fb013eb0e67d" data-name="Gruppe 5659">
            <path id="uuid-c22f3905-0a9c-4aea-be53-a586f42e1f74" data-name="Pfad 7877" class="uuid-0380ab91-7fad-40a4-bf7c-f87c6026a7bb" d="m-124.0495.00251h390.12212v331.29616H-124.0495V.00251Z"/>
          </g>
        </g>
      </g>
    </g>
    <g id="uuid-b4d28ed3-39a9-4c25-ab82-84c9ae091b89" data-name="Gruppe 8058">
      <g class="uuid-743bd127-86bd-49e0-8a4b-ca1e133b0b0c">
        <g id="uuid-19e5de06-faa9-416e-ac8b-1a8964e718ca" data-name="Gruppe 8057">
          <g id="uuid-479e9c69-80bc-4456-99ee-a5327d8796c6" data-name="Gruppe 8036">
            <path id="uuid-56bfb852-7b11-4659-83e0-926570e751c4" data-name="Pfad 10281" class="uuid-03b7b8bc-51ec-4454-89fc-af5d229acdd8" d="m82.19149,47.70486c.08385.02479.17034.03961.25766.04415.58087.03867,1.11027-.33239,1.27205-.8916l2.33687-8.13696c.18908-.65564-.18915-1.34042-.84481-1.5295-.31607-.09115-.65544-.0525-.94291.10739-.28933.15623-.50229.42387-.58953.7409l-2.3368,8.13596c-.18781.65636.1914,1.34082.84748,1.52967"/>
          </g>
          <g id="uuid-f5831fe1-1112-402c-a37b-db39f5909efb" data-name="Gruppe 8037">
            <path id="uuid-4c58fcac-339e-492e-babd-a52f0407491a" data-name="Pfad 10282" class="uuid-03b7b8bc-51ec-4454-89fc-af5d229acdd8" d="m88.73899,50.17864c.61495.2962,1.35375.04251,1.657-.56899l3.707-7.6048c.14484-.2947.16748-.63467.063-.94597-.10699-.31011-.33344-.56463-.629-.70698-.61304-.30026-1.35342-.04672-1.65369.5663-.00044.0009-.00088.00179-.00131.00269l-3.716,7.6058c-.29761.61442-.04115,1.35377.573,1.65196"/>
          </g>
          <g id="uuid-16ce1eb5-37ff-487d-aa9a-d994ec8e3059" data-name="Gruppe 8038">
            <path id="uuid-4b907282-6a80-4166-9f2b-98c5a6e77bd9" data-name="Pfad 10283" class="uuid-03b7b8bc-51ec-4454-89fc-af5d229acdd8" d="m102.23799,46.00275c-.25341-.20911-.57862-.31069-.906-.28299-.32592.02694-.62709.18456-.835.43699l-5.445,6.48583c-.21139.24993-.31433.57387-.286.89998.02649.32773.18404.63093.437.84098.22439.18728.50773.28928.8.28799.3656.00143.7128-.16025.947-.44099l5.439-6.48283c.43707-.52453.36968-1.3033-.151-1.74495"/>
          </g>
          <g id="uuid-b33b9f5a-1627-440d-b3c9-b99587982826" data-name="Gruppe 8039">
            <path id="uuid-aa062918-d335-4c18-82b6-c961d391782f" data-name="Pfad 10284" class="uuid-03b7b8bc-51ec-4454-89fc-af5d229acdd8" d="m41.41999,104.1562c.2617.00147.51705-.08049.729-.23399l6.85-4.97887c.55243-.40098.67521-1.17386.27422-1.72628-.00041-.00056-.00081-.00112-.00122-.00168-.40209-.55171-1.17451-.67463-1.728-.27499l-6.848,4.97987c-.26678.18922-.44682.47726-.5.79998-.05324.32764.02787.66291.225.92998.23343.31889.60479.50754,1,.50799"/>
          </g>
          <g id="uuid-fe54aa43-1e56-4d05-bccd-39d209de5ade" data-name="Gruppe 8040">
            <path id="uuid-fdf8e171-665d-4fe9-9d41-90c7e481bb47" data-name="Pfad 10285" class="uuid-03b7b8bc-51ec-4454-89fc-af5d229acdd8" d="m101.46499,60.53436c.26023-.00003.51374-.08266.724-.23599l6.853-4.97687c.55243-.40098.67521-1.17386.27422-1.72628-.00041-.00056-.00081-.00112-.00122-.00168-.40141-.55209-1.17396-.6751-1.727-.27499l-6.852,4.97687c-.55311.40193-.67566,1.17612-.27372,1.72922.00091.00125.00181.00249.00272.00373.23146.32121.60409.5105,1,.50799"/>
          </g>
          <g id="uuid-7d8ba2a8-02c3-48b8-ba19-89c203872388" data-name="Gruppe 8041">
            <path id="uuid-50e78e5c-c2df-41d2-8684-f89d3d159efe" data-name="Pfad 10286" class="uuid-03b7b8bc-51ec-4454-89fc-af5d229acdd8" d="m36.53599,95.34443c.15796.00021.31447-.03001.461-.089l7.847-3.17092c.63201-.25664.9384-.97525.686-1.60896-.25749-.63226-.97673-.93851-1.611-.68598l-7.848,3.17092c-.63347.25581-.93962.97671-.6838,1.61016.18909.46823.64382.77451,1.1488.77377"/>
          </g>
          <g id="uuid-5aecb01c-d5d2-492f-912d-7cb07726a113" data-name="Gruppe 8042">
            <path id="uuid-4ebc9427-608a-49b9-bef0-b72001d17379" data-name="Pfad 10287" class="uuid-03b7b8bc-51ec-4454-89fc-af5d229acdd8" d="m112.73599,61.98632l-7.847,3.17092c-.63457.25457-.9426.97535-.68802,1.6099l.00002.00006c.18919.46966.64668.77557,1.153.77098.15794.00001.31442-.0302.461-.089l7.847-3.16792c.63375-.2557.94021-.97673.6845-1.61046-.25571-.63373-.97675-.94018-1.6105-.68448"/>
          </g>
          <g id="uuid-c42783e0-674e-4cce-b5a2-a3d221829669" data-name="Gruppe 8043">
            <path id="uuid-a2867f4c-ad08-4b34-b5ef-377a9eb137de" data-name="Pfad 10288" class="uuid-03b7b8bc-51ec-4454-89fc-af5d229acdd8" d="m115.63499,71.64206l-8.382,1.17697c-.67729.09597-1.14865.72265-1.053,1.39996.08952.6065.60695,1.05775,1.22,1.06397.05802.00059.11595-.00444.173-.015l8.386-1.17697c.67704-.09538,1.14858-.72153,1.0532-1.39855-.00007-.00047-.00013-.00094-.0002-.00141-.04433-.3253-.21677-.61942-.479-.81698-.26204-.19829-.59322-.28198-.918-.23199"/>
          </g>
          <g id="uuid-f112cd89-3f4b-448a-b9cb-c1522b55ffdd" data-name="Gruppe 8044">
            <path id="uuid-50e13047-98a2-4ceb-a354-0f4eed15b28e" data-name="Pfad 10289" class="uuid-03b7b8bc-51ec-4454-89fc-af5d229acdd8" d="m33.92599,85.6107c.05794.00097.11585-.00338.173-.013l8.386-1.17597c.67704-.09537,1.14858-.72153,1.0532-1.39855-.00007-.00047-.00013-.00094-.0002-.00141-.04587-.32859-.22212-.62486-.489-.82198-.25941-.1957-.5866-.27894-.908-.23099l-8.386,1.17697c-.32508.04411-.61878.21708-.815.47999-.2.26209-.28581.59378-.238.91998.08852.60881.60878,1.06148,1.224,1.06497"/>
          </g>
          <g id="uuid-e61cda8e-75e1-45e8-be3c-7a3f50b15457" data-name="Gruppe 8045">
            <path id="uuid-1f46cbb7-1399-4f79-93fb-08173fed608d" data-name="Pfad 10290" class="uuid-03b7b8bc-51ec-4454-89fc-af5d229acdd8" d="m115.98399,84.17273c.63068.00204,1.16089-.47289,1.228-1.09997.07276-.67872-.41848-1.28791-1.09721-1.36067-.00093-.0001-.00186-.0002-.00279-.0003l-8.419-.88498c-.0372-.00395-.07459-.00596-.112-.006-.63485-.00033-1.16946.47453-1.244,1.10497-.0355.3263.061.65325.268.90798.20533.25685.50573.41985.833.45199l8.416.88698c.045,0,.087.006.13.006"/>
          </g>
          <g id="uuid-21805e02-18ed-40b7-8f51-61299c9d2fa8" data-name="Gruppe 8046">
            <path id="uuid-06e38616-cb7d-41a4-97e6-0a66148cdfa2" data-name="Pfad 10291" class="uuid-03b7b8bc-51ec-4454-89fc-af5d229acdd8" d="m33.76599,73.06303c-.63629-.00123-1.17231.47498-1.246,1.10697-.07002.67896.42144,1.28701,1.1,1.36096l8.418.88298c.67986.07014,1.28786-.42413,1.358-1.10397.07014-.67984-.42414-1.28783-1.104-1.35796l-8.412-.88898h-.114"/>
          </g>
          <g id="uuid-a1fe0a59-86c4-4333-a0bd-7330349e08cb" data-name="Gruppe 8047">
            <path id="uuid-d31dd8d9-0a7f-4c98-bdce-a9f1e88dd8c0" data-name="Pfad 10292" class="uuid-03b7b8bc-51ec-4454-89fc-af5d229acdd8" d="m106.19199,88.70361c-.63679-.23498-1.34349.09074-1.57847.72751-.00153.00415-.00304.00831-.00453.01247-.23516.64023.09322,1.34988.73347,1.58503.00084.00031.00168.00062.00253.00092l7.946,2.89392c.13647.04682.27972.07081.424.071.68317.00254,1.23905-.54921,1.24159-1.23236.00194-.52235-.32446-.98963-.81559-1.16757l-7.949-2.89092Z"/>
          </g>
          <g id="uuid-189db427-224b-405e-adb5-f5f32a3e761b" data-name="Gruppe 8048">
            <path id="uuid-a8ae4aef-1ec0-4ce1-b564-3ea2522477da" data-name="Pfad 10293" class="uuid-03b7b8bc-51ec-4454-89fc-af5d229acdd8" d="m35.48799,63.36129c-.29646.13853-.52438.39096-.632.69998-.23289.64005.09639,1.34781.736,1.58196l7.949,2.89392c.13573.04701.27836.07101.422.071.68261.00463,1.23973-.54496,1.24436-1.22755.00357-.52544-.32549-.9957-.82036-1.17238l-7.947-2.89092c-.3104-.11352-.65339-.09767-.952.044"/>
          </g>
          <g id="uuid-a35f0ced-df19-46af-8fc4-2e55ce78a46b" data-name="Gruppe 8049">
            <path id="uuid-e153ccf8-311a-400c-8357-171f7c51c633" data-name="Pfad 10294" class="uuid-03b7b8bc-51ec-4454-89fc-af5d229acdd8" d="m47.60499,61.46934c.68373-.00097,1.23722-.556,1.23625-1.23971-.00058-.40945-.20357-.79212-.54225-1.02223l-7.016-4.73087c-.5669-.37648-1.3312-.22666-1.714.33599-.38046.56687-.23065,1.33468.335,1.71695l7.011,4.72987c.20366.13777.44412.21095.69.20999"/>
          </g>
          <g id="uuid-5a64a6d1-038e-4915-b438-4b94f5c172f2" data-name="Gruppe 8050">
            <path id="uuid-f5ba4e3c-f589-4894-a244-44ee9f84be49" data-name="Pfad 10295" class="uuid-03b7b8bc-51ec-4454-89fc-af5d229acdd8" d="m108.44899,102.76424c.567.37987,1.33438.23015,1.717-.33499.38144-.56623.23246-1.33436-.333-1.71695l-7.012-4.73087c-.56765-.3794-1.33497-.23085-1.72.33299-.38057.5674-.23184,1.33558.333,1.71995l7.015,4.72987Z"/>
          </g>
          <g id="uuid-2bb77bef-b63d-4f20-b55f-6355038ce243" data-name="Gruppe 8051">
            <path id="uuid-ce39a9e4-9312-4d78-9c78-53422c57a6fd" data-name="Pfad 10296" class="uuid-03b7b8bc-51ec-4454-89fc-af5d229acdd8" d="m52.86899,55.4245c.68262.00074,1.2366-.55203,1.23733-1.23463.00033-.30633-.11311-.60188-.31833-.82931l-5.665-6.29183c-.21929-.24372-.52657-.39016-.854-.40699h-.065c-.30525-.00017-.59967.11317-.826.31799-.2462.21891-.39366.52789-.409.85698-.01747.32757.09706.64849.318.89098l5.662,6.28383c.23326.26215.5681.41116.919.40899"/>
          </g>
          <g id="uuid-bd177336-c55d-412a-9591-581cb039f428" data-name="Gruppe 8052">
            <path id="uuid-5a1893dc-a49a-4d43-a9df-445192642cb2" data-name="Pfad 10297" class="uuid-03b7b8bc-51ec-4454-89fc-af5d229acdd8" d="m55.82099,40.93388c-.31493-.09829-.65624-.06473-.946.093-.60137.32193-.82863,1.0699-.508,1.67196l3.971,7.4708c.21406.40557.63539.65898,1.094.65798.2019-.00013.40057-.05066.578-.147.2893-.15315.50534-.41563.6-.72898.09795-.31502.06665-.65605-.087-.94797l-3.974-7.4668c-.15266-.28994-.4147-.50698-.728-.60298"/>
          </g>
          <g id="uuid-10212528-7d4e-4846-a464-01e0db45a258" data-name="Gruppe 8053">
            <path id="uuid-0537742f-5633-4b45-a876-dbddaa369a6d" data-name="Pfad 10298" class="uuid-03b7b8bc-51ec-4454-89fc-af5d229acdd8" d="m67.20899,47.9157c.66237-.16506,1.06551-.8358.90045-1.49815-.00015-.0006-.0003-.00121-.00045-.00181l-2.042-8.20978c-.16763-.66128-.83762-1.06327-1.5-.89998-.31878.07657-.59275.27943-.759.56198-.17136.28052-.22288.61811-.143.93698l2.045,8.20878c.1372.55123.63194.93836,1.2.93898.10117.00049.20198-.01194.3-.037"/>
          </g>
          <g id="uuid-b52a8fb8-1265-4172-a35a-e2435fd6fe2e" data-name="Gruppe 8054">
            <path id="uuid-af933ff4-a674-41d9-b145-fbc5d29614de" data-name="Pfad 10299" class="uuid-03b7b8bc-51ec-4454-89fc-af5d229acdd8" d="m76.10399,45.74076v-8.46377c-.00165-.68215-.55483-1.23442-1.237-1.23497-.6824,0-1.2359.55259-1.237,1.23497v8.46377c.00011.68316.55402,1.23688,1.2372,1.23677.68302-.00011,1.2367-.55377,1.2368-1.23677"/>
          </g>
          <g id="uuid-4cd0f60c-e833-4e8a-bf35-fb0f27628b4a" data-name="Gruppe 8055">
            <path id="uuid-0f73333c-ed8b-4b8e-836c-cc2cae74b1f8" data-name="Pfad 10300" class="uuid-03b7b8bc-51ec-4454-89fc-af5d229acdd8" d="m71.04599,85.88669c.26612.13405.53917.25389.818.35899,3.07884,1.14678,6.54022.48106,8.974-1.72595l19.625,7.6918c.19795.08016.4138.10572.625.074.40191-.0585.75028-.30877.934-.67098.28732-.57027.09003-1.26557-.454-1.59996l-17.922-11.0907c.33968-3.59578-1.55793-7.03258-4.782-8.66077-4.31611-2.15464-9.56183-.40686-11.723,3.9059-1.04467,2.06969-1.21612,4.47175-.476,6.66882.72683,2.20083,2.30455,4.01907,4.381,5.04886m6.118-13.66864c.20139.07633.39866.16311.591.25999,2.51969,1.26835,3.88329,4.06215,3.333,6.82882-.10014.50548.1228,1.0202.56,1.29297l6.982,4.31989-7.644-2.99992c-.20072-.07898-.41876-.10348-.632-.071-.28656.04227-.54918.18383-.742.39999-1.89363,2.08418-4.93656,2.66659-7.466,1.42896-1.48658-.74051-2.61587-2.04401-3.137-3.6209-.52743-1.57522-.40432-3.29579.342-4.77987,1.42846-2.87893,4.80951-4.20267,7.813-3.05892"/>
          </g>
          <g id="uuid-96ef0c41-b2bf-4b46-9a2b-1a8f1f6e6d51" data-name="Gruppe 8056">
            <path id="uuid-0dfa42f0-d38c-4dc8-b80a-2ae624ea9912" data-name="Pfad 10301" class="uuid-03b7b8bc-51ec-4454-89fc-af5d229acdd8" d="m74.86599,30.75216c-26.42482.03031-47.83834,21.44461-47.867,47.86872-.01927,12.35818,4.76559,24.24007,13.344,33.13612.40722.40764,1.03797.48976,1.536.19999,9.9617-5.96842,21.37548-9.07644,32.988-8.98276,9.4713-.03167,18.83428,2.01435,27.429,5.99384.61828.29077,1.35522.02528,1.646-.59299.29078-.61826.02528-1.35518-.593-1.64595h0c-8.92461-4.13382-18.6475-6.25939-28.483-6.22683-11.72441-.08453-23.25884,2.96229-33.412,8.82576-16.96331-18.45576-15.75304-47.16823,2.70321-64.13109,18.45625-16.96286,47.16948-15.75262,64.13279,2.70314,7.70022,8.37769,11.9727,19.34201,11.971,30.72076.01791,11.71942-4.51987,22.98703-12.655,31.42316-.47386.49134-.45968,1.27379.03168,1.74763.2307.22248.53881.34666.85932.34631h.026c.32856-.00484.64123-.14224.867-.38099,8.57658-8.89686,13.35961-20.77864,13.339-33.13612-.02866-26.42256-21.43974-47.83621-47.863-47.86872"/>
          </g>
        </g>
      </g>
    </g>
  </g>
</svg>