<?xml version="1.0" encoding="UTF-8"?>
<svg id="uuid-bcf90bbc-20ad-4433-94ba-28c6cd683c8d" data-name="Ebene 1" xmlns="http://www.w3.org/2000/svg" width="150" height="150" xmlns:xlink="http://www.w3.org/1999/xlink" viewBox="0 0 150 150">
  <defs>
    <style>
      .uuid-cac70fb7-3ede-4234-bfad-2984be078945 {
        fill: none;
      }

      .uuid-000a4bb8-4d4c-44c3-8b1b-1aa1b34872fe {
        fill: #00443c;
      }

      .uuid-a58c3b9b-6380-4f32-b06a-553b79629b0f {
        clip-path: url(#uuid-a9a3362d-67a6-4d22-b0cf-d533251203d0);
      }

      .uuid-09244c4c-2b77-4f27-a34d-a29e7b491402 {
        fill: url(#uuid-cec10bbd-4c3c-47b5-a245-27dccd7f51c4);
      }
    </style>
    <clipPath id="uuid-a9a3362d-67a6-4d22-b0cf-d533251203d0">
      <path class="uuid-cac70fb7-3ede-4234-bfad-2984be078945" d="m75,0v5.80984c38.19463.04629,69.14502,30.99854,69.188,69.19216h0c-.04243,38.19238-30.9946,69.14238-69.188,69.18315h0c-38.19318-.04133-69.14501-30.991-69.188-69.18315H0c.04739,41.40061,33.59829,74.95061,75,74.998h0c41.4017-.04739,74.95261-33.5974,75-74.998h0C149.95427,33.60006,116.40305.04794,75,0Z"/>
    </clipPath>
    <linearGradient id="uuid-cec10bbd-4c3c-47b5-a245-27dccd7f51c4" data-name="Unbenannter Verlauf" x1="-1173.48372" y1="1322.25016" x2="-1173.20973" y2="1322.33116" gradientTransform="translate(900320.17974 53820.11602) rotate(-45) scale(510.126 -510.126)" gradientUnits="userSpaceOnUse">
      <stop offset="0" stop-color="#84a214"/>
      <stop offset="1" stop-color="#a2c617"/>
    </linearGradient>
  </defs>
  <g id="uuid-2acdd0f6-0bba-4887-a160-cc8b4452c591" data-name="Gruppe 9045">
    <g id="uuid-4bd8ad8b-d569-4025-b5ac-cb39a71ae706" data-name="Gruppe 8034">
      <g id="uuid-7e1f1de5-3ff2-4504-8e95-db038b9637be" data-name="Gruppe 8028">
        <path id="uuid-febca230-b0c3-4fe4-9806-9ae81291c6b8" data-name="Pfad 10275" class="uuid-000a4bb8-4d4c-44c3-8b1b-1aa1b34872fe" d="m50.427,67.59721c.00001-.60363-.48933-1.09298-1.09298-1.09299-.00234,0-.00468,0-.00702.00002h-5.861v-5.86484c-.00165-.60246-.49052-1.08997-1.093-1.08997-.60248,0-1.09135.48751-1.093,1.08997v5.86484h-5.867c-.60365,0-1.093.48934-1.093,1.09297s.48935,1.09297,1.093,1.09297h5.867v5.86484c0,.60363.48935,1.09297,1.093,1.09297s1.093-.48934,1.093-1.09297h0v-5.86484h5.861c.60363.00387,1.09611-.48233,1.09998-1.08595.00001-.00234.00002-.00468.00002-.00702"/>
      </g>
      <g id="uuid-290e9aa2-45c2-4f27-ba5e-6658892b737b" data-name="Gruppe 8032">
        <path id="uuid-0512cc07-d059-4e61-9035-274566e5fa56" data-name="Pfad 10279" class="uuid-000a4bb8-4d4c-44c3-8b1b-1aa1b34872fe" d="m48.387,84.12578c.00079-.28985-.11529-.56779-.322-.77098h0c-.42699-.42579-1.11801-.42579-1.545,0l-4.147,4.14689-4.147-4.14789c-.42699-.42579-1.11801-.42579-1.545,0-.20696.20343-.32306.48178-.322.77198-.00149.29087.11464.56999.322.77398l4.147,4.14989-4.147,4.14589c-.20736.20398-.32349.48311-.322.77398-.00079.28985.11529.56779.322.77098.20294.20709.48105.32324.771.32199.29068.00047.56943-.11549.774-.32199l4.147-4.14489,4.147,4.14989c.2055.20474.48391.31948.774.31899.60309.00205,1.09366-.48517,1.09571-1.08825.001-.29328-.11602-.57463-.32471-.7807l-4.147-4.14689,4.147-4.15289c.20637-.20301.32241-.4805.322-.76998"/>
      </g>
      <g id="uuid-b725a9af-7e1a-4739-9a07-1d9ce0679e6b" data-name="Gruppe 8027">
        <path id="uuid-567bbdd6-324a-47cf-89a3-59d2eabdc811" data-name="Pfad 10274" class="uuid-000a4bb8-4d4c-44c3-8b1b-1aa1b34872fe" d="m30.8,98.24636v-40.88991h46.027v10.41672l.161-.066c.021-.007.04-.017.062-.026l.043-.019c.234-.09.478-.168.771-.25599l.3-.092c.14-.047.289-.085.433-.123.114-.031.225-.059.336-.092l.083-.026v-28.05425c-.00441-2.58696-2.10197-4.68222-4.689-4.68388h-41.026c-2.58647.0022-4.68314,2.09747-4.687,4.68388v59.22742c.00606,2.58484,2.10208,4.67768,4.687,4.67988h31.437l.024-.09c.012-.059.026-.118.038-.17699.017-.076.033-.154.054-.22899.151-.61998.305-1.14697.421-1.53496l.047-.151h-32.021c-1.38071,0-2.5-1.11926-2.5-2.49993m0-59.22242c0-1.38068,1.11929-2.49993,2.5-2.49993h41.023c1.38071,0,2.5,1.11926,2.5,2.49993v16.14857H30.8l.001-16.14857Z"/>
      </g>
      <g id="uuid-395e35be-a79c-4b39-abce-1deeb54649a5" data-name="Gruppe 8029">
        <path id="uuid-094070e6-e3b7-423a-bff4-2609b8bd6c8c" data-name="Pfad 10276" class="uuid-000a4bb8-4d4c-44c3-8b1b-1aa1b34872fe" d="m71.16101,67.59721c.00001-.60363-.48933-1.09298-1.09298-1.09299-.00234,0-.00468,0-.00702.00002h-13.914c-.60365,0-1.093.48934-1.093,1.09297s.48935,1.09297,1.093,1.09297h13.914c.60363.00387,1.09611-.48233,1.09998-1.08595.00001-.00234.00002-.00468.00002-.00702"/>
      </g>
      <g id="uuid-2e2d8535-6f3e-4589-a3c6-a949332149c8" data-name="Gruppe 8030">
        <path id="uuid-d254a363-d761-41ba-a5c8-248679d2157e" data-name="Pfad 10277" class="uuid-000a4bb8-4d4c-44c3-8b1b-1aa1b34872fe" d="m70.627,86.17671l-.062-.038c-.1534-.08414-.32506-.12946-.5-.132h-13.915c-.60478.00385-1.09301.4952-1.093,1.09997.00276.60135.49162,1.08708,1.093,1.08597h13.918c.17462-.00303.34602-.04759.5-.13l.062-.033-.003-1.85295Z"/>
      </g>
      <g id="uuid-a421003e-642d-4fd5-b173-1d93c556ed1a" data-name="Gruppe 8031">
        <path id="uuid-7d3542a2-b25f-47ac-a33c-ef29589c86cf" data-name="Pfad 10278" class="uuid-000a4bb8-4d4c-44c3-8b1b-1aa1b34872fe" d="m70.06701,89.9056h-13.918c-.60365,0-1.093.48934-1.093,1.09297s.48935,1.09297,1.093,1.09297h13.352l.135-.21099c.313-.47499.632-.97497.965-1.43996l.025-.035v-.33699l-.062-.033c-.15362-.08333-.32524-.12795-.5-.13"/>
      </g>
      <g id="uuid-cff7a2ee-e975-4e78-b326-73e8d216f582" data-name="Gruppe 8033">
        <path id="uuid-156b48aa-0c2d-4cd7-ae37-3d0fa5c9acc9" data-name="Pfad 10280" class="uuid-000a4bb8-4d4c-44c3-8b1b-1aa1b34872fe" d="m121.37701,89.94763c0-2.04395-1.8-3.8709-5.061-5.14286-3.4844-1.24411-7.16467-1.84946-10.864-1.78695h-.794v-8.16678c0-2.04395-1.8-3.8729-5.061-5.14286-3.48333-1.23434-7.16001-1.83316-10.855-1.76795-3.3508-.02858-6.68555.46568-9.884,1.46496-.121.038-.244.078-.369.114-.2.059-.407.123-.6.19999-.312.121-.629.25799-1,.43299-2.657,1.25397-4.062,2.88192-4.062,4.70987v16.27657l-.073.1c-2.19196,2.91686-3.92624,6.15096-5.143,9.59074-.211.60798-.4,1.24897-.573,1.95895l-.038.156c-.071.27699-.142.56499-.194.83998-.665,3.41191-.078,5.90684,1.649,7.02881,2.3,1.49996,4.786,3.07092,6.807,4.30788.59623.36917,1.2858.55969,1.987.54899,1.86293-.15416,3.63171-.88423,5.061-2.08895,2.56958-1.99321,4.79188-4.39758,6.577-7.11581l.109-.161h.522l.054.32599c.229,1.86195,2.02,3.53491,5.039,4.70988,6.087,2.37294,15.617,2.37094,21.7,0,3.27-1.27497,5.07-3.09992,5.068-5.13886l-.002-16.25357Zm-46.227-11.3537l.558.34499c.38361.22985.77916.43914,1.185.62698.371.18.691.31899,1,.43799.189.073.4.135.594.19399.125.038.248.073.371.114,6.125,2.04395,15.044,1.90895,20.736-.30799.75627-.28976,1.48544-.6458,2.179-1.06397l.563-.34499v4.55388l-.336.028c-2.52315.2045-5.00666.75185-7.382,1.62696-1.37223.48665-2.63109,1.24739-3.7,2.23594l-.205.19999-.251-.153c-.7-.44199-1.415-.89998-2.125-1.35596-.949-.60798-1.954-1.25197-2.889-1.82895-.5964-.36134-1.28277-.5468-1.98-.53499-1.68777.11864-3.30233.73569-4.639,1.77295-.052.033-.1.069-.151.1-.092.062-.187.125-.279.194l-.2.142-.31-.026c-.336-.154-.617-.31699-.89-.47299-1.228-.69998-1.855-1.42196-1.855-2.14294.021-.82598.014-1.65096.007-2.44893l-.001-1.89095Zm23.607-.74798c-3.21534,1.13101-6.60712,1.67761-10.015,1.61396-3.33348.05448-6.6512-.46891-9.806-1.54696-.033-.012-.073-.024-.111-.035s-.069-.02-.107-.038c-.58905-.22151-1.16295-.48139-1.718-.77798-1.214-.66998-1.838-1.40996-1.862-2.19994-.019-.74998.608-1.48996,1.862-2.19994.55543-.30698,1.13187-.5743,1.725-.79998.03261-.01255.06601-.02291.1-.031.038-.012.078-.024.111-.035,3.16581-1.06745,6.4916-1.58261,9.832-1.52296,3.39809-.06157,6.78015.48014,9.989,1.59996,2.378.92698,3.584,1.92795,3.587,2.98092.028,1.41396-2.033,2.38594-3.587,2.99192m-19.786,10.12373c.095-.08.192-.163.286-.24799.17-.149.348-.29999.518-.43099,1.00577-.89432,2.25262-1.47269,3.585-1.66296.29979-.00671.59529.07202.852.22699,1.211.73098.93,2.98992.615,4.62488-1.126,5.77985-5.872,13.31664-10.609,16.86555l-.215-.29999h0l-.194.14.218.29999c-.97603.84511-2.16959,1.39943-3.445,1.59996-.31105.00627-.61786-.07294-.887-.22899-.9-.53499-1.11-2.09094-.62-4.62788.069-.33799.173-.69998.272-1.05297l.092-.33099c.17-.62498.379-1.25897.632-1.93995,1.58947-4.11428,3.95315-7.88561,6.963-11.1097.60998-.64586,1.25779-1.25491,1.94-1.82395m-5.536,22.5794c.72552-.36159,1.41669-.78834,2.065-1.27497,5.254-3.8769,10.346-11.93568,11.593-18.34351.15895-.79599.24763-1.60441.265-2.41594l.009-.65998,1.606,1.01297c.686.43299,1.37.86398,2.054,1.29997.885.56098,1.086,2.10994.6,4.61088-1.128,5.81884-5.928,13.41464-10.7,16.94055-2.032,1.49996-3.549,1.98995-4.412,1.44096-.712-.47599-1.438-.92497-2.082-1.32296l-1.592-.99997.594-.28799Zm45.62-12.53567c0,1.04797-1.2,2.04594-3.575,2.97092-3.21576,1.13208-6.60839,1.67871-10.017,1.61396-3.40755.06482-6.79915-.48146-10.014-1.61296-.9285-.3304-1.80426-.79353-2.6-1.37496l-.211-.17199.1-.25299c.49316-1.27033.87852-2.57992,1.152-3.91489l.085-.44199.636.25999c6.087,2.37094,15.617,2.37094,21.7,0,.75715-.2896,1.48703-.64599,2.181-1.06497l.561-.34499v1.88295c0,.77598.007,1.61096,0,2.44893m-27.172,4.39388v-.65998l.563.34299c.69218.41195,1.41852.76358,2.171,1.05097,6.083,2.36794,15.612,2.37094,21.7,0,.75884-.28967,1.49095-.64501,2.188-1.06197l.561-.34099v.65498c0,1.57596,0,3.20591-.007,3.8159,0,1.04797-1.2,2.04895-3.575,2.97092-3.21594,1.13476-6.60929,1.68377-10.019,1.62096-3.40774.0639-6.79935-.4834-10.014-1.61596-2.378-.92298-3.582-1.92095-3.582-2.96192.017-.62498.017-2.28094.014-3.8159m23.6-9.46975c-3.21605,1.13095-6.60847,1.67754-10.017,1.61396-3.4165.06299-6.81662-.48703-10.039-1.62396-.274-.106-.648-.25299-1.053-.43999l-.2-.092-.012-.22499c.02132-1.24064-.40465-2.4475-1.2-3.39991l-.284-.30499.336-.24599c.75699-.51828,1.57564-.94019,2.437-1.25597,5.517-2.15094,14.5-2.15294,20.032,0,2.378.92498,3.582,1.92795,3.584,2.98092.028,1.41996-2.032,2.38694-3.584,2.99292"/>
      </g>
    </g>
    <g id="uuid-e22c105c-dd0a-4b29-aa9c-67fdbc1b6b6d" data-name="Gruppe 5679">
      <g class="uuid-a58c3b9b-6380-4f32-b06a-553b79629b0f">
        <g id="uuid-1edf5bdf-78cd-4d20-b498-b7cbc8daec2a" data-name="Gruppe 5660">
          <g id="uuid-5f1656f4-f830-4b67-b525-1b4b6e1646f1" data-name="Gruppe 5659">
            <path id="uuid-55a8652f-e98d-48d8-bba6-6472478cddff" data-name="Pfad 7877" class="uuid-09244c4c-2b77-4f27-a34d-a29e7b491402" d="m-124.0495.00251h390.12212v331.29616H-124.0495V.00251Z"/>
          </g>
        </g>
      </g>
    </g>
  </g>
</svg>