<?xml version="1.0" encoding="UTF-8"?>
<svg id="uuid-be59d803-c009-42bd-be12-910ce10a6fe9" data-name="Ebene 1" xmlns="http://www.w3.org/2000/svg" width="123" height="123" xmlns:xlink="http://www.w3.org/1999/xlink" viewBox="0 0 123 123">
  <defs>
    <style>
      .uuid-e83a0c43-8a4f-4741-977b-5b0eae6557a5 {
        fill: none;
      }

      .uuid-cabdb66a-34ed-4bf2-9cf7-781c4b1cf089 {
        fill: #00443c;
      }

      .uuid-8eabade5-6d67-4fc3-9d9e-e8044227d1a2 {
        fill: url(#uuid-a59ed726-6082-48a1-8418-a32737998772);
      }

      .uuid-db16fb9c-a275-4587-8ca0-bc804d2a3ba9 {
        clip-path: url(#uuid-5137a7cd-3013-42bc-bc0b-366780b6a449);
      }

      .uuid-9a1c45ef-3845-484c-af8f-2d40c1b3294d {
        clip-path: url(#uuid-76bbcced-4c33-44e5-8dfe-fdf59ec2826b);
      }
    </style>
    <clipPath id="uuid-76bbcced-4c33-44e5-8dfe-fdf59ec2826b">
      <rect class="uuid-e83a0c43-8a4f-4741-977b-5b0eae6557a5" x="4.927" y="4.11395" width="106.859" height="106.85527"/>
    </clipPath>
    <clipPath id="uuid-5137a7cd-3013-42bc-bc0b-366780b6a449">
      <path class="uuid-e83a0c43-8a4f-4741-977b-5b0eae6557a5" d="m61.5,0v4.76392c31.31981.03638,56.69983,25.41778,56.73399,56.73708h0c-.03473,31.31794-25.41556,56.69702-56.734,56.73008h0c-31.31707-.03637-56.69597-25.41352-56.73399-56.73008H0c.03857,33.94897,27.55048,61.46043,61.5,61.499h0c33.94952-.03857,61.46143-27.55003,61.5-61.499h0C122.96253,27.55125,95.45031.03857,61.5,0Z"/>
    </clipPath>
    <linearGradient id="uuid-a59ed726-6082-48a1-8418-a32737998772" data-name="Unbenannter Verlauf" x1="-1187.48372" y1="1307.48833" x2="-1187.20973" y2="1307.56933" gradientTransform="translate(738025.31119 35627.23276) rotate(-45) scale(418.29501 -418.298)" gradientUnits="userSpaceOnUse">
      <stop offset="0" stop-color="#84a214"/>
      <stop offset="1" stop-color="#a2c617"/>
    </linearGradient>
  </defs>
  <g id="uuid-f11406ab-f7af-443c-8a0e-92d1e7779df9" data-name="Gruppe 8197">
    <g class="uuid-9a1c45ef-3845-484c-af8f-2d40c1b3294d">
      <g id="uuid-d5a2db1c-a6ad-4d29-a9fc-670a3669be9d" data-name="Gruppe 8171">
        <g id="uuid-4c6287d9-038d-4315-8295-d47e4f6841b4" data-name="Gruppe 8168">
          <path id="uuid-b3c10ff8-79bf-4eb6-8aa9-dd3b3e6862a6" data-name="Pfad 10414" class="uuid-cabdb66a-34ed-4bf2-9cf7-781c4b1cf089" d="m98.997,38.0324l-8.147-8.14787c-.16-.15789-.37522-.24721-.6-.249-.22484.00147-.44018.09084-.6.249l-40.87,40.86934h0l-1.408,1.40798c-.09607.0966-.16742.21494-.208.345l-3.742,11.74481-3.189,3.21595c-.32781.3338-.32513.86948.006,1.19998.15916.1589.3751.24779.6.247.22556-.00086.44147-.09154.6-.25199l3.186-3.21495,11.736-3.72394c.13037-.0409.24879-.11298.345-.21l1.416-1.40198h0l33.971-33.96945c.22097-.08393.39561-.2582.48-.47899l6.419-6.4189c.33001-.33193.33001-.86805,0-1.19998m-41.47,40.25935l-2.87-2.86795,33.059-32.96146,2.82,2.81995-33.009,33.00946Zm-4.073-4.07394l-2.871-2.86895,33.009-33.01046,2.919,2.91995-33.057,32.95946Zm-7.966,9.16885l3.227-10.17184.662-.66199,3.456,3.45394.017.017.017.018,3.46,3.44995-.662.66199-10.177,3.23295Zm46.252-39.31036l-6.942-6.94189,5.454-5.45391,6.942,6.94389-5.454,5.45191Z"/>
        </g>
        <g id="uuid-3ffb80ed-bf06-4c0f-a330-138ffdf2f92d" data-name="Gruppe 8169">
          <path id="uuid-e87ba1ec-cdab-4c9d-94d5-64e177c1389f" data-name="Pfad 10415" class="uuid-cabdb66a-34ed-4bf2-9cf7-781c4b1cf089" d="m75.54,89.10957h-30.767c-.47032.00055-.85145.38168-.852.85199.00055.47031.38168.85143.852.85199h30.767c.46944.03222.87612-.32221.90834-.79164.03222-.46943-.32221-.87611-.79166-.90833-.03885-.00267-.07784-.00267-.11669,0"/>
        </g>
        <g id="uuid-d76d9f86-2f4d-4cd0-b621-559fc3a10e90" data-name="Gruppe 8170">
          <path id="uuid-472122b4-216e-474e-88ff-44370a7f6f39" data-name="Pfad 10416" class="uuid-cabdb66a-34ed-4bf2-9cf7-781c4b1cf089" d="m37.676,89.10957h-9.942c-.47032.00055-.85145.38168-.852.85199.00055.47031.38168.85144.852.85199h9.942c.46944.03222.87612-.32221.90834-.79164.03222-.46943-.32221-.87611-.79166-.90833-.03885-.00267-.07784-.00267-.11669,0"/>
        </g>
      </g>
    </g>
    <g class="uuid-db16fb9c-a275-4587-8ca0-bc804d2a3ba9">
      <g id="uuid-a67640db-9d29-4ea6-93ba-d4c5638f9aec" data-name="Gruppe 5660">
        <g id="uuid-fd8deab1-42aa-4535-8005-fc59c01da86c" data-name="Gruppe 5659">
          <path id="uuid-3a9eb19f-2dfc-4316-b9e4-993f034cde0f" data-name="Pfad 7877" class="uuid-8eabade5-6d67-4fc3-9d9e-e8044227d1a2" d="m-101.72037.00132H218.17473s.00424,271.65894.00424,271.65894H-101.72037S-101.72037.00132-101.72037.00132Z"/>
        </g>
      </g>
    </g>
  </g>
</svg>