<?xml version="1.0" encoding="UTF-8"?>
<svg id="uuid-e7a22257-29a8-4ae8-8d2a-a74652f92bce" data-name="Ebene 1" xmlns="http://www.w3.org/2000/svg" width="123" height="123" xmlns:xlink="http://www.w3.org/1999/xlink" viewBox="0 0 123 123">
  <defs>
    <style>
      .uuid-8ec935bd-523d-436c-ae01-cf07a111a918 {
        fill: none;
      }

      .uuid-606a7aca-8705-4080-b5da-df0dae2b6508 {
        fill: url(#uuid-51717c6a-6335-4856-970c-5bb1a07f5b51);
      }

      .uuid-f5ee2c86-9f6b-428b-a0fb-a1929fff9507 {
        fill: #00443c;
      }

      .uuid-c54eefd5-d49d-4a28-85e0-0bc7776623a4 {
        clip-path: url(#uuid-16d9a61e-1097-4790-a1cf-17739cc17921);
      }

      .uuid-022c390d-c13b-4434-a7f8-10d314433290 {
        clip-path: url(#uuid-08fd6f7c-7ebe-4a31-9ae5-79716cbc9cdb);
      }

      .uuid-1fc68cae-228a-4e2d-80b1-ff6d172a9fff {
        clip-path: url(#uuid-ca7d8634-9994-4eb2-baf3-8b0c4d48cadb);
      }
    </style>
    <clipPath id="uuid-ca7d8634-9994-4eb2-baf3-8b0c4d48cadb">
      <rect class="uuid-8ec935bd-523d-436c-ae01-cf07a111a918" x="6.85599" y="2.462" width="112.819" height="112.81517"/>
    </clipPath>
    <clipPath id="uuid-16d9a61e-1097-4790-a1cf-17739cc17921">
      <rect class="uuid-8ec935bd-523d-436c-ae01-cf07a111a918" x="6.85599" y="2.462" width="112.819" height="112.81517"/>
    </clipPath>
    <clipPath id="uuid-08fd6f7c-7ebe-4a31-9ae5-79716cbc9cdb">
      <path class="uuid-8ec935bd-523d-436c-ae01-cf07a111a918" d="m61.5,0v4.76392c31.31981.03638,56.69983,25.41778,56.73399,56.73708h0c-.03473,31.31794-25.41556,56.69702-56.734,56.73008h0c-31.31707-.03637-56.69597-25.41352-56.73399-56.73008H0c.03857,33.94897,27.55048,61.46043,61.5,61.499h0c33.94952-.03857,61.46143-27.55003,61.5-61.499h0C122.96253,27.55125,95.45031.03857,61.5,0Z"/>
    </clipPath>
    <linearGradient id="uuid-51717c6a-6335-4856-970c-5bb1a07f5b51" data-name="Unbenannter Verlauf" x1="-1187.48372" y1="1307.48835" x2="-1187.20973" y2="1307.56935" gradientTransform="translate(738031.32893 35624.89435) rotate(-45) scale(418.29998 -418.29998)" gradientUnits="userSpaceOnUse">
      <stop offset="0" stop-color="#84a214"/>
      <stop offset="1" stop-color="#a2c617"/>
    </linearGradient>
  </defs>
  <g id="uuid-f3c01589-205b-4731-a6c8-df7709957cbe" data-name="Gruppe 8196">
    <g id="uuid-247daccb-f358-4287-838a-eaec47448aaf" data-name="Gruppe 8186">
      <g class="uuid-1fc68cae-228a-4e2d-80b1-ff6d172a9fff">
        <g id="uuid-f39d49ac-a090-4997-8a2f-82ea0d49960e" data-name="Gruppe 8174">
          <g id="uuid-c06fa23a-3ee8-4c00-a166-63772f0cd722" data-name="Gruppe 8173">
            <path id="uuid-9379a424-4953-42fd-a7ad-c6deb2f64adf" data-name="Pfad 10418" class="uuid-f5ee2c86-9f6b-428b-a0fb-a1929fff9507" d="m30.29299,80.94773h23.566v8.74186c.00025.23204.09102.45484.253.62099h-6.88c-.49706-.00044-.90035.40214-.90079.89919-.00044.49705.40215.90034.89921.90078h30.35658c.49706.00044.90036-.40214.90079-.89919.00044-.49705-.40215-.90034-.8992-.90078h-6.88359c.16235-.16599.25348-.3888.254-.62099v-8.73986h22.792c.49706,0,.9-.40294.9-.89998h0v-45.15227c0-.49705-.40295-.89999-.9-.89999H30.29299c-.49706,0-.9.40294-.9.89999v45.15027c0,.49705.40294.89999.9.89999m22.648-1.81597l-2.429-.229c-.17406-1.06324-.17406-2.14771,0-3.21095l2.429-.229c.36585-.03353.67459-.28606.78-.63799.16714-.5622.39165-1.10572.67-1.62197.17321-.32263.13367-.71804-.1-.99998l-1.552-1.88497c.31321-.43738.66207-.84811,1.043-1.22798.38015-.38024.79049-.72904,1.227-1.04298l1.882,1.55697c.28116.23553.67776.27519,1,.1.51702-.27875,1.06118-.50392,1.624-.67199.35099-.105.6033-.41228.638-.77699l.228-2.43096c1.06397-.17356,2.14903-.17356,3.213,0l.229,2.43096c.0347.36471.28701.67198.638.77699.56268.16847,1.1068.39362,1.624.67199.32264.17321.71805.13367,1-.1l1.882-1.55697c.43723.31422.84854.663,1.23,1.04298.38035.38076.72916.79177,1.043,1.22898l-1.556,1.88097c-.23553.28116-.2752.67775-.1.99998.27924.51713.50443,1.06166.672,1.62497.10514.3513.41291.60368.778.63799l2.433.229c.17194,1.06341.17194,2.14754,0,3.21095l-2.433.229c-.03375.00339-.06718.00941-.1.018h-3.313c1.019-3.11069-.67669-6.45846-3.78743-7.47745-3.11074-1.01899-6.45857.67668-7.47757,3.78737-.39267,1.19869-.39267,2.49139,0,3.69008h-3.314c-.03285-.00841-.06627-.01443-.1-.018m4.917-1.83397c.00016-2.28035,1.8489-4.12881,4.12928-4.12865,2.28038.00016,4.12888,1.84887,4.12872,4.12922-.00005.64248-.15002,1.27608-.438,1.8504h-7.381c-.28908-.57412-.43912-1.20818-.438-1.85097m11.552,13.01479h-14c.16027-.16761.24888-.3911.247-.62299v-8.73986h13.5v8.73986c.00025.23204.09102.45483.253.62099M31.19299,35.79846h61.658v43.3493h-17.622c.10454-.61158.16005-1.23054.166-1.85097.00007-.88882-.10057-1.77479-.3-2.64096-.08688-.37743-.40547-.65695-.791-.69399l-2.515-.237c-.10333-.282-.21833-.55899-.345-.83099l1.611-1.94697c.24636-.29827.27455-.72062.07-1.04898-.9426-1.51399-2.22048-2.79116-3.735-3.73294-.32837-.20455-.75072-.17636-1.049.07l-1.949,1.60998c-.271-.127-.549-.242-.833-.34499l-.236-2.51496c-.03527-.38676-.31466-.70727-.693-.79499-1.738-.39953-3.544-.39953-5.282,0-.37704.08725-.65609.40575-.693.79099l-.236,2.51796c-.28333.102-.56133.21666-.834.34399l-1.945-1.60797c-.29867-.24731-.72217-.27552-1.051-.07-1.51234.94283-2.78837,2.21986-3.73,3.73294-.20455.32836-.17637.75071.07,1.04898l1.605,1.94297c-.12733.272-.24233.54899-.345.83099l-2.512.237c-.38629.03622-.70589.31592-.793.69399-.35112,1.4724-.39706,3.0011-.135,4.49193h-17.556v-43.3453Z"/>
          </g>
        </g>
      </g>
      <g class="uuid-c54eefd5-d49d-4a28-85e0-0bc7776623a4">
        <g id="uuid-94369a2a-9cf3-4b90-83ee-7002dcfb973c" data-name="Gruppe 8185">
          <g id="uuid-27c2405a-0b80-455b-ae4c-4086b6946324" data-name="Gruppe 8177">
            <path id="uuid-b76866fe-a57a-40bf-8034-7672b51c7d52" data-name="Pfad 10422" class="uuid-f5ee2c86-9f6b-428b-a0fb-a1929fff9507" d="m44.45899,39.0554c-.43973-.23173-.98406-.06312-1.2158.37661-.00007.00013-.00014.00026-.0002.00039l-3.394,6.4489-.993-1.43598c-.28282-.40861-.84329-.51068-1.252-.228-.40799.28276-.51.84247-.228,1.25098l1.839,2.65696c.16807.24226.44415.38684.739.38699h.056c.31368-.02014.5945-.20143.742-.47899l4.085-7.76287c.23098-.4399.06178-.98376-.378-1.21498"/>
          </g>
          <g id="uuid-d7a5a0b1-692b-4a8b-b80d-1bd82dddc26a" data-name="Gruppe 8178">
            <path id="uuid-ab30623d-2d94-45c1-9433-d8ae09c34837" data-name="Pfad 10423" class="uuid-f5ee2c86-9f6b-428b-a0fb-a1929fff9507" d="m78.80898,48.24326c.35138.35094.92062.35094,1.272,0l2.612-2.61296,2.616,2.61296c.33262.36935.90169.39913,1.27105.06651.36936-.33262.39914-.90168.06651-1.27103-.02131-.02367-.04387-.04618-.06757-.06746l-2.614-2.61596,2.614-2.61096c.35181-.35113.35235-.92097.00121-1.27277-.0004-.0004-.0008-.00081-.00121-.00121-.35138-.35094-.92062-.35094-1.272,0l-2.614,2.61496-2.614-2.61396c-.35138-.35094-.92062-.35094-1.272,0-.35181.35113-.35235.92097-.00121,1.27277.0004.0004.00081.00081.00121.00121l2.614,2.60996-2.612,2.61596c-.35094.35138-.35094.9206,0,1.27198"/>
          </g>
          <g id="uuid-8beaa968-4638-4fa2-a210-22e6ce5422c5" data-name="Gruppe 8179">
            <path id="uuid-da5bb05d-d158-4ab1-ac69-0490f9ad422d" data-name="Pfad 10424" class="uuid-f5ee2c86-9f6b-428b-a0fb-a1929fff9507" d="m44.45899,51.04721c-.43973-.23173-.98406-.06312-1.2158.37661-.00007.00013-.00014.00026-.0002.00039l-3.394,6.4489-.993-1.43598c-.28282-.40861-.84329-.51068-1.252-.228-.40799.28276-.51.84247-.228,1.25098l1.839,2.65696c.16807.24226.44415.38684.739.38699h.056c.31368-.02014.5945-.20143.742-.47899l4.085-7.76287c.23098-.4399.06178-.98376-.378-1.21498"/>
          </g>
          <g id="uuid-5ef5fb2a-971a-4721-b5ad-eeb5beaa47b4" data-name="Gruppe 8180">
            <path id="uuid-fc8c7228-1cb2-4c78-ad93-2174a6c11ac7" data-name="Pfad 10425" class="uuid-f5ee2c86-9f6b-428b-a0fb-a1929fff9507" d="m86.43399,51.04721c-.43973-.23173-.98406-.06312-1.2158.37661-.00007.00013-.00014.00026-.0002.00039l-3.394,6.4489-.993-1.43598c-.28282-.40861-.84329-.51068-1.252-.228-.40799.28276-.51.84247-.228,1.25098l1.839,2.65696c.16807.24226.44415.38684.739.38699h.056c.31333-.01967.59376-.20119.74-.47899l4.087-7.76287c.23098-.4399.06178-.98376-.378-1.21498"/>
          </g>
          <g id="uuid-fab18edc-367c-4140-8bee-38f7afb59051" data-name="Gruppe 8181">
            <path id="uuid-3985c810-4607-4c76-b058-cc1f33a83b5d" data-name="Pfad 10426" class="uuid-f5ee2c86-9f6b-428b-a0fb-a1929fff9507" d="m44.45899,63.03902c-.43973-.23173-.98406-.06312-1.2158.37661-.00007.00013-.00014.00026-.0002.00039l-3.394,6.4489-.993-1.43598c-.28282-.40861-.84329-.51068-1.252-.228-.40799.28276-.51.84247-.228,1.25098l1.839,2.65696c.16807.24226.44415.38684.739.38699h.056c.31368-.02014.5945-.20143.742-.47899l4.085-7.76287c.23098-.4399.06178-.98376-.378-1.21498"/>
          </g>
          <g id="uuid-3d478af0-4517-4f6c-8399-5103863f0425" data-name="Gruppe 8182">
            <path id="uuid-50702d2d-d903-4d21-81a6-3e69e6300474" data-name="Pfad 10427" class="uuid-f5ee2c86-9f6b-428b-a0fb-a1929fff9507" d="m78.80898,72.22787c.35138.35094.92062.35094,1.272,0l2.612-2.61296,2.616,2.61296c.33262.36935.90169.39913,1.27105.06651.36936-.33262.39914-.90168.06651-1.27103-.02131-.02367-.04387-.04618-.06757-.06746l-2.614-2.61596,2.614-2.61096c.35181-.35113.35235-.92097.00121-1.27277-.0004-.0004-.0008-.00081-.00121-.00121-.35138-.35094-.92062-.35094-1.272,0l-2.614,2.61496-2.614-2.61396c-.35138-.35094-.92062-.35094-1.272,0-.35181.35113-.35235.92097-.00121,1.27277.0004.0004.00081.00081.00121.00121l2.614,2.60996-2.612,2.61596c-.35094.35138-.35094.9206,0,1.27198"/>
          </g>
          <g id="uuid-c31a97f7-8d7a-4da9-b435-4d8d9b1434c9" data-name="Gruppe 8183">
            <path id="uuid-1d179ef2-9937-4194-95b7-490822d9fef7" data-name="Pfad 10428" class="uuid-f5ee2c86-9f6b-428b-a0fb-a1929fff9507" d="m53.66399,44.68131h16.549c.49706,0,.9-.40294.9-.89999s-.40294-.89999-.9-.89999h-16.549c-.49706,0-.9.40294-.9.89999h0c0,.49705.40294.89999.9.89999h0"/>
          </g>
          <g id="uuid-42a410fe-2805-43a7-ac81-82be9854d68a" data-name="Gruppe 8184">
            <path id="uuid-88d22f51-8067-47e3-85a4-6e9ee8086301" data-name="Pfad 10429" class="uuid-f5ee2c86-9f6b-428b-a0fb-a1929fff9507" d="m53.66399,54.67515h16.549c.49706,0,.9-.40294.9-.89999s-.40294-.89999-.9-.89999h-16.549c-.49706,0-.9.40294-.9.89999h0c0,.49705.40294.89999.9.89999h0"/>
          </g>
        </g>
      </g>
    </g>
    <g class="uuid-022c390d-c13b-4434-a7f8-10d314433290">
      <g id="uuid-881ac01c-eeee-4664-9245-0b0428cc6aff" data-name="Gruppe 8188">
        <g id="uuid-a21660a8-a07e-49bc-a1aa-15b2934fae34" data-name="Gruppe 8187">
          <path id="uuid-cfd49e89-4b42-4910-8ea6-328dea815612" data-name="Pfad 10431" class="uuid-606a7aca-8705-4080-b5da-df0dae2b6508" d="m-101.71805-.00222H218.17705s0,271.66603,0,271.66603H-101.71805V-.00222Z"/>
        </g>
      </g>
    </g>
  </g>
</svg>