<?xml version="1.0" encoding="UTF-8"?>
<svg id="uuid-9babdf18-a71e-424d-acad-21bc50ef2dc7" data-name="Ebene 1" xmlns="http://www.w3.org/2000/svg" width="123" height="123" xmlns:xlink="http://www.w3.org/1999/xlink" viewBox="0 0 123 123">
  <defs>
    <style>
      .uuid-18200f1b-7c10-418a-82f7-0284bc54b9e2 {
        fill: none;
      }

      .uuid-10c22cd7-7e1e-4117-b325-3cf72da33d70 {
        clip-path: url(#uuid-4e199f07-5ad6-4526-ae03-9ea2217f8784);
      }

      .uuid-86fa5dfe-1e39-4ce9-b30a-c4d28836fa71 {
        fill: #fff;
      }

      .uuid-4cf8a76c-5b85-4bba-afb7-28ca7aeba6b8 {
        clip-path: url(#uuid-c5cdebb3-9e96-4aad-9a95-ebddcd1b2f28);
      }

      .uuid-a3c9a455-7031-4397-a801-c384bfa3177f {
        clip-path: url(#uuid-89d859de-06d6-453d-8dd6-2e3823bb522c);
      }

      .uuid-ecf08e90-81d3-4f08-98b4-e79e436d1327 {
        fill: url(#uuid-b7a3a111-3034-423c-93c3-2748f1dd70e4);
      }
    </style>
    <clipPath id="uuid-89d859de-06d6-453d-8dd6-2e3823bb522c">
      <rect class="uuid-18200f1b-7c10-418a-82f7-0284bc54b9e2" x="6.89398" y="2.475" width="112.762" height="112.75817"/>
    </clipPath>
    <clipPath id="uuid-c5cdebb3-9e96-4aad-9a95-ebddcd1b2f28">
      <rect class="uuid-18200f1b-7c10-418a-82f7-0284bc54b9e2" x="6.89398" y="2.475" width="112.762" height="112.75817"/>
    </clipPath>
    <clipPath id="uuid-4e199f07-5ad6-4526-ae03-9ea2217f8784">
      <path class="uuid-18200f1b-7c10-418a-82f7-0284bc54b9e2" d="m61.5,0v4.76392c31.31981.03638,56.69983,25.41778,56.73399,56.73708h0c-.03528,31.31755-25.41594,56.69602-56.734,56.72908h0c-31.31669-.03636-56.69543-25.41291-56.734-56.72908H0c.03857,33.94897,27.55048,61.46043,61.5,61.499h0c33.94975-.03802,61.46198-27.5498,61.5-61.499h0C122.96253,27.55125,95.45031.03857,61.5,0Z"/>
    </clipPath>
    <linearGradient id="uuid-b7a3a111-3034-423c-93c3-2748f1dd70e4" data-name="Unbenannter Verlauf" x1="-1187.48372" y1="1307.48833" x2="-1187.20973" y2="1307.56933" gradientTransform="translate(738025.25729 35627.23008) rotate(-45) scale(418.29498 -418.29797)" gradientUnits="userSpaceOnUse">
      <stop offset="0" stop-color="#84a214"/>
      <stop offset="1" stop-color="#a2c617"/>
    </linearGradient>
  </defs>
  <g id="uuid-2a27a2ed-a5ac-4972-b271-1d5c7739bb81" data-name="Gruppe 8827">
    <g id="uuid-4ec6ec6d-6016-44fb-b020-b0dc81367612" data-name="Gruppe 8186">
      <g class="uuid-a3c9a455-7031-4397-a801-c384bfa3177f">
        <g id="uuid-d87a1765-2eb8-4234-bf37-90866d75c148" data-name="Gruppe 8174">
          <g id="uuid-9adef908-6583-42b3-bbb7-1f2278c021ae" data-name="Gruppe 8173">
            <path id="uuid-f5065caa-51ba-4c73-b1a1-9e145041d690" data-name="Pfad 10418" class="uuid-86fa5dfe-1e39-4ce9-b30a-c4d28836fa71" d="m30.31898,80.92073h23.555v8.73486c.00025.23204.09102.45484.253.62099h-6.878c-.49706-.00044-.90035.40214-.90079.89919-.00044.49705.40215.90034.89921.90078h30.33759c.49706.00044.90036-.40214.90079-.89919.00044-.49705-.40215-.90034-.8992-.90078h-6.87659c.16198-.16616.25275-.38895.253-.62099v-8.72986h22.782c.49706,0,.9-.40294.9-.89998h0v-45.13127c0-.49705-.40295-.89999-.9-.89999H30.31898c-.49706,0-.9.40294-.9.89999v45.12727c0,.49705.40294.89999.9.89999m22.636-1.81597l-2.428-.229c-.17393-1.06258-.17393-2.14637,0-3.20895l2.428-.229c.36585-.03353.67459-.28606.78-.63799.16717-.56187.39168-1.10505.67-1.62097.17491-.32229.13527-.71871-.1-.99998l-1.552-1.88297c.31288-.43736.6614-.84809,1.042-1.22798.38017-.37991.79051-.72838,1.227-1.04198l1.881,1.55997c.28116.23553.67776.27519,1,.1.51673-.27837,1.06055-.5032,1.623-.67099.35068-.10487.60291-.41166.638-.77599l.228-2.42996c1.06331-.17344,2.14769-.17344,3.211,0l.229,2.42996c.03508.36433.28732.67112.638.77599.56231.16819,1.10609.39301,1.623.67099.32264.17321.71805.13367,1-.1l1.882-1.56097c.43616.31401.84648.66245,1.227,1.04198.38037.38075.72918.79176,1.043,1.22898l-1.56,1.88097c-.23581.28105-.27548.67781-.1.99998.27892.51716.50378,1.06169.671,1.62497.10514.3513.41291.60368.778.63799l2.431.229c.17183,1.06275.17183,2.1462,0,3.20895l-2.431.229c-.03375.00339-.06718.00941-.1.018h-3.306c1.01874-3.10904-.67582-6.45525-3.78491-7.47397-3.10909-1.01872-6.45535.67581-7.47409,3.78485-.39267,1.19836-.39267,2.49076,0,3.68912h-3.313c-.03285-.00841-.06627-.01443-.1-.018m4.917-1.83297c-.00014-2.27924,1.84748-4.12704,4.12676-4.12718,2.27928-.00013,4.12711,1.84745,4.12724,4.12669.00004.6425-.14994,1.27614-.438,1.85046h-7.379c-.28893-.57382-.43896-1.20751-.438-1.84997m11.546,13.00679h-14c.16198-.16615.25275-.38895.253-.62099v-8.73486h13.494v8.73486c.00025.23204.09102.45483.253.62099M31.21798,35.79546h61.627v43.3273h-17.613c.10417-.61128.15935-1.2299.165-1.84997.00003-.88849-.10061-1.77413-.3-2.63996-.08688-.37743-.40547-.65695-.791-.69399l-2.514-.237c-.10333-.28133-.21833-.55832-.345-.83099l1.61-1.94597c.24636-.29827.27455-.72062.07-1.04898-.94211-1.51317-2.2193-2.78966-3.733-3.73094-.32837-.20455-.75072-.17636-1.049.07l-1.946,1.60898c-.271-.127-.549-.242-.832-.34499l-.236-2.51396c-.03704-.38552-.31657-.70411-.694-.79099-1.73734-.39944-3.54266-.39944-5.28,0-.37665.08762-.65522.40604-.692.79099l-.235,2.51396c-.28333.102-.56133.21666-.834.34399l-1.944-1.60697c-.29848-.24684-.7214-.27503-1.05-.07-1.5126.942-2.78899,2.21837-3.731,3.73094-.20455.32836-.17637.75071.07,1.04898l1.607,1.94597c-.12733.272-.24233.54899-.345.83099l-2.511.237c-.38591.03663-.70501.31624-.792.69399-.35101,1.47174-.39696,2.99976-.135,4.48993h-17.547v-43.3283Z"/>
          </g>
        </g>
      </g>
      <g class="uuid-4cf8a76c-5b85-4bba-afb7-28ca7aeba6b8">
        <g id="uuid-6be49a32-b5f0-4952-9f8d-6d5434fd16c9" data-name="Gruppe 8185">
          <g id="uuid-80e847be-4752-436c-a17c-3bf24199f93a" data-name="Gruppe 8177">
            <path id="uuid-cdb17743-f919-4225-90fe-c840d0ea6184" data-name="Pfad 10422" class="uuid-86fa5dfe-1e39-4ce9-b30a-c4d28836fa71" d="m44.47898,39.0494c-.43973-.23173-.98406-.06312-1.2158.37661-.00007.00013-.00014.00026-.0002.00039l-3.392,6.4459-.993-1.43498c-.2834-.40731-.843-.5084-1.251-.226-.40799.28276-.51.84247-.228,1.25098l1.838,2.64896c.16787.24197.4435.38651.738.38699h.056c.31338-.02029.59384-.20158.741-.47899l4.084-7.75587c.23046-.4394.06182-.98242-.377-1.21398"/>
          </g>
          <g id="uuid-5700066a-0fea-44ff-bfbb-2d9128992b24" data-name="Gruppe 8178">
            <path id="uuid-8a0841fb-49d3-4da5-8c49-ae3bf44cb8c8" data-name="Pfad 10423" class="uuid-86fa5dfe-1e39-4ce9-b30a-c4d28836fa71" d="m78.81098,48.23326c.35127.35027.91973.35027,1.271,0l2.611-2.61196,2.613,2.61196c.36708.33513.93634.30924,1.27148-.05783.31398-.34389.31377-.8705-.00048-1.21415l-2.613-2.61196,2.613-2.61196c.35153-.35141.35162-.92125.00021-1.27277l-.00021-.00021c-.35127-.35027-.91973-.35027-1.271,0l-2.613,2.61296-2.613-2.61196c-.35127-.35027-.91973-.35027-1.271,0-.35153.35141-.35162.92125-.00021,1.27277.00007.00007.00014.00014.00021.00021l2.613,2.61096-2.611,2.61196c-.35028.35126-.35028.91972,0,1.27098"/>
          </g>
          <g id="uuid-eed9bfdb-0ee8-44cf-b7d2-a7dbe1734111" data-name="Gruppe 8179">
            <path id="uuid-1920f17d-c8f7-4c69-b8b4-6e0f8a92f3f7" data-name="Pfad 10424" class="uuid-86fa5dfe-1e39-4ce9-b30a-c4d28836fa71" d="m44.47898,51.03621c-.43973-.23173-.98406-.06312-1.2158.37661-.00007.00013-.00014.00026-.0002.00039l-3.392,6.4459-.993-1.43498c-.2834-.40731-.843-.5084-1.251-.226-.40799.28276-.51.84247-.228,1.25098l1.838,2.64896c.16787.24197.4435.38651.738.38699h.056c.31338-.02029.59384-.20158.741-.47899l4.084-7.75587c.23046-.4394.06182-.98242-.377-1.21398"/>
          </g>
          <g id="uuid-f69479ec-7cd0-49fa-aae7-a2e81171c5aa" data-name="Gruppe 8180">
            <path id="uuid-f323fc45-7bee-49a2-a242-670cec22e921" data-name="Pfad 10425" class="uuid-86fa5dfe-1e39-4ce9-b30a-c4d28836fa71" d="m86.43198,51.03621c-.43973-.23173-.98406-.06312-1.2158.37661-.00007.00013-.00014.00026-.0002.00039l-3.392,6.4459-.993-1.43498c-.2834-.40731-.843-.5084-1.251-.226-.40799.28276-.51.84247-.228,1.25098l1.838,2.64896c.16787.24197.4435.38651.738.38699h.056c.31333-.01967.59376-.20119.74-.47899l4.085-7.75587c.23046-.4394.06182-.98242-.377-1.21398"/>
          </g>
          <g id="uuid-7090d40b-f151-4ce0-8cb6-78701137740e" data-name="Gruppe 8181">
            <path id="uuid-8d8be423-bfc1-4c7f-8596-3fd1fdc0b1b6" data-name="Pfad 10426" class="uuid-86fa5dfe-1e39-4ce9-b30a-c4d28836fa71" d="m44.47898,63.02202c-.43973-.23173-.98406-.06312-1.2158.37661-.00007.00013-.00014.00026-.0002.00039l-3.392,6.4459-.993-1.43498c-.2834-.40731-.843-.5084-1.251-.226-.40799.28276-.51.84247-.228,1.25098l1.838,2.64896c.16787.24197.4435.38651.738.38699h.056c.31338-.02029.59384-.20158.741-.47899l4.084-7.75587c.23046-.4394.06182-.98242-.377-1.21398"/>
          </g>
          <g id="uuid-4441abc9-50a2-41b2-8f33-c231ff0cebb1" data-name="Gruppe 8182">
            <path id="uuid-2b3f88a4-091b-4ce6-8c0b-d67d6bed7b67" data-name="Pfad 10427" class="uuid-86fa5dfe-1e39-4ce9-b30a-c4d28836fa71" d="m78.81098,72.20587c.35127.35027.91973.35027,1.271,0l2.611-2.61196,2.613,2.61196c.36708.33513.93634.30924,1.27148-.05783.31398-.34389.31377-.8705-.00048-1.21415l-2.613-2.61196,2.613-2.61196c.35153-.35141.35162-.92125.00021-1.27277l-.00021-.00021c-.35127-.35027-.91973-.35027-1.271,0l-2.613,2.61296-2.613-2.61196c-.35127-.35027-.91973-.35027-1.271,0-.35153.35141-.35162.92125-.00021,1.27277.00007.00007.00014.00014.00021.00021l2.613,2.61096-2.611,2.61196c-.35028.35126-.35028.91972,0,1.27098"/>
          </g>
          <g id="uuid-907255c9-4091-4ca4-8785-140e2e54dcb4" data-name="Gruppe 8183">
            <path id="uuid-4199ca3d-96c5-4d63-b9aa-2fa48ea3a0ff" data-name="Pfad 10428" class="uuid-86fa5dfe-1e39-4ce9-b30a-c4d28836fa71" d="m53.67798,44.67331h16.54c.49706,0,.9-.40294.9-.89999s-.40294-.89999-.9-.89999h-16.54c-.49706,0-.9.40294-.9.89999h0c0,.49705.40294.89999.9.89999h0"/>
          </g>
          <g id="uuid-5162f60f-5360-4d92-a0c6-e8a8d41113c1" data-name="Gruppe 8184">
            <path id="uuid-b8a3f857-d28a-4f56-92d1-406a10a6916e" data-name="Pfad 10429" class="uuid-86fa5dfe-1e39-4ce9-b30a-c4d28836fa71" d="m53.67798,54.66115h16.54c.49706,0,.9-.40294.9-.89999s-.40294-.89999-.9-.89999h-16.54c-.49706,0-.9.40294-.9.89999h0c0,.49705.40294.89999.9.89999h0"/>
          </g>
        </g>
      </g>
    </g>
    <g class="uuid-10c22cd7-7e1e-4117-b325-3cf72da33d70">
      <g id="uuid-b748b03d-f3e5-4189-84d3-8a101bfc94a8" data-name="Gruppe 8188">
        <g id="uuid-c718c552-6e6b-4f8b-986e-eecf2ff2e45d" data-name="Gruppe 8187">
          <path id="uuid-aec3575a-709c-4640-8eef-1db5e30e238b" data-name="Pfad 10431" class="uuid-ecf08e90-81d3-4f08-98b4-e79e436d1327" d="m-101.72033.00132H218.17477s.00424,271.65894.00424,271.65894H-101.72033S-101.72033.00132-101.72033.00132Z"/>
        </g>
      </g>
    </g>
  </g>
</svg>