<?xml version="1.0" encoding="UTF-8"?>
<svg id="uuid-e691a010-0c61-4961-862c-3405b3383fd6" data-name="uuid-44022fca-24de-438b-a932-7037bb3625f5" xmlns="http://www.w3.org/2000/svg" width="123" height="123" xmlns:xlink="http://www.w3.org/1999/xlink" viewBox="0 0 123 123">
  <defs>
    <style>
      .uuid-21f361ec-b194-4adb-9074-79c09bbe754e {
        fill: none;
      }

      .uuid-734e5551-c0e1-4bd7-8387-33590592edf0 {
        clip-path: url(#uuid-30060193-8ec7-44b1-b3ab-119555804f66);
      }

      .uuid-156b2498-8608-4b9f-a7c3-0614e2a26a19 {
        fill: #fff;
      }

      .uuid-98f7b6d2-a75f-4f47-a9c2-e826564d6138 {
        fill: url(#uuid-8ed26e8b-d398-49e6-a6a6-f4985208f5a2);
      }

      .uuid-ddce3f17-d262-49eb-88c7-f0e652e17e64 {
        clip-path: url(#uuid-b337d6e8-7bea-4b6a-be2c-68cb90e43b5f);
      }

      .uuid-b5f1022d-dbb1-470b-bcf2-f5fe4602bf60 {
        fill: url(#uuid-153fcd3b-4081-429d-8f22-d301d7505166);
      }
    </style>
    <clipPath id="uuid-30060193-8ec7-44b1-b3ab-119555804f66">
      <rect class="uuid-21f361ec-b194-4adb-9074-79c09bbe754e" width="122.1423" height="120.5448"/>
    </clipPath>
    <clipPath id="uuid-b337d6e8-7bea-4b6a-be2c-68cb90e43b5f">
      <path class="uuid-21f361ec-b194-4adb-9074-79c09bbe754e" d="m61.5,0v4.76421c31.28509.00502,56.7338,25.45344,56.7338,56.73789h0c0,31.28277-25.44787,56.72868-56.73378,56.72868h0c-31.28343,0-56.73379-25.44758-56.73379-56.72868H0c0,33.90919,27.58821,61.49791,61.5,61.49791h0c33.91096,0,61.5-27.58955,61.5-61.49791h0c-.00083-33.91254-27.58904-61.50209-61.5-61.50209Z"/>
    </clipPath>
    <linearGradient id="uuid-8ed26e8b-d398-49e6-a6a6-f4985208f5a2" data-name="Unbenannter Verlauf" x1="-2347.50168" y1="-19.93152" x2="-2347.27356" y2="-19.99889" gradientTransform="translate(842973.24686 -828589.00522) rotate(-45) scale(503.523)" gradientUnits="userSpaceOnUse">
      <stop offset="0" stop-color="#84a214"/>
      <stop offset="1" stop-color="#a2c617"/>
    </linearGradient>
    <linearGradient id="uuid-153fcd3b-4081-429d-8f22-d301d7505166" data-name="Unbenannter Verlauf 2" x1="50.72907" y1="42.99718" x2="83.81326" y2="103.8515" gradientTransform="translate(0 98) scale(1 -1)" gradientUnits="userSpaceOnUse">
      <stop offset="0" stop-color="#84a214"/>
      <stop offset="1" stop-color="#a2c617"/>
    </linearGradient>
  </defs>
  <g id="uuid-739fc8e6-dd24-4c06-b13d-ae4ed0237d09" data-name="uuid-2ebeedbf-8cfb-4a81-9397-d65cbe67f210">
    <g class="uuid-734e5551-c0e1-4bd7-8387-33590592edf0">
      <g id="uuid-65ba4585-70bd-4a33-b087-31a9d85f2942" data-name="uuid-74ec2cb2-eaeb-40e4-8e2a-6594f6f74506">
        <g id="uuid-83899e8c-c9cb-4ce0-86ac-a9849fe69970" data-name="uuid-8608bfb8-66d4-49ad-a703-3519840408c0">
          <path id="uuid-c866be89-3307-4bdf-85a3-ea8a42cfb280" data-name="uuid-d402300a-be55-419d-9e50-7ee99dd5565d" class="uuid-156b2498-8608-4b9f-a7c3-0614e2a26a19" d="m44.45355,70.10541c2.46067.01319,4.46797-1.96743,4.48783-4.42817-.00173-.86003-.25857-1.7002-.73799-2.41418.02683-.01499.05283-.03141.0779-.0492l5.41115-5.27527c.68623.4087,1.4694.62617,2.26811.62978.92566-.00082,1.82852-.28718,2.58544-.82003l5.03149,4.5438c-.38528.6559-.59089,1.40175-.59613,2.16243.03349,2.478,2.06936,4.45966,4.54724,4.42616,2.43065-.03285,4.39311-1.9954,4.42597-4.42616-.00006-.88984-.27248-1.75834-.78063-2.4888l9.70053-13.42147.72569,5.62706c.06497.48215.47701.8416.96349.84053.0414-.00015.08276-.00288.12382-.0082.52813-.06127.9066-.53908.84533-1.06724-.00024-.00206-.00048-.00412-.00074-.00618l-1.04139-8.06338c-.01762-.13536-.06524-.26507-.1394-.37968-.00492-.00656,0-.01722-.00656-.02378-.01558-.02214-.04346-.02706-.05822-.04756-.08505-.10861-.19279-.19732-.3157-.25995-.03766-.02366-.07746-.04371-.1189-.05986-.14168-.05788-.29568-.07904-.44772-.0615-.01473.00385-.02924.00851-.04346.01394-.01066,0-.01886-.00492-.02952,0l-8.37133,1.67861c-.52163.10045-.86307.60477-.76263,1.12643.00028.00147.00056.00293.00086.0044.10862.52419.62158.86106,1.14574.75244.00076-.00016.0015-.00031.00225-.00047l5.94988-1.19233-9.56605,13.24025c-1.51554-.9052-3.42353-.82566-4.85846.20255l-5.02575-4.54052c.38908-.65936.59674-1.40996.60187-2.17555-.01851-2.46066-2.02561-4.44182-4.48619-4.42818-2.46058-.01364-4.46769,1.96751-4.48619,4.42818.00018.89185.27377,1.76219.78391,2.49372l-5.34555,5.20475c-.02456.03186-.04702.06527-.06724.10005-2.09163-1.32308-4.85976-.69997-6.18278,1.39177-.44344.70109-.68359,1.51151-.6937,2.34102.01895,2.46048,2.0258,4.44136,4.48619,4.42818m23.01069-8.14703c1.38386.01721,2.49176,1.15306,2.47455,2.53699-.01721,1.38393-1.15301,2.49187-2.53687,2.47466-1.37355-.01708-2.47733-1.13683-2.47473-2.51056.01263-1.39016,1.14693-2.50838,2.53706-2.5011m-11.50699-10.31683c1.39331-.01,2.53115,1.11101,2.54199,2.50438-.01083,1.3935-1.14853,2.51474-2.54199,2.5052-1.39376.00955-2.5316-1.1122-2.54199-2.50602.01127-1.39305,1.14898-2.51356,2.54199-2.50356m-11.50617,11.5313c1.38375-.02502,2.52578,1.07648,2.55081,2.46029.02503,1.38381-1.07643,2.5259-2.46018,2.55093-.03021.00055-.06042.00055-.09064,0-1.38375.02504-2.52579-1.07647-2.55082-2.46028-.02503-1.38381,1.07642-2.5259,2.46016-2.55094.03022-.00055.06044-.00055.09066,0"/>
        </g>
        <g id="uuid-bce6fc38-44c9-4810-bbae-bf7ce936c5a5" data-name="uuid-1455f19c-bac9-489a-b400-540ee389be9b">
          <path id="uuid-eaf9e89f-57da-4163-9f3f-41d9fb42b1fc" data-name="uuid-a6d28838-e380-490d-8069-69a1011eb8f5" class="uuid-156b2498-8608-4b9f-a7c3-0614e2a26a19" d="m26.25213,35.90677h4.05898v42.05701c.00451.53468.44113.96472.97579.96108h29.49111v8.06994l-19.31252,12.07417c-.44714.27576-.58609.8618-.31034,1.30896.00335.00544.00676.01083.01022.0162.17884.2796.4881.44846.81999.44774.18385-.00029.36404-.05138.5207-.14761l18.27194-11.42141v7.35406c.0156.53781.46422.96114,1.002.94552.51585-.01497.93051-.42966.94548-.94552v-7.35406l18.26949,11.42224c.15727.0962.33798.14727.52234.14761.3317-.00004.64062-.16871.81999-.44774.28441-.44278.15605-1.03229-.28671-1.31672-.00444-.00285-.00891-.00567-.01341-.00845l-19.31416-12.07663v-8.0683h29.49521c.53421.00318.97009-.42685.97416-.96108v-42.05701h4.06062c.53076.00008.9611-.43014.96118-.96093s-.43013-.96115-.96088-.96123h-34.53027v-4.27483c-.00362-.53468-.4395-.96544-.97415-.96272-.53448-.00227-.97009.42823-.97415.96272v4.27483H26.25215c-.53076,0-.96103.43029-.96103.96108s.43027.96108.96103.96108m64.99523,41.0943h-58.98716v-40.89995h58.98713v40.89995h.00003Z"/>
        </g>
      </g>
    </g>
    <g class="uuid-ddce3f17-d262-49eb-88c7-f0e652e17e64">
      <g>
        <g id="uuid-521f9a64-5025-4d5d-ab78-49196e0d1475" data-name="uuid-4fad84f5-b48c-4878-868e-ea0bdcf67181">
          <g id="uuid-d61b90ad-5777-47be-9cc3-109903c94ecb" data-name="uuid-6113fe79-aef7-4ec1-8299-b323fd523129">
            <path id="uuid-c7554f33-8530-4d3f-8fdc-fce53a6c41d7" data-name="uuid-7b02d3e6-98ae-4d5b-aa0c-4bc5cfced7cc" class="uuid-98f7b6d2-a75f-4f47-a9c2-e826564d6138" d="m-101.72205.00301L218.17748.00124v271.66598l-319.89952-.00178S-101.72204.00301-101.72205.00301Z"/>
          </g>
        </g>
        <rect class="uuid-b5f1022d-dbb1-470b-bcf2-f5fe4602bf60" x="-24.61336" y="-30.35335" width="146.75566" height="177.93964"/>
      </g>
    </g>
  </g>
</svg>