<?xml version="1.0" encoding="UTF-8"?>
<svg id="uuid-b95ad8e0-170a-4c90-8f16-2864c0fdf663" data-name="Ebene 1" xmlns="http://www.w3.org/2000/svg" width="123" height="123" xmlns:xlink="http://www.w3.org/1999/xlink" viewBox="0 0 123 123">
  <defs>
    <style>
      .uuid-457e87c8-c405-484f-958d-5b954855a805 {
        fill: none;
      }

      .uuid-91098698-185e-4d5a-a664-4aec7d3888e2 {
        fill: #00443c;
      }

      .uuid-b8c384e2-bffe-45af-8e14-eeaf5dc253aa {
        clip-path: url(#uuid-a2d5587e-d80d-4efb-9a81-93e9327cd29f);
      }

      .uuid-c32d4470-7615-4f64-91b2-548d4fc7a865 {
        fill: url(#uuid-6340933f-e0c0-4ced-95cd-ed53b272882b);
      }
    </style>
    <clipPath id="uuid-a2d5587e-d80d-4efb-9a81-93e9327cd29f">
      <path class="uuid-457e87c8-c405-484f-958d-5b954855a805" d="m61.5,0v4.76392c31.31981.03638,56.69983,25.41778,56.73399,56.73708h0c-.03473,31.31794-25.41556,56.69702-56.734,56.73008h0c-31.31707-.03637-56.69597-25.41352-56.73399-56.73008H0c.03857,33.94897,27.55048,61.46043,61.5,61.499h0c33.94975-.03802,61.46197-27.5498,61.5-61.499h0C122.96252,27.55125,95.4503.03857,61.5,0Z"/>
    </clipPath>
    <linearGradient id="uuid-6340933f-e0c0-4ced-95cd-ed53b272882b" data-name="Unbenannter Verlauf" x1="-1186.48414" y1="1305.92053" x2="-1186.21015" y2="1306.00153" gradientTransform="translate(737271.93502 35456.82018) rotate(-45) scale(418.29998 -418.29998)" gradientUnits="userSpaceOnUse">
      <stop offset="0" stop-color="#84a214"/>
      <stop offset="1" stop-color="#a2c617"/>
    </linearGradient>
  </defs>
  <g id="uuid-9c1d4fde-4008-4bc1-afad-79543f6bb249" data-name="Gruppe 8195">
    <g id="uuid-ac024882-b352-46d3-8805-f4ab8d203a9d" data-name="Gruppe 8192">
      <g id="uuid-3b02b3ce-7635-4cee-b301-dd96b28400be" data-name="Gruppe 8190">
        <path id="uuid-8457efb6-e2df-4b03-a604-5a1b4f9b792a" data-name="Pfad 10433" class="uuid-91098698-185e-4d5a-a664-4aec7d3888e2" d="m42.16101,64.43594c2.39701.02109,4.35827-1.903,4.383-4.29993-.0016-.83476-.25192-1.65011-.719-2.34196.02604-.01268.05141-.0267.076-.042l5.282-5.11492c.67098.39674,1.43551.60763,2.215.61099.90373-.00183,1.7851-.28107,2.525-.79999l4.913,4.40793c-.37635.63618-.57718,1.36082-.582,2.09997.05171,2.41952,2.05507,4.33901,4.47463,4.2873,2.34676-.05015,4.23722-1.94058,4.28737-4.2873-.00027-.86378-.26631-1.70656-.762-2.41396l9.472-13.01979.707,5.45991c.06555.46884.46759.81704.941.81499.04046-.00015.08087-.00282.121-.008.5132-.05731.88277-.51978.82546-1.03297-.00015-.00134-.0003-.00268-.00046-.00401l-1.017-7.82587c-.01727-.13129-.06374-.25703-.136-.36799-.005-.007,0-.017-.007-.023s-.042-.026-.057-.046c-.08315-.10537-.18825-.19137-.308-.252-.03676-.02294-.0756-.04236-.116-.058-.13874-.0561-.28936-.07639-.438-.059-.01422.00358-.02824.00792-.042.013h-.029l-8.173,1.62897c-.507.09505-.84096.58309-.74591,1.09009.00062.0033.00126.0066.00191.00989.10833.5111.61048.83761,1.12158.72929.00047-.0001.00094-.0002.00142-.0003l5.81-1.15698-9.343,12.83679c-1.48212-.87722-3.34195-.79883-4.745.2l-4.908-4.39993c.38301-.64084.58774-1.37241.593-2.11897-.02364-2.39661-1.98432-4.32102-4.381-4.29993-2.39845-.02386-4.36213,1.90109-4.38599,4.29951,0,.00014,0,.00028,0,.00043.00084.86601.26867,1.71069.767,2.41896l-5.22,5.04992c-.0242.03183-.04625.06524-.066.1-.69989-.44012-1.50923-.67502-2.336-.67799-2.39396-.01943-4.35217,1.90207-4.378,4.29593.02419,2.39638,1.98455,4.32046,4.381,4.29993m22.469-7.91087c1.35505-.01277,2.46462,1.07395,2.48,2.42896-.02749,1.36882-1.15944,2.45618-2.52827,2.42869-1.33013-.02671-2.40201-1.09858-2.42873-2.42869.01484-1.35406,1.12289-2.44062,2.477-2.42896m-11.236-10.00484c1.35467-.01222,2.46362,1.07435,2.479,2.42896-.01429,1.3554-1.12356,2.44317-2.479,2.43096-1.35544.01221-2.46471-1.07556-2.479-2.43096.01538-1.35461,1.12433-2.44118,2.479-2.42896m-11.236,11.18682c1.35522-.01277,2.46507,1.07379,2.481,2.42896-.01484,1.35611-1.12484,2.44417-2.481,2.43196-1.35499.01055-2.46316-1.07703-2.478-2.43196.01538-1.35422,1.12372-2.44062,2.478-2.42896"/>
      </g>
      <g id="uuid-cab8b338-3edb-4c5c-b9cb-8dc81f09781c" data-name="Gruppe 8191">
        <path id="uuid-3004a0fb-82df-4bc5-ba49-bdda0c656df9" data-name="Pfad 10434" class="uuid-91098698-185e-4d5a-a664-4aec7d3888e2" d="m24.38701,33.24145h3.964v40.79934c.00604.52042.43257.93754.953.93198h28.797v7.83087l-18.858,11.70981c-.43421.26387-.57228.82977-.3084,1.26398.00532.00876.01079.01743.01641.026.17538.27144.47683.43498.8.43399.17932-.00062.35503-.05042.508-.14399l17.842-11.08382v7.13388c.02407.52466.46891.93047.99358.9064.49097-.02253.88389-.41544.90642-.9064v-7.13988l17.844,11.08582c.15368.09364.33004.14344.51.14399.32293.00006.62398-.16325.8-.43399.27585-.42735.15302-.99741-.27434-1.27325-.00617-.00399-.01239-.0079-.01866-.01173l-18.861-11.71581v-7.82687h28.8c.51965.00444.94495-.41236.951-.93198v-40.79834h3.965c.51965.00444.94495-.41236.951-.93198-.00604-.51963-.43134-.93643-.951-.93198h-33.71599v-4.14793c-.00495-.52041-.43058-.93842-.951-.93398-.5202-.00389-.9455.41381-.951.93398v4.14693H24.38701c-.51811-.00446-.94278.40993-.951.92798.00604.51963.43135.93643.951.93198m63.469,39.86735H30.25401v-39.67436h57.6l.002,39.67436Z"/>
      </g>
    </g>
    <g class="uuid-b8c384e2-bffe-45af-8e14-eeaf5dc253aa">
      <g id="uuid-c5d5ebf1-de3d-4113-a11e-93e1cd00d1af" data-name="Gruppe 8194">
        <g id="uuid-d0d120ac-331b-4c67-8c53-856ab94a2d93" data-name="Gruppe 8193">
          <path id="uuid-b46566c2-f617-442d-822a-58af87c2f850" data-name="Pfad 10436" class="uuid-c32d4470-7615-4f64-91b2-548d4fc7a865" d="m-101.72026-.00222L218.17908.00203v271.65753l-319.89934.00425V-.00222Z"/>
        </g>
      </g>
    </g>
  </g>
</svg>