<?xml version="1.0" encoding="UTF-8"?>
<svg id="uuid-772d0cdb-0e75-471a-8817-21f9298dca7b" data-name="Ebene 1" xmlns="http://www.w3.org/2000/svg" width="123" height="123" xmlns:xlink="http://www.w3.org/1999/xlink" viewBox="0 0 123 123">
  <defs>
    <style>
      .uuid-f034a9f4-a9eb-4e08-8fc1-50d9d86170f1 {
        fill: none;
      }

      .uuid-787796fb-b595-4817-ae6d-55b54d3c5020 {
        fill: #00443c;
      }

      .uuid-98f3fa61-6ff5-49f9-b0cf-1d6c57f5c569 {
        fill: url(#uuid-5aa3e43c-8143-4dcf-852e-1bb45c0b5fa8);
      }

      .uuid-fafe57ec-4e59-4a85-a941-72e8b9433c5c {
        clip-path: url(#uuid-ad634c43-8c32-49a3-8bad-72bcdf7da348);
      }
    </style>
    <clipPath id="uuid-ad634c43-8c32-49a3-8bad-72bcdf7da348">
      <path class="uuid-f034a9f4-a9eb-4e08-8fc1-50d9d86170f1" d="m61.5,0v4.76456c31.27452-.00785,56.65405,25.37278,56.73401,56.73644h0c-.07941,31.36308-25.46007,56.74259-56.734,56.73143h0c-31.27393.01116-56.65459-25.36835-56.734-56.73143H0c.08657,33.99785,27.59878,61.50961,61.5,61.49899h0c33.90121.01062,61.41344-27.50115,61.5-61.49899h0C122.91398,27.5026,95.40176-.01007,61.5,0Z"/>
    </clipPath>
    <linearGradient id="uuid-5aa3e43c-8143-4dcf-852e-1bb45c0b5fa8" data-name="Unbenannter Verlauf" x1="-1187.52675" y1="1307.79769" x2="-1187.1432" y2="1307.79769" gradientTransform="translate(800904.37574 38769.05828) rotate(-45) scale(453.88299 -453.88198)" gradientUnits="userSpaceOnUse">
      <stop offset="0" stop-color="#84a214"/>
      <stop offset="1" stop-color="#a2c617"/>
    </linearGradient>
  </defs>
  <g id="uuid-25836838-70ec-4e35-aa26-7765b8146241" data-name="Gruppe 9044">
    <g id="uuid-6e0aba20-e55e-48e2-adc8-a778932a8f34" data-name="Gruppe 8810">
      <g id="uuid-15c12744-9176-4a76-b434-13fd3ba7aabd" data-name="Gruppe 5671">
        <path id="uuid-c682fc07-a48d-4e01-8040-52cdd5f88dcf" data-name="Pfad 7889" class="uuid-787796fb-b595-4817-ae6d-55b54d3c5020" d="m91.00501,77.31804c-.23413-.00009-.45862-.09353-.624-.25974l-4.577-4.59106c-.16573-.16585-.25891-.39098-.259-.62578.00031-.23476.09345-.4598.259-.62578l9.691-9.71364-9.691-9.72066c-.16573-.16585-.25891-.39098-.259-.62578.00031-.23476.09345-.4598.259-.62578l4.577-4.58805c.34497-.34476.90303-.34476,1.248,0l14.89,14.93449c.34378.34596.34378.9056,0,1.25156l-14.89,14.93048c-.16538.16621-.38987.25965-.624.25974m-3.328-5.47458l3.328,3.3385,13.641-13.67993-13.641-13.68093-3.329,3.33449,9.69,9.72066c.16555.16598.25869.39102.259.62578-.00031.23476-.09345.4598-.259.62578l-9.689,9.71565Z"/>
      </g>
      <g id="uuid-9e52f75e-8e77-428f-acb8-4b0b964f5956" data-name="Gruppe 5672">
        <path id="uuid-3bb12c9e-35e1-423a-bdc0-f520338c7e1f" data-name="Pfad 7890" class="uuid-787796fb-b595-4817-ae6d-55b54d3c5020" d="m31.99701,45.68199c.23413.00009.45862.09353.624.25974l4.577,4.58805c.34463.34524.34492.90529.00066,1.2509l-.00066.00067-9.691,9.71665,9.691,9.72066c.34463.34524.34492.90529.00066,1.25089-.00022.00022-.00044.00044-.00066.00067l-4.577,4.58906c-.34497.34476-.90303.34476-1.248,0l-14.889-14.93048c-.34378-.34596-.34378-.9056,0-1.25156l14.889-14.9355c.16538-.16621.38987-.25965.624-.25974m3.332,5.47458l-3.332-3.33649-13.641,13.67792,13.641,13.68293,3.332-3.3365-9.693-9.71564c-.16555-.16597-.25869-.39102-.259-.62578-.00002-.23482.09317-.45999.259-.62578l9.693-9.72066Z"/>
      </g>
      <g id="uuid-1ed613ce-bad0-493d-9b75-c4485123587b" data-name="Gruppe 5673">
        <path id="uuid-aea96740-04c7-43ca-ae8f-76098a4d4975" data-name="Pfad 7891" class="uuid-787796fb-b595-4817-ae6d-55b54d3c5020" d="m45.72701,90.91272c.00009-.2348.09327-.45993.259-.62578l4.575-4.59006c.16538-.16621.38987-.25965.624-.25974.23409.00031.4585.09372.624.25974l9.688,9.71865,9.693-9.71865c.16538-.16621.38987-.25965.624-.25974.23413.00009.45862.09353.624.25974l4.575,4.59006c.34378.34596.34378.9056,0,1.25156l-14.886,14.93249c-.34497.34476-.90303.34476-1.248,0l-14.893-14.93249c-.16573-.16585-.25891-.39098-.259-.62578m5.459-3.3375l-3.327,3.3375,13.639,13.67993,13.644-13.67993-3.327-3.3375-9.688,9.71665c-.34426.34561-.90271.34591-1.24734.00067l-.00066-.00067-9.693-9.71665Z"/>
      </g>
      <g id="uuid-e6c27d19-2275-435f-8eba-20db6b4ed959" data-name="Gruppe 5674">
        <path id="uuid-1895e7ce-827c-4b1f-acf1-d7c1fe8b92e8" data-name="Pfad 7892" class="uuid-787796fb-b595-4817-ae6d-55b54d3c5020" d="m77.275,32.0873c.00058.23493-.0927.46031-.259.62578l-4.578,4.59006c-.34426.34561-.90271.34591-1.24734.00067l-.00066-.00067-9.686-9.71665-9.693,9.71765c-.16538.16621-.38987.25965-.624.25974-.23409-.00031-.4585-.09372-.624-.25974l-4.574-4.59006c-.34463-.34524-.34492-.90529-.00066-1.2509l.00066-.00067,14.891-14.93249c.34497-.34476.90303-.34476,1.248,0l14.888,14.93149c.1663.16547.25958.39085.259.62578m-5.459,3.34151l3.327-3.34151-13.639-13.67993-13.642,13.67993,3.325,3.34151,9.693-9.71765c.1655-.16602.38991-.25943.624-.25974.23415-.00002.45868.09344.624.25974l9.688,9.71765Z"/>
      </g>
      <g class="uuid-fafe57ec-4e59-4a85-a941-72e8b9433c5c">
        <g id="uuid-72eb73fa-2f7d-4512-80cb-e2b2fc39b500" data-name="Gruppe 5677">
          <g id="uuid-e47ca9bd-a8ee-4f3d-8083-e3c9166e4dc2" data-name="Gruppe 5676">
            <path id="uuid-b8cdb199-c64b-4035-881f-d99d245d8fc1" data-name="Pfad 7894" class="uuid-98f3fa61-6ff5-49f9-b0cf-1d6c57f5c569" d="m-105.06706-.00033H214.88179s-.00071,322.8566-.00071,322.8566l-319.94814.00071V-.00033Z"/>
          </g>
        </g>
      </g>
    </g>
  </g>
</svg>