<svg id="Gruppe_8022" data-name="Gruppe 8022" xmlns="http://www.w3.org/2000/svg" width="135.353" height="303.432" viewBox="0 0 135.353 303.432">
  <path id="Pfad_10232" data-name="Pfad 10232" d="M144.873,223.565c3.09,11.4,9.218,13.372,12.156,20.665a20.349,20.349,0,0,1,0,16.208c-1.368,3.495-12.916,16.765-16.157,11.548-3.191-5.217-27.554-5.673-25.224-16.563,3.394-15.854,2.127-31.758,10.738-32.872C135.046,221.437,143.708,219.411,144.873,223.565Z" transform="translate(-100.386 -120.106)" fill="#f5ab7d"/>
  <path id="Pfad_10233" data-name="Pfad 10233" d="M284.677,490.329c7.952,6.99,10.13,10.89,11.143,13.169s4.508,11.092,4.559,12.207a40.731,40.731,0,0,1-.709,5.47l1.925,2.887,8.307-9.927-2.634-11.852.456-8.712a8.02,8.02,0,0,0-3.546-1.266c-2.381-.354-8.357-.152-14.587-7.243C283.31,477.97,284.677,490.329,284.677,490.329Z" transform="translate(-183.817 -249.304)" fill="#ffb575"/>
  <path id="Pfad_10234" data-name="Pfad 10234" d="M311.553,530.326c2.938.861,6.534-2.583,7.091-6.686a30.1,30.1,0,0,0-1.773-15.5c-.76-1.975-.861-6.635-.861-6.635s3.647-.659,5.673,1.469a10.6,10.6,0,0,1,2.33,3.039s-3.292,8-2.583,11.4c.76,3.748,2.431,5.419,0,8.459-2.482,3.039-8.307,10.788-10.231,12.612-1.418,1.367-3.292.506-2.279-1.57A65.528,65.528,0,0,0,311.553,530.326Z" transform="translate(-195.701 -258.455)" fill="#a0220a"/>
  <path id="Pfad_10235" data-name="Pfad 10235" d="M332.868,511.143c1.368-2.178,2.381-2.532,2.938-1.317,1.57,3.393,7.04,8.256,7.04,8.256l-.608.76s-6.635-6.179-8.56-5.014C331.7,514.942,332.868,511.143,332.868,511.143Z" transform="translate(-207.493 -262.267)" fill="#a0220a"/>
  <path id="Pfad_10236" data-name="Pfad 10236" d="M122.25,546c-.405,10.586-2.077,14.739-3.191,16.968s-5.774,10.485-6.585,11.244a44.42,44.42,0,0,1-4.71,2.887L106.7,580.4l12.916.2,7.547-9.522,7.04-5.116a7.78,7.78,0,0,0-1.216-3.546c-1.216-2.077-5.166-6.585-3.545-15.9C130.961,537.14,122.25,546,122.25,546Z" transform="translate(-96.048 -278.59)" fill="#ffb575"/>
  <path id="Pfad_10237" data-name="Pfad 10237" d="M100.621,596.689c1.165,2.836,6.129,3.444,9.674,1.317a30.164,30.164,0,0,0,10.94-11.143c1.064-1.824,4.609-4.863,4.609-4.863s2.786,2.431,2.431,5.318a10.455,10.455,0,0,1-.912,3.7s-8.256,2.482-10.485,5.166c-2.431,2.938-2.634,5.319-6.585,5.319s-13.625.354-16.259,0c-1.975-.253-2.482-2.279-.2-2.786A55.466,55.466,0,0,0,100.621,596.689Z" transform="translate(-88.956 -298.226)" fill="#a0220a"/>
  <path id="Pfad_10238" data-name="Pfad 10238" d="M153.624,596.92c2.583-.3,3.444.253,2.836,1.418-1.672,3.343-1.975,10.637-1.975,10.637h-.962s.608-9.067-1.52-9.826C149.977,598.389,153.624,596.92,153.624,596.92Z" transform="translate(-118.103 -305.548)" fill="#a0220a"/>
  <g id="Gruppe_7994" data-name="Gruppe 7994" transform="translate(21.617 121.619)">
    <g id="Gruppe_7993" data-name="Gruppe 7993">
      <path id="Pfad_10239" data-name="Pfad 10239" d="M140.582,262.029c-16.968,3.343-14.891,21.526-2.279,51.461s12.764,30.8,22.286,36.823c1.925,1.216,12.359-3.039,8.307-12.815-4.964-11.954-4.812-21.476-8.813-35.759C151.219,270.386,149.193,260.357,140.582,262.029Z" transform="translate(-128.35 -261.853)" fill="#ffb575"/>
      <g id="Gruppe_7992" data-name="Gruppe 7992" transform="translate(26.735 74.64)">
        <g id="Gruppe_7991" data-name="Gruppe 7991">
          <path id="Pfad_10240" data-name="Pfad 10240" d="M249.95,460.315c-18.538-19.348-21.932-27.4-31.15-35.81-13.676-12.46-30.694-18.386-34.645-13.676-5.825,6.939-1.671,9.522-.355,10.637,7.7,5.42,45.535,27.959,57.944,40.47C246.253,466.494,249.95,460.315,249.95,460.315Z" transform="translate(-181.133 -409.217)" fill="#ffb575"/>
        </g>
      </g>
    </g>
  </g>
  <g id="Gruppe_7996" data-name="Gruppe 7996" transform="translate(14.754 121.341)">
    <path id="Pfad_10241" data-name="Pfad 10241" d="M148.634,262.468c-16.259-5.876-23.806,10.839-28.415,43-2.583,18.285-5.217,33.328-5.42,43.559-.1,7.749,10.637,12.663,17.373-1.672A257.627,257.627,0,0,0,146.709,308C155.269,276.548,156.89,265.456,148.634,262.468Z" transform="translate(-114.799 -261.305)" fill="#ffb575"/>
    <g id="Gruppe_7995" data-name="Gruppe 7995" transform="translate(0.111 82.418)">
      <path id="Pfad_10242" data-name="Pfad 10242" d="M133.851,505.964c-1.216-17.322,3.039-38.14,2.786-50.6-.152-8-2.482-14.79-3.849-20.361-2.684-10.94-6.736-11.143-10.231-10.94-9.066.557-7.9,5.217-6.787,13.372,1.368,9.32,11.447,37.481,10.586,69.695Z" transform="translate(-115.019 -424.024)" fill="#ffb575"/>
    </g>
  </g>
  <path id="Pfad_10243" data-name="Pfad 10243" d="M114.156,313.722c-.355-8.458-3.242-40.52.152-58.3,3.394-15.854,2.127-31.758,10.738-32.872s17.272-3.14,18.437,1.013c3.09,11.4,9.218,13.372,12.156,20.665a20.348,20.348,0,0,1,0,16.208c1.672,14.182,6.737,29.073,6.433,47.814L153,312.2l-7.294-24.11,1.621,24.312s-16.006,3.545-19.348,3.9A22.51,22.51,0,0,1,114.156,313.722Z" transform="translate(-98.996 -120.106)" fill="#5d5d5c"/>
  <g id="Gruppe_8004" data-name="Gruppe 8004" transform="translate(0 11.955)">
    <path id="Pfad_10244" data-name="Pfad 10244" d="M120.8,81.945c4.356-7.9,4.356-9.978,4.153-14.891s.253-5.977.253-5.977,9.927-5.116,13.524-5.521c3.6-.355,1.671,1.368.557,5.521s-1.469,5.521-2.229,9.522-6.433,3.039-8.509,7.192-4.559,9.016-4.559,9.016Z" transform="translate(-103.007 -50.36)" fill="#ffb575"/>
    <path id="Pfad_10245" data-name="Pfad 10245" d="M131.413,59.4l3.242,6.331a1.791,1.791,0,0,0,2.684.608l16.056-12a1.768,1.768,0,0,0,.456-2.381l-3.546-5.774a1.821,1.821,0,0,0-2.583-.507l-15.7,11.447A1.794,1.794,0,0,0,131.413,59.4Z" transform="translate(-108.15 -45.341)" fill="#5d5d5c"/>
    <g id="Gruppe_7997" data-name="Gruppe 7997" transform="translate(0.307 33.746)">
      <path id="Pfad_10246" data-name="Pfad 10246" d="M87,145.362c-2.836-3.6,3.14-6.939,10.231-12.966s9.826-15.8,18.791-19.551,18.133,5.268,10.586,12.561c-7.547,7.243-24.717,18.639-30.39,21.324C88.517,150.326,87,145.362,87,145.362Z" transform="translate(-86.277 -111.966)" fill="#b87737"/>
    </g>
    <g id="Gruppe_8003" data-name="Gruppe 8003" transform="translate(0 19.227)">
      <g id="Gruppe_8000" data-name="Gruppe 8000" transform="translate(7.005)">
        <g id="Gruppe_7999" data-name="Gruppe 7999">
          <g id="Gruppe_7998" data-name="Gruppe 7998">
            <path id="Pfad_10247" data-name="Pfad 10247" d="M99.5,110.8c3.444-6.331,13.068-21.881,15.752-26.9,2.381-2.634,3.292,4.153,3.292,4.153-1.165,4.1-6.078,13.27-7.192,17.778,0,0-10.029,4.356-11.751,5.166Z" transform="translate(-99.5 -83.301)" fill="#ffb575"/>
          </g>
        </g>
      </g>
      <g id="Gruppe_8002" data-name="Gruppe 8002" transform="translate(0 9.724)">
        <g id="Gruppe_8001" data-name="Gruppe 8001">
          <path id="Pfad_10248" data-name="Pfad 10248" d="M107.87,108.629c-2.786,11.4-7.75,26.288-11.447,31.2-4.71,6.281-9.877,2.482-10.687-1.216-1.013-4.457,9.927-27,15.144-36.114Z" transform="translate(-85.67 -102.5)" fill="#b87737"/>
        </g>
      </g>
    </g>
  </g>
  <path id="Pfad_10249" data-name="Pfad 10249" d="M127.709,135.248c.456-2.836,9.472-19.5,13.574-20.767,5.774-1.823,17.424.861,17.424.861s6.382,1.823,10.383,5.521c6.635,5.318-6.635,27.554-6.635,27.554-3.394,8.762-6.838,18.791-8.205,28.921-8.914,7.851-25.984,1.823-25.68-4C129.684,151.3,126.443,143.048,127.709,135.248Z" transform="translate(-106.269 -67.194)" fill="#fff"/>
  <path id="Pfad_10250" data-name="Pfad 10250" d="M156.928,132.335c-12.359,15.043-10.535,42.7-12.055,51.157s10.637,12.815,15.955,11.6,9.066-6.23,9.066-6.23-7.5-8.661-5.369-17.88,10.181-20.007,13.726-32.062,5.268-11.042,2.431-17.069C178,116.127,164.373,114,164.373,114S166.45,120.787,156.928,132.335Z" transform="translate(-114.822 -67.269)" fill="#b87737"/>
  <path id="Pfad_10251" data-name="Pfad 10251" d="M142.6,111.7c-9.016,1.52-23.3,20.665-22.539,27s2.381,19.1,2.381,26.439c0,5.977-1.621,13.169-4.153,16.563s-6.686-.253-6.686-.253a14.383,14.383,0,0,0,8.357-11.4c1.013-8.509-.1-19.8-1.621-28.263s-.355-11.9,3.09-16.968c2.634-3.849,6.585-10.485,9.978-11.9C134.747,111.543,142.6,111.7,142.6,111.7Z" transform="translate(-98.466 -66.129)" fill="#b87737"/>
  <path id="Pfad_10252" data-name="Pfad 10252" d="M163.611,111.718c3.647,1.671,2.33,5.268-1.773,11.244s-9.522,13.27-11.194,18.842c-2.431,8.053-3.444,25.528-3.444,25.528S151.252,149.2,153.734,145c2.178-3.748,6.888-7.091,6.888-7.091l-2.634-3.292,5.166-1.621s6.736-11.042,6.027-16.36-4.964-6.331-4.964-6.331Z" transform="translate(-116.035 -65.443)" fill="#cf8f51"/>
  <path id="Pfad_10253" data-name="Pfad 10253" d="M149.489,109.956a20.069,20.069,0,0,0-14.334,4.609,76.583,76.583,0,0,1-7.7,5.47l1.975,4.559-4.255-.1s-2.178,6.027-1.216,10.282c.962,4.2,2.381,12.105,2.887,15.752s1.52,14.435,1.52,14.435-2.127-23.5-1.469-29.073c.608-5.572,7.344-15.094,10.687-18.032,2.988-2.634,5.47-6.534,8.965-6.23C150.046,111.88,149.489,109.956,149.489,109.956Z" transform="translate(-104.445 -65.251)" fill="#cf8f51"/>
  <path id="Pfad_10254" data-name="Pfad 10254" d="M204.49,49.9c-.355-3.242,8.357-9.421,14.891-1.368,4.913,6.027-1.469,11.4.253,18.538,1.823,7.6,5.825,5.977,10.738,10.485,7.952,7.294-.709,15.043,12.409,14.435-5.014,7.395-14.537,9.269-24.92,3.6-7.851-4.305-3.343-14.841-9.32-21.02-7.142-7.395-1.519-11.143.962-18.538C211.986,48.942,204.49,49.9,204.49,49.9Z" transform="translate(-144.302 -33.006)" fill="#5c460e"/>
  <g id="Gruppe_8006" data-name="Gruppe 8006" transform="translate(36.889 51.088)">
    <path id="Pfad_10255" data-name="Pfad 10255" d="M215.026,237.01,174.2,243.544a12.943,12.943,0,0,1-14.993-12.561l-.709-36.367,56.121-9.016,10.738,34.8A12.982,12.982,0,0,1,215.026,237.01Z" transform="translate(-158.5 -153.691)" fill="#e73e20"/>
    <g id="Gruppe_8005" data-name="Gruppe 8005" transform="translate(9.828 0)">
      <path id="Pfad_10256" data-name="Pfad 10256" d="M179.776,172.8a.761.761,0,0,1-.76-.658c-.253-1.925-5.622-46.953,9.725-49.435s25.275,41.837,25.68,43.711a.755.755,0,1,1-1.469.355c-.1-.456-10.029-44.826-24.008-42.6-13.929,2.229-8.56,47.307-8.459,47.763a.738.738,0,0,1-.658.81Z" transform="translate(-177.904 -122.602)" fill="#fff"/>
    </g>
  </g>
  <g id="Gruppe_8007" data-name="Gruppe 8007" transform="translate(53.652 52.549)">
    <path id="Pfad_10257" data-name="Pfad 10257" d="M216.164,176.447c-5.014,1.57-8.459-4.812-11.852-14.587-3.394-9.826-12.612-16.613-12.713-27.5-.152-10.89,11.042-12.207,15.5-1.418,4.457,10.839,12.207,27.706,11.954,34.8C218.848,174.827,216.164,176.447,216.164,176.447Z" transform="translate(-191.597 -125.486)" fill="#b87737"/>
  </g>
  <g id="Gruppe_8011" data-name="Gruppe 8011" transform="translate(47.48 112.981)">
    <g id="Gruppe_8010" data-name="Gruppe 8010">
      <g id="Gruppe_8009" data-name="Gruppe 8009">
        <g id="Gruppe_8008" data-name="Gruppe 8008">
          <path id="Pfad_10258" data-name="Pfad 10258" d="M198.552,251.385c-4.964,5.825-10.181,11.447-13.625,15.2-9.269,9.927-4.052-3.292-4.052-3.292,3.393-5.723,6.99-12.46,10.434-18.487Z" transform="translate(-179.412 -244.8)" fill="#ffb575"/>
        </g>
      </g>
    </g>
  </g>
  <g id="Gruppe_8015" data-name="Gruppe 8015" transform="translate(52.945 94.024)">
    <g id="Gruppe_8014" data-name="Gruppe 8014">
      <g id="Gruppe_8013" data-name="Gruppe 8013">
        <g id="Gruppe_8012" data-name="Gruppe 8012">
          <path id="Pfad_10259" data-name="Pfad 10259" d="M190.2,235.193c5.572-9.928,11.65-20.868,16.309-24.515,6.129-4.862,12.055-3.9,11.9-.1-.2,5.521-11.65,19.45-20.969,29.681Z" transform="translate(-190.2 -207.372)" fill="#b87737"/>
        </g>
      </g>
    </g>
  </g>
  <g id="Gruppe_8018" data-name="Gruppe 8018" transform="translate(35.7 125.897)">
    <g id="Gruppe_8017" data-name="Gruppe 8017">
      <g id="Gruppe_8016" data-name="Gruppe 8016" transform="translate(1.74 4.1)">
        <path id="Pfad_10260" data-name="Pfad 10260" d="M161.57,278.4a1.649,1.649,0,0,0-1.722,1.722c0,.557,0,1.114-.051,1.672l-.2,1.874a.857.857,0,0,0,.76.962,1.968,1.968,0,0,0,2.127-1.773l.557-2.33a1.6,1.6,0,0,0-1.469-2.127Z" transform="translate(-159.589 -278.396)" fill="#ffb575"/>
      </g>
      <path id="Pfad_10261" data-name="Pfad 10261" d="M160.66,278.81h0a1.46,1.46,0,0,0,2.026.405l2.786-1.823a1.46,1.46,0,0,0,.405-2.026h0a1.46,1.46,0,0,0-2.026-.405l-2.786,1.823A1.46,1.46,0,0,0,160.66,278.81Z" transform="translate(-158.256 -272.479)" fill="#ffb575"/>
      <path id="Pfad_10262" data-name="Pfad 10262" d="M166.853,275.531h0a1.331,1.331,0,0,0,.962,1.621l2.938.709a1.332,1.332,0,0,0,1.621-.962h0a1.331,1.331,0,0,0-.962-1.621l-2.938-.709A1.373,1.373,0,0,0,166.853,275.531Z" transform="translate(-161.41 -272.391)" fill="#ffb575"/>
      <path id="Pfad_10263" data-name="Pfad 10263" d="M167.446,276.181l.709.152,4.812,7.192h0a10.057,10.057,0,0,1-2.279,2.178h0l-.152.1-5.318,3.546h-.051a1.191,1.191,0,0,1-1.722-.355h0a1.232,1.232,0,0,1,.355-1.722l-.051.051a.186.186,0,0,0,.051-.152h0a.186.186,0,0,0-.152-.051l-.709.456a1.261,1.261,0,0,1-1.773-.405,1.3,1.3,0,0,1,.405-1.722l.152-.1a.186.186,0,0,0,.051-.152h0a.186.186,0,0,0-.152-.051l-.507.355a1.191,1.191,0,0,1-1.722-.355h0a1.191,1.191,0,0,1,.355-1.722l.709-.456a.186.186,0,0,0,.051-.152c-.051-.051-.1-.1-.152-.051l-.253.152a1.191,1.191,0,0,1-1.722-.355h0a1.191,1.191,0,0,1,.355-1.722L162.989,278l3.14-1.722A3.771,3.771,0,0,1,167.446,276.181Z" transform="translate(-157.141 -273.192)" fill="#ffb575"/>
      <path id="Pfad_10264" data-name="Pfad 10264" d="M180.216,270.3l-6.027,3.6c-.1,0-2.178-.557-2.33-.557a2.109,2.109,0,0,0-1.266.2c-1.114.608-3.292,1.773-3.292,1.773,1.064,2.33,4.305,1.925,5.369,2.938-1.925,1.266,0,5.926,2.33,4.711l.152-.1h0a11.313,11.313,0,0,0,2.279-2.178l5.014-9.776Z" transform="translate(-161.654 -270.3)" fill="#ffb575"/>
      <path id="Pfad_10265" data-name="Pfad 10265" d="M167.78,298.221h0a1.248,1.248,0,0,0,1.773.355l2.178-1.469a1.248,1.248,0,0,0,.355-1.773h0a1.248,1.248,0,0,0-1.773-.354l-2.178,1.469A1.24,1.24,0,0,0,167.78,298.221Z" transform="translate(-161.779 -282.368)" fill="#ffb575"/>
      <path id="Pfad_10266" data-name="Pfad 10266" d="M158.682,290.145h0a1.455,1.455,0,0,0,1.975.405l4.407-2.887a1.455,1.455,0,0,0,.405-1.975h0a1.455,1.455,0,0,0-1.975-.405l-4.407,2.887A1.445,1.445,0,0,0,158.682,290.145Z" transform="translate(-157.291 -277.583)" fill="#ffb575"/>
      <path id="Pfad_10267" data-name="Pfad 10267" d="M162.185,294.732h0a1.3,1.3,0,0,0,1.722.658l4.356-1.925a1.3,1.3,0,0,0,.658-1.722h0a1.3,1.3,0,0,0-1.722-.658l-4.356,1.925A1.3,1.3,0,0,0,162.185,294.732Z" transform="translate(-159.072 -280.499)" fill="#ffb575"/>
      <path id="Pfad_10268" data-name="Pfad 10268" d="M156.38,285.785h0a1.368,1.368,0,0,0,1.874.355l3.647-2.431a1.368,1.368,0,0,0,.355-1.874h0a1.368,1.368,0,0,0-1.874-.355l-3.647,2.431A1.367,1.367,0,0,0,156.38,285.785Z" transform="translate(-156.154 -275.705)" fill="#ffb575"/>
    </g>
  </g>
  <path id="Pfad_10269" data-name="Pfad 10269" d="M157.355,71.786s.152,22.843-1.975,23.856,11.4,4.812,14.334-1.165L172.55,69Z" transform="translate(-119.96 -45.062)" fill="#ffb575"/>
  <path id="Pfad_10270" data-name="Pfad 10270" d="M173.417,84.1l-14.537,2.178a13.655,13.655,0,0,0,.152,2.938c4.558-.253,12.663.253,14.081-2.229Z" transform="translate(-121.789 -52.514)" fill="#fda15d"/>
  <path id="Pfad_10271" data-name="Pfad 10271" d="M159.2,25.512s-6.686,1.165-8.459,4.407-2.279,10.94-4.052,12.764a8.062,8.062,0,0,1-3.343,2.229s-.456.861,1.317,1.773.456,1.925-.658,1.925-.152,2.127.658,2.381a1.29,1.29,0,0,0-.912,1.418c.2,1.064.709,1.266.709,1.266a7.263,7.263,0,0,1-.507,2.735c-.557,1.317.81,5.268,9.522,3.495,0,0,13.574-.76,15.246-5.673,2.634.76,3.8-4.052,4.711-6.686.658-1.975-.152-6.179-4.559-16.765C166.141,24.3,159.2,25.512,159.2,25.512Z" transform="translate(-114.108 -23.556)" fill="#ffb575"/>
  <g id="Gruppe_8021" data-name="Gruppe 8021" transform="translate(35.569)">
    <g id="Gruppe_8020" data-name="Gruppe 8020">
      <g id="Gruppe_8019" data-name="Gruppe 8019">
        <path id="Pfad_10272" data-name="Pfad 10272" d="M163.191,37.167c8.053,4.407,8.712,11.092,8.712,11.092s.507-2.634,2.634-2.583c2.178.051,2.634,1.925,1.722,3.8-1.823,3.748-4.356,3.849-4.356,3.849l-.456,5.116s3.039-5.268,6.483-7.192c3.7-2.077,6.331-8.205,6.331-13.777-.051-5.268-2.279-11.65-10.991-14.891a14.755,14.755,0,0,0-12.055,1.013C156.2,26.48,151.491,30.735,163.191,37.167Z" transform="translate(-155.894 -21.738)" fill="#5c460e"/>
      </g>
    </g>
    <path id="Pfad_10273" data-name="Pfad 10273" d="M209.6,51.855c1.216-1.114,1.925-6.078-.2-8.155,4,1.013,2.786,7.344.2,8.155Z" transform="translate(-182.299 -32.576)" fill="#a2c617"/>
  </g>
</svg>
