<?xml version="1.0" encoding="UTF-8"?>
<svg id="uuid-4ac30fea-5d25-4d78-99c8-607e07f6a815" data-name="Ebene 1" xmlns="http://www.w3.org/2000/svg" width="123" height="123" xmlns:xlink="http://www.w3.org/1999/xlink" viewBox="0 0 123 123">
  <defs>
    <style>
      .uuid-20986bee-1b3f-4c1d-95f8-959092db1af8 {
        fill: none;
      }

      .uuid-cdb35b27-6826-4723-9b52-11730cedb389 {
        font-family: Barlow-Medium, Barlow;
        font-size: 27px;
        font-weight: 500;
      }

      .uuid-cdb35b27-6826-4723-9b52-11730cedb389, .uuid-f711efdc-b248-41cb-9dbe-78ea79bd31ca {
        fill: #003d3d;
      }

      .uuid-cdb35b27-6826-4723-9b52-11730cedb389, .uuid-a6ce1733-ff03-42a7-8c29-817cef8b1b04 {
        isolation: isolate;
      }

      .uuid-f4792e8d-9233-4b79-86a7-07b95f279737 {
        clip-path: url(#uuid-74382ddd-44e2-4c75-8b16-cb186d2260a7);
      }

      .uuid-b1c1bcb7-85fe-4ccc-b579-a407134d5c0f {
        clip-path: url(#uuid-3571e734-8223-4e97-a43e-52404d2d3148);
      }

      .uuid-f3f91152-f94c-48d7-b3ef-e5c2c9a2e9c0 {
        fill: url(#uuid-4770e052-ab89-4d7b-9d73-ae3af651f2f0);
      }
    </style>
    <clipPath id="uuid-74382ddd-44e2-4c75-8b16-cb186d2260a7">
      <rect class="uuid-20986bee-1b3f-4c1d-95f8-959092db1af8" x=".64899" y=".53898" width="121.944" height="121.94202"/>
    </clipPath>
    <clipPath id="uuid-3571e734-8223-4e97-a43e-52404d2d3148">
      <path class="uuid-20986bee-1b3f-4c1d-95f8-959092db1af8" d="m61.5,0v4.76388c31.32019.03638,56.70038,25.41819,56.73399,56.73762h0c-.03748,31.3167-25.41653,56.69425-56.734,56.73062h0c-31.31747-.03637-56.69652-25.41392-56.73399-56.73062H0c.03857,33.9487,27.55048,61.45993,61.5,61.4985h0c33.94952-.03857,61.46143-27.5498,61.5-61.4985h0C122.96253,27.55186,95.45046.03911,61.5,0Z"/>
    </clipPath>
    <linearGradient id="uuid-4770e052-ab89-4d7b-9d73-ae3af651f2f0" data-name="Unbenannter Verlauf" x1="-1187.48203" y1="1308.49004" x2="-1187.20804" y2="1308.57104" gradientTransform="translate(738327.10894 35921.68111) rotate(-45) scale(418.29998 -418.29998)" gradientUnits="userSpaceOnUse">
      <stop offset="0" stop-color="#84a214"/>
      <stop offset="1" stop-color="#a2c617"/>
    </linearGradient>
  </defs>
  <g id="uuid-dcd6f409-b7ae-4f53-8397-ade7c7ff3e48" data-name="Gruppe 9043">
    <g id="uuid-68d3c5e2-1264-410f-bef8-ea3ea2ac99a9" data-name="Gruppe 8910">
      <g id="uuid-c830641e-92a2-4e3a-9a1e-3380d962d68c" data-name=" 360" class="uuid-a6ce1733-ff03-42a7-8c29-817cef8b1b04">
        <text class="uuid-cdb35b27-6826-4723-9b52-11730cedb389" transform="translate(38.78101 103.49357)"><tspan x="0" y="0">360</tspan></text>
      </g>
      <g class="uuid-f4792e8d-9233-4b79-86a7-07b95f279737">
        <g id="uuid-c4d98ae3-f4d9-4cf1-8048-6df408da93d6" data-name="Gruppe 8202">
          <g id="uuid-a4a2ae4a-8dd4-405e-aadc-277016ce4e4c" data-name="Gruppe 8198">
            <path id="uuid-18de5c18-c834-47ba-a1e5-1fe4e000ae46" data-name="Pfad 10438" class="uuid-f711efdc-b248-41cb-9dbe-78ea79bd31ca" d="m61.10099,37.88207c4.271,0,7.365-5.57986,7.365-9.34177-.00331-4.06643-3.29847-7.36241-7.365-7.36682-4.06575.00441-7.36059,3.29917-7.365,7.36482,0,3.76091,3.092,9.34377,7.365,9.34377m0-14.55865c2.87811.00495,5.21005,2.33683,5.215,5.21487,0,3.14392-2.527,7.19382-5.215,7.19382s-5.217-4.0499-5.217-7.19382c.00331-2.87983,2.3371-5.21357,5.217-5.21687"/>
          </g>
          <g id="uuid-dca6c862-3838-4301-8aa8-c9de01e482f4" data-name="Gruppe 8199">
            <path id="uuid-47e8884d-8347-476c-b61d-96592c617a01" data-name="Pfad 10439" class="uuid-f711efdc-b248-41cb-9dbe-78ea79bd31ca" d="m78.73998,41.71498c3.739,0,6.751-4.66789,6.751-8.53279-.00496-3.72617-3.02474-6.74543-6.751-6.74984-3.72704.00441-6.74714,3.02489-6.751,6.75184,0,3.86491,3.011,8.53079,6.751,8.53079m0-13.13768c2.53846.00495,4.59505,2.06149,4.6,4.59989,0,2.72893-2.275,6.38584-4.6,6.38584s-4.603-3.64791-4.603-6.37885c.00495-2.53839,2.06154-4.59494,4.6-4.59989"/>
          </g>
          <g id="uuid-a0311353-2ad1-4596-8420-b1979d083e8a" data-name="Gruppe 8200">
            <path id="uuid-92bc24db-6a06-499f-9c69-76ee2db61e82" data-name="Pfad 10440" class="uuid-f711efdc-b248-41cb-9dbe-78ea79bd31ca" d="m88.07699,45.84287c-.23-.091-5.761-2.23295-9.337-2.23295-2.29673.10022-4.56857.5175-6.751,1.23997l.1-1.26797c.02738-.36363-.13198-.71624-.423-.93598-.145-.108-3.54-2.61194-10.564-2.61194s-10.419,2.49994-10.56,2.61194c-.29238.21865-.4521.57205-.423.93598l.1,1.39397c-2.20998-.78831-4.52356-1.24852-6.867-1.36597-3.574,0-9.1,2.14195-9.335,2.23395-.43999.17126-.71612.61022-.68,1.08097l1.081,14.26665c.04093.56044.50806.99394,1.07.99298h2.02l1.683,13.62467c.06663.53749.52339.94106,1.065.94098.04416.00035.08829-.00265.132-.009.58669-.07075,1.00495-.6037.9342-1.19038-.00039-.0032-.00079-.0064-.0012-.00959l-1.8-14.56964c-.01276-.04714-.02811-.09355-.046-.139-.01628-.0688-.0394-.13579-.069-.2-.03234-.05995-.07052-.11656-.114-.169-.03856-.05454-.08244-.10512-.131-.151-.05437-.04511-.11337-.08432-.176-.117-.05468-.03575-.11301-.06559-.174-.089-.07007-.02141-.14209-.03581-.215-.043-.04622-.01312-.09335-.02281-.141-.029h-1.975l-.943-12.4647c1.581-.56599,5.346-1.81396,7.812-1.81396,2.41503.16099,4.79204.68485,7.051,1.55396l.914,12.08271c.04281.55953.50882.992,1.07.99298h2.328l1.891,17.44457c.05875.54499.51884.95807,1.067.95798h6.861c.54833.00055,1.00869-.41277,1.067-.95798l1.891-17.44357h2.329c.56156,0,1.02813-.43299,1.07-.99298l.926-12.2307c2.23-.79584,4.56219-1.26927,6.926-1.40597,2.464,0,6.231,1.24797,7.814,1.81396l-.943,12.4647h-1.976c-.11815.02325-.23615.04725-.354.072-.06264.02408-.12263.05457-.179.091-.06103.0325-.11865.07102-.172.115-.04856.04587-.09244.09645-.131.151-.04432.05237-.08288.10937-.115.17-.03004.06383-.05252.13095-.067.2-.01966.04479-.03506.09132-.046.139l-1.8,14.56964c-.07406.5885.34299,1.12561.9315,1.19966.00083.00011.00167.00021.0025.00031.04438.00636.08917.00937.134.009.54085-.00093.99646-.40425,1.063-.94098l1.683-13.62767h2.022c.56194.00097,1.02907-.43254,1.07-.99298l1.079-14.26665c.03546-.47059-.24045-.90918-.68-1.08097m-21.549,12.3967c-.05181.00585-.103.01622-.153.031-.07121.00651-.14157.02025-.21.041-.06372.02745-.12466.06094-.182.1-.05799.03273-.11318.07019-.165.112-.04878.04903-.09359.10187-.134.158-.04184.05251-.07929.10836-.112.167-.02779.06452-.04955.13147-.065.19999-.01792.04849-.03327.09789-.046.148l-1.892,17.44558h-4.934l-1.887-17.44458c-.01089-.0506-.02629-.10013-.046-.148-.01468-.06874-.03647-.13576-.065-.19999-.03106-.05962-.06863-.11563-.112-.167-.04004-.05613-.08452-.10897-.133-.158-.0528-.04328-.10936-.08176-.169-.115-.05784-.03939-.11948-.07289-.184-.1-.06518-.02011-.13216-.03384-.2-.041-.05159-.01381-.10403-.02417-.157-.031h-2.3l-1.072-14.16665c2.72742-1.35361,5.75028-2.00299,8.793-1.88895,3.04273-.11421,6.06564.53519,8.793,1.88895l-1.072,14.16865h-2.296Z"/>
          </g>
          <g id="uuid-52ff9df7-fd10-4801-9512-c6d5ed347f9b" data-name="Gruppe 8201">
            <path id="uuid-2a3ed13d-0494-4fb6-add8-aa36e1517b02" data-name="Pfad 10441" class="uuid-f711efdc-b248-41cb-9dbe-78ea79bd31ca" d="m43.35199,41.71498c3.739,0,6.751-4.66789,6.751-8.53279-.00496-3.72617-3.02474-6.74543-6.751-6.74984-3.72671.00441-6.74625,3.02521-6.749,6.75184,0,3.86491,3.01,8.53279,6.749,8.53279m0-13.13768c2.53846.00495,4.59505,2.06149,4.6,4.59989,0,2.72893-2.275,6.38584-4.6,6.38584s-4.603-3.64991-4.603-6.38084c.00495-2.53839,2.06154-4.59494,4.6-4.59989"/>
          </g>
        </g>
      </g>
      <g class="uuid-b1c1bcb7-85fe-4ccc-b579-a407134d5c0f">
        <g id="uuid-bafb0476-f482-4706-ad71-64a08d9cc178" data-name="Gruppe 8207">
          <g id="uuid-21b449e1-e82d-4c3d-b2e9-32e1b98da39c" data-name="Gruppe 8206">
            <path id="uuid-4101a440-0378-4003-9d2c-56b2be98e962" data-name="Pfad 10445" class="uuid-f3f91152-f94c-48d7-b3ef-e5c2c9a2e9c0" d="m-101.72079.00178H218.1743v271.6638H-101.72079S-101.72079.00178-101.72079.00178Z"/>
          </g>
        </g>
      </g>
    </g>
  </g>
</svg>