<?xml version="1.0" encoding="UTF-8"?>
<svg id="uuid-99986f10-baba-465c-b699-fb580906f5a8" data-name="Ebene 1" xmlns="http://www.w3.org/2000/svg" width="123" height="123" xmlns:xlink="http://www.w3.org/1999/xlink" viewBox="0 0 123 123">
  <defs>
    <style>
      .uuid-92e034cf-5048-479c-a512-214ce1efd115 {
        fill: none;
      }

      .uuid-da13366b-da28-4c5d-968c-7ccfb779c5e9 {
        fill: #00443c;
      }

      .uuid-704b2188-a77c-4236-8c32-23ddeacedf1f {
        clip-path: url(#uuid-7d0583ab-599e-4d46-936e-ffd7704a1d0f);
      }

      .uuid-2084e158-ec38-4688-9673-53c0c20b8940 {
        fill: url(#uuid-531c6031-9aaa-4773-b820-0574a0f3f622);
      }
    </style>
    <clipPath id="uuid-7d0583ab-599e-4d46-936e-ffd7704a1d0f">
      <path class="uuid-92e034cf-5048-479c-a512-214ce1efd115" d="m61.50001,0v4.76388c31.32019.03638,56.70038,25.41819,56.73399,56.73762h0c-.03748,31.3167-25.41653,56.69425-56.734,56.73062h0c-31.31747-.03637-56.69652-25.41392-56.73399-56.73062H0c.03857,33.9487,27.55048,61.45993,61.5,61.4985h0c33.94952-.03857,61.46143-27.5498,61.5-61.4985h0C122.96254,27.55186,95.45047.03912,61.50001,0Z"/>
    </clipPath>
    <linearGradient id="uuid-531c6031-9aaa-4773-b820-0574a0f3f622" data-name="Unbenannter Verlauf" x1="-1187.48204" y1="1308.48704" x2="-1187.20804" y2="1308.56804" gradientTransform="translate(738326.22209 35920.79226) rotate(-45) scale(418.29998 -418.29998)" gradientUnits="userSpaceOnUse">
      <stop offset="0" stop-color="#84a214"/>
      <stop offset="1" stop-color="#a2c617"/>
    </linearGradient>
  </defs>
  <g id="uuid-7b7e2ef8-9751-4e9e-bddc-3fe00dee4153" data-name="Gruppe 9042">
    <g id="uuid-842711c3-5b88-4dea-bd51-1c63e8c2b4d0" data-name="Gruppe 8813">
      <g id="uuid-c837e248-9c20-43b7-80b0-4036b71c4af3" data-name="Gruppe 5657">
        <path id="uuid-023d2233-1fb3-4f4f-8232-93b7811ef7f9" data-name="Pfad 7875" class="uuid-da13366b-da28-4c5d-968c-7ccfb779c5e9" d="m58.509,100.92555c-.33874.00025-.66784-.11274-.935-.32099l-4.229-3.28692-5-.70598-5.026,1.35897c-.68699.18499-1.41071-.12896-1.745-.75698l-1.56-2.92593c-.12603-.2383-.18708-.50559-.177-.77498v-2.44394c.00643-.12207.02248-.24345.048-.36299l1.42-5.42387c.04732-.17955.12696-.34898.235-.49999l1.091-1.53496-6.349-1.71496c-.33535-.09171-.62971-.2944-.835-.57499l-2.318-3.17692c-.20285-.27903-.30572-.61828-.292-.96298v-2.41194c.00028-.32635.10545-.64396.3-.90598l-1.217-1.74996c-.19291-.28048-.28719-.6171-.268-.95698v-2.37794c-.00334-.35323.11653-.69658.339-.97098l.816-1.00598-1.561-3.89191c-.07554-.1908-.11193-.39484-.107-.59999v-2.45694c0-.046.011-.166.018-.211l1.081-7.63181c.09782-.70396.66984-1.24649,1.378-1.30697l3.717-.32899.77-1.64396c-.24413-.28634-.37377-.65282-.364-1.02897v-2.40994c-.01608-.58715.30957-1.13041.835-1.39297l.307-.153.244-6.25585c.00883-.20478.05954-.40557.149-.58999l1.245-2.62894c.23886-.5032.73293-.83628,1.289-.86898l3.7-.22c.6715-.04905,1.29342.35533,1.521.98897l.4,1.07497,2.086-3.23892.5-3.87191-.625-2.16595c-.02979-.1316-.04918-.26535-.058-.39999v-2.49194c-.00219-.40563.15679-.79552.442-1.08397.2809-.30738.68406-.47377,1.1-.45399l4.546.027c.58782.00431,1.12148.34415,1.374.87498l1.552,3.30792,5.089.87698c.32927.05622.63101.21886.859.46299l.259.27999c.23653.25781.37769.58881.4.93798v1.93095l9.186-3.77591c.43684-.18268.93409-.14972,1.343.089l4.043,2.33394c.14223.08222.27021.1869.379.30999l3.242,3.65591c.15535.17432.26859.38198.331.60698l1.137,4.0999c.02818.12734.04591.25676.053.38699v2.48994c-.00123.21951-.04788.43638-.137.63698l-.479,1.07297,1.859,2.08295c.18084.20261.30442.44975.358.71598l2.006,10.15076,1.369,5.07588c.04332.16289.05887.33192.046.49999v2.34194c.01395.48834-.20969.95314-.6,1.24697l-1.172.88798c-.42747.32552-.99492.40153-1.493.19999l-1.28-.51799-12.326,6.14085.423,1.89995,9.013,7.9998c.34282.30869.52678.75644.5,1.21697v2.36194l-.198,2.82093c-.03397.46255-.27741.88424-.661,1.14497l-4.09,2.78193,1.062,1.61796c.21046.31909.29261.7059.23,1.08297l.013,2.13395c.02365.21907-.00833.44056-.093.64398l-.443,1.15997c-.30013.78692-1.18138,1.18155-1.96832.88143-.04825-.0184-.09554-.03924-.14168-.06245l-2.885-1.44196-8.532,2.89993c-.34054.11504-.7106.10726-1.046-.022l-2.442-.95798-2.048,1.78096c-.27724.24132-.63244.37416-1,.37399m-10.129-6.10485c.07529-.00023.1505.00512.225.016l5.127.75898c.26099.04005.50744.14606.716.30799l4.051,3.14992,2-1.74296c.42868-.37346,1.02918-.47822,1.559-.27199l2.592,1.01897,8.454-2.94393c.386-.13353.80968-.10466,1.174.08l2.72,1.35897.335-.87998-.027-2.28094-1.495-2.30594c-.26827-.41024-.1589-.95971.246-1.23597l4.712-3.19992.194-2.54194v-2.33694l-9.006-8.0628c-.23836-.21276-.40383-.49506-.473-.80698l-.575-2.59294c-.08916-.40354.10797-.81593.478-.99998l13.063-6.49984c.39125-.19386.84653-.21204,1.252-.05l1.249.50799.942-.71598v-2.29994l-1.359-5.05388c-.006-.026-.016-.067-.019-.085l-2.011-10.17775-2.183-2.38794c-.23576-.26441-.29448-.64252-.15-.96598l.719-1.60996-.018-2.37294-1.129-4.0219-3.185-3.54891-3.865-2.21695-10.8,4.43889c-.36964.15202-.79526.04205-1.045-.26999-.249-.31329-.26123-.75335-.03-1.07998l.383-.53999-.046-2.21094-.187-.2-5.074-.81598c-.49021-.08483-.90864-.40256-1.122-.85198l-1.54-3.27792-4.1-.026v2.21495l.664,2.25794c.03365.11994.04283.24543.027.36899l-.564,4.1739c-.03088.22181-.10934.43432-.23.62299l-2.38,3.69491c-.31101.4885-.87372.75645-1.449.68998-.57612-.06135-1.06698-.4455-1.265-.98997l-.519-1.39096-3.343.2-1.177,2.48194-.224,6.30884c-.02459.55409-.34714,1.05147-.843,1.29997l-.3.15v2.20895l.3.34299c.23725.26812.29301.65137.142.97598l-1.088,2.32094c-.23112.49252-.70699.82475-1.249.87198l-3.651.32899-1.053,7.42882v2.42494l1.735,4.2999c.12061.30267.06821.6469-.137.89998l-1.146,1.41497.062,2.27094,1.545,2.18295c.22656.3284.20987.76675-.041,1.07697l-.38.46799.062,2.28094,2.265,3.04293,7.446,1.94995c.28412.07692.51267.28791.612.56499.09912.27664.05693.58424-.113.82398l-1.84,2.58694-1.378,5.33487.011,2.36194,1.426,2.65594,4.929-1.31097c.1284-.03302.26043-.04982.393-.05m32.381-8.0408h0Zm.2-5.09988v.01-.01Zm5.866-18.32055h0Zm1.065-.68698v.026-.026Zm-48.361-15.31363v.008-.008Zm0-2.46894h0m11.6-22.18846v.011-.011Z"/>
      </g>
      <g class="uuid-704b2188-a77c-4236-8c32-23ddeacedf1f">
        <g id="uuid-d544cce3-595d-4c5a-8550-ccf70363b0ff" data-name="Gruppe 5660">
          <g id="uuid-935bb69a-8abd-4eb3-ad4b-493c0d1f6f2a" data-name="Gruppe 5659">
            <path id="uuid-4dd03b2b-32b8-40af-9456-4a442409aa5e" data-name="Pfad 7877" class="uuid-2084e158-ec38-4688-9673-53c0c20b8940" d="m-101.72078.00179H218.17431v271.6638H-101.72078S-101.72078.00179-101.72078.00179Z"/>
          </g>
        </g>
      </g>
    </g>
  </g>
</svg>