<svg id="Gruppe_7990" data-name="Gruppe 7990" xmlns="http://www.w3.org/2000/svg" width="541.87" height="372.31" viewBox="0 0 541.87 372.31">
  <path id="Pfad_10153" data-name="Pfad 10153" d="M674.252,309.345c4.457,1.216,9.877,2.786,9.877,2.786,0-2.431-9.016-5.166-9.016-5.166s10.08,3.039,8.965,1.823c-1.165-1.216-9.522-4.153-9.522-4.153l-11.244,1.722s-20.209-13.625-27.1-25.73c-6.99-12.105-22.236-72.126-22.236-72.126L607.9,232s9.674,40.47,14.84,51.815c5.217,11.346,35.911,28.314,37.937,28.314,1.216,1.874,13.878.912,13.878,0s-1.165-.1-2.38-.3c-1.114-.2-2.178-1.317-3.343-2.229A11.108,11.108,0,0,1,674.252,309.345Z" transform="translate(-471.448 -119.629)" fill="#fda15d"/>
  <path id="Pfad_10154" data-name="Pfad 10154" d="M609.937,151.672l3.8-2.583s-9.927-16.36-8.914-30.441c.557-7.446-11.649-18.386-14.891-16.715-.2-.1-10.839.253-11.751,24.515L575.9,154.914l11.5,10.181s6.888-7.6,16.056-2.127c9.219,5.47,11.346-5.268,11.346-5.268S609.937,154.306,609.937,151.672Z" transform="translate(-455.656 -66.954)" fill="#67441a"/>
  <path id="Pfad_10155" data-name="Pfad 10155" d="M579.1,459.19l13.372,42.242s-6.99,15.4-4.913,25.73,10.991,67.821,10.991,67.821l6.433.3,3.039-98.414L596.929,440.5Z" transform="translate(-457.235 -234.12)" fill="#ffb575"/>
  <path id="Pfad_10156" data-name="Pfad 10156" d="M486.426,458.031,471.788,498.7s-14.537,6.99-19.045,16.158S422.1,571.437,422.1,571.437l2.634,5.825,61.844-71.822L511.3,455.6Z" transform="translate(-379.756 -241.572)" fill="#fda15d"/>
  <path id="Pfad_10157" data-name="Pfad 10157" d="M536.573,342.425s-14.283,10.333-20.716,21.071c-6.483,10.738-31.657,57.691-31.657,57.691s27.908,10.636,42.546,13.422,37.228-1.671,37.228-1.671-16.714-51.511-6.635-81.041C559.973,344.248,538.9,341.867,536.573,342.425Z" transform="translate(-410.402 -185.682)" fill="#552e5d"/>
  <path id="Pfad_10158" data-name="Pfad 10158" d="M534.85,368.851c-4.1-15.094-2.077-21.121-.2-23.451-4.1,3.242-13.777,11.3-18.791,19.6-6.483,10.738-31.657,57.691-31.657,57.691s27.908,10.637,42.546,13.422c8.762,1.671,20.361.709,28.263-.3Z" transform="translate(-410.402 -187.189)" fill="#653870"/>
  <path id="Pfad_10159" data-name="Pfad 10159" d="M594.286,204.453s8.56,6.281,11.092,25.73-3.343,54.145-3.343,54.145-18.842-.355-33.936-6.737c0,0,4.559-16.309,4.559-29.174s-6.129-28.82-2.533-35.151c3.951-6.939,7.04-10.231,10.181-10.89C581.624,202.123,593.273,203.9,594.286,204.453Z" transform="translate(-451.807 -116.595)" fill="#e73e20"/>
  <g id="Gruppe_7983" data-name="Gruppe 7983" transform="translate(32.264 325.266)">
    <path id="Pfad_10160" data-name="Pfad 10160" d="M402.605,675.514v9.016c0,3.7-.405,9.623-.405,11.5s4.153,8.56,5.521,8.1,1.013-6.534,2.533-9.725,6.382-8.965,5.622-9.826c-.81-.861-1.013-6.281-2.026-7.344C412.786,676.172,403.517,674.552,402.605,675.514Z" transform="translate(-402.2 -675.22)" fill="#85553a"/>
    <g id="Gruppe_7982" data-name="Gruppe 7982" transform="translate(6.286 10.427)">
      <path id="Pfad_10161" data-name="Pfad 10161" d="M414.808,697.874a.565.565,0,0,0-.051.81,37.051,37.051,0,0,1,2.988,4.457c.2-.354.456-.709.709-1.064a28.308,28.308,0,0,0-2.836-4.153A.615.615,0,0,0,414.808,697.874Z" transform="translate(-414.612 -696.763)" fill="#85553a"/>
      <path id="Pfad_10162" data-name="Pfad 10162" d="M419.431,696.107a.572.572,0,0,0,.2.76,14.043,14.043,0,0,1,2.634,2.127c.2-.3.456-.659.658-.962a15.1,15.1,0,0,0-2.735-2.178A.575.575,0,0,0,419.431,696.107Z" transform="translate(-416.954 -695.806)" fill="#85553a"/>
    </g>
  </g>
  <path id="Pfad_10163" data-name="Pfad 10163" d="M613.474,739.943a17.642,17.642,0,0,0-3.09,6.737c-.506,3.444-.4,5.014.2,5.622s9.725-.405,13.27-.557,7.952.2,9.978-1.266c1.975-1.469-.2-3.14-4-3.545-3.8-.354-7.8-6.534-8.661-7.344-.861-.861-1.823,1.114-4.2,1.216A5.56,5.56,0,0,1,613.474,739.943Z" transform="translate(-472.514 -381.612)" fill="#85553a"/>
  <path id="Pfad_10164" data-name="Pfad 10164" d="M607.649,161.279c.456.456.506,13.827,2.33,17.576,0,0,4.862,19.146,1.57,19.551-2.887.355-13.321-15.448-13.878-18.082-.76-3.546,0-21.324,0-21.324Z" transform="translate(-466.233 -95.201)" fill="#ffb575"/>
  <path id="Pfad_10165" data-name="Pfad 10165" d="M608.338,167.663c-3.951,2.735-7.7.81-10.738-3.748v-.152c.051-2.482.152-4.761.152-4.862l9.978,2.33C607.984,161.432,608.085,164.269,608.338,167.663Z" transform="translate(-466.365 -95.152)" fill="#fda15d"/>
  <path id="Pfad_10166" data-name="Pfad 10166" d="M604.615,103.87s5.572,1.064,6.23,5.825,1.57,8.762.659,14.334-4.255,13.017-9.674,14.182c-5.42,1.216-11.143-7.851-11.143-12.764s-1.975-13.118,1.722-18.183C596.106,102.3,604.615,103.87,604.615,103.87Z" transform="translate(-462.693 -67.878)" fill="#ffb575"/>
  <path id="Pfad_10167" data-name="Pfad 10167" d="M610.248,103.856s5.572,1.064,6.23,5.825c.608,4.356,1.418,8,.861,12.815a15.739,15.739,0,0,0-3.9-1.823c-6.078-2.026-11.5-13.777-11.751-14.283l-.1-.2v-.253a4.993,4.993,0,0,1,.152-1.469A18.2,18.2,0,0,1,610.248,103.856Z" transform="translate(-468.326 -67.864)" fill="#fda15d"/>
  <path id="Pfad_10168" data-name="Pfad 10168" d="M419.781,598.269l-.861,36.164-3.849,30.9s-4.356,5.369-5.369,5.166c-1.114-.253-.2-3.14-.3-4.407l-5.723-33.784L397.9,592.9Z" transform="translate(-367.814 -309.329)" fill="#fda15d"/>
  <path id="Pfad_10169" data-name="Pfad 10169" d="M389.549,594.4c-20.057,4.913-11.65,32.771-13.017,35.506,0,0-13.473,16.36-21.932,23.3.506,2.482,1.469,4.406,5.116,3.444,5.42-5.217,28.668-18.69,30.745-19.7,2.735-1.368,5.926-30.238,5.926-30.238Z" transform="translate(-346.445 -310.069)" fill="#ffb575"/>
  <path id="Pfad_10170" data-name="Pfad 10170" d="M452.264,468.707c6.838-2.938,14.385-10.637,14.486-13.929.1-3.09,1.469-4.761,1.57-7.04.051-1.114.253-1.317.3-1.367.1-.051.355.1.658.557.557.76-.81,3.191-.253,3.951a.446.446,0,0,0,.608.1c.861-.658,3.748-7.547,4.305-7.192.456.253-.3,1.317-.3,1.368-2.077,4-2.684,5.369-1.925,5.572.1.05.2,0,.3-.1.658-.506,3.343-6.078,4.356-6.027.253,0-.456,1.519-.456,1.57-.3.659-3.242,4.457-2.938,5.217.557,1.367,3.9-4.812,4.609-3.849.405.557-1.266,1.823-1.874,2.634-1.317,1.621-1.621,2.077-1.469,2.431.253.709,1.469-.051,2.33-.506a9.459,9.459,0,0,1,2.229-.962c-.1.861-2.532,2.077-3.242,2.431-1.368.709-1.114.456-4.457,3.748-1.266,1.216-.962.76-1.418,1.925-2.178,5.977-5.521,13.574-10.383,17.272-3.9,2.938-17.981,4.255-22.185,3.8-.506-2.989-4.761-10.586-5.42-13.574C435.043,468,449.63,469.872,452.264,468.707Z" transform="translate(-384.494 -235.736)" fill="#fda15d"/>
  <path id="Pfad_10171" data-name="Pfad 10171" d="M428.77,500.812s11.8,7.648,24.616,2.33l-3.6-11.65s-13.979-2.988-20.159-.658C423.553,493.215,428.77,500.812,428.77,500.812Z" transform="translate(-382.02 -258.521)" fill="#0d7566"/>
  <path id="Pfad_10172" data-name="Pfad 10172" d="M404.021,489.644c-7.851-4.609-18.487-.1-25.781,16.715-1.722,4-26.338,55.563-26.439,66.808,10.485,1.013,49.789-.405,60.223.709C402.45,554.376,418.861,498.407,404.021,489.644Z" transform="translate(-345.063 -257.534)" fill="#00443c"/>
  <g id="Gruppe_7984" data-name="Gruppe 7984" transform="translate(38.577 355.066)">
    <path id="Pfad_10173" data-name="Pfad 10173" d="M417.518,734.534a14.442,14.442,0,0,0-2.583,5.622c-.456,2.887-.3,4.2.2,4.66.507.507,8.155-.354,11.092-.456s6.635.152,8.307-1.064-.152-2.634-3.343-2.938c-3.14-.3-6.483-5.419-7.192-6.129s-1.519.963-3.495,1.013A4.463,4.463,0,0,1,417.518,734.534Z" transform="translate(-414.664 -734.054)" fill="#2d1e66"/>
    <path id="Pfad_10174" data-name="Pfad 10174" d="M416.2,751c7.648-1.874,15.3.152,17.829-.709C431.9,751.553,424.76,750.59,416.2,751Z" transform="translate(-415.422 -742.007)" fill="#2d1e66"/>
  </g>
  <g id="Gruppe_7985" data-name="Gruppe 7985" transform="translate(0 342.376)">
    <path id="Pfad_10175" data-name="Pfad 10175" d="M347.718,709a15.344,15.344,0,0,0-5.926,2.279c-2.381,1.722-3.292,2.786-3.292,3.444,0,.709,6.027,5.268,8.205,7.192s4.609,4.609,6.686,4.863,1.773-1.975-.253-4.356-.658-8.256-.658-9.269c0-.962-1.773-.355-3.242-1.672A3.864,3.864,0,0,1,347.718,709Z" transform="translate(-338.5 -709)" fill="#2d1e66"/>
    <path id="Pfad_10176" data-name="Pfad 10176" d="M341.4,718.2c6.838,3.849,10.789,10.434,13.22,11.548C352.189,729.242,347.782,723.721,341.4,718.2Z" transform="translate(-339.931 -713.54)" fill="#2d1e66"/>
  </g>
  <path id="Pfad_10177" data-name="Pfad 10177" d="M448.88,440.135s-7.04,3.8-8.611-3.546c-1.621-7.344.253-12.764-3.546-14.992s-8.965-4.2-13.979-2.836c-1.064.3,4.2,1.57,4.2,1.57s-19.4,28.415-19.754,32.973,17.829,5.825,20.868,6.078c10.383.81,15.347-9.826,15.347-9.826s-2.532.557-3.191-.1a14.11,14.11,0,0,0,5.268-1.57C447.563,446.568,448.88,440.135,448.88,440.135Z" transform="translate(-372.398 -223.17)" fill="#57231d"/>
  <path id="Pfad_10178" data-name="Pfad 10178" d="M448.924,469.5s-2.279,8.611.355,11.244-9.978,3.748-9.978-2.735c0-2.279,1.672-12.105,1.672-12.105Z" transform="translate(-388.244 -246.655)" fill="#ffb575"/>
  <path id="Pfad_10179" data-name="Pfad 10179" d="M440.1,473.9a26.359,26.359,0,0,0,8.307,1.368,30.761,30.761,0,0,1,.912-5.673l-8-3.6C441.366,465.949,440.607,470.3,440.1,473.9Z" transform="translate(-388.639 -246.704)" fill="#fda15d"/>
  <path id="Pfad_10180" data-name="Pfad 10180" d="M441.392,424.008c1.773,1.114,4.862,4.255,4.609,6.888s1.925,6.129,1.064,11.6c-.811,5.47-6.331,8.357-7.8,8.1-6.281-1.013-9.066-4.2-11.4-7.9s-7.749-3.951-1.975-13.422C431.667,419.753,437.948,421.83,441.392,424.008Z" transform="translate(-380.358 -225.074)" fill="#ffb575"/>
  <path id="Pfad_10181" data-name="Pfad 10181" d="M417.969,420.753s-7.294,12.663-2.533,24.211c1.773,4.305,6.433,10.738,6.433,10.738s-11.8.253-14.385.962l-1.215-10.839L404.7,456.31s-2.431.861-9.168-2.229-6.433-11.092-6.433-11.092,10.94-2.178,12.156-9.776C402.47,425.666,410.371,415.131,417.969,420.753Z" transform="translate(-363.469 -223.592)" fill="#85553a"/>
  <path id="Pfad_10182" data-name="Pfad 10182" d="M436.807,421.715s-4.457,7.344-10.586,7.344-7.142,2.279-7.142,4a2.509,2.509,0,0,0,3.951,2.026c1.925-1.266,2.077-2.026,2.077-2.026s.709,2.381-.76,3.85-6.078,2.482-7.547-1.469a8.549,8.549,0,0,1,.912-7.648,5.174,5.174,0,0,1,2.583-1.823,21.292,21.292,0,0,0,4.812-2.685,18.326,18.326,0,0,0,2.127-1.823,9.871,9.871,0,0,1,2.026-1.823,7.114,7.114,0,0,1,2.279-.76A5.644,5.644,0,0,1,436.807,421.715Z" transform="translate(-376.888 -223.439)" fill="#57231d"/>
  <path id="Pfad_10183" data-name="Pfad 10183" d="M535.85,212.475c-3.242,2.634-18.69,41.483-21.02,54.753-2.229,12.713-9.066,50.65-10.636,58.653l-.405,7.8a6.261,6.261,0,0,0,3.546,5.977l.76.405a15.088,15.088,0,0,0,2.836-.76,13.665,13.665,0,0,0,1.925-1.874,5.816,5.816,0,0,0,1.317-.456,10.089,10.089,0,0,0,1.367-2.228l-4.305-6.838c8.509-54.449,29.884-93.652,37.684-102.567C553.629,219.92,550.286,200.775,535.85,212.475Z" transform="translate(-420.064 -119.754)" fill="#ffb575"/>
  <path id="Pfad_10184" data-name="Pfad 10184" d="M428.83,579.67a12.668,12.668,0,0,1-.912-3.6c-.557-6.635-1.266-21.78-2.634-27.5L414.8,547c.355,5.622,5.572,25.781,6.129,29.276.557,3.444-3.343,11.5-2.178,12.764.557.659,2.279-7.75,2.735-6.584s-2.482,8.256-1.317,9.421c.658.658,2.381-7.9,2.583-8.357.3-.659-1.469,10.434-.405,10.029s1.925-10.839,2.33-9.776-2.026,8.357-.81,8.864c1.165.507,2.482-8.864,3.242-8.509.76.3.507,4.913,1.317,4.862C430.5,588.787,428.83,579.67,428.83,579.67Z" transform="translate(-376.154 -286.678)" fill="#ffb575"/>
  <path id="Pfad_10185" data-name="Pfad 10185" d="M572.58,96.057c-4.052.456-10.484-.507-13.473,6.129-1.773,3.748-5.369,11.042-5.369,23.907,0,19.247-18.538,27.706-18.538,27.706l8.1,3.951,4.862-3.951-3.292,7.04,13.321,1.317.557-9.218,2.735,10.485,8-1.266s-4.2-31.454-4.508-43.357a.157.157,0,0,1,.051.1c-.1-9.218-.506-14.131,5.014-16.765,2.938-1.418,13.372,2.583,13.372,2.583C583.064,98.691,576.632,95.6,572.58,96.057Z" transform="translate(-435.571 -64.117)" fill="#57231d"/>
  <path id="Pfad_10186" data-name="Pfad 10186" d="M611.992,98.105c5.116,1.114,6.635,9.016,10.839,13.169,4.153,4.2,3.14,10.231,1.114,14.182-1.975,4-5.166,1.418-5.166,1.418s1.672.912,2.735-2.381c1.064-3.343-.81-5.926-6.433-7.749-5.622-1.874-10.991-13.625-10.991-13.625C603.888,100.79,606.876,96.991,611.992,98.105Z" transform="translate(-469.563 -65.051)" fill="#67441a"/>
  <path id="Pfad_10187" data-name="Pfad 10187" d="M618.789,131.906c1.925,1.114,4.66-3.6,2.685-6.736-1.469-2.381-4.609-3.394-7.142-4.457-4-2.33-7.9-8.712-10.232-12.612,1.722,4.66,5.318,11.092,9.624,13.676l1.064.456c1.064.456,4.356,1.317,5.926,3.444,1.266,1.671.658,4.255-.2,5.47A1.491,1.491,0,0,1,618.789,131.906Z" transform="translate(-469.573 -70.082)" fill="#57231d"/>
  <path id="Pfad_10188" data-name="Pfad 10188" d="M591.564,137.726s-1.418-6.179-3.8-4.66c-2.38,1.469.152,8.307,2.381,8.307C592.324,141.372,591.564,137.726,591.564,137.726Z" transform="translate(-461.038 -82.284)" fill="#ffb575"/>
  <path id="Pfad_10189" data-name="Pfad 10189" d="M590.376,135.677s3.495,5.622,1.114,4.964C589.109,140.084,588.147,134.664,590.376,135.677Z" transform="translate(-462.18 -83.629)" fill="#fda15d"/>
  <path id="Pfad_10190" data-name="Pfad 10190" d="M418.677,493.271a12.368,12.368,0,0,0-8.661,9.472c-.76,3.6-2.735,12.713-2.127,19.956,4.153,0,13.929-.608,16.157-1.368C425.768,509.884,428.4,491.4,418.677,493.271Z" transform="translate(-372.686 -260.097)" fill="#0d7566"/>
  <path id="Pfad_10191" data-name="Pfad 10191" d="M1298.059,736.326l-27.959,1.925,17.981-9.117.2-6.534c2.886,0,5.571,1.064,8.509,1.064C1297.6,728.121,1298.059,736.326,1298.059,736.326Z" transform="translate(-798.241 -373.336)" fill="#67441a"/>
  <path id="Pfad_10192" data-name="Pfad 10192" d="M1195,388.319c.3,0,3.85-1.874,4.2-.962.3.912-3.95,3.14-3.95,3.14Z" transform="translate(-761.18 -207.771)" fill="#fd5e5a"/>
  <path id="Pfad_10193" data-name="Pfad 10193" d="M1124.737,364.38a7.745,7.745,0,0,0-2.685-9.421L1110,346.5a15.385,15.385,0,0,0-19.6,1.165L1051.8,381.6l5.977,7.7,37.887-34.037c2.178-1.975,6.888-3.7,9.471-2.229l18.943,12.663Z" transform="translate(-690.511 -186.263)"/>
  <path id="Pfad_10194" data-name="Pfad 10194" d="M1221.174,171.8s1.52,23.35,2.026,49.384c.456,26.034-10.484,44.066-16.056,47.713-5.622,3.647-29.073-.709-29.073-.709s-1.115,1.216-3.293,3.394-4.761-1.418-5.166-2.836-2.583-5.926-1.367-6.281,6.179-5.47,13.27-1.266c7.091,4.255,20.108-4.1,22.489-11.751C1206.334,241.8,1212.159,172.914,1221.174,171.8Z" transform="translate(-747.796 -101.518)" fill="#fda15d"/>
  <path id="Pfad_10195" data-name="Pfad 10195" d="M1253.318,216.782l-13.119-1.773s11.143-45.383,17.323-50.853.912,54.5.912,54.5Z" transform="translate(-783.486 -97.572)" fill="#f6921e"/>
  <path id="Pfad_10196" data-name="Pfad 10196" d="M1272.384,402.2l13.979,150.735-10.383-1.722-17.829-81.345S1246.4,394.35,1246.4,367.1Z" transform="translate(-786.546 -197.897)" fill="#838272"/>
  <path id="Pfad_10197" data-name="Pfad 10197" d="M1247.8,323.4c21.526.456,47.764,22.843,47.764,22.843l3.393,97.046s20.665,67.72,24.819,90.208c0,0-11.8-.709-11.143-.709l-34.8-80.331-15.7-73.393-12.865-28.516Z" transform="translate(-787.237 -176.332)" fill="#bcb19a"/>
  <path id="Pfad_10198" data-name="Pfad 10198" d="M1244.569,243.487c-.05-.3,3.8-56.576,4.711-65.947.912-9.421,7.75-25.882,16.31-28.617,5.672-1.823,23.5-.355,27.807,7.952,12.207,23.5.912,105.657.912,105.657-15.043,3.7-37.127,9.218-51.208,0C1243.2,261.924,1244.569,243.74,1244.569,243.487Z" transform="translate(-784.917 -89.885)" fill="#faaf3b"/>
  <path id="Pfad_10199" data-name="Pfad 10199" d="M1078.9,687.363a8.864,8.864,0,1,0,8.864-8.864A8.842,8.842,0,0,0,1078.9,687.363Z" transform="translate(-703.885 -351.572)" fill="#757ad8"/>
  <path id="Pfad_10200" data-name="Pfad 10200" d="M889.392,531.466s-11.953-7.5-17.221-6.99-20.564,11.953-25.122,11.953-6.686,1.013-7.7,0-2.938-5.065-5.166-3.951.405,8.915,3.039,10.535,8.509,2.938,10.434,4.862,3.647-3.951,7.091-6.483,9.725-1.722,11.194-.3c1.418,1.418,7.243,2.532,7.547,2.836S889.392,531.466,889.392,531.466Z" transform="translate(-582.705 -275.55)" fill="#ffb575"/>
  <path id="Pfad_10201" data-name="Pfad 10201" d="M955.713,606.521A108.309,108.309,0,0,1,919.65,616.2c-19.652,1.469-31.15-9.674-31.15-9.674v-6.078s32.467.81,37.988-3.039S955.713,606.521,955.713,606.521Z" transform="translate(-609.923 -311.2)" fill="#838272"/>
  <path id="Pfad_10202" data-name="Pfad 10202" d="M951.9,637.93l3.647-21.83-39.71.81-27.5-.81s-1.165,16.512,2.583,20.26S940.25,651.049,951.9,637.93Z" transform="translate(-609.756 -320.778)" fill="#bcb19a"/>
  <path id="Pfad_10203" data-name="Pfad 10203" d="M887.6,616.1c.3,4.458.709,11.143,1.925,15.5.962,3.6,1.722,3.951,3.9,4.66,12.105,4.559,47,10.789,57.792,1.671-10.485,14.486-54.246,5.622-61.692-.2C885.419,634.739,886.686,621.115,887.6,616.1Z" transform="translate(-609.021 -320.778)" fill="#838272"/>
  <g id="Gruppe_7986" data-name="Gruppe 7986" transform="translate(247.656 271.579)">
    <path id="Pfad_10204" data-name="Pfad 10204" d="M855.486,607.453l13.524-33.379a3.657,3.657,0,0,0-2.026-4.761c-1.874-.76-4,3.545-4.761,5.419l-11.6,25.173-15.8-.811-.253-.81a3.652,3.652,0,1,0-6.939,2.279l1.824,5.571Z" transform="translate(-827.453 -569.224)" fill="#838272"/>
  </g>
  <path id="Pfad_10205" data-name="Pfad 10205" d="M995.411,350.459s-44.977-13.017-52.677-27.959c0,0-21.476,10.941-49.435,7.294,0,0-23.907,7.294-38.9,49.84l70.505,31Z" transform="translate(-593.095 -175.888)" fill="#84a214"/>
  <path id="Pfad_10206" data-name="Pfad 10206" d="M1005.664,409.5s-5.268,81.547-19.045,95.324-24.312,12.561-40.926,8.509-38.494-20.26-38.494-20.26Z" transform="translate(-619.151 -218.822)" fill="#84a214"/>
  <path id="Pfad_10207" data-name="Pfad 10207" d="M939.515,503.66c16.613,4.052,27.149,5.268,40.925-8.509s25.224-85.751,25.224-85.751-5.268,81.547-19.044,95.324-24.312,12.561-40.926,8.509-38.494-20.26-38.494-20.26l.405-.355C913.886,495.3,927.308,500.723,939.515,503.66Z" transform="translate(-619.152 -218.773)" fill="#a2c617"/>
  <path id="Pfad_10208" data-name="Pfad 10208" d="M793.084,537.494,916.012,428.9l4.255,6.078c-50.549,43.559-126.829,108.949-126.829,108.949H767.1v-4.863Z" transform="translate(-550.013 -228.396)" fill="#333339"/>
  <path id="Pfad_10209" data-name="Pfad 10209" d="M952.5,532.433A10.333,10.333,0,1,0,962.833,522.1,10.343,10.343,0,0,0,952.5,532.433Z" transform="translate(-641.507 -274.39)" fill="#ffd30e"/>
  <g id="Gruppe_7987" data-name="Gruppe 7987" transform="translate(317.645 254.384)">
    <path id="Pfad_10210" data-name="Pfad 10210" d="M1023.053,630.106a3.392,3.392,0,0,0,1.925-.557,3.682,3.682,0,0,0,1.215-5.015L972.4,537.011a3.682,3.682,0,0,0-5.015-1.215,3.637,3.637,0,0,0-1.216,5.014l53.791,87.524A3.634,3.634,0,0,0,1023.053,630.106Z" transform="translate(-965.632 -535.277)" fill="#333339"/>
  </g>
  <path id="Pfad_10211" data-name="Pfad 10211" d="M1026.8,690.139a26.439,26.439,0,1,0,26.44-26.439A26.458,26.458,0,0,0,1026.8,690.139Z" transform="translate(-678.174 -344.269)" fill="#333339"/>
  <path id="Pfad_10212" data-name="Pfad 10212" d="M1062.764,716.228a16.664,16.664,0,1,0-16.664-16.664A16.677,16.677,0,0,0,1062.764,716.228Z" transform="translate(-687.698 -353.744)" fill="#bcb19a"/>
  <path id="Pfad_10213" data-name="Pfad 10213" d="M812.6,711.4a19.2,19.2,0,1,0,19.2-19.2A19.184,19.184,0,0,0,812.6,711.4Z" transform="translate(-572.467 -358.333)" fill="#333339"/>
  <circle id="Ellipse_492" data-name="Ellipse 492" cx="9.421" cy="9.421" r="9.421" transform="translate(249.959 343.642)" fill="#bcb19a"/>
  <path id="Pfad_10214" data-name="Pfad 10214" d="M794.6,659.512h9.117V639.759a4.54,4.54,0,0,0-4.559-4.559h0a4.54,4.54,0,0,0-4.558,4.559Z" transform="translate(-563.584 -330.204)" fill="#ffd30e"/>
  <g id="Gruppe_7988" data-name="Gruppe 7988" transform="translate(231.901 320.67)">
    <path id="Pfad_10215" data-name="Pfad 10215" d="M823.117,702.9a3.6,3.6,0,0,0,2.229-.76,3.636,3.636,0,0,0,.608-5.116l-23.1-29.478a3.643,3.643,0,1,0-5.723,4.508l23.1,29.479A3.914,3.914,0,0,0,823.117,702.9Z" transform="translate(-796.346 -666.146)" fill="#333339"/>
  </g>
  <circle id="Ellipse_493" data-name="Ellipse 493" cx="9.37" cy="9.37" r="9.37" transform="translate(366.709 336.5)" fill="#838272"/>
  <path id="Pfad_10216" data-name="Pfad 10216" d="M931.2,336.9c11.751,13.777,30.34,64.225,30.238,63.971,1.367,3.647,6.888,1.621,5.521-2.026C966.3,397.022,944.217,349.765,931.2,336.9Z" transform="translate(-630.995 -182.994)" fill="#a2c617"/>
  <path id="Pfad_10217" data-name="Pfad 10217" d="M1017.735,322.4c-6.584,9.32-10.586,56.982-11.346,67.973-.3,4,5.926,4.255,5.875.152C1012.164,379.432,1012.062,332.125,1017.735,322.4Z" transform="translate(-668.096 -175.838)" fill="#a2c617"/>
  <g id="Gruppe_7989" data-name="Gruppe 7989" transform="translate(265.864 175.044)">
    <path id="Pfad_10218" data-name="Pfad 10218" d="M875.961,380.795c5.419-5.42,0,1.064,0,1.064l-9.826,22.286,41.432,19.2L863.4,405.36C863.4,405.411,870.542,386.214,875.961,380.795Z" transform="translate(-863.4 -378.634)" fill="#a2c617"/>
    <path id="Pfad_10219" data-name="Pfad 10219" d="M954.4,468.773,950.6,467l2.178.861Z" transform="translate(-906.433 -422.242)" fill="#a2c617"/>
  </g>
  <path id="Pfad_10220" data-name="Pfad 10220" d="M1126.437,372.713a8.194,8.194,0,0,0-2.685-9.775l-12.055-8.763a14.905,14.905,0,0,0-19.6,1.216l-38.6,35.3,5.977,8,37.886-35.354c2.178-2.026,6.889-3.8,9.472-2.33l17.677,12.257a1.257,1.257,0,0,0,1.925-.557Z" transform="translate(-691.35 -189.986)" fill="#7c706a"/>
  <path id="Pfad_10221" data-name="Pfad 10221" d="M1175.093,273.819c.608-.608,9.573-1.114,9.573-1.114h0c5.672-.861,25.122-18.589,30.745-25.882,4.153-5.42,8-31.049,14.486-47.409s15.043-22.489,17.17-23.249c6.483-2.229,13.321-.557,15.55,10.383s-26.085,64.984-32.417,72.683c-4.862,5.926-31.707,23-44.319,23.3l-3.09,1.216a1.184,1.184,0,0,0-.253,2.077h0s-4.812.507-4.812-.608-.608-.405-1.216-1.013a6.292,6.292,0,0,1-1.063-1.925s.2-1.064-1.57-2.077C1172.156,279.188,1174.384,274.579,1175.093,273.819Z" transform="translate(-750.441 -103.249)" fill="#ffb575"/>
  <path id="Pfad_10222" data-name="Pfad 10222" d="M1301.185,159.571s-6.736-1.52-13.017,5.724c-6.229,7.243-16.968,40.571-16.968,40.571l26.339,16.968s14.435-32.011,14.435-44.674C1311.923,165.547,1304.478,159.571,1301.185,159.571Z" transform="translate(-798.784 -95.417)" fill="#f6921e"/>
  <path id="Pfad_10223" data-name="Pfad 10223" d="M1261.622,52.376s-6.686,9.218-7.547,15.347c-.911,6.331-1.975,16.461-1.975,16.461l2.785-.051s2.482,5.521,2.532,9.269c.1,3.748,5.926,1.266,9.371,1.165s10.99-3.242,13.675-14.03C1283.2,69.749,1288.213,50.5,1261.622,52.376Z" transform="translate(-789.359 -42.519)" fill="#ffb575"/>
  <path id="Pfad_10224" data-name="Pfad 10224" d="M1301.841,121.386c2.178,4.66-2.38,5.521-7.243,7.142-3.394,1.165-6.584,2.026-8.358,2.533a.973.973,0,0,1-1.215-.912,100.443,100.443,0,0,0-1.115-11.3c-.354-2.482-.658-4.711-.81-6.027.658-1.823,5.825-15.7,5.47-14.79h0l1.063-2.836Z" transform="translate(-804.657 -63.716)" fill="#ffb575"/>
  <path id="Pfad_10225" data-name="Pfad 10225" d="M1250.558,36.565c-.3.557-5.471,11.65,3.951,15.651s11.6-2.127,14.182,1.57-1.925,9.826.152,13.22l3.14.506s.608-1.874,1.824-1.874c1.266-.051,1.823,9.37,3.8,9.32,2.026-.051,5.724-8.155,7.5-11.954s5.369-16.461-1.874-19.551-10.282-.557-10.383-3.647c-.051-3.09-3.09.253-3.09.253a5.484,5.484,0,0,1-.759-4.964c1.013-2.684-7.7-3.394-9.623,1.925C1257.548,42.34,1253.851,30.741,1250.558,36.565Z" transform="translate(-787.766 -33.04)" fill="#333339"/>
  <path id="Pfad_10226" data-name="Pfad 10226" d="M1292.7,87.195s0,6.129,1.469,6.129c1.469-.051,4.66-3.6,4-7.294C1297.512,82.383,1293.257,82.89,1292.7,87.195Z" transform="translate(-809.395 -57.99)" fill="#ffb575"/>
  <path id="Pfad_10227" data-name="Pfad 10227" d="M1294.512,88.124s-.659,2.482.456,3.546,3.191-1.621,1.975-3.6S1294.714,86.706,1294.512,88.124Z" transform="translate(-810.194 -59.578)" fill="#fda15d"/>
  <path id="Pfad_10228" data-name="Pfad 10228" d="M1290.09,116.911a69,69,0,0,1-6.129,4.559c-.456-3.343-.861-6.027-.861-6.027s1.773,1.418,5.471-14.942v.1h0C1288.875,101.969,1291.407,115.543,1290.09,116.911Z" transform="translate(-804.657 -66.331)" fill="#fda15d"/>
  <path id="Pfad_10229" data-name="Pfad 10229" d="M1261.7,114.485a23.173,23.173,0,0,0-.4,3.8c.051,1.368,3.546,2.836,6.585,1.874,3.089-.962,7.344-3.09,8.408-4.2,1.013-1.064,1.57-15.4,1.57-15.4l-2.836-.456s-1.165,9.37-2.279,10.535C1271.578,111.8,1261.7,114.485,1261.7,114.485Z" transform="translate(-793.895 -66.134)" fill="#333339"/>
  <path id="Pfad_10230" data-name="Pfad 10230" d="M1369.019,729.2s4.2,2.482,5.774,5.724,1.773,4.862,1.165,5.622c-.658.76-13.017,2.583-17.728,3.546s-10.484,2.634-13.524,1.773-.557-3.191,4.406-4.71c4.913-1.52,8.662-8.864,9.573-9.927.912-1.114,2.735.557,5.926-.1A9.158,9.158,0,0,0,1369.019,729.2Z" transform="translate(-834.405 -376.593)" fill="#333339"/>
  <path id="Pfad_10231" data-name="Pfad 10231" d="M1294.393,728.766s3.647,3.292,4.558,6.787.811,5.116,0,5.723c-.76.608-13.27,0-18.082,0s-10.839.507-13.625-.912.1-3.242,5.217-3.748,10.232-6.99,11.346-7.851c1.115-.912,2.583,1.064,5.825,1.064A9.392,9.392,0,0,0,1294.393,728.766Z" transform="translate(-796.297 -376.26)" fill="#333339"/>
</svg>
