<svg xmlns="http://www.w3.org/2000/svg" xmlns:xlink="http://www.w3.org/1999/xlink" width="130" height="130" viewBox="0 0 130 130">
  <defs>
    <filter id="Path_3384" x="0" y="0" width="130" height="130" filterUnits="userSpaceOnUse">
      <feOffset input="SourceAlpha"/>
      <feGaussianBlur stdDeviation="5" result="blur"/>
      <feFlood flood-opacity="0.251"/>
      <feComposite operator="in" in2="blur"/>
      <feComposite in="SourceGraphic"/>
    </filter>
  </defs>
  <g id="Component_3_1" data-name="Component 3 – 1" transform="translate(15 15)">
    <g transform="matrix(1, 0, 0, 1, -15, -15)" filter="url(#Path_3384)">
      <path id="Path_3384-2" data-name="Path 3384" d="M50,0A50,50,0,1,1,0,50,50,50,0,0,1,50,0Z" transform="translate(15 15)" fill="#e73e20"/>
    </g>
    <path id="play" d="M161.406,48.906,134.755,32.62A4.441,4.441,0,0,0,128,36.414V68.987a4.441,4.441,0,0,0,6.758,3.79L161.409,56.49a4.444,4.444,0,0,0,0-7.584Zm-1.545,5.053-26.568,16.2a1.374,1.374,0,0,1-.851.305,1.483,1.483,0,0,1-1.481-1.481V36.414a1.482,1.482,0,0,1,2.253-1.263l26.568,16.287a1.4,1.4,0,0,1,.792,1.263A1.464,1.464,0,0,1,159.861,53.959Z" transform="translate(-93 -2.969)" fill="#fff"/>
  </g>
</svg>
