<svg xmlns="http://www.w3.org/2000/svg" width="281.795" height="92.563" viewBox="0 0 281.795 92.563">
  <g id="DMF_Slogan_Weiss_RGB" transform="translate(-45.689 -55.084)">
    <g id="Group_5641" data-name="Group 5641" transform="translate(165.621 55.084)">
      <path id="Path_7845" data-name="Path 7845" d="M501.02,58.574h-3.687v5.292h3.687a2.653,2.653,0,1,0,0-5.292m3.039,16.551-3.913-7.993h-2.813v7.993h-3.913V55.084h7.854c4.08,0,6.5,2.788,6.5,6.136a5.4,5.4,0,0,1-3.659,5.265l4.474,8.64Z" transform="translate(-493.421 -55.084)" fill="#fff"/>
      <path id="Path_7846" data-name="Path 7846" d="M569.938,75.3c-4.11,0-7.373-2.786-7.373-7.037V55.09h3.911V68.122c0,2.308,1.352,3.687,3.462,3.687a3.337,3.337,0,0,0,3.49-3.687V55.09h3.883V68.261c0,4.251-3.264,7.037-7.373,7.037" transform="translate(-544.043 -55.089)" fill="#fff"/>
    </g>
    <path id="Path_7847" data-name="Path 7847" d="M646.912,55.087V67.359l-7.936-12.272h-3.492V75.126H639.4v-12.3l7.938,12.3h3.49V55.087Z" transform="translate(-431.81 -0.002)" fill="#fff"/>
    <g id="Group_5642" data-name="Group 5642" transform="translate(45.689 55.084)">
      <path id="Path_7848" data-name="Path 7848" d="M721.567,59.814a3.491,3.491,0,0,0-2.927-1.239h-2.955V71.636h2.955a3.491,3.491,0,0,0,2.927-1.239c.732-.9.844-2.335.844-5.375s-.112-4.306-.844-5.207m2.731,13.4a7.293,7.293,0,0,1-5.292,1.914h-7.234V55.085h7.234A7.3,7.3,0,0,1,724.3,57c2.253,2.253,2.026,5.011,2.026,8.023s.226,5.939-2.026,8.19" transform="translate(-533.352 -55.085)" fill="#fff"/>
      <path id="Path_7849" data-name="Path 7849" d="M788.82,75.3c-4.11,0-7.373-2.786-7.373-7.037V55.09h3.911V68.122c0,2.308,1.352,3.687,3.462,3.687a3.337,3.337,0,0,0,3.49-3.687V55.09h3.883V68.261c0,4.251-3.264,7.037-7.373,7.037" transform="translate(-584.363 -55.089)" fill="#fff"/>
      <path id="Path_7850" data-name="Path 7850" d="M53.682,164.446H49.6v4.926h4.082a2.468,2.468,0,1,0,0-4.926m-.254-8.135H49.6v4.617h3.828c1.66,0,2.589-.929,2.589-2.308a2.274,2.274,0,0,0-2.589-2.31m.647,16.551H45.689V152.822h8.048c3.913,0,6.193,2.2,6.193,5.63a4.634,4.634,0,0,1-2.477,4.137,4.656,4.656,0,0,1,2.758,4.5c0,3.744-2.561,5.77-6.136,5.77" transform="translate(-45.689 -126.641)" fill="#fff"/>
    </g>
    <path id="Path_7851" data-name="Path 7851" d="M116.4,172.863V152.822h13.2v3.49h-9.288v4.7h7.908v3.49h-7.908v4.869H129.6v3.49Z" transform="translate(-51.772 -71.557)" fill="#fff"/>
    <g id="Group_5643" data-name="Group 5643" transform="translate(80.28 81.097)">
      <path id="Path_7852" data-name="Path 7852" d="M182.144,172.573c-3.039,0-5.347-.647-7.318-2.646l2.534-2.534a6.558,6.558,0,0,0,4.842,1.69c2.308,0,3.545-.874,3.545-2.477a2.239,2.239,0,0,0-.618-1.69,2.988,2.988,0,0,0-1.775-.7l-2.42-.338a6.8,6.8,0,0,1-3.885-1.66,5.3,5.3,0,0,1-1.434-3.94c0-3.575,2.646-6.079,6.98-6.079a8.589,8.589,0,0,1,6.474,2.335l-2.477,2.449a5.581,5.581,0,0,0-4.11-1.379c-2.083,0-3.1,1.153-3.1,2.534a1.936,1.936,0,0,0,.59,1.434,3.469,3.469,0,0,0,1.859.789l2.363.336a6.639,6.639,0,0,1,3.828,1.548,5.61,5.61,0,0,1,1.548,4.251c0,3.883-3.236,6.079-7.43,6.079" transform="translate(-174.826 -152.196)" fill="#fff"/>
      <path id="Path_7853" data-name="Path 7853" d="M245.191,172.573c-3.039,0-5.347-.647-7.318-2.646l2.534-2.534a6.558,6.558,0,0,0,4.842,1.69c2.308,0,3.545-.874,3.545-2.477a2.239,2.239,0,0,0-.618-1.69,2.988,2.988,0,0,0-1.775-.7l-2.42-.338a6.8,6.8,0,0,1-3.885-1.66,5.3,5.3,0,0,1-1.434-3.94c0-3.575,2.646-6.079,6.98-6.079a8.59,8.59,0,0,1,6.474,2.335l-2.477,2.449a5.581,5.581,0,0,0-4.11-1.379c-2.083,0-3.1,1.153-3.1,2.534a1.936,1.936,0,0,0,.59,1.434,3.469,3.469,0,0,0,1.859.789l2.363.336a6.638,6.638,0,0,1,3.828,1.548,5.61,5.61,0,0,1,1.548,4.251c0,3.883-3.236,6.079-7.43,6.079" transform="translate(-220.985 -152.196)" fill="#fff"/>
    </g>
    <path id="Path_7854" data-name="Path 7854" d="M308.276,172.863V152.822h13.2v3.49h-9.288v4.7H320.1v3.49h-7.908v4.869h9.288v3.49Z" transform="translate(-192.249 -71.557)" fill="#fff"/>
    <g id="Group_5644" data-name="Group 5644" transform="translate(133.478 81.265)">
      <path id="Path_7855" data-name="Path 7855" d="M381.026,156.312H377.34V161.6h3.687a2.653,2.653,0,1,0,0-5.292m3.039,16.551-3.913-7.993H377.34v7.993h-3.913V152.822h7.853c4.08,0,6.5,2.788,6.5,6.136a5.4,5.4,0,0,1-3.657,5.265l4.474,8.64Z" transform="translate(-373.427 -152.822)" fill="#fff"/>
      <path id="Path_7856" data-name="Path 7856" d="M477.669,164.446h-4.082v4.926h4.082a2.468,2.468,0,1,0,0-4.926m-.254-8.135h-3.828v4.617h3.828c1.66,0,2.589-.929,2.589-2.308a2.274,2.274,0,0,0-2.589-2.31m.647,16.551h-8.389V152.822h8.05c3.913,0,6.193,2.2,6.193,5.63a4.634,4.634,0,0,1-2.477,4.137,4.656,4.656,0,0,1,2.758,4.5c0,3.744-2.561,5.77-6.136,5.77" transform="translate(-443.893 -152.822)" fill="#fff"/>
    </g>
    <path id="Path_7857" data-name="Path 7857" d="M540.395,172.863V152.822h13.2v3.49h-9.288v4.7h7.908v3.49h-7.908v4.869H553.6v3.49Z" transform="translate(-362.191 -71.557)" fill="#fff"/>
    <path id="Path_7858" data-name="Path 7858" d="M613.143,156.312h-3.687V161.6h3.687a2.653,2.653,0,1,0,0-5.292m3.039,16.551-3.913-7.993h-2.813v7.993h-3.913V152.822H613.4c4.08,0,6.5,2.788,6.5,6.136a5.4,5.4,0,0,1-3.659,5.265l4.474,8.64Z" transform="translate(-409.889 -71.557)" fill="#fff"/>
    <path id="Path_7859" data-name="Path 7859" d="M676.569,158.734l-2.534,7.289h4.983Zm4.672,14.129-1.182-3.547h-7.122l-1.21,3.547h-4.08l7.289-20.041H678l7.318,20.041h-4.082Z" transform="translate(-455.357 -71.557)" fill="#fff"/>
    <path id="Path_7860" data-name="Path 7860" d="M799.73,172.863V152.822h13.2v3.49h-9.287v4.7h7.908v3.49h-7.908v4.869h9.287v3.49Z" transform="translate(-552.06 -71.557)" fill="#fff"/>
    <path id="Path_7861" data-name="Path 7861" d="M876.729,172.863l-7.938-12.3v12.3H864.88V152.822h3.49l7.936,12.272V152.822h3.913v20.041Z" transform="translate(-599.759 -71.557)" fill="#fff"/>
    <path id="Path_7862" data-name="Path 7862" d="M784.1,55.086h-4.6L774.3,65.922l-5.235-10.836h-3.856V75.127h3.913V63.445l3.856,7.6h2.646l3.826-7.6V75.127h3.913V58.994h.742a42.372,42.372,0,1,1-42.37,42.533l0-.493V84.757h5.237v-3.49H732.585v3.49h5.235v16.177l0,.6A46.28,46.28,0,1,0,784.1,55.086" transform="translate(-502.901 -0.001)" fill="#fff"/>
  </g>
</svg>
