<svg xmlns="http://www.w3.org/2000/svg" xmlns:xlink="http://www.w3.org/1999/xlink" width="123" height="123.003" viewBox="0 0 123 123.003">
  <defs>
    <linearGradient id="linear-gradient" x1="0.497" y1="0.43" x2="0.771" y2="0.349" gradientUnits="objectBoundingBox">
      <stop offset="0" stop-color="#84a214"/>
      <stop offset="1" stop-color="#a2c617"/>
    </linearGradient>
    <clipPath id="clip-path">
      <path id="Path_7878" data-name="Path 7878" d="M120.106-156.523v4.764A56.8,56.8,0,0,1,176.84-95.02h0a56.8,56.8,0,0,1-56.734,56.732h0A56.8,56.8,0,0,1,63.372-95.02H58.606a61.57,61.57,0,0,0,61.5,61.5h0a61.57,61.57,0,0,0,61.5-61.5h0A61.571,61.571,0,0,0,120.106-156.523Z" transform="translate(-58.606 156.523)" fill="url(#linear-gradient)"/>
    </clipPath>
  </defs>
  <g id="Group_8813" data-name="Group 8813" transform="translate(-197.606 -321.522)">
    <g id="Group_5657" data-name="Group 5657" transform="translate(228.743 342.696)">
      <path id="Path_7875" data-name="Path 7875" d="M10.235,29.821A1.519,1.519,0,0,1,9.3,29.5L5.071,26.213l-5-.706-5.026,1.359A1.527,1.527,0,0,1-6.7,26.109L-8.26,23.183a1.535,1.535,0,0,1-.177-.775l0-2.444a2.324,2.324,0,0,1,.048-.363l1.42-5.424a1.529,1.529,0,0,1,.235-.5l1.091-1.535-6.349-1.715a1.537,1.537,0,0,1-.835-.575l-2.318-3.177a1.534,1.534,0,0,1-.292-.963V3.3a1.522,1.522,0,0,1,.3-.906L-16.354.644a1.536,1.536,0,0,1-.268-.957l0-2.378a1.519,1.519,0,0,1,.339-.971l.816-1.006L-17.028-8.56a1.53,1.53,0,0,1-.107-.6l0-2.457c0-.046.011-.166.018-.211l1.081-7.632a1.522,1.522,0,0,1,1.378-1.307l3.717-.329.77-1.644a1.525,1.525,0,0,1-.364-1.029l0-2.41A1.511,1.511,0,0,1-9.7-27.572l.307-.153.244-6.256A1.5,1.5,0,0,1-9-34.571L-7.755-37.2a1.526,1.526,0,0,1,1.289-.869l3.7-.22a1.5,1.5,0,0,1,1.521.989l.4,1.075,2.086-3.239.5-3.872-.625-2.166a2.574,2.574,0,0,1-.058-.4l0-2.492A1.53,1.53,0,0,1,1.5-49.478,1.4,1.4,0,0,1,2.6-49.932l4.546.027a1.534,1.534,0,0,1,1.374.875l1.552,3.308,5.089.877a1.527,1.527,0,0,1,.859.463l.259.28a1.532,1.532,0,0,1,.4.938l0,1.931,9.186-3.776a1.509,1.509,0,0,1,1.343.089l4.043,2.334a1.523,1.523,0,0,1,.379.31l3.242,3.656a1.525,1.525,0,0,1,.331.607l1.137,4.1a2.394,2.394,0,0,1,.053.387l0,2.49a1.591,1.591,0,0,1-.137.637l-.479,1.073,1.859,2.083a1.528,1.528,0,0,1,.358.716L40-16.376,41.369-11.3a1.5,1.5,0,0,1,.046.5l0,2.342a1.507,1.507,0,0,1-.6,1.247l-1.172.888a1.522,1.522,0,0,1-1.493.2L36.87-6.641,24.544-.5l.423,1.9,9.013,8a1.519,1.519,0,0,1,.5,1.217l0,2.362L34.282,15.8a1.519,1.519,0,0,1-.661,1.145l-4.09,2.782,1.062,1.618a1.516,1.516,0,0,1,.23,1.083l.013,2.134a1.31,1.31,0,0,1-.093.644L30.3,26.366a1.525,1.525,0,0,1-2.11.819l-2.885-1.442-8.532,2.9a1.539,1.539,0,0,1-1.046-.022l-2.442-.958-2.048,1.781a1.522,1.522,0,0,1-1,.374M.108,23.713a1.526,1.526,0,0,1,.225.016l5.127.759a1.551,1.551,0,0,1,.716.308l4.051,3.15,2-1.743a1.529,1.529,0,0,1,1.559-.272l2.592,1.019,8.454-2.944a1.507,1.507,0,0,1,1.174.08l2.72,1.359.335-.88-.027-2.281-1.495-2.306a.9.9,0,0,1,.246-1.236l4.712-3.2L32.691,13l0-2.337L23.685,2.6a1.524,1.524,0,0,1-.473-.807L22.637-.8a.9.9,0,0,1,.478-1L36.178-8.3a1.536,1.536,0,0,1,1.252-.05l1.249.508.942-.716v-2.3l-1.359-5.054c-.006-.026-.016-.067-.019-.085L36.232-26.175l-2.183-2.388a.9.9,0,0,1-.15-.966l.719-1.61L34.6-33.512l-1.129-4.022-3.185-3.549L26.421-43.3l-10.8,4.439a.9.9,0,0,1-1.045-.27.9.9,0,0,1-.03-1.08l.383-.54-.046-2.211-.187-.2-5.074-.816A1.531,1.531,0,0,1,8.5-44.83L6.96-48.108l-4.1-.026v2.215l.664,2.258a.929.929,0,0,1,.027.369l-.564,4.174a1.554,1.554,0,0,1-.23.623L.377-34.8a1.512,1.512,0,0,1-1.449.69A1.517,1.517,0,0,1-2.337-35.1l-.519-1.391-3.343.2-1.177,2.482L-7.6-27.5a1.53,1.53,0,0,1-.843,1.3l-.3.15,0,2.209.3.343a.9.9,0,0,1,.142.976l-1.088,2.321a1.526,1.526,0,0,1-1.249.872L-14.289-19l-1.053,7.429,0,2.425,1.735,4.3a.9.9,0,0,1-.137.9L-14.89-2.531l.062,2.271,1.545,2.183A.9.9,0,0,1-13.324,3l-.38.468.062,2.281,2.265,3.043,7.446,1.95a.9.9,0,0,1,.612.565.9.9,0,0,1-.113.824l-1.84,2.587-1.378,5.335.011,2.362,1.426,2.656,4.929-1.311a1.586,1.586,0,0,1,.393-.05M32.49,15.669v0Zm.2-5.1v.01ZM38.556-7.752s0,0,0,0Zm1.065-.687v.026ZM-8.74-23.753v.008Zm0-2.469v0m11.6-22.189v.011Z" transform="translate(17.137 49.933)" fill="#00443c"/>
    </g>
    <g id="Group_5660" data-name="Group 5660" transform="translate(197.606 321.522)" clip-path="url(#clip-path)">
      <g id="Group_5659" data-name="Group 5659" transform="translate(-237.556 135.837) rotate(-45)">
        <path id="Path_7877" data-name="Path 7877" d="M192.1,0,418.3,226.2,226.2,418.3,0,192.1Z" transform="translate(0 0)" fill="url(#linear-gradient)"/>
      </g>
    </g>
  </g>
</svg>
