<svg xmlns="http://www.w3.org/2000/svg" xmlns:xlink="http://www.w3.org/1999/xlink" width="123" height="123.003" viewBox="0 0 123 123.003"><defs><linearGradient id="a" x1="0.497" y1="0.43" x2="0.771" y2="0.349" gradientUnits="objectBoundingBox"><stop offset="0" stop-color="#84a214"/><stop offset="1" stop-color="#a2c617"/></linearGradient><clipPath id="b"><path d="M0,51.078H121.944V-70.867H0Z" transform="translate(0 70.867)" fill="none"/></clipPath><clipPath id="c"><path d="M120.106-156.523v4.764A56.8,56.8,0,0,1,176.84-95.02h0a56.8,56.8,0,0,1-56.734,56.732h0A56.8,56.8,0,0,1,63.372-95.02H58.606a61.57,61.57,0,0,0,61.5,61.5h0a61.57,61.57,0,0,0,61.5-61.5h0A61.571,61.571,0,0,0,120.106-156.523Z" transform="translate(-58.606 156.523)" fill="url(#a)"/></clipPath></defs><g transform="translate(-598.273 -572.516)"><text transform="translate(637.054 674.012)" fill="#003d3d" font-size="27" font-family="SegoeUI, Segoe UI"><tspan x="0" y="0">360</tspan></text><g transform="translate(598.922 573.055)" clip-path="url(#b)"><g transform="translate(53.087 20.635)"><path d="M3.085,7c4.271,0,7.365-5.58,7.365-9.342A7.373,7.373,0,0,0,3.085-9.709,7.373,7.373,0,0,0-4.28-2.344C-4.28,1.417-1.188,7,3.085,7m0-14.559A5.224,5.224,0,0,1,8.3-2.344C8.3.8,5.773,4.85,3.085,4.85S-2.132.8-2.132-2.344A5.223,5.223,0,0,1,3.085-7.561" transform="translate(4.28 9.709)" fill="#003d3d"/></g><g transform="translate(71.34 25.894)"><path d="M2.828,6.4c3.739,0,6.751-4.668,6.751-8.533A6.759,6.759,0,0,0,2.828-8.883,6.759,6.759,0,0,0-3.923-2.131C-3.923,1.734-.912,6.4,2.828,6.4m0-13.138a4.609,4.609,0,0,1,4.6,4.6c0,2.729-2.275,6.386-4.6,6.386S-1.775.6-1.775-2.131a4.609,4.609,0,0,1,4.6-4.6" transform="translate(3.923 8.883)" fill="#003d3d"/></g><g transform="translate(32.685 39.496)"><path d="M22.93,2.433C22.7,2.342,17.169.2,13.593.2A24.941,24.941,0,0,0,6.842,1.44l.1-1.268a1.072,1.072,0,0,0-.423-.936C6.374-.872,2.979-3.376-4.045-3.376s-10.419,2.5-10.56,2.612a1.063,1.063,0,0,0-.423.936l.1,1.394A24.017,24.017,0,0,0-21.795.2c-3.574,0-9.1,2.142-9.335,2.234a1.072,1.072,0,0,0-.68,1.081l1.081,14.267a1.071,1.071,0,0,0,1.07.993h2.02L-25.956,32.4a1.073,1.073,0,0,0,1.065.941.871.871,0,0,0,.132-.009,1.07,1.07,0,0,0,.933-1.2l-1.8-14.57a1.324,1.324,0,0,0-.046-.139,1.062,1.062,0,0,0-.069-.2,1.033,1.033,0,0,0-.114-.169,1.009,1.009,0,0,0-.131-.151,1,1,0,0,0-.176-.117.921.921,0,0,0-.174-.089,1.108,1.108,0,0,0-.215-.043.978.978,0,0,0-.141-.029h-1.975l-.943-12.465c1.581-.566,5.346-1.814,7.812-1.814A24.1,24.1,0,0,1-14.747,3.9l.914,12.083a1.075,1.075,0,0,0,1.07.993h2.328l1.891,17.445a1.073,1.073,0,0,0,1.067.958H-.616a1.072,1.072,0,0,0,1.067-.958L2.342,16.977H4.671a1.073,1.073,0,0,0,1.07-.993L6.667,3.753a24.879,24.879,0,0,1,6.926-1.406c2.464,0,6.231,1.248,7.814,1.814l-.943,12.465H18.488a28.464,28.464,0,0,0-.354.072.973.973,0,0,0-.179.091,1.036,1.036,0,0,0-.172.115,1.009,1.009,0,0,0-.131.151.956.956,0,0,0-.115.17.907.907,0,0,0-.067.2.779.779,0,0,0-.046.139l-1.8,14.57a1.074,1.074,0,0,0,.934,1.2.893.893,0,0,0,.134.009,1.073,1.073,0,0,0,1.063-.941l1.683-13.628h2.022a1.071,1.071,0,0,0,1.07-.993L23.609,3.514a1.074,1.074,0,0,0-.68-1.081M1.38,14.83a.894.894,0,0,0-.153.031,1.055,1.055,0,0,0-.21.041,1.088,1.088,0,0,0-.182.1,1.21,1.21,0,0,0-.165.112,1.306,1.306,0,0,0-.134.158,1.228,1.228,0,0,0-.112.167,1.138,1.138,0,0,0-.065.2,1.475,1.475,0,0,0-.046.148L-1.579,33.233H-6.513L-8.4,15.788a.869.869,0,0,0-.046-.148,1.015,1.015,0,0,0-.065-.2.912.912,0,0,0-.112-.167,1.291,1.291,0,0,0-.133-.158A1.149,1.149,0,0,0-8.925,15a1.049,1.049,0,0,0-.184-.1,1.054,1.054,0,0,0-.2-.041,1.2,1.2,0,0,0-.157-.031h-2.3L-12.838.661A18.242,18.242,0,0,1-4.045-1.228,18.238,18.238,0,0,1,4.748.661L3.676,14.83Z" transform="translate(31.813 3.376)" fill="#003d3d"/></g><g transform="translate(35.954 25.894)"><path d="M2.827,6.4c3.739,0,6.751-4.668,6.751-8.533A6.759,6.759,0,0,0,2.827-8.883,6.757,6.757,0,0,0-3.922-2.131c0,3.865,3.01,8.533,6.749,8.533m0-13.138a4.609,4.609,0,0,1,4.6,4.6c0,2.729-2.275,6.386-4.6,6.386S-1.776.6-1.776-2.131a4.609,4.609,0,0,1,4.6-4.6" transform="translate(3.922 8.883)" fill="#003d3d"/></g></g><g transform="translate(598.273 572.516)" clip-path="url(#c)"><g transform="translate(-237.556 135.837) rotate(-45)"><path d="M192.1,0,418.3,226.2,226.2,418.3,0,192.1Z" transform="translate(0 0)" fill="url(#a)"/></g></g></g></svg>