<svg xmlns="http://www.w3.org/2000/svg" xmlns:xlink="http://www.w3.org/1999/xlink" width="123" height="122.65" viewBox="0 0 123 122.65"><defs><linearGradient id="a" x1="0.474" y1="0.355" x2="0.857" y2="0.355" gradientUnits="objectBoundingBox"><stop offset="0" stop-color="#84a214"/><stop offset="1" stop-color="#a2c617"/></linearGradient><clipPath id="b"><path d="M122.034-186.016v4.751a56.72,56.72,0,0,1,56.734,56.575h0a56.714,56.714,0,0,1-56.734,56.57h0A56.714,56.714,0,0,1,65.3-124.69H60.534a61.481,61.481,0,0,0,61.5,61.324h0a61.481,61.481,0,0,0,61.5-61.324h0A61.482,61.482,0,0,0,122.034-186.016Z" transform="translate(-60.534 186.016)" fill="url(#a)"/></clipPath></defs><g transform="translate(-119.114 -640.675)"><g transform="translate(-80.36 -135.094)"><g transform="translate(285.019 821.322)"><path d="M2.066,11.937a.882.882,0,0,1-.624-.259L-3.135,7.1a.882.882,0,0,1-.259-.624.884.884,0,0,1,.259-.624L6.556-3.834l-9.691-9.693a.882.882,0,0,1-.259-.624.884.884,0,0,1,.259-.624l4.577-4.575a.884.884,0,0,1,1.248,0L17.58-4.458a.884.884,0,0,1,0,1.248L2.69,11.678a.882.882,0,0,1-.624.259M-1.262,6.478,2.066,9.807,15.707-3.834,2.066-17.476l-3.329,3.325,9.69,9.693a.884.884,0,0,1,.259.624.884.884,0,0,1-.259.624Z" transform="translate(3.394 19.608)" fill="#00443c"/></g><g transform="translate(215.699 821.321)"><path d="M5.968,0a.882.882,0,0,1,.624.259l4.577,4.575a.882.882,0,0,1,0,1.248L1.478,15.771l9.691,9.693a.882.882,0,0,1,0,1.248L6.592,31.288a.884.884,0,0,1-1.248,0L-9.545,16.4a.884.884,0,0,1,0-1.248L5.344.259A.882.882,0,0,1,5.968,0M9.3,5.459,5.968,2.132-7.673,15.771,5.968,29.415,9.3,26.088-.393,16.4a.884.884,0,0,1-.259-.624.881.881,0,0,1,.259-.624Z" transform="translate(9.804)" fill="#00443c"/></g><g transform="translate(245.201 860.963)"><path d="M0,2.066a.882.882,0,0,1,.259-.624L4.834-3.135a.882.882,0,0,1,.624-.259.884.884,0,0,1,.624.259l9.688,9.691,9.693-9.691a.882.882,0,0,1,.624-.259.882.882,0,0,1,.624.259l4.575,4.577a.884.884,0,0,1,0,1.248L16.4,17.58a.884.884,0,0,1-1.248,0L.259,2.69A.882.882,0,0,1,0,2.066M5.459-1.262,2.132,2.066,15.771,15.707,29.415,2.066,26.088-1.262,16.4,8.427a.882.882,0,0,1-1.248,0Z" transform="translate(0 3.394)" fill="#00443c"/></g><g transform="translate(245.204 791.993)"><path d="M11.937,5.968a.876.876,0,0,1-.259.624L7.1,11.169a.882.882,0,0,1-1.248,0L-3.834,1.48l-9.693,9.69a.882.882,0,0,1-.624.259.884.884,0,0,1-.624-.259l-4.574-4.577a.882.882,0,0,1,0-1.248L-4.458-9.545a.884.884,0,0,1,1.248,0L11.678,5.344a.876.876,0,0,1,.259.624M6.478,9.3,9.805,5.968-3.834-7.673-17.476,5.968-14.151,9.3l9.693-9.69a.884.884,0,0,1,.624-.259.881.881,0,0,1,.624.259Z" transform="translate(19.608 9.804)" fill="#00443c"/></g><g transform="translate(199.474 775.769)" clip-path="url(#b)"><g transform="translate(-266.496 160.969) rotate(-45)"><path d="M227.97.325,454.208,226.563,226.563,454.207.325,227.97Z" transform="translate(0 0)" fill="url(#a)"/></g></g></g></g></svg>