<?xml version="1.0" encoding="UTF-8"?>
<svg id="uuid-62e9df19-c633-4191-b5c5-51dbfe4e86d1" data-name="Ebene 1" xmlns="http://www.w3.org/2000/svg" width="159.89101" height="469.67401" viewBox="0 0 159.89101 469.67401">
  <defs>
    <style>
      .uuid-8540e473-8d65-4b52-b627-70c488c3f0d8 {
        fill: #fff;
      }

      .uuid-72063cd6-fbce-4d33-ad0a-66f7e70058a7 {
        fill: #f6921e;
      }

      .uuid-fa046eb4-2599-4b0f-9d29-b1b5bf8cd484 {
        fill: #ffb575;
      }

      .uuid-3676c3f4-90fa-4512-b164-411fcec1fc8e {
        fill: #fda15d;
      }

      .uuid-043d0c40-5188-49a1-8d91-f636766563bb {
        fill: #ff9022;
      }

      .uuid-0655ef4f-7d49-4dfc-a8b1-69afed1a1677 {
        fill: #aeaeae;
      }

      .uuid-c7f7bad5-d223-44f2-b04f-ae8b775a2abb {
        fill: #c6ad7b;
      }

      .uuid-1d17fe5a-efd4-4fdd-83c9-01e9af0e24eb {
        fill: #1d1d1b;
      }

      .uuid-da8b275f-28e5-43f3-a6ed-e84fee6de941 {
        fill: #5d5d5c;
      }
    </style>
  </defs>
  <g id="uuid-dacd4bae-a422-41be-9c52-0fa42f901002" data-name="Gruppe 8134">
    <path id="uuid-e7da92af-c058-4c0b-b9bf-7021db215890" data-name="Pfad 7083" class="uuid-c7f7bad5-d223-44f2-b04f-ae8b775a2abb" d="m115.77496,18.632c.93298-5.843,11.86096-13.923,20.95105-2.419,4.91101,6.217,2.10999,20.659-1.61694,34.424s5.48999,26.927,8.89197,46.315-5.65601,36.039-23.21997,31.57401-25.45605-17.52699-17.56396-27.595,16.83105-18.358,13.63696-33.687-7.74194-19.816-3.18896-32.743,2.10986-15.86901,2.10986-15.86901Z"/>
    <g id="uuid-9ef32748-79aa-4e5f-8355-4d957f7c75f5" data-name="Gruppe 4829">
      <path id="uuid-08ed91d2-eabf-4438-95f2-b674088200b3" data-name="Pfad 7084" class="uuid-fa046eb4-2599-4b0f-9d29-b1b5bf8cd484" d="m25.98798,137.45799c-4.716-5.61301,4.07599-14.22099,14.94202-24.285s14.71899-25.94099,28.71899-32.42599,28.97095,7.536,17.40002,19.60001-38.10803,31.24899-46.966,35.881c-11.95404,6.24899-14.09503,1.23-14.09503,1.23Z"/>
    </g>
    <g id="uuid-160de092-5105-4644-92a0-e8bf5c032b1c" data-name="Gruppe 4833">
      <path id="uuid-9a89a129-802d-482e-be9f-a56dbd2be220" data-name="Pfad 7085" class="uuid-da8b275f-28e5-43f3-a6ed-e84fee6de941" d="m89.46402,197.668v-27.138l-25.86694-2.353s-10.29401,29.11801-11.82202,47.189,38.78296,14.634,37.68896-17.698Z"/>
      <g id="uuid-9788c6b5-657d-44fc-9554-9a31e410ed33" data-name="Gruppe 4832">
        <path id="uuid-b3e9bf64-c9bb-4e36-b02b-2da5cfb73fd2" data-name="Pfad 7086" class="uuid-da8b275f-28e5-43f3-a6ed-e84fee6de941" d="m78.36802,193.76899c-25.96802-3.44299-31.80603,23.716-28.224,72.85901s5.34302,54.19101,16.08105,67.453c2.18604,2.70001,13.73206,4.76599,12.64294-11.27399-1.32996-19.57501,7.09998-40.04599,8.23206-62.52701,2.48096-49.38702,4.42993-64.76602-8.73206-66.51102Z"/>
        <g id="uuid-3c1bc845-2928-4591-95fd-4c50621566ac" data-name="Gruppe 4831">
          <g id="uuid-68d74948-4193-46f1-ab8b-ee5ad41ab7d9" data-name="Gruppe 4830">
            <path id="uuid-2cf45056-d556-47c8-b3e0-37dace1ba4c5" data-name="Pfad 7087" class="uuid-fa046eb4-2599-4b0f-9d29-b1b5bf8cd484" d="m74.43204,425.36297l8.52405-6.29999-1.42004,18.27802.91199,5.11499-21.46899,11.63702-.89099-5.29999,11.10803-11.09998,3.23596-12.33008Z"/>
            <path id="uuid-ef3c89d4-fe8d-40c4-94dd-05f156bb864f" data-name="Pfad 7088" class="uuid-1d17fe5a-efd4-4fdd-83c9-01e9af0e24eb" d="m81.75003,438.48504c-3.08899,5.151-11.89099,8.77399-17.521,10.69501-.953.32501-3.32599-1.27301-4.14099-.388-4.27301,4.64099-12.33099,6.14203-15.90002,7.90002-1.45801.71698-1.10797,3.31403-1.10797,3.31403l19.75104.12903s1.92297-1.48602,7.98206-6.58698,8.58899-3.64801,8.57996-2.61798-.87598,9.34198-.87598,9.34198l1.84802-.04199c-.45886-1.89771-.29041-3.89301.47998-5.68701,1.18604-2.89398,4.49304-6.26099,3.93896-8.987-1.16113-5.68011-3.03406-7.07111-3.03406-7.07111Z"/>
          </g>
          <path id="uuid-1778f67c-037e-4e05-8d96-9b3cc854a9e5" data-name="Pfad 7089" class="uuid-da8b275f-28e5-43f3-a6ed-e84fee6de941" d="m82.51908,433.59102c2.323-40.57501,4.771-49.521,4.56799-68.478-.30005-28.02499-7.98999-50.16901-17.33496-49.70001-13.72998.685-14.73401-8.11801-12.15198,10.58701,1.94995,14.12299,9.646,81.62402,13.92297,107.04102l10.99597.54999Z"/>
        </g>
      </g>
    </g>
    <g id="uuid-84c05c99-8134-4c0b-911a-de386ba7afb0" data-name="Gruppe 4835">
      <g id="uuid-687aef64-4715-4545-b327-c083c6075422" data-name="Gruppe 4834">
        <path id="uuid-38c3de60-d5f8-4dd6-8214-dd274d3070c4" data-name="Pfad 7090" class="uuid-1d17fe5a-efd4-4fdd-83c9-01e9af0e24eb" d="m134.05906,422.68596c-.36902,14.03699,3.62305,27.71301,6.65503,33.91901s13.11804,14.77698,16.98901,12.771,2.27295-14.21301-2.19995-22.14001-21.44409-24.54999-21.44409-24.54999Z"/>
        <path id="uuid-79cf9c62-6b09-4015-8319-64924e57b393" data-name="Pfad 7091" class="uuid-fa046eb4-2599-4b0f-9d29-b1b5bf8cd484" d="m129.97995,415.507l14.01294,17.43201s17.68994,18.26501,7.43005,23.76202c-10.67896,5.71997-16.17297-19.07703-16.17297-19.07703l-5.27002-22.117Z"/>
      </g>
      <path id="uuid-61a886bb-e34b-4ace-90bd-205954d4b1d6" data-name="Pfad 7092" class="uuid-da8b275f-28e5-43f3-a6ed-e84fee6de941" d="m96.49608,184.84102c-26.10901,2.11499-26.08606,29.89401-12.21704,77.17401s24.68701,74.39999,33.96497,83.46301c5.29297,5.16699,4.68298-11.38599,5-35.38901.23706-18.07501,2.65796-40.258-.776-61.22101-7.99792-48.80002-12.73694-65.09702-25.97192-64.02701Z"/>
      <path id="uuid-63fcfa5c-5dd4-4c34-a385-9aca69735bf5" data-name="Pfad 7093" class="uuid-da8b275f-28e5-43f3-a6ed-e84fee6de941" d="m142.79393,431.03804c-.36206-19.63.37695-53.42801-1.83105-72.25598-3.26294-27.83701-16.77905-51.48001-26.02295-50.02802-13.58105,2.134-12.83997,2.827-8.30005,21.15399,3.43201,13.836,20.45898,61.79999,26.05701,103.68201l10.09705-2.552Z"/>
    </g>
    <path id="uuid-70c1421c-f28f-422b-b6d1-3bdd6b871827" data-name="Pfad 7094" class="uuid-da8b275f-28e5-43f3-a6ed-e84fee6de941" d="m103.08295,170.453c1.854,11.14499,13.02795,20.70001,14.40002,30.68701,5.71997,41.50699-43.328,34.991-51.03906,7.15601-7.61694-27.49399,4.53601-37.84201,4.53601-37.84201l32.10303-.00101Z"/>
    <g id="uuid-2e909232-b465-458e-9c07-9f85968faba8" data-name="Gruppe 4837">
      <g id="uuid-723900b6-dc36-402e-874a-6cbabf9d02d1" data-name="Gruppe 4836">
        <path id="uuid-60c644d9-d8a5-46a5-b0bc-c02b8362adda" data-name="Pfad 7095" class="uuid-fa046eb4-2599-4b0f-9d29-b1b5bf8cd484" d="m126.72601,171.07799c-7.995.26401-10.37-11.972-11.30005-27.687s-11.61499-29.373-7.35803-45.362,21.08704-13.33501,23.20801,4.283,6.19995,46.7,2.95898,56.93201-7.50891,11.83398-7.50891,11.83398Z"/>
      </g>
      <path id="uuid-ce160d9a-956c-4aaa-9241-129e042a8c59" data-name="Pfad 7096" class="uuid-043d0c40-5188-49a1-8d91-f636766563bb" d="m65.25202,132.669c-7.52502-3.614-7.77698-10.66901-6.45203-13.62601,2.56152-4.72632,4.45593-9.78474,5.62903-15.03101l-11.73901-10.778c8.90002-12.328,15.96594-13.811,22.18701-15.935,8.66003-2.957,32.23401,1.849,32.23401,1.849,0,0,9.77795,2.545,15.91296,7.963,4.28601,1.964,7.96704,6.985,8.90796,14.8.91394,7.59399,2.17297,17.2,3.11206,26.65401l-21.03296.554c-5.09192,14.23216-8.51965,29.00575-10.21497,44.026-13.22498,12.26701-40.53503,3.83099-40.19995-4.96899.34387-9.01401,6.88086-33,1.65588-35.507Z"/>
    </g>
    <g id="uuid-4c5f66bd-a9d8-459a-b97f-8b54656c5486" data-name="Gruppe 4839">
      <g id="uuid-cc730a12-f69b-40ab-8ca6-4e969c983831" data-name="Gruppe 4838">
        <path id="uuid-5f67b4e4-c8c1-4c22-b072-36a6447ea500" data-name="Pfad 7097" class="uuid-fa046eb4-2599-4b0f-9d29-b1b5bf8cd484" d="m8.59696,75.65099c10.40698,18.2,26.95099,40.56601,28.79999,52.3s-7,13.483-11.888,10.463c-9.10797-5.629-16.27002-38.733-22.013-57.01401-6.16699-19.63098,5.10101-5.74899,5.10101-5.74899Z"/>
      </g>
    </g>
    <g id="uuid-d674dee4-80b5-4f8e-bb41-67003c1d79bc" data-name="Gruppe 4842">
      <g id="uuid-f37a4a5e-3dfc-4cee-b28c-f52e1476f19d" data-name="Gruppe 4841">
        <g id="uuid-bea4c6f6-a5b7-4a67-99d9-b65fe571bf38" data-name="Gruppe 4840">
          <path id="uuid-55db3c63-e8b8-43be-bfa8-62a1713e0a3d" data-name="Pfad 7098" class="uuid-fa046eb4-2599-4b0f-9d29-b1b5bf8cd484" d="m9.79799,76.65899h0c-1.98492.80885-4.24976-.14456-5.05859-2.1295-.09314-.22855-.16425-.46545-.2124-.7075l-.086-.427c-.28125-1.42096.24823-2.88074,1.375-3.791l2.92902-3.062c.97705-1.09718,1.5365-2.50346,1.58002-3.972l.15601-1.97c.14502-2.058,2.11298-4.279,3.58502-3.949h0c.6803.15148,1.10901.8258.95752,1.50612-.00049.0023-.00098.00459-.00153.00688l-2.849,15.578c-.23944,1.31511-1.1358,2.41595-2.37506,2.91701Z"/>
        </g>
      </g>
    </g>
    <g id="uuid-06c1c56d-077f-4ef6-a559-85fcaf87fbe9" data-name="Gruppe 4846">
      <g id="uuid-e1493cde-a694-4a6d-87d0-7d63fcaa6690" data-name="Gruppe 4845">
        <g id="uuid-e259fd8d-7468-461e-9f70-ad0ea9c67754" data-name="Gruppe 4844">
          <g id="uuid-ee483c4f-18ff-401c-91ca-245bc78955fc" data-name="Gruppe 4843">
            <path id="uuid-a4395956-c662-45ce-8261-f1ac327a0de8" data-name="Pfad 7099" class="uuid-fa046eb4-2599-4b0f-9d29-b1b5bf8cd484" d="m2.03101,76.25L.05103,63.401c-.07062-.4549-.06348-.91848.021-1.371l3.11902-16.8c.0675-.38065.43085-.63449.81152-.56696.03235.00574.06421.01375.09546.02396h0c1.25922.40372,2.0802,1.6148,1.98901,2.934l-.76801,11.132c-.09576,1.39532.20294,2.78943.862,4.023l2.49402,4.665s6.12097,5.224,1.245,10.3c-3.06,3.186-5.53998,1.80701-6.80902.606-.58301-.55956-.96307-1.29741-1.08002-2.097Z"/>
          </g>
        </g>
      </g>
    </g>
    <rect id="uuid-49a0e25e-e1f6-4abf-8bcb-21ad678eb0cc" data-name="Rechteck 1507" class="uuid-da8b275f-28e5-43f3-a6ed-e84fee6de941" x="7.63342" y="41.17418" width="1.867" height="37.806" transform="translate(-8.7006 1.90079) rotate(-8.416)"/>
    <g id="uuid-68503669-a13a-4e20-81d2-c2deaeca5fbe" data-name="Gruppe 4848">
      <g id="uuid-8f0873fb-394b-410c-9e02-c81b98992ccf" data-name="Gruppe 4847">
        <path id="uuid-3babbe4c-55ab-42a2-8ab7-4bb7fd7fa769" data-name="Pfad 7100" class="uuid-fa046eb4-2599-4b0f-9d29-b1b5bf8cd484" d="m1.79902,58.921h0c.48273.72847,1.4635.92963,2.19397.45l7.95697-5.275c.72766-.48657.92596-1.46931.44397-2.2h0c-.48334-.72763-1.46362-.92825-2.19397-.449l-7.95697,5.275c-.72656.48685-.92468,1.4684-.44397,2.199Z"/>
      </g>
    </g>
    <g id="uuid-a73ac1a2-7d5d-4f2b-ac31-0ce4801bbe25" data-name="Gruppe 4850">
      <g id="uuid-5c231842-f7ac-4846-9cc9-47754a8a0b98" data-name="Gruppe 4849">
        <path id="uuid-c0ac4742-6c11-439d-96dd-1f8a061a4186" data-name="Pfad 7101" class="uuid-fa046eb4-2599-4b0f-9d29-b1b5bf8cd484" d="m2.94603,57.683h0c.74072.46383,1.71716.24008,2.18201-.5l5.06897-8.1c.46136-.74274.23828-1.71852-.5-2.187h0c-.74084-.46324-1.7168-.23959-2.18201.5l-5.06799,8.1c-.46155.74249-.23889,1.7182.49902,2.187Z"/>
      </g>
    </g>
    <g id="uuid-006d92bc-7b64-4c03-b671-6fca8769b8e1" data-name="Gruppe 4853">
      <rect id="uuid-34390aa2-2c13-4f6c-8f25-b23c41170d9a" data-name="Rechteck 1508" class="uuid-0655ef4f-7d49-4dfc-a8b1-69afed1a1677" x="83.96243" y="174.2489" width="49.408" height="75.224" transform="translate(-111.93745 301.45645) rotate(-84.95)"/>
      <g id="uuid-34094267-8fe0-4fa7-998e-c1af29e61f1a" data-name="Gruppe 4852">
        <g id="uuid-edc82889-0b92-463e-a0c8-d193704d1162" data-name="Gruppe 4851">
          <path id="uuid-d1ec9708-56c5-4090-baaf-b4015bedff1d" data-name="Pfad 7102" class="uuid-fa046eb4-2599-4b0f-9d29-b1b5bf8cd484" d="m107.427,218.90601c2.71594-20.78601,3.94299-48.48401,9.56995-58.946s13.72998-6.5,15.80005-1.142c3.84802,9.99101-11.28198,44.25499-17.76501,62.287-6.96704,19.362-7.60498-2.19901-7.60498-2.19901Z"/>
        </g>
      </g>
    </g>
    <g id="uuid-1b18f26f-da53-49ed-807b-870853411201" data-name="Gruppe 4855">
      <g id="uuid-eea1180f-51c0-4266-927a-f0b82e6577b9" data-name="Gruppe 4854">
        <path id="uuid-08505ce3-0c98-4d61-bb46-4c6b492bd598" data-name="Pfad 7103" class="uuid-fa046eb4-2599-4b0f-9d29-b1b5bf8cd484" d="m108.08497,218.96199h0c2.0459.36508,3.40857,2.31958,3.04346,4.36551-.04187.23471-.10596.4649-.19141.6875l-.151.39401c-.50366,1.31186-1.69336,2.23618-3.08899,2.39999l-3.98596.99301c-1.36841.39499-2.55432,1.25873-3.34998,2.44l-1.14697,1.53299c-1.18396,1.61099-3.94702,2.41299-4.98206,1.38199h0c-.47888-.47717-.48022-1.25217-.00305-1.73099.0011-.00101.00208-.00201.00305-.00302l10.40002-11.29999c.87683-.95184,2.17908-1.38974,3.45288-1.16101Z"/>
      </g>
    </g>
    <g id="uuid-f5656b28-3fd0-4fe7-9b4d-8caf950f426d" data-name="Gruppe 4856">
      <path id="uuid-cdab6a8b-ea42-4f88-902c-1e91e59360da" data-name="Pfad 7104" class="uuid-fa046eb4-2599-4b0f-9d29-b1b5bf8cd484" d="m116.592,229.612c.31494-5.88501-.13098-5.642-2.552-10.39999-4.40796-3.72198-6.18005.32401-7.66394,2.056-.67859.80588-1.07007,1.81439-1.11304,2.867,0,0-2.00806,8.04199-2.125,10.39999,0,0,7.60706,2.29199,11.49097.763,1.43005-.55899,1.92004-4.88098,1.96301-5.686Z"/>
    </g>
    <g id="uuid-ecda75fa-0d06-4436-bfeb-4afd6afa9932" data-name="Gruppe 4858">
      <g id="uuid-38d9ad98-cd6f-4cf1-9fe0-e49d850e1a51" data-name="Gruppe 4857">
        <path id="uuid-e4e6206d-572c-4f32-9091-fea8b4d707a9" data-name="Pfad 7105" class="uuid-fa046eb4-2599-4b0f-9d29-b1b5bf8cd484" d="m114.07703,240.15598h0c1.04309.05164,1.93237-.74826,1.99097-1.79099l.58105-9.60901c.05298-1.039-.75598-3.724-1.80005-3.78h0c-1.04382-.05219-1.93384.74847-1.99194,1.79199l-.57996,11.39999c-.0498,1.04526.75488,1.93408,1.79993,1.98801Z"/>
      </g>
    </g>
    <g id="uuid-40c14fc4-b31f-4a40-b7b7-36ee829f2066" data-name="Gruppe 4860">
      <g id="uuid-3dfc36cc-a667-4bf6-9494-2e18b049355e" data-name="Gruppe 4859">
        <path id="uuid-ec9eeb81-4e09-4296-bc4f-023ee3c4740d" data-name="Pfad 7106" class="uuid-fa046eb4-2599-4b0f-9d29-b1b5bf8cd484" d="m110.468,241.43901h0c1.04346.05164,1.93286-.74887,1.99097-1.79199l.58105-11.39999c.05042-1.04568-.75452-1.93515-1.80005-1.98901h0c-1.04346-.05164-1.93286.74887-1.99097,1.79199l-.58105,11.39999c-.05042,1.04568.75452,1.93515,1.80005,1.98901Z"/>
      </g>
    </g>
    <g id="uuid-4f91cfb7-961a-405f-ae8f-19d70b2adf10" data-name="Gruppe 4862">
      <g id="uuid-67b09337-50bf-4082-84dc-e51203acb3f0" data-name="Gruppe 4861">
        <path id="uuid-f3029c25-06ea-4271-a16e-244e00c4b3e2" data-name="Pfad 7107" class="uuid-fa046eb4-2599-4b0f-9d29-b1b5bf8cd484" d="m105.56098,241.291h0c1.03333.15497,1.99792-.55359,2.15906-1.586l1.70703-11.28601c.15344-1.03531-.5592-1.99976-1.59399-2.15701h0c-1.03296-.1543-1.99683.55408-2.15796,1.586l-1.70605,11.28601c-.15356,1.03461.55798,1.99875,1.59192,2.15701Z"/>
      </g>
    </g>
    <g id="uuid-8c1c978b-5c23-440e-9ae9-d1fcdace8d1f" data-name="Gruppe 4864">
      <g id="uuid-a2d3c3de-a377-4c6b-a0e4-216368c72032" data-name="Gruppe 4863">
        <path id="uuid-1f71e0e3-63f8-4f4d-bf2e-1b4bbbef0754" data-name="Pfad 7108" class="uuid-fa046eb4-2599-4b0f-9d29-b1b5bf8cd484" d="m100.65805,239.67099h0c1.0083.2735,2.04822-.31842,2.328-1.32501l3-11.013c.27295-1.01044-.32263-2.05136-1.33203-2.328h0c-1.0083-.2728-2.04773.31949-2.32703,1.32599l-3,11.013c-.27246,1.00983.32251,2.04993,1.33105,2.32703Z"/>
      </g>
    </g>
    <path id="uuid-bd38e602-334e-48ea-8b8e-a333a69757b1" data-name="Pfad 7109" class="uuid-c7f7bad5-d223-44f2-b04f-ae8b775a2abb" d="m72.62903,27.494c0,10.615,5.89001,19.22,13.15698,19.22s13.15601-8.6,13.15601-19.22-5.89001-19.22-13.15601-19.22-13.15698,8.605-13.15698,19.22Z"/>
    <path id="uuid-6c670e9f-4a77-4502-b487-ac1357edef26" data-name="Pfad 7110" class="uuid-3676c3f4-90fa-4512-b164-411fcec1fc8e" d="m86.04498,72.802c7.11096,4.78,13.77295,1.45399,19.22498-6.509,0-.089-.00598-.177-.00806-.26601-.13501-4.3-.30505-8.284-.31494-8.532l-17.88599,4.05c-.3739.366-.58899,5.33-1.01599,11.257Z"/>
    <path id="uuid-0e9ce97e-6ce1-4a91-843a-e919bfbbf8a1" data-name="Pfad 7111" class="uuid-fa046eb4-2599-4b0f-9d29-b1b5bf8cd484" d="m87.06097,61.547c-.51196.5-.76697,7.772-1.66699,14.78999-.55798,4.356.15503,1.883-2.63501,11.10001,0,0-5.57996,17.83499-.46497,20.159.52502.549.71301,1.321,3.49097.439,4.90002-1.55499,6.27295-6.06,18.33704-20.60001,2.10901-2.541,3.53003-4.46899,2.99194-8.285-1.58398-7.5-2.16602-21.65-2.16602-21.65l-17.88696,4.04702Z"/>
    <path id="uuid-1a90ec46-21bf-4bec-ad0d-4ccb96ca577f" data-name="Pfad 7112" class="uuid-3676c3f4-90fa-4512-b164-411fcec1fc8e" d="m85.78503,72.926c7.63599,3.533,14.35205-4.06799,19.37695-11.39999,0-.082-.09302-1.033-.09998-1.114-.12402-3.957.19995-4.432-1.60596-3.444l-16.479,3.731c-.34009.33199-.79712,6.76399-1.19202,12.22699Z"/>
    <path id="uuid-ec119a9b-1d8f-45e3-a71a-27cd8200de49" data-name="Pfad 7113" class="uuid-fa046eb4-2599-4b0f-9d29-b1b5bf8cd484" d="m92.89502,8.172s-10.43799-.087-13.26697,7.88-5.86902,14.478-6.09094,24.355,3.23804,23.761,12.66602,27.673,22.82397-9.614,24.5-18.036,8.08105-21.854,3.08496-31.775-20.89307-10.097-20.89307-10.097Z"/>
    <path id="uuid-5d893eae-d811-41fd-8d08-5c254e9e55b3" data-name="Pfad 7114" class="uuid-fa046eb4-2599-4b0f-9d29-b1b5bf8cd484" d="m102.22205,42.79s1.67505-6.513,4.94897-4.976,4.34399,6.621,1.37695,10.423-8.52502.127-6.32593-5.44701Z"/>
    <g id="uuid-62e78eab-397e-4a4e-8da7-aa1807e0521d" data-name="Gruppe 4866">
      <g id="uuid-cb379fe4-57d5-461b-9442-9c2cc7e91ea3" data-name="Gruppe 4865">
        <path id="uuid-9caeb004-0cfb-4ccb-83d3-c999d35061f8" data-name="Pfad 7115" class="uuid-c7f7bad5-d223-44f2-b04f-ae8b775a2abb" d="m87.75,28.53c14.245,4.465,14.59302,13.92,14.59302,13.92l2.50598.194s.12598-4.084,3.65601-4.587,4.75403,2.146,3.77502,5.158c-1.98401,6.1-5.755,5.75-5.755,5.75l.328,8.9s5.94604-6.7,8.65198-12.485.56494-8.476,2.99097-11.766,7.05798-5.42,5.57703-13.74C122.67297,12.03,108.90405.188,93.625.005c-18.50403-.227-31.25098,20.572-5.875,28.525Z"/>
      </g>
    </g>
    <path id="uuid-636ace97-4323-4cbb-8cf4-d935e0d63013" data-name="Pfad 7116" class="uuid-72063cd6-fbce-4d33-ad0a-66f7e70058a7" d="m119.521,23.864c2.06702-1.686,3.33301-9.182-.17004-12.4,6.61401,1.658,4.47302,11.246.17004,12.4Z"/>
    <path id="uuid-7084cfc7-b520-4b71-b815-c90584c81519" data-name="Pfad 7117" class="uuid-8540e473-8d65-4b52-b627-70c488c3f0d8" d="m107.65198,50.064c-.16077.97488-1.0813,1.63489-2.05615,1.47417-.97485-.16072-1.63489-1.0813-1.47424-2.05618.14258-.86449.89026-1.49856,1.76636-1.498,1.05811.09381,1.84424,1.02077,1.76404,2.08Z"/>
  </g>
</svg>