<?xml version="1.0" encoding="UTF-8"?>
<svg id="uuid-aa20a182-632e-412a-a975-93d53f79b106" data-name="Ebene 1" xmlns="http://www.w3.org/2000/svg" width="224.93401" height="489.64899" viewBox="0 0 224.93401 489.64899">
  <defs>
    <style>
      .uuid-424426a9-68c9-4219-b8f4-6699cdeb5124 {
        fill: #f5ab7d;
      }

      .uuid-d42ebf05-e3ef-45a6-89cb-6e3ada3e5de1 {
        fill: #ececec;
      }

      .uuid-12d70e08-a641-48ae-9c2b-2a3d773b0f9f {
        fill: #ffb575;
      }

      .uuid-fa288403-4edd-4253-aa16-090447eb4fff {
        fill: #fda15d;
      }

      .uuid-4b384661-8d9b-414b-ba2b-e3d8a5050721 {
        fill: #969483;
      }

      .uuid-41815ad0-058b-4d1b-b0f7-2efe53b0aebd {
        fill: #84a214;
      }

      .uuid-dd63593f-06c0-4de3-8f60-93192ba176f8 {
        fill: #8e6008;
      }

      .uuid-772b8347-6527-4ea5-b9d7-7a5605b21e0b {
        fill: #cecece;
      }

      .uuid-1eb8dd42-bacd-4c06-a0bb-e8dc8ff74c10 {
        fill: #bcb19a;
      }

      .uuid-415e7a23-2903-4530-8b00-5d61f95db29f {
        fill: #153663;
      }

      .uuid-46f50c2c-241d-45eb-81d6-55543a7c609b {
        fill: #5f4100;
      }

      .uuid-8d88e700-50f2-4b37-a032-dae3c017fb63 {
        fill: #787878;
      }
    </style>
  </defs>
  <g id="uuid-721f6a30-2449-42e6-9da1-f2bf5b3ce0ad" data-name="Gruppe 8132">
    <path id="uuid-fcd12ca6-9701-444d-b761-b030cc8e0fab" data-name="Pfad 7009" class="uuid-12d70e08-a641-48ae-9c2b-2a3d773b0f9f" d="m99.875,43.905s7.83801,40.354,6.35303,42.03899c-3.44598,3.908-11.65601,1.52299-19.46997-1.39101-6.80902-2.539-6.31-36.31-6.31-36.31,0,0,10.92194-3.89399,19.42694-4.33799Z"/>
    <path id="uuid-276af9f3-25c8-42ba-a91a-3c3d0dc25bf0" data-name="Pfad 7010" class="uuid-fa288403-4edd-4253-aa16-090447eb4fff" d="m79.36896,46.422s.04901,1.493.17102,3.951c1.65521,4.06319,3.7796,7.91901,6.33002,11.489,3.52698,4.533,10.646,11.027,18.92102,9.54l-5.58197-29.563c-8.65106.62701-19.84009,4.58301-19.84009,4.58301Z"/>
    <path id="uuid-70032bdf-0ba3-4979-b2cd-0df5bc8871fe" data-name="Pfad 7011" class="uuid-12d70e08-a641-48ae-9c2b-2a3d773b0f9f" d="m98.57996,15.621c5.77527-.45026,11.13354,3.03242,13.06702,8.493,3.87701,9.644,6.53101,38.292-1.62,42.925s-21.42999-2.31-25.21198-7.212c-3.93799-5.1-6.966-13.874-6.966-13.874,0,0-10.92999-35.55501,20.73096-30.33201Z"/>
    <g id="uuid-1e50d81b-844b-42a9-b4ac-a9e3387bb377" data-name="Gruppe 4819">
      <g id="uuid-eef28ae8-6c92-4a37-8485-176aa282f735" data-name="Gruppe 4798">
        <path id="uuid-2fdaee8b-3ad3-4444-9e50-63823eae6ab8" data-name="Pfad 7012" class="uuid-424426a9-68c9-4219-b8f4-6699cdeb5124" d="m169.31,220.05799c4.75,1.07101,9.31403,2.186,13.435,3.457,7.922,2.44299,8.09998-6.56201,8.09998-6.56201-6.38202-3.491-13.87701-7.53101-21.539-11.45901l.00403,14.56403Z"/>
        <g id="uuid-6fafd710-5219-4eca-b613-8239a7d28926" data-name="Gruppe 4797">
          <path id="uuid-876898d8-9d8b-46a7-827a-6ff0ee665aaf" data-name="Pfad 7013" class="uuid-fa288403-4edd-4253-aa16-090447eb4fff" d="m207.51903,210.965h0c-.69733.80109-.61505,2.01535.18402,2.715l8.75403,7.60699c.80481.69275,2.01758.60706,2.71698-.19199h0c.69629-.80179.6131-2.01566-.18597-2.715l-8.75201-7.60699c-.80481-.69278-2.01764-.60709-2.71704.19199Z"/>
          <path id="uuid-09e00ee9-b50d-4824-aa50-1af5583375f6" data-name="Pfad 7014" class="uuid-fa288403-4edd-4253-aa16-090447eb4fff" d="m209.33904,211.90501h0c-.30457,1.0163.27057,2.08743,1.28595,2.39499l11.12299,3.31201c1.02118.29849,2.09216-.28162,2.40002-1.29999h0c.30237-1.01736-.27484-2.08771-1.29102-2.39401l-11.12402-3.31201c-1.0191-.29584-2.08649.28339-2.39392,1.29901Z"/>
          <g id="uuid-6676417c-fb52-4f85-92e0-400918edc9bf" data-name="Gruppe 4796">
            <g id="uuid-98c71cd4-ea7a-456a-bf7e-b606ce36746a" data-name="Gruppe 4795">
              <path id="uuid-a54183ab-0cf5-4897-9f9c-14316e92651e" data-name="Pfad 7015" class="uuid-424426a9-68c9-4219-b8f4-6699cdeb5124" d="m187.30498,216.848l14.40002-6.48401c.51013-.22992,1.05548-.37192,1.61298-.42001l20.68597-1.79099c.47162-.04013.88641.30966.92657.78125.00299.03516.00378.0705.00244.10574h0c-.06519,1.60492-1.2171,2.95825-2.79102,3.27899l-13.28198,2.70703c-1.66486.33914-3.2005,1.14041-4.43103,2.31201l-4.65503,4.42999s-4.13397,8.85999-11.659,4.79999c-4.72198-2.552-3.90997-5.89999-2.91498-7.776.46631-.86383,1.20691-1.54779,2.10504-1.944Z"/>
              <g id="uuid-d8309542-bb60-4024-8f32-96e91a98bd80" data-name="Gruppe 4794">
                <path id="uuid-30f222b0-4581-4ed8-b708-238d74f825da" data-name="Pfad 7016" class="uuid-424426a9-68c9-4219-b8f4-6699cdeb5124" d="m189.18698,220.40599h0c-1.38953,2.01846-.87964,4.78116,1.13885,6.17065.2309.15897.47644.29572.73315.40836l.45599.20001c1.51599.6633,3.27472.43228,4.56799-.60001l4.13501-2.51801c1.46448-.82092,3.17133-1.09988,4.82098-.78799l2.23602.30801c2.33197.34299,5.29303-1.30899,5.28699-3.03299h0c-.00165-.79584-.64813-1.43967-1.44397-1.43805-.00299.00003-.00604.00003-.00903.00006l-18.086-.64001c-1.52441-.05432-2.97107.67349-3.836,1.92996Z"/>
              </g>
            </g>
          </g>
        </g>
      </g>
      <g id="uuid-ef283b0d-b6f3-4a18-a1f6-92ef94174f4b" data-name="Gruppe 4818">
        <g id="uuid-e5bc11e2-8223-4dea-b298-6f6aaa6f1dfa" data-name="Gruppe 4800">
          <g id="uuid-093c7333-2f90-4bbe-b12a-c2595867c73e" data-name="Gruppe 4799">
            <path id="uuid-d7d61eb4-0fc8-4a02-8d5c-b153b9a40a79" data-name="Pfad 7017" class="uuid-772b8347-6527-4ea5-b9d7-7a5605b21e0b" d="m154.74003,212.83801c7.77905,4.34842,15.89844,8.05795,24.27802,11.09201l8.91602-10.26199c-6.12-3.97-12.38501-8.573-18.513-13.26501l-14.68103,12.435Z"/>
            <path id="uuid-55944fb4-2589-4912-871c-07d727a29484" data-name="Pfad 7018" class="uuid-8d88e700-50f2-4b37-a032-dae3c017fb63" d="m185.26304,210.51701c-23.30902-15.11801-46.05298-36.27899-58.07001-39.75999-13.46899-3.89999-16.28699,6.22-13.49402,12.52699,2.56702,5.79401,35.01599,32.42599,62.28497,41.86401l9.27905-14.63101Z"/>
          </g>
        </g>
        <g id="uuid-5f0d1d8e-12db-4c75-864c-5a251f411839" data-name="Gruppe 4817">
          <path id="uuid-eb0d4649-64b1-4d41-815b-576b8c45cde7" data-name="Pfad 7019" class="uuid-415e7a23-2903-4530-8b00-5d61f95db29f" d="m67.40399,212.97001c-4.68298,23.22198-9.75,51.755-6.81097,62.33398s75.586,21.651,73.24402-12.12601-12.22803-50.81-12.22803-50.81l-54.20502.60202Z"/>
          <g id="uuid-8bb7994a-d87f-4938-8267-42f42df79e68" data-name="Gruppe 4804">
            <g id="uuid-b54eb6c6-3d7f-4963-a7c3-b4845d2bbfac" data-name="Gruppe 4803">
              <g id="uuid-8380c819-11de-49f7-89a5-b6725a090681" data-name="Gruppe 4801">
                <path id="uuid-93276ccf-7d6e-4691-9167-cbc8be4bf2a9" data-name="Pfad 7020" class="uuid-dd63593f-06c0-4de3-8f60-93192ba176f8" d="m64.495,457.18002c-5.04401-5.20001-7.32397-12.11499-9.35498-11.5s-12.67102,7.07703-12.67102,7.07703l26.08002,36.89301,2.922-2.06702s-5.91199-13.60999-6.21503-17.40802c-.37799-4.737-.76099-12.995-.76099-12.995Z"/>
              </g>
              <g id="uuid-8432de0d-9f2e-42bd-87de-944bc85b7bff" data-name="Gruppe 4802">
                <path id="uuid-081c3586-f9a4-4589-aa27-f5adb5a90b5c" data-name="Pfad 7021" class="uuid-4b384661-8d9b-414b-ba2b-e3d8a5050721" d="m143.26202,348.18299c-22.02399-16.92401-43.15302,8.94299-51.755,25.29199s-40.17902,71.44601-40.17902,71.44601l15.5,17.57001s67.72705-86.67001,74.26001-97.47,2.17401-16.83801,2.17401-16.83801Z"/>
              </g>
            </g>
          </g>
          <g id="uuid-4caa9d20-190e-4dce-bf3e-bdf60a124598" data-name="Gruppe 4807">
            <g id="uuid-9330174c-8140-4bac-85e3-b32fb12d139f" data-name="Gruppe 4806">
              <g id="uuid-e3c80654-4392-4253-802c-ea93a870a232" data-name="Gruppe 4805">
                <path id="uuid-106e411b-1335-4845-9e00-c942fa116d06" data-name="Pfad 7022" class="uuid-4b384661-8d9b-414b-ba2b-e3d8a5050721" d="m107.46104,215.21503c33.58698-1.29199,34.88397,110.15799,36.56201,130.46298s-10.91803,40.48599-29.95398,2.36499-38.83899-92.12-26.84497-114.31201,20.23694-18.51596,20.23694-18.51596Z"/>
              </g>
            </g>
          </g>
          <g id="uuid-0bc2d31f-19c6-42e4-a9a1-c37e4c8a3cb2" data-name="Gruppe 4809">
            <path id="uuid-bfa334f4-4a7d-45a5-9c28-65e50e8f70c5" data-name="Pfad 7023" class="uuid-1eb8dd42-bacd-4c06-a0bb-e8dc8ff74c10" d="m90.218,202.4c47.16998,8.06601,14.67603,129.30002,12.427,149.547s-18.47998,37.63901-29.85199-3.42499-20.90002-106.55301-4.87097-126.03299,22.29999-20.08899,22.29999-20.08899"/>
            <g id="uuid-43d4ec57-d164-4397-a8f5-8fe5b8888321" data-name="Gruppe 4808">
              <path id="uuid-da3e570e-93f9-4c36-a7dc-89b13b38d066" data-name="Pfad 7024" class="uuid-dd63593f-06c0-4de3-8f60-93192ba176f8" d="m90.52498,474.08604c-7.16101,1.08698-14.11499-1.07501-14.79498.93402s-1.59998,14.42603-1.59998,14.42603l49.83698.20001.01599-3.58099s-19.16998-3.09302-22.435-5.05298c-4.07703-2.44012-11.02301-6.92609-11.02301-6.92609Z"/>
              <path id="uuid-2b711c7b-3f09-4f15-8340-d26037089381" data-name="Pfad 7025" class="uuid-1eb8dd42-bacd-4c06-a0bb-e8dc8ff74c10" d="m93.45198,340.78199c-27.73999-1.37601-30.38702,31.918-28.15198,50.25601s7.73102,86.95203,7.73102,86.95203l20.67102-2.06598s8.32397-107.46301,7.55298-120.06-7.80304-15.08206-7.80304-15.08206Z"/>
            </g>
          </g>
          <path id="uuid-c653e094-22ad-4aff-bfcd-0e812a3e8229" data-name="Pfad 7026" class="uuid-8d88e700-50f2-4b37-a032-dae3c017fb63" d="m128.55499,188.505c9.33698-.909,11-11.754,10.08002-30.683s9.76898-36.90001,2.77502-55.36-33.23401-19.048-33.45398,2.33701,5.73297,63.118,10.81403,74.856,9.78491,8.84999,9.78491,8.84999Z"/>
          <path id="uuid-ba2fc7ed-4350-4058-8969-547bf6e0d42d" data-name="Pfad 7027" class="uuid-d42ebf05-e3ef-45a6-89cb-6e3ada3e5de1" d="m73.05701,83.325c3.60754-.91631,7.28424-1.53505,10.99298-1.85001,4.61499-.42599,9.92603,2.733,13.78802,2.733,1.87701,0,4.53601-2.87399,8.68201-2.14101,2.94299.522,6.21399,1.23599,9.46899,2.158l13.146,147.82898c-5.70001,2.17099-35.22101,10.19199-48.83899,9.11801-6.17499-.487-4.34399-19.43701-7.23798-20.70001l-.00104-137.14697Z"/>
          <path id="uuid-3e29b00d-7142-4ecf-892d-e5deac748833" data-name="Pfad 7028" class="uuid-8d88e700-50f2-4b37-a032-dae3c017fb63" d="m82.77899,274.486q-21.01599,6.17801-27.31799-.10599c-2.06702-41.34201,7.5-61.67801,8.27002-81.649s-14.55103-72.36-12.71301-86.571c1.33899-19.88602,12.71301-21.95302,29.24896-25.05302,1.54199-.142,8.26801,19.63699,10.33502,50.645s14.349,136.215-7.823,142.73401Z"/>
          <g id="uuid-4082bfb7-757c-41b7-851b-935d3b36b0e0" data-name="Gruppe 4814">
            <g id="uuid-d74f5dd1-0278-49af-8c03-03ff1c0bd2f8" data-name="Gruppe 4812">
              <g id="uuid-9f339a65-d820-4665-ad71-ded8f025b6dd" data-name="Gruppe 4810">
                <path id="uuid-b52f6d19-5999-4e66-82f8-9bf4094e7cdf" data-name="Pfad 7029" class="uuid-424426a9-68c9-4219-b8f4-6699cdeb5124" d="m65.181,274.12801c.97632,1.27728.73236,3.10422-.54492,4.08054-.07288.05569-.14832.10791-.22607.15646-.82904.51572-1.62012,1.09018-2.367,1.71899l-2.53601,2.13699c-.63202.57059-1.60651.52231-2.17902-.108-1.17633-1.4783-.99054-3.61856.42297-4.87201l2.79999-3.11099c.97632-1.27798,2.80383-1.52252,4.08179-.54617.20551.15698.38922.34067.5462.54617l.00208-.00198Z"/>
              </g>
              <path id="uuid-8962f847-5cfc-4df4-adf3-9d743b151925" data-name="Pfad 7030" class="uuid-424426a9-68c9-4219-b8f4-6699cdeb5124" d="m63.27795,278.26302h0c-1.41394.03574-2.58917-1.08151-2.62488-2.49548-.00006-.0015-.00006-.00302-.00012-.00452l-.11401-5.867c-.03522-1.41507,1.08337-2.59076,2.49847-2.62598.00049,0,.00104-.00003.00153-.00003h0c1.41547-.03467,2.59106,1.08456,2.62598,2.5l.11298,5.86899c.03357,1.41467-1.08533,2.58908-2.49994,2.62402Z"/>
              <path id="uuid-33573c66-273c-4104-bfdd-a4512b45fad8" data-name="Pfad 7031" class="uuid-424426a9-68c9-4219-b8f4-6699cdeb5124" d="m64.84503,270.70802h0c-.84296.96057-2.30499,1.05594-3.26556.21301-.00116-.00101-.00226-.00201-.00342-.00302l-3.96503-3.51999c-.96045-.84525-1.05444-2.30881-.21002-3.26999h0c.84399-.96039,2.3067-1.05475,3.26709-.21078.00031.00027.00061.00052.00092.00079l3.96503,3.522c.96051.84427,1.05493,2.30722.211,3.26797Z"/>
              <rect id="uuid-8d0bd78b-7ca0-4013-8381-bad2732d0fbe" data-name="Rechteck 1495" class="uuid-46f50c2c-241d-45eb-81d6-55543a7c609b" x="65.78" y="281.523" width="2.311" height="6.852"/>
              <g id="uuid-e0746746-0b38-4cf1-b541-0b9d542cc4c7" data-name="Gruppe 4811">
                <path id="uuid-8698f255-2f50-437d-8574-cbd581e69e2d" data-name="Pfad 7032" class="uuid-46f50c2c-241d-45eb-81d6-55543a7c609b" d="m38.99902,283.85802c4.59998-4.58301,10.573-7.03,15.97998-6.564,4.30078.37411,8.19788,2.68436,10.59003,6.27802l3.508-2.46701c-3.10669-4.64343-8.15869-7.61957-13.72601-8.086-6.65601-.58099-13.90002,2.33401-19.38098,7.79999l3.02899,3.039Z"/>
              </g>
              <path id="uuid-ebb53cb4-40ef-4c28-9be8-c759a302ba63" data-name="Pfad 7033" class="uuid-424426a9-68c9-4219-b8f4-6699cdeb5124" d="m60.23596,263.52699l-.93201-.89999-15.229.20001h0c-.56549,1.77625-.87689,3.62354-.92499,5.487h-.005v.315l.146,11.19199v.06299c.01257,1.21497,1.00769,2.1897,2.22266,2.17712.00311-.00003.00623-.00009.00934-.00012v.01099c1.21985-.02136,2.19275-1.02509,2.17603-2.245v.12201c-.00165-.10236.07965-.1868.18201-.189h0c.10236-.0011.18634.08069.18799.18301l.02002,1.51401c.01288,1.21497,1.00824,2.18942,2.22321,2.17654.02826-.00031.05652-.00113.08478-.00253,1.20032-.0769,2.12659-1.08652,2.09998-2.289l-.005-.37399c-.00055-.10211.08087-.18579.18298-.18799h0c.10272-.0011.18689.08127.18799.18399h0l.01501,1.07999c.01312,1.21497,1.00873,2.18921,2.22363,2.17609.0025-.00003.00494-.00006.00739-.00009h0c1.21497-.01367,2.18878-1.00967,2.17511-2.22461-.00006-.00281-.00006-.00558-.00012-.00839l-.01898-1.5c-.00525-.0946.05859-.17917.151-.20001.10107-.01825.19781.04892.21606.15002.00177.00989.00275.01993.00293.02997l.008.52802c.01422,1.21494,1.01068,2.18832,2.22559,2.1741l.00641-.00009h0c1.21497-.0137,2.18878-1.0097,2.17505-2.22464,0-.00214-.00006-.00424-.00006-.00635l-.117-9.01199-.672-6.27499c-.08392-.80576-.44641-1.55698-1.02496-2.12405Z"/>
              <path id="uuid-c6b6b66f-7cc1-49f3-b81f-dd1241878100" data-name="Pfad 7034" class="uuid-424426a9-68c9-4219-b8f4-6699cdeb5124" d="m53.22998,241.17101l3.94202,19.668c.14099.13699,2.948,2.58899,3.12799,2.772.54401.55887.88422,1.28439.966,2.06.237,2.246.685,6.51501.685,6.51501-4.45001.767-7.07202-4.37201-9.64502-4.858.05103,4.04001-8.60699,5.87701-9.15802,1.293v-.315h.005c.0481-1.8638.35956-3.71143.92499-5.48801l4.05701-21.647h5.09503Z"/>
              <path id="uuid-0914530e-8dda-4464-9db3-fced64e6d0c7" data-name="Pfad 7035" class="uuid-424426a9-68c9-4219-b8f4-6699cdeb5124" d="m45.901,282.52901h0c-1.24188.01053-2.25745-.98712-2.26898-2.229l-.03198-4.64999c-.01056-1.24258.98822-2.25845,2.23083-2.26901h.00116c1.24207-.01001,2.25702.98877,2.26703,2.23083v.00015l.03302,4.64801c.01056,1.24258-.98822,2.25845-2.23083,2.26901h-.00024Z"/>
              <path id="uuid-c5bd905c-15f5-4b73-aa86-c325aea16976" data-name="Pfad 7036" class="uuid-424426a9-68c9-4219-b8f4-6699cdeb5124" d="m55.21997,285.92699h0c-1.39502.01218-2.53577-1.10886-2.54797-2.50385v-.00314l-.17798-9.25101c-.01166-1.39581,1.11017-2.5369,2.50598-2.54901h0c1.39612-.01166,2.53735,1.11069,2.54901,2.50681v.00018l.177,9.25299c.01056,1.39505-1.11102,2.53494-2.50604,2.54703Z"/>
              <path id="uuid-46373c77-68ec-4c3a-9bdc-39ace4a22625" data-name="Pfad 7037" class="uuid-424426a9-68c9-4219-b8f4-6699cdeb5124" d="m51.07397,285.09099h0c-1.26099.21619-2.45874-.63016-2.67603-1.89099l-1.51398-8.21301c-.2168-1.2608.62927-2.45874,1.89001-2.67599h0c1.26068-.21625,2.45825.62958,2.67603,1.89001l1.51099,8.20898c.21936,1.26126-.62524,2.46155-1.88654,2.68091-.00012.00003-.00031.00006-.00049.00009Z"/>
              <path id="uuid-fe2818e6-2cb0-4dfd-a180-47f013f2ff3d" data-name="Pfad 7038" class="uuid-424426a9-68c9-4219-b8f4-6699cdeb5124" d="m59.98804,285.13204h0c-1.31647.01111-2.39294-1.04657-2.40503-2.36301l-.06201-7.68701c-.0083-1.31488,1.04913-2.38846,2.36401-2.39999h0c1.31531-.00833,2.38904,1.04974,2.40002,2.36499l.06299,7.68399c.01056,1.31439-1.04559,2.38892-2.35999,2.40103Z"/>
              <rect id="uuid-1af04942-5f6e-425a-b4bc-fa4b01b5699c" data-name="Rechteck 1496" class="uuid-46f50c2c-241d-45eb-81d6-55543a7c609b" y="287.302" width="106.46" height="73.007"/>
              <path id="uuid-30351766-c0ad-4cdc-a05f-1f95cb65e37f" data-name="Pfad 7039" class="uuid-dd63593f-06c0-4de3-8f60-93192ba176f8" d="m0,309.59801s18.79999,11.51501,53.22998,11.51501,53.22998-11.51501,53.22998-11.51501v-22.29999H0v22.29999Z"/>
              <rect id="uuid-c2cbb044-7820-46bc-b836-4efca05065ad" data-name="Rechteck 1497" class="uuid-46f50c2c-241d-45eb-81d6-55543a7c609b" x="36.726" y="281.523" width="2.312" height="6.852"/>
              <path id="uuid-be5c05cd-ba97-4391-9a21-5844fdf930a7" data-name="Pfad 7040" class="uuid-dd63593f-06c0-4de3-8f60-93192ba176f8" d="m48.021,322.99001v5.10001c0,2.58084,2.09216,4.673,4.67303,4.673s4.67297-2.09216,4.67297-4.673h0v-5.10001h-9.34601Z"/>
            </g>
            <g id="uuid-60fa2f7d-c661-4f05-9810-34a5c030afcc" data-name="Gruppe 4813">
              <path id="uuid-f1725484-43e1-45e0-862a-d94f1ae26547" data-name="Pfad 7041" class="uuid-8d88e700-50f2-4b37-a032-dae3c017fb63" d="m49.21003,195.347c7.72498-1.681,5.16101-13.338,10.38501-31.55699s15.36298-37.89999,14.69202-57.63-8.72601-27.839-26.98102-7.41901c-14.25299,15.946-15.94702,71.7-14.91803,84.45,1.02899,12.75002,16.82202,12.15601,16.82202,12.15601Z"/>
              <path id="uuid-b5d66602-7ff9-4b45-8862-9a2a565712ca" data-name="Pfad 7042" class="uuid-772b8347-6527-4ea5-b9d7-7a5605b21e0b" d="m34.78901,219.46301c2.03802,12.548,3.422,26.827,8.35602,40.672l13.99402-.509c-.29999-11.48999-.44299-22.89999-.67603-33.29999l-21.67401-6.86301Z"/>
              <path id="uuid-43e6578b-0c0e-4674-90ac-37954be685f8" data-name="Pfad 7043" class="uuid-8d88e700-50f2-4b37-a032-dae3c017fb63" d="m58.87098,257.51801c-2.60498-30.88901-2.66901-59.98599-3.17798-72.07199-5.33698-12.29199-19.80902-9.75101-22.74799-3.851-2.40002,4.81001-7.17798,43.64799,7.18103,76.97899l18.74493-1.056Z"/>
            </g>
          </g>
          <g id="uuid-b9d29434-ad32-47c4-91dd-ff9c4b846d5f" data-name="Gruppe 4816">
            <path id="uuid-30f23d52-7e28-428d-9d43-8700f357818f" data-name="Pfad 7044" class="uuid-8d88e700-50f2-4b37-a032-dae3c017fb63" d="m107.77302,82.295c12.04999,2.289,28.53003,7.67999,27.69202,17.03101-1.12701,12.535-8.65997,36.73601-8.32703,59.5.52002,35.561,8.94202,97.98399,8.94202,97.98399,0,0,3.841,19.259-17.57098,17.57001-3.40704-.26801-10.73602-192.08501-10.73602-192.08501Z"/>
            <g id="uuid-22d5b238-7837-4e81-82ec-789b964a6c53" data-name="Gruppe 4815">
              <path id="uuid-fa924420-426b-4e7c-b50d-6a54df178d08" data-name="Pfad 7045" class="uuid-41815ad0-058b-4d1b-b0f7-2efe53b0aebd" d="m97.83704,92.477l3.09998,4.134,13.43597,118.853-10.33502,14.47101-10.336-11.36899,2.06799-122.992,2.06708-3.09702Z"/>
              <path id="uuid-65f8d063-8d53-485a-afcb-2ba029769b89" data-name="Pfad 7046" class="uuid-41815ad0-058b-4d1b-b0f7-2efe53b0aebd" d="m103.00501,86.27601l-2.06799,10.332-5.16699,1.033-5.16803-11.369,6.20001-2.067,6.203,2.071Z"/>
            </g>
          </g>
          <path id="uuid-96d5a04f-c5c9-4925-8247-c6efce2af57f" data-name="Pfad 7048" class="uuid-772b8347-6527-4ea5-b9d7-7a5605b21e0b" d="m108.35901,82.327l-2.58099-4.10001c-2.05298,3.57762-6.2088,5.38608-10.22601,4.45-4.52448-1.09694-8.83429-2.94092-12.75201-5.45599l-3.41199,4.10699s-.15503,10.116,8.11401,16.31799c2.06702-6.2,9.29999-12.39999,9.29999-12.39999,0,0,7.23499,1.033,11.36902,10.33501,2.06696-5.17101.18799-13.254.18799-13.254Z"/>
        </g>
      </g>
    </g>
    <path id="uuid-4d3a7347-b66d-4688-962e-50c746ac69b4" data-name="Pfad 7049" class="uuid-46f50c2c-241d-45eb-81d6-55543a7c609b" d="m83.62701,17.938c10.40002,1.046,8.66699,10.322,8.66699,10.322-.59497,3.62743-.67175,7.32098-.22803,10.97.159,1.029-2.35602,1.021-2.95502,2.089-.74701,1.329-3.91199-9.642-8.90002-6.238s1.81097,13.092,1.81097,13.092c-1.44098,1-2.5,1.614-2.5,1.614,0,0-13.62201-9.479-13.224-16.8.6131-11.304,17.3291-15.049,17.3291-15.049Z"/>
    <path id="uuid-733d77e4-01d1-4abb-80c1-d0681cfd742a" data-name="Pfad 7050" class="uuid-46f50c2c-241d-45eb-81d6-55543a7c609b" d="m106.08099,0c-1.59198.62-1.87.336-4.32397,2.726-1.46924,1.42392-2.64417,3.1228-3.45801,5,.70343-1.95765,1.29437-3.95391,1.77002-5.979-1.8075,1.5976-3.93677,2.78875-6.24402,3.493,0,0,1.98297-1.958,3.59998-3.509-2.09119.86025-4.23724,1.58051-6.42401,2.156,0,0,1.98401-1.423,3-2.316-3.659-.5-7.612,3.4-7.612,3.4.69751-1.39851,1.51031-2.73647,2.42999-4-3.841,1.771-10.46997,3.912-10.46997,3.912,1.54077-.91822,3.00098-1.96529,4.36499-3.13-6.09998.144-12.32202,2.011-17.185,9.5-10.625,16.371,4.29999,29.252,4.29999,29.252-4.883-10.031,35.56598-15.489,40.16699-19.65,6.36102-5.74-.13898-18.105-3.91498-20.855Z"/>
  </g>
</svg>