<?xml version="1.0" encoding="UTF-8"?>
<svg id="uuid-bedc4eae-4cc3-4bbf-92ca-6e41092b77fb" data-name="Ebene 1" xmlns="http://www.w3.org/2000/svg" width="123" height="123" xmlns:xlink="http://www.w3.org/1999/xlink" viewBox="0 0 123 123">
  <defs>
    <style>
      .uuid-b8ed8dd7-c97b-4576-89f0-fd036925f059 {
        fill: none;
      }

      .uuid-c8998431-bca6-43b2-81d9-0a08e1e10780 {
        fill: #003d3d;
      }

      .uuid-7df87e8e-1b5b-4f78-8891-d1001b059a8a {
        clip-path: url(#uuid-49f764c7-bf60-49a7-a63d-a2e613f40e5d);
      }

      .uuid-506bcbe8-4e18-4311-8229-cfe485321fdc {
        clip-path: url(#uuid-8082e484-ac73-4caa-a501-74fb1472771f);
      }

      .uuid-8b071f59-088d-4495-b170-426a44c3469e {
        fill: url(#uuid-c2d455fb-1da0-49ae-aac3-aac82c34093c);
      }
    </style>
    <clipPath id="uuid-49f764c7-bf60-49a7-a63d-a2e613f40e5d">
      <rect class="uuid-b8ed8dd7-c97b-4576-89f0-fd036925f059" y="0" width="123" height="122.99836"/>
    </clipPath>
    <clipPath id="uuid-8082e484-ac73-4caa-a501-74fb1472771f">
      <path class="uuid-b8ed8dd7-c97b-4576-89f0-fd036925f059" d="m61.5,0v4.76413c31.31914.03751,56.69846,25.41796,56.73416,56.73669h0c-.03526,31.31772-25.41602,56.69631-56.73416,56.7293h0c-31.31795-.03344-56.69846-25.41178-56.73416-56.72931H0c.03841,33.94914,27.55041,61.46077,61.5,61.49918h0c33.94958-.03841,61.46159-27.55005,61.5-61.49918h0C122.96249,27.55104,95.45022.03841,61.5,0Z"/>
    </clipPath>
    <linearGradient id="uuid-c2d455fb-1da0-49ae-aac3-aac82c34093c" data-name="Unbenannter Verlauf" x1="-1173.50047" y1="1295.27086" x2="-1173.27579" y2="1295.33728" gradientTransform="translate(890566.88345 44053.13367) rotate(-45) scale(510.11797 -510.11797)" gradientUnits="userSpaceOnUse">
      <stop offset="0" stop-color="#84a214"/>
      <stop offset="1" stop-color="#a2c617"/>
    </linearGradient>
  </defs>
  <g id="uuid-1c611e0c-5e91-44ba-835d-7c6e6eb95f8c" data-name="Gruppe 8864">
    <g id="uuid-79f5c720-363a-459f-ab40-c9d2e5c8e0d0" data-name="Gruppe 8514">
      <g class="uuid-7df87e8e-1b5b-4f78-8891-d1001b059a8a">
        <g id="uuid-6eb5e9ca-0d6f-48ff-92d1-f7414d235591" data-name="Gruppe 8513">
          <g id="uuid-074b81a2-4b82-4e5d-9de9-2d0f97378f10" data-name="Gruppe 8510">
            <path id="uuid-b8f91d61-22bf-41ab-a613-f027e9d053ce" data-name="Pfad 10725" class="uuid-c8998431-bca6-43b2-81d9-0a08e1e10780" d="m32.85904,43.77593c.33662-.45889.23914-1.10353-.21812-1.44236-.17637-.1319-.39066-.20324-.6109-.20336-.05187.0007-.10365.00481-.15498.0123-.27138.04096-.51519.18854-.67732.40999-.86278,1.33662-1.53923,2.78468-2.01064,4.30412-.18555.53723.09767,1.12344.63386,1.31198.109.04003.22419.06057.3403.06068.43861.00035.82971-.27605.9758-.68961.40949-1.32352.98828-2.58857,1.722-3.76375"/>
          </g>
          <g id="uuid-a4715e17-de9f-4829-80a1-e49e96b0f74e" data-name="Gruppe 8511">
            <path id="uuid-0ca7577c-4869-4e4b-9237-586be2fa39ac" data-name="Pfad 10726" class="uuid-c8998431-bca6-43b2-81d9-0a08e1e10780" d="m106.99852,50.90738c-.51164-3.3203-3.6163-5.59849-6.9372-5.09049-2.76598.43119-4.66295,3.01727-4.2435,5.78502.35663,2.32775,2.53278,3.92566,4.86056,3.56903.00095-.00015.0019-.00029.00286-.00044.56309-.08664.94932-.61334.86268-1.17643-.00001-.00009-.00003-.00017-.00004-.00026-.08248-.55913-.60262-.94552-1.16176-.86304-.00444.00066-.00887.00134-.0133.00205-.57812.08702-1.16726-.05702-1.64-.40097-.47295-.3443-.78811-.86385-.87494-1.44236-.25159-1.64318.87534-3.17961,2.51822-3.43329,2.19359-.33224,4.24346,1.17014,4.58708,3.36196.43846,2.88413-1.53938,5.57928-4.42226,6.0261-3.74608.5743-7.24928-1.99453-7.82772-5.73992-.00764-.04422-.01861-.0878-.0328-.13038-1.91339-11.88096-10.7941-21.44017-22.50244-24.22166-.328-.082-.66994-.14432-.99794-.20992l-.164-.02952c-8.86584-1.5916-20.77634-.41819-21.279-.36653-.35752.04018-.7011.082-1.0414.13366-1.30978.19622-2.60519.47863-3.87778.84541l-.03608.01066-.03444-.01394c-1.98358-.78637-3.23736-1.26852-3.82694-1.47598l-.64042-.2255c-1.886-.67649-4.22956-1.52026-5.95648-.39359-1.64574,1.07091-1.46288,3.41361-1.09716,4.62884l.71832,3.29554-.04756.04346c-3.43845,2.92339-6.17109,6.58667-7.99336,10.71562-1.10946,2.47637-2.6609,2.47883-3.69,2.47883-.164,0-.33292,0-.4633.01394-.09512.00656-.164.00902-.1927.00902h-2.59858c-.5687.00135-1.02939.46203-1.03074,1.03073v10.2228c.00013.30621.13695.59637.3731.79129.23317.19912.54447.28095.84542.22222.20992-.02624,2.11232-.11972,4.25744,2.89538.68552.96513,1.16276,1.77937,2.00326,4.93962,2.91756,9.197,6.33696,11.19285,11.07,13.95785l.3403.19762c.164.09758.33538.19598.50348.29684l.05576.0328v.06396c-.06232,1.51862-.44936,5.36273-.7831,8.29255-.03403.29153.05886.58362.25502.80195.19507.21998.47515.34568.76916.34521h8.66248c.2155.00138.42581-.06614.60024-.1927l4.70516-3.36195-1.96144-1.13322-3.67442,2.62397h-7.1791l.01394-.11972c.28454-2.61741.74948-7.1421.63878-8.04081-.01979-.1602-.07803-.31324-.16974-.44607l-.2132-.123c-.27652-.15971-.53496-.34886-.7708-.56415-.01066-.00902-.01558-.0205-.02624-.02952l-.72406-.42721c-4.66006-2.7199-7.4702-4.36152-10.13274-12.75165-.84378-3.17418-1.394-4.28034-2.30502-5.56117-1.85156-2.60183-3.74412-3.43329-5.002-3.67109l-.08692-.01722v-8.21219h1.57604c.06068,0,.17712,0,.3485-.01722.07367-.00564.14762-.00647.22139-.00246h.06396c1.0865,0,3.92944-.00492,5.58338-3.70881,1.5327-3.45971,3.75093-6.57278,6.52064-9.15108l.1353-.12464.04346.17876c.328,1.35708.656,2.50835.69044,2.61413.15695.54578.72663.86099,1.27241.70404.00336-.00097.00672-.00195.01007-.00295.54646-.16147.85903-.73487.69864-1.28164-.07298-.246-.69618-2.40749-1.05862-4.32708l-.00492-.03608c.00028.01203.00337.02382.00902.03444l-.86756-3.97449c-.00642-.02998-.01464-.05956-.0246-.08856-.1804-.59367-.3608-1.94583.23616-2.33451.8692-.56415,2.67812.082,4.13608.60597l.164.0574c.16974.06068.33538.11972.5002.17712.5986.20828,2.02048.75849,4.10656,1.58832.2179.08532.45811.09514.68224.02788,1.29781-.39348,2.62263-.69166,3.96388-.89215.31734-.04674.64042-.08856.96022-.12464.12464-.01066,12.15158-1.18406,20.68204.34358l.082.01722c.3157.05904.656.12464.984.20172,12.08279,2.86196,20.77675,13.42622,21.26014,25.83376l-.082,2.68874c-.16008,2.6013-.69078,5.16642-1.57604,7.6177.54858.04346,1.10536.082,1.60884.15088.16974.02296.31406.06396.48052.0902.86384-2.50086,1.38463-5.10729,1.54816-7.74808v-.0246l.03608-1.20948.17712.17876c2.00805,2.03613,4.87187,2.98391,7.69816,2.54771,4.01154-.61561,6.76478-4.36621,6.15-8.37783"/>
          </g>
          <g id="uuid-2016d122-4314-4e66-b76c-b63afafacc6d" data-name="Gruppe 8512">
            <path id="uuid-0cd56892-98fe-4102-b9a9-9e28d333d20b" data-name="Pfad 10727" class="uuid-c8998431-bca6-43b2-81d9-0a08e1e10780" d="m86.87654,67.33914h-.2829c-.05444.01503-.11279.00281-.15662-.0328-.06305-.04738-.10323-.11911-.1107-.19762,0-.05412-.00492-.10578-.00656-.164v-.01886c.00065-.0737-.00761-.14722-.0246-.21894-.15172-.51829-.50138-.95601-.97334-1.2185-.01144-.0024-.0218-.00844-.02952-.01722l-.67076-.35834c-.08691-.04662-.13901-.13931-.13366-.2378.00643-.09855.0685-.1848.1599-.22222l.41984-.16974.01886-.01066c.31447-.12642.59258-.32902.80934-.58957.03854-.0451.082-.10086.12464-.164.0328-.05002.0656-.10578.09758-.164l.01066-.01886.01722-.02624c.51764-.99343.15276-2.21837-.8241-2.76664-.01135-.00159-.0218-.00711-.02952-.01558l-.38294-.20664c-.12365-.06648-.17-.22061-.10352-.34426.0283-.05264.07424-.09362.12976-.11575l.123-.04674c.00869-.00621.01804-.01144.02788-.01558.31364-.12514.59142-.32601.80852-.58465.03854-.04674.082-.10086.12464-.164s.0656-.10578.09758-.164l.01066-.01886.01722-.02214c.24929-.47638.30283-1.03124.14924-1.5465-.15174-.51869-.50134-.95693-.97334-1.22014-.0111-.00233-.02133-.00773-.02952-.01558l-13.7432-7.50126c-.01086-.00297-.02094-.00829-.02952-.01558-.29574-.15677-.62549-.23844-.96022-.2378-.07462,0-.14924.00492-.22386.01066s-.14022.0205-.2173.03444l-.01558.00492-.01558.00492c-.07827.01676-.15548.03811-.23124.06396l-31.42322,11.71437c-.32001.11802-.60611.31288-.83312.56743-.0328.03854-.06806.082-.10414.1271-.00583.01335-.01269.02624-.0205.03854-.03918.05238-.07506.10715-.10742.164-.00318.00702-.00674.01386-.01066.0205-.39416.68653-.35907,1.53839.0902,2.19019.08485.12551.1839.24079.2952.34358.11704.10728.24577.20108.38376.27962l.43214.246c.08581.05082.13442.14675.12464.246-.00874.09684-.07264.17991-.164.2132l-.082.0328c-.32024.11676-.60651.31117-.83312.56579-.0328.03854-.06806.082-.10414.1271-.00546.01353-.01233.02645-.0205.03854-.03879.05265-.07466.1074-.10742.164-.00492.01066-.00902.01886-.01066.02296-.39487.68578-.35977,1.53759.0902,2.18855.08442.12584.18351.24117.2952.34358.11704.10728.24577.20108.38376.27962l.71832.41491c.084.04976.13355.14193.12874.23944-.00817.09838-.07188.18343-.164.21894l-.3731.14022c-.31992.1174-.60603.31171-.83312.56579-.0328.03854-.06806.082-.10414.12874-.00591.01253-.01276.02459-.0205.03608-.03914.05241-.07501.10718-.10742.164-.0039.00665-.00746.01349-.01066.0205-.39416.68653-.35907,1.53839.0902,2.19019.08485.12551.1839.24079.2952.34358.1171.10675.24583.19999.38376.27798l.71832.41491c.084.04976.13355.14193.12874.23944-.00779.09853-.07163.18376-.164.21894l-.3731.14022c-.32001.11802-.60611.31288-.83312.56743-.0328.03608-.06806.082-.10414.1271-.00604.01374-.01375.02669-.02296.03854-.03923.05468-.07563.11133-.10906.16974h0v.00902l-.00656.00656c-.3937.68568-.35796,1.53665.09184,2.18691.08485.12551.1839.24079.2952.34358.11749.10674.24616.20049.38376.27962l11.42178,6.60583,2.0623,1.18898.72242.41655c.39917.27064.88035.39333,1.36038.34686.10086-.0123.19434-.02952.28946-.05002.09093-.021.18026-.0484.26732-.082.01746-.00957.03626-.01648.05576-.0205l1.2136-.49199c.07816-.03129.16678-.02144.23616.02624.07024.04684.11264.1255.11316.20992v7.74398c0,1.57438,1.38334,2.97984,3.89664,3.95891,4.66334,1.8171,11.972,1.8171,16.63452,0,2.51166-.97907,3.895-2.38289,3.89664-3.95563v-6.12614c.0007-.08003.03858-.15519.1025-.20336.04354-.03258.09649-.05014.15088-.05002.00817-.00099.01643-.00099.0246,0,.01571.00003.03137.00167.04674.00492.65251.18667,1.31468.33777,1.98358.45263,4.00566.73274,8.13178.43649,11.99168-.86099,2.28452-.89215,3.54404-2.16805,3.54404-3.59073v-11.37489c0-1.43334-1.2587-2.71252-3.54076-3.60303-1.28904-.47484-2.62843-.79977-3.99176-.96841-.69044-.09758-1.40958-.164-2.15414-.20336-.52234-.02788-1.04304-.0574-1.5867-.0574m-26.65656-13.04111l10.23688-3.81459c.06814-.02432.14346-.01804.20664.01722l13.4603,7.34136c.08721.04632.13943.13922.13366.2378-.00637.09769-.06776.18325-.15826.22058l-10.27542,4.16554c-.03156.01137-.06485.01719-.0984.01722-.04512-.00053-.08938-.01237-.12874-.03444l-13.4152-7.69396c-.0847-.04909-.1345-.14171-.12874-.23944.008-.09807.07188-.18271.164-.2173m-7.708,2.86996l5.14468-1.91385h0c.07022-.02534.14796-.01906.2132.01722l13.86456,7.90633c.07929.04519.12839.12931.12874.22058v.06396c.00053.0729-.03131.14228-.08692.18942-.0529.05092-.12696.07348-.19926.06068-2.69445-.33399-5.4228-.28153-8.10242.1558-.01283.0008-.02571.0008-.03854,0-.04457-.00074-.08825-.01257-.1271-.03444l-10.82892-6.20814c-.08392-.04965-.133-.1421-.1271-.23944.00817-.09838.07188-.18343.164-.21894m3.362,26.35363c0,.04182-.0451.05904-.06232.09348-.02788.05412-.03854.11808-.09758.14432l-2.10904.85361c-.03135.01109-.06433.01691-.09758.01722-.04221.00066-.08374-.01072-.11972-.0328l-1.59818-.92167-12.464-7.19212c-.08628-.05038-.13505-.14663-.12464-.246.01021-.09664.07347-.17951.164-.21484l2.0172-.74947c.07086-.02466.14882-.01841.21484.01722l10.742,6.20322c.4014.26761.88244.38946,1.36284.34522.09616-.01119.19168-.02734.28618-.04838.09164-.02233.18198-.04971.2706-.082.01675-.01106.03584-.01808.05576-.0205l1.2136-.49199c.07754-.03177.16592-.02188.23452.02624.07097.04636.11406.12515.1148.20992l-.00328,2.08933Zm0-4.74364c-.00085.10375-.06389.19684-.1599.23616l-2.10904.85935c-.03103.01244-.06415.01885-.09758.01886-.04785-.00127-.09452-.01513-.1353-.04018l-14.0466-8.11051c-.08692-.04977-.13592-.14647-.12464-.246.01025-.09624.07361-.1786.164-.2132l2.01884-.75111c.07049-.02451.14811-.01765.2132.01886l10.742,6.20322c.39991.27095.88216.3931,1.36284.34522.09619-.01172.19171-.02842.28618-.05002.10578-.02788.19926-.05576.26896-.082.01492-.00939.03126-.01631.04838-.0205l1.2218-.49199c.07858-.03219.16813-.02231.2378.02624.07057.04654.11308.12538.11316.20992l-.0041,2.08769Zm0-4.74364c-.00085.10375-.06389.19684-.1599.23616l-2.10904.85525c-.03103.01244-.06415.01885-.09758.01886-.04784-.0013-.0945-.01516-.1353-.04018l-14.0466-8.11051c-.08628-.05038-.13505-.14663-.12464-.246.01021-.09664.07347-.17951.164-.21484l1.72856-.64205c.07095-.02523.14937-.01835.21484.01886l11.02982,6.36968c.40104.26842.88237.39034,1.36284.34522.09922-.01394.19598-.02952.28618-.05002.09207-.02074.18251-.04814.2706-.082.01746-.00957.03626-.01648.05576-.0205l1.21524-.49199c.07859-.02951.1666-.01912.23616.02788.07138.04579.11415.12512.11316.20992l-.0041,1.81627Zm0-5.22087v.74947c-.00171.10347-.06446.19614-.1599.23616l-2.10904.85771c-.03135.01109-.06433.01691-.09758.01722-.04797-.00044-.09486-.01437-.1353-.04018l-14.0466-8.10887c-.08628-.05038-.13505-.14663-.12464-.246.01021-.09664.07347-.17951.164-.21484l10.58292-3.93841c.07039-.02398.14757-.01775.2132.01722l10.4509,5.99166c.08676.04993.1357.14651.12464.246-.01069.09903-.07787.18285-.1722.21484-.0574.01722-.1148.03608-.16974.05248l-.16974.05576c-.1599.04674-.31078.09348-.45674.14924-2.50838.97907-3.88926,2.38617-3.88926,3.96383m19.86614,27.35484c-2.45884.86634-5.05308,1.28486-7.65962,1.23572-2.6049.04861-5.19735-.37106-7.65388-1.239-1.24312-.48215-2.72158-1.2636-2.72158-2.24923-.00492-.54283,0-2.09343,0-2.96754-.00041-.0919.04881-.17686.12874-.22222.07969-.04667.17881-.04476.25666.00492.53474.32023,1.09638.59323,1.67854.81589,4.66334,1.8171,11.96708,1.8171,16.63288,0,.57776-.22145,1.13525-.49251,1.66624-.81015.0777-.05183.17896-.05183.25666,0,.08134.0433.13167.12844.13038.22058,0,1.11437,0,2.48211.00902,2.97,0,.98399-1.476,1.7597-2.71994,2.24267m2.15086-7.5275c-.64414.52007-1.37201.92684-2.1525,1.20292-1.05066.39202-2.13714.68039-3.24392.86099-1.45789.25122-2.93468.37659-4.41406.37474-2.60632.04782-5.20008-.37238-7.65798-1.24065-1.24312-.48215-2.72158-1.26524-2.72158-2.25087,0-.35915-.00492-1.15947,0-1.91467v-1.05861c0-.09136.0492-.17564.12874-.22058.07888-.0497.17975-.04777.25666.00492.53473.32024,1.09637.59323,1.67854.81589.44772.17548.9389.31734,1.43008.45837,1.94392.53076,3.94523.82292,5.95976.87001,1.04043.03952,2.08222.02337,3.12092-.04838,2.08927-.12927,4.14885-.56013,6.11474-1.27918.57776-.22145,1.13525-.49251,1.66624-.81015.07743-.05274.17923-.05274.25666,0,.08082.04303.13105.12738.13038.21894,0,1.11764,0,2.48539.00902,2.97656-.0348.41126-.24142.78877-.56908,1.03975m-2.14922-5.13149c-2.42437.85304-4.98079,1.26948-7.55056,1.22998-.03608,0-.0697.00492-.10578.00492-2.494.03676-4.97639-.34661-7.3431-1.13405-.10086-.03608-.2173-.06232-.31406-.10086-1.24066-.48461-2.71994-1.26852-2.71994-2.25087-.00492-.53627,0-2.05817,0-2.91752-.00041-.0919.04881-.17686.12874-.22222.07898-.04715.17791-.04524.25502.00492.53619.3186,1.09823.59152,1.68018.81589,4.66744,1.81546,11.972,1.8171,16.63452,0,.57735-.22051,1.13434-.49104,1.6646-.80851.07743-.05274.17923-.05274.25666,0,.08082.04303.13105.12738.13038.21894,0,1.09714,0,2.44029.00902,2.92244,0,.97579-1.48092,1.75806-2.72158,2.24267m2.72158-8.51969c0,.97907-1.476,1.7597-2.71994,2.24267-2.45939.86641-5.05418,1.28494-7.66126,1.23572-2.60452.05009-5.19698-.36647-7.6547-1.22998-1.24066-.48461-2.71994-1.26688-2.71994-2.24923,0-.56087-.00492-1.1611,0-1.94583v-.86427c-.00041-.0919.04881-.17686.12874-.22222.07911-.04885.17948-.04693.25666.00492.53399.3217,1.09509.59608,1.6769.81999,4.66334,1.8171,11.972,1.8171,16.63452,0,.58095-.22287,1.14078-.4973,1.6728-.81999.07824-.05036.1782-.05226.2583-.00492.07931.04598.1283.13055.12874.22222v.93889c-.00492.61581-.01066,1.24966.00492,1.87614m-2.71994-3.92037c-2.45882.86644-5.05307,1.28497-7.65962,1.23572-2.60862.04712-5.20447-.37505-7.66372-1.24638-.68224-.26568-2.75274-1.06599-2.7265-2.26481,0-.98399,1.48092-1.76708,2.72322-2.25087,4.21808-1.64572,11.09296-1.64736,15.3176,0,1.25624.49199,2.74946,1.28246,2.72486,2.26645-.03444,1.20292-1.91798,1.93681-2.72486,2.25087m1.94668-5.70958c-.0302.01235-.06249.01876-.09512.01886-.04035-.00095-.08003-.01046-.11644-.02788-.34952-.18808-.70862-.35778-1.07584-.50839-.26896-.10414-.574-.19434-.86264-.27962l-.29848-.09184c-.10228-.03033-.17407-.1222-.17876-.22878-.00277-.10672.06-.20427.15826-.246l6.77074-2.74204c.07023-.02684.14867-.02175.21484.01394l1.91306,1.04139c.08691.04662.13901.13931.13366.2378-.00689.09789-.068.1837-.15826.22222l-6.40502,2.59035Zm1.94012,1.66622h0c-.04846-.06256-.06457-.14431-.04346-.22058.02082-.07662.07592-.13929.14924-.16974l1.968-.79457c.0698-.02949.14943-.02433.21484.01394l2.14184,1.16602c.12362.06558.17067.21896.10509.34257-.03917.07384-.11224.1236-.19529.13302-1.1789.13273-2.34393.36842-3.48172.70437-.02317.00683-.04718.01042-.07134.01066-.11207.00181-.2112-.07236-.24108-.1804-.12114-.36418-.30636-.7038-.54694-1.00285m14.37952,18.58915c-2.25018.79366-4.62456,1.17694-7.01018,1.13159-1.42652-.00007-2.85002-.13128-4.25252-.39196-.68699-.12231-1.36543-.28857-2.03114-.49773-.082-.0246-.16974-.04346-.246-.07134-.10114-.0364-.16888-.13196-.16974-.23944v-3.49233c-.00062-.07989.0376-.15511.1025-.20172.0629-.04911.14545-.06525.22222-.04346.1353.04018.2829.06396.41984.10086.6714.17709,1.35155.31914,2.0377.42557,3.85844.63416,7.81348.31349,11.51936-.93397.5258-.20225,1.03332-.44915,1.517-.73799.07749-.05084.17727-.05275.25666-.00492.07955.04573.12864.13046.12874.22222,0,1.01023,0,2.22299.00902,2.66742,0,.90199-1.35874,1.6244-2.49936,2.06883m2.49526-7.80137c0,.90199-1.35874,1.6244-2.49936,2.06883-2.25102.79236-4.62585,1.17479-7.01182,1.12912-1.26977-.00023-2.53748-.10251-3.79086-.30586-.68713-.11108-1.36703-.26304-2.03606-.45509-.23452-.06806-.48462-.12464-.70438-.20172-.10114-.0364-.16888-.13196-.16974-.23944v-3.38983c-.00062-.07989.0376-.15511.1025-.20172.06402-.04659.14536-.06249.22222-.04346.38704.1148.80032.20336,1.21114.29356.83324.18533,1.67652.32222,2.5256.40999,3.45379.39154,6.95144.01091,10.24016-1.11437.52848-.20232,1.03782-.4515,1.52192-.74455.07908-.0475.17746-.04938.2583-.00492.08031.04519.13011.13007.13038.22222,0,.28481-.00164.57126-.00492.85935-.00492.55923-.00902,1.13896.00492,1.71296m-2.49936-7.72758c1.1562.44935,2.52724,1.17668,2.50428,2.09179-.03116,1.11436-1.76546,1.78922-2.50428,2.07539-2.25147.79303-4.62682,1.17628-7.01346,1.13158-.40426,0-.80032-.02296-1.19802-.04182-.85685-.03776-1.71096-.1229-2.5584-.25502-.94156-.14285-1.8693-.36532-2.77324-.66501-.10114-.0364-.16888-.13196-.16974-.23944v-4.02861c.00099-.1082.06994-.20407.1722-.23944,2.33018-.72527,4.76784-1.04398,7.20616-.94217.76178.01886,1.51044.082,2.24434.1681,1.3978.14526,2.77237.46226,4.09262.94381"/>
          </g>
        </g>
      </g>
      <g class="uuid-506bcbe8-4e18-4311-8229-cfe485321fdc">
        <g id="uuid-64d7d898-3646-49cd-9b65-525723e46a08" data-name="Gruppe 5660">
          <g id="uuid-20720637-230f-4c1c-b98f-136a8e609ac3" data-name="Gruppe 5659">
            <path id="uuid-8b8930af-88af-4aa3-bc26-49302f25e551" data-name="Pfad 7877" class="uuid-8b071f59-088d-4495-b170-426a44c3469e" d="m-101.72079.0012l319.89955.00058v271.65718l-319.89955.00058V.0012Z"/>
          </g>
        </g>
      </g>
    </g>
  </g>
</svg>