<svg id="Gruppe_8475" data-name="Gruppe 8475" xmlns="http://www.w3.org/2000/svg" xmlns:xlink="http://www.w3.org/1999/xlink" width="604.34" height="510.662" viewBox="0 0 604.34 510.662">
  <defs>
    <clipPath id="clip-path">
      <rect id="Rechteck_1827" data-name="Rechteck 1827" width="604.34" height="510.662"/>
    </clipPath>
  </defs>
  <g id="Gruppe_8410" data-name="Gruppe 8410" clip-path="url(#clip-path)">
    <path id="Pfad_10631" data-name="Pfad 10631" d="M408.95,359.9s-13.7,1.014-16.571,12.682c-2.705,11.836-5.749,28.408-3.044,37.031s2.2,20.291,3.72,24.857a22.058,22.058,0,0,0,5.073,7.947l-10.484,3.044-5.073-18.431-.507,15.049-15.388-3.044,4.4-9.469a20.836,20.836,0,0,1-8.793,7.947l-5.58-6.764s11.5,2.367,16.571-22.32,8.455-37.708,15.557-44.979a23.255,23.255,0,0,1,21.982-6.933Z" transform="translate(-122.337 222.459)" fill="#a0904b"/>
  </g>
  <g id="Gruppe_8411" data-name="Gruppe 8411" clip-path="url(#clip-path)">
    <path id="Pfad_10632" data-name="Pfad 10632" d="M358.767,461.666c-3.72-13.189,15.726-29.422,17.417-29.591L362.657,419.9s-14.542,4.9-19.615,19.277c-5.242,14.373-1.86,28.239,5.242,39.737a93.065,93.065,0,0,1,6.425,13.02l10.484.676c-1.691-7.44-2.705-17.417-6.426-30.944" transform="translate(-133.535 266.619)" fill="#faa05f"/>
  </g>
  <g id="Gruppe_8412" data-name="Gruppe 8412" clip-path="url(#clip-path)">
    <path id="Pfad_10633" data-name="Pfad 10633" d="M390.6,464.269c8.624-7.778,8.285-48.7,3.213-53.1-4.9-4.566-30.437-33.142-33.142-34.326-8.285-3.551-26.548,74.908-35.171,94.692,14.711,7.1,29.76,5.918,44.471,12.175,8.793-8.624,16.909-16.064,20.629-19.446" transform="translate(-143.894 236.792)" fill="#d04c72"/>
  </g>
  <g id="Gruppe_8413" data-name="Gruppe 8413" clip-path="url(#clip-path)">
    <path id="Pfad_10634" data-name="Pfad 10634" d="M395.279,406.3c-8.116,7.271-36.862,40.413-36.862,40.413-2.875-1.353-53.6,18.769-62.565,39.061-10.484,23.5.507,150.155.507,157.933,0,7.609,7.271,113.631,7.271,113.631l23.842,5.073s4.4-125.467,6.595-136.289S351.652,513,361.291,498.287c4.058-6.087,12.344-15.219,21.306-24.18,0,0,14.2-13.528,25.871-21.137,16.74-10.653,12.344-31.959,12.344-33.311.169-3.72-25.533-13.358-25.533-13.358" transform="translate(-167.51 257.223)" fill="#593960"/>
  </g>
  <g id="Gruppe_8414" data-name="Gruppe 8414" clip-path="url(#clip-path)">
    <path id="Pfad_10635" data-name="Pfad 10635" d="M387.081,392.135s-10.822,13.358-13.7,21.982a14.886,14.886,0,0,0-.676,3.382c0,7.778-7.778,7.947-11.16.845S353.6,394.5,353.6,394.5l30.1-25.7Z" transform="translate(-124.479 231.312)" fill="#fcb477"/>
  </g>
  <g id="Gruppe_8415" data-name="Gruppe 8415" clip-path="url(#clip-path)">
    <path id="Pfad_10636" data-name="Pfad 10636" d="M374.553,368.8l-7.44,6.426a45.486,45.486,0,0,0,5.749,23.673c2.706-3.889,5.073-6.595,5.073-6.595Z" transform="translate(-115.163 231.312)" fill="#faa05f"/>
  </g>
  <g id="Gruppe_8416" data-name="Gruppe 8416" clip-path="url(#clip-path)">
    <path id="Pfad_10637" data-name="Pfad 10637" d="M349,378l8.116,6.256s8.962,33.142,8.962,43.964c0,9.807-9.469,17.248-9.469,17.248L354.242,431.6l1.015-5.58Z" transform="translate(-127.657 237.669)" fill="#593960"/>
  </g>
  <g id="Gruppe_8417" data-name="Gruppe 8417" clip-path="url(#clip-path)">
    <path id="Pfad_10638" data-name="Pfad 10638" d="M417.938,357.286s8.286,8.455,4.4,16.74c-2.367,5.073-7.609,11.667-11.5,17.586-2.536,4.058-5.749,4.565-4.735,10.822,0,0,.507,3.213.507,3.551,0,.507-4.227,1.184-6.426-.676,0,0-2.367.338-2.367,2.029,0,1.522-2.706,1.522-2.706,1.522s-.846,1.522-1.691,1.522-2.875.338-6.087,3.213c-2.875,2.536-3.382,3.889-10.484-5.073S364.674,387.892,369.07,372c4.566-16.064,38.046-22.151,48.868-14.711" transform="translate(-114.923 221.183)" fill="#fcb477"/>
  </g>
  <g id="Gruppe_8418" data-name="Gruppe 8418" clip-path="url(#clip-path)">
    <path id="Pfad_10639" data-name="Pfad 10639" d="M400.081,358.04s-30.268-2.2-39.23,14.2c-2.2,3.889-12.006,10.653-13.358,21.137-2.367,18.262-2.875,42.273,14.2,60.7h11.16L370.49,442.08l7.271,12.006,7.1-1.184s-11.5-19.108-10.484-28.915c0,0,5.749,21.982,14.373,25.026l9.807-2.2s-23.166-9.131-20.629-31.621c1.522-13.527,2.536-39.568,11.667-47.853,6.087-5.58,12.175-5.918,12.175-5.918Z" transform="translate(-129.532 223.81)" fill="#ceb969"/>
  </g>
  <g id="Gruppe_8419" data-name="Gruppe 8419" clip-path="url(#clip-path)">
    <path id="Pfad_10640" data-name="Pfad 10640" d="M370.611,475c-8.793-11.329-38.384-55.125-38.046-56.815-9.638-4.566-12.513-4.566-23.842-2.706-1.184,3.72-1.86,6.764-1.353,8.624,2.2,10.315,37.877,45.148,48.868,55.124s10.315,25.533,14.88,26.548,5.58-1.86,5.58-1.86,1.691,1.014,3.889-1.015,4.227-1.184,5.749-2.536,1.522-1.015,1.522-2.875c0-3.889-8.455-11.16-17.247-22.489" transform="translate(-156.538 262.757)" fill="#fcb477"/>
  </g>
  <g id="Gruppe_8420" data-name="Gruppe 8420" clip-path="url(#clip-path)">
    <path id="Pfad_10641" data-name="Pfad 10641" d="M375.266,401.593a36.449,36.449,0,0,0-.845-24.349s-5.242-4.735-23.335,5.58c-14.88,8.455-39.737,41.6-45.486,58.844,10.991.507,26.04,2.706,35.51,7.271,3.889-17.417,30.268-35.171,34.157-47.346" transform="translate(-157.643 236.397)" fill="#ed9ab2"/>
  </g>
  <g id="Gruppe_8421" data-name="Gruppe 8421" clip-path="url(#clip-path)">
    <path id="Pfad_10642" data-name="Pfad 10642" d="M394.409,355.286s-52.25,12.006-51.4,28.408c.846,16.571,43.626,13.189,76.938,6.426s51.742-16.909,60.7-26.04c2.706-2.705,4.735-6.425,1.86-9.807-1.353-1.691-3.551-2.536-5.58-3.382-13.189-4.735-27.9-2.029-41.6-.507-10.315,1.184-20.629,2.367-30.775,3.72-3.213.338-6.764.507-10.146,1.184" transform="translate(-131.807 217.095)" fill="#ea7506"/>
  </g>
  <g id="Gruppe_8422" data-name="Gruppe 8422" clip-path="url(#clip-path)">
    <path id="Pfad_10643" data-name="Pfad 10643" d="M424.807,364.838c2.875-5.073-4.4-15.557-12.344-19.615-7.778-4.058-33.819,2.2-40.582,9.469-6.933,7.271-10.653,17.755-6.595,22.151,10.146,10.315,51.066,2.367,59.521-12.006" transform="translate(-117.565 214.138)" fill="#f58b2a"/>
  </g>
  <g id="Gruppe_8423" data-name="Gruppe 8423" clip-path="url(#clip-path)">
    <path id="Pfad_10644" data-name="Pfad 10644" d="M423.628,351.2l-.169.338c-8.793,14.542-46.839,24.18-59.859,16.571a5.844,5.844,0,0,0,1.691,3.551c9.976,10.315,51.066,2.536,59.521-12.006,1.353-2.029.676-5.242-1.184-8.455" transform="translate(-117.569 219.152)" fill="#00443b"/>
  </g>
  <g id="Gruppe_8424" data-name="Gruppe 8424" clip-path="url(#clip-path)">
    <path id="Pfad_10645" data-name="Pfad 10645" d="M265,61.906c.169-.338,0-1.184.338-1.522a4.486,4.486,0,0,1,1.015-.845,1.235,1.235,0,0,1,1.691.676l-.169-.507a1.908,1.908,0,0,1,.507-1.86A3.033,3.033,0,0,1,269.568,57a1.385,1.385,0,0,1,1.691.676,1.712,1.712,0,0,1,.676-1.184,2.726,2.726,0,0,1,1.184-.676c.507-.169,1.015.169,1.522.507h0c1.86,2.029,2.367,4.4,3.72,6.256a7.5,7.5,0,0,1,.845,1.015c.845.845,2.2,0,2.706-1.015a6.182,6.182,0,0,1,1.86-2.536c.338-.338,1.015-.676,1.184-.507.676.169.676,0,1.184.676.676.676.507,1.184,0,2.029-.338.676-.845,1.86-1.353,2.875-.846,2.2-3.044,4.9-3.551,7.271-.507,2.705,19.277,41.259,27.562,54.279l-16.4,8.793s-17.417-46.5-20.968-56.139a26.011,26.011,0,0,0-1.353-3.213c-2.029-4.227-5.242-12.682-5.073-14.2" transform="translate(-185.698 15.032)" fill="#fcb477"/>
  </g>
  <g id="Gruppe_8425" data-name="Gruppe 8425" clip-path="url(#clip-path)">
    <path id="Pfad_10646" data-name="Pfad 10646" d="M270.3,63.1Z" transform="translate(-182.033 20.094)" fill="#fcb477"/>
  </g>
  <g id="Gruppe_8426" data-name="Gruppe 8426" clip-path="url(#clip-path)">
    <path id="Pfad_10647" data-name="Pfad 10647" d="M261.5,169.037s15.726,2.367,21.306,10.484c6.595,9.807,4.9,18.938,10.315,28.577,6.933,12.006,23.842,16.064,30.1,23.335,24.519,27.9,59.859,16.74,59.859,16.74L373.1,221.625l-9.469-61.55-.845-20.291L342.5,125.58s-39.4-2.367-50.9,3.889c-8.286,4.227-30.1,39.568-30.1,39.568" transform="translate(-188.113 62.96)" fill="#507f38"/>
  </g>
  <g id="Gruppe_8427" data-name="Gruppe 8427" clip-path="url(#clip-path)">
    <path id="Pfad_10648" data-name="Pfad 10648" d="M280.794,107.2c17.078,34.326,24.688,39.737,33.988,52.588,4.9.507,14.035-15.895,14.035-15.895L300.239,97.9c0-.169-22.151,3.889-19.446,9.3" transform="translate(-174.941 44.136)" fill="#7aae62"/>
  </g>
  <g id="Gruppe_8428" data-name="Gruppe 8428" clip-path="url(#clip-path)">
    <path id="Pfad_10649" data-name="Pfad 10649" d="M300.165,90.916c-7.271,1.86-14.542,5.918-23.5,10.315-3.382,1.691,3.889,13.02,6.087,13.527,6.426-.845,23.673-11.667,23.673-11.667s-2.875-13.02-6.256-12.175" transform="translate(-178.248 39.286)" fill="#507f38"/>
  </g>
  <g id="Gruppe_8429" data-name="Gruppe 8429" clip-path="url(#clip-path)">
    <path id="Pfad_10650" data-name="Pfad 10650" d="M376.089,152.826l-2.029,11.837a26.269,26.269,0,0,0-1.353,7.271c-.169,2.706,2.2,5.58,3.551,6.933.338.338,0,1.015-.507,1.015a7.554,7.554,0,0,1-6.764-4.566c-2.536,4.4-.338,7.947,1.353,9.807.338.338,0,1.184-.507,1.015-3.551-.507-11.16-2.875-14.373-14.035-1.522-5.242-15.726-2.367-18.939-10.484-3.382-8.962-8.793-8.286-11.16-10.315-2.2-1.86-5.073-1.353-6.595-3.889-1.015-1.86-1.86-5.073-4.9-4.9-6.087.338-4.4-5.411-7.778-4.735-5.411,1.184-6.764,7.947-6.933,6.595-2.875-13.866,2.029-18.6,6.256-22.151C312,116.471,332.463,99.9,332.463,99.9l11.329,4.735,17.417,6.256,5.411,20.8Z" transform="translate(-162.693 45.52)" fill="#5b3f00"/>
  </g>
  <g id="Gruppe_8430" data-name="Gruppe 8430" clip-path="url(#clip-path)">
    <path id="Pfad_10651" data-name="Pfad 10651" d="M328.157,119.576c-1.86,3.044-1.353,6.764,1.184,8.286s6.087.338,7.947-2.705,1.353-6.764-1.184-8.286-6.087-.338-7.947,2.705" transform="translate(-142.83 56.788)" fill="#faa05f"/>
  </g>
  <g id="Gruppe_8431" data-name="Gruppe 8431" clip-path="url(#clip-path)">
    <path id="Pfad_10652" data-name="Pfad 10652" d="M336.3,127.184l-5.58,26.886-24.519-7.1L326.829,116.7Z" transform="translate(-157.229 57.128)" fill="#fcb477"/>
  </g>
  <g id="Gruppe_8432" data-name="Gruppe 8432" clip-path="url(#clip-path)">
    <path id="Pfad_10653" data-name="Pfad 10653" d="M324.965,215.951s24.181-46.839,38.215-64.763c-1.015-5.58-17.755-13.7-17.755-13.7s-8.116,3.382-12.682,1.015c-7.1-3.72-7.271-8.962-7.271-8.962s-4.4-1.86-6.426-1.184c-9.131,2.367-21.982,10.315-27.731,30.944-6.256,23-2.706,55.124-2.706,55.124l14.88,26.04Z" transform="translate(-170.076 65.082)" fill="#f3f3fc"/>
  </g>
  <g id="Gruppe_8433" data-name="Gruppe 8433" clip-path="url(#clip-path)">
    <path id="Pfad_10654" data-name="Pfad 10654" d="M261.5,173.147s20.291-27.393,33.142-32.128c21.644-8.116,25.533,9.3,49.037-5.242,2.2-3.213,2.875-4.4,2.875-4.4S331,118.7,320.514,119.206c-6.933.338-20.968,5.749-26.379,9.807-9.976,7.778-32.635,44.133-32.635,44.133" transform="translate(-188.113 58.849)" fill="#7aae62"/>
  </g>
  <g id="Gruppe_8434" data-name="Gruppe 8434" clip-path="url(#clip-path)">
    <path id="Pfad_10655" data-name="Pfad 10655" d="M380.438,206.592c1.86,2.536-15.218,4.566-20.8,2.536-6.256-2.2-3.889-5.411-10.822-4.227-3.889.676,4.4-6.764,6.764-4.058,8.116,9.131,21.982,2.029,24.857,5.749" transform="translate(-128.489 114.854)" fill="#faa05f"/>
  </g>
  <g id="Gruppe_8435" data-name="Gruppe 8435" clip-path="url(#clip-path)">
    <path id="Pfad_10656" data-name="Pfad 10656" d="M340.447,181.327c2.367-1.353,4.735-2.875,7.1-4.227,5.749,14.542,14.711,36.186,21.813,43.288,3.889,3.889,18.6,8.962,18.6,8.962a1.432,1.432,0,0,1-.676,2.706h-3.551c-6.425-.676-19.107-4.566-24.349-8.962-9.131-7.609-19.953-25.871-26.886-38.891,2.705-.845,5.242-1.86,7.947-2.875" transform="translate(-139.057 98.86)" fill="#fcb477"/>
  </g>
  <g id="Gruppe_8436" data-name="Gruppe 8436" clip-path="url(#clip-path)">
    <path id="Pfad_10657" data-name="Pfad 10657" d="M313.2,129.551l8.624-12.851,9.469,10.315-2.2,10.315c-.507.169-.845.169-1.353.338-7.609,1.522-12.513-2.367-14.542-8.116" transform="translate(-152.392 57.128)" fill="#faa05f"/>
  </g>
  <g id="Gruppe_8437" data-name="Gruppe 8437" clip-path="url(#clip-path)">
    <path id="Pfad_10658" data-name="Pfad 10658" d="M311.69,112.175c-1.522,3.213-.507,6.933,2.2,8.117s6.087-.507,7.609-3.72.507-6.933-2.2-8.117c-2.875-1.184-6.256.507-7.609,3.72" transform="translate(-153.926 51.17)" fill="#faa05f"/>
  </g>
  <g id="Gruppe_8438" data-name="Gruppe 8438" clip-path="url(#clip-path)">
    <path id="Pfad_10659" data-name="Pfad 10659" d="M349.849,122.935c4.735-10.653-8.116-23.842-18.938-21.306-9.807,2.2-17.078,18.093-18.6,27.055-1.522,9.807,3.382,19.784,14.542,17.248,10.653-2.367,18.769-13.528,23-23" transform="translate(-153.194 46.496)" fill="#fcb477"/>
  </g>
  <g id="Gruppe_8439" data-name="Gruppe 8439" clip-path="url(#clip-path)">
    <path id="Pfad_10660" data-name="Pfad 10660" d="M355.506,164.34s5.58-5.073,4.735-14.711c-.338-4.735-6.764-12.682-8.286-17.417-1.522-5.242,3.889-14.542-3.213-25.026-2.875-4.227-11.837-7.271-16.571-6.764-3.889.507-7.271,4.058-7.271,4.058l6.595,4.735c4.735,3.382,8.455,8.624,7.1,14.88-1.015,4.566-3.044,8.455-.338,12.851,3.889,6.426,12.006,8.286,16.064,13.7,2.875,3.889,1.184,13.7,1.184,13.7" transform="translate(-144.308 45.843)" fill="#8e6005"/>
  </g>
  <g id="Gruppe_8440" data-name="Gruppe 8440" clip-path="url(#clip-path)">
    <path id="Pfad_10661" data-name="Pfad 10661" d="M348.923,111.619a9.167,9.167,0,0,0-2.536-10.484c-3.044-2.2-6.933-2.875-10.653-3.213-10.991-.845-14.373,8.286-19.615,12.851-2.874,2.536-5.242,1.691-8.455,4.566-1.86,1.691-6.764,10.484-6.764,10.484s5.073-4.4,8.962-4.566c5.242-.338,6.087,1.015,9.977-.338,3.551-1.353,6.087-4.227,8.793-6.933,2.367-2.2,4.566-4.227,7.947-4.9a15,15,0,0,1,12.344,2.536" transform="translate(-160.891 44.116)" fill="#8e6005"/>
  </g>
  <g id="Gruppe_8441" data-name="Gruppe 8441" clip-path="url(#clip-path)">
    <path id="Pfad_10662" data-name="Pfad 10662" d="M324.679,133.7c12.175,3.551,21.982,13.358,24.35,23.335,1.86,7.609,2.875,20.629,5.58,33.65,3.72,10.484,16.064,38.215,16.064,38.215s-13.866,9.131-18.093,7.609c-9.807-22.151-15.388-28.915-20.46-51.066-2.029,17.078,12.175,56.815,12.175,56.815s-5.58-13.528-8.116-17.755c-3.382-5.918-11.837-15.218-14.711-21.644-2.875-6.256-4.735-19.953-3.382-26.717,1.015-4.9,6.087-12.513,7.44-17.586,2.367-8.286,1.86-16.064-.845-24.857" transform="translate(-149.329 68.874)" fill="#7aae62"/>
  </g>
  <g id="Gruppe_8442" data-name="Gruppe 8442" clip-path="url(#clip-path)">
    <path id="Pfad_10663" data-name="Pfad 10663" d="M342.573,206.522c6.425-.169,11.837-3.889,19.277-7.778,2.705-1.353-3.213-11.837-5.242-12.344-6.257,1.522-16.064,4.9-20.122,9.131-1.353,1.522,4.227,10.991,6.087,10.991" transform="translate(-136.448 105.286)" fill="#507f38"/>
  </g>
  <g id="Gruppe_8443" data-name="Gruppe 8443" clip-path="url(#clip-path)">
    <path id="Pfad_10664" data-name="Pfad 10664" d="M325.555,159.631a41.244,41.244,0,0,0-1.015-24.688h0l.676-3.044a15.731,15.731,0,0,1,5.749,5.242c2.029,4.4,2.706,9.977,4.227,16.909a.951.951,0,0,1-1.015,1.184,58.483,58.483,0,0,0-5.918-.338l5.411,6.595c.338.338.169.845,0,1.184-2.536,2.536-13.02,14.373-11.329,42.273v.169a7.368,7.368,0,0,0-.676-1.184c-2.875-6.256-4.734-19.953-3.382-26.717.676-4.9,5.918-12.682,7.271-17.586" transform="translate(-149.191 67.63)" fill="#507f38"/>
  </g>
  <g id="Gruppe_8444" data-name="Gruppe 8444" clip-path="url(#clip-path)">
    <path id="Pfad_10665" data-name="Pfad 10665" d="M305.917,129.876c.676-2.029,4.4,1.522,8.455,1.353-.169-1.353-1.522-2.2-2.706-2.706a.479.479,0,0,1,0-.845l11.5-2.875c4.058-1.353,5.749.338,5.58,1.691l-3.889,5.918h0c-18.093,11.16-24.519,3.382-36.355,3.044,0-.338,15.726.338,17.417-5.58" transform="translate(-169.458 62.383)" fill="#507f38"/>
  </g>
  <g id="Gruppe_8445" data-name="Gruppe 8445" clip-path="url(#clip-path)">
    <path id="Pfad_10666" data-name="Pfad 10666" d="M311.56,260.771c-.845-5.58-1.522-10.991-1.86-16.571,28.408,3.72,58.506,6.426,66.116,2.367l6.595-1.184s14.542,13.7,14.88,14.2-1.353,9.977-1.353,9.977l-2.875-1.691-.507-.507-.507-.676a11.812,11.812,0,0,0-10.653-5.58c-7.1.845-38.553,4.9-68.652,6.933-.338-2.536-.846-4.9-1.184-7.271" transform="translate(-154.81 145.222)" fill="#fcb477"/>
  </g>
  <g id="Gruppe_8446" data-name="Gruppe 8446" clip-path="url(#clip-path)">
    <path id="Pfad_10667" data-name="Pfad 10667" d="M372.642,260.114a4.64,4.64,0,0,1,1.691,3.044l.507,10.991a5.639,5.639,0,0,1-1.353,4.058c-.169.338-.676.507-1.015.845-.845.507-2.875.338-3.213-.676-1.353-3.044-4.058-9.131-3.72-9.977h0a7.152,7.152,0,0,0-1.015-8.793l-3.72-3.72a37.088,37.088,0,0,0-6.595-4.9L348.8,247.77l1.184-2.029a7.271,7.271,0,0,1,9.469-3.044l2.2,1.015,2.706,1.184,9.807,1.184v1.691l-10.653.507c-.338,0-.507.338-.507.676v.507a2.715,2.715,0,0,0,.846,1.86Z" transform="translate(-127.795 143.681)" fill="#9f230b"/>
  </g>
  <g id="Gruppe_8447" data-name="Gruppe 8447" clip-path="url(#clip-path)">
    <path id="Pfad_10668" data-name="Pfad 10668" d="M272.158,263.7c4.735-3.044,14.2,2.2,19.108-.507,8.116,27.393,13.02,48.192,19.953,53.264l3.889,5.58s-6.764,18.769-6.933,19.277-9.638,2.875-9.638,2.875l.338-3.213.169-.676.507-.676a11.408,11.408,0,0,0,.676-12.006c-3.551-6.256-18.093-29.591-32.128-56.139,2.2-1.522,2.2-6.595,4.058-7.778" transform="translate(-183.553 158.017)" fill="#fcb477"/>
  </g>
  <g id="Gruppe_8448" data-name="Gruppe 8448" clip-path="url(#clip-path)">
    <path id="Pfad_10669" data-name="Pfad 10669" d="M300.321,321.317a4.637,4.637,0,0,1-2.2,2.875l-9.807,4.9a5.3,5.3,0,0,1-4.227.338,4.238,4.238,0,0,1-1.184-.676c-.845-.507-1.353-2.536-.676-3.213,2.2-2.536,6.764-7.44,7.609-7.44h0a6.949,6.949,0,0,0,7.609-4.4l1.86-4.9a31.991,31.991,0,0,0,1.86-7.947l.845-6.257,2.367.338a7.229,7.229,0,0,1,6.595,7.44l-.169,2.367v2.875l2.875,9.638-1.522.676-4.735-9.638c-.169-.338-.507-.338-.846-.169l-.507.169a2.4,2.4,0,0,0-1.353,1.522Z" transform="translate(-174.008 180.045)" fill="#9f230b"/>
  </g>
  <g id="Gruppe_8449" data-name="Gruppe 8449" clip-path="url(#clip-path)">
    <path id="Pfad_10670" data-name="Pfad 10670" d="M306.994,178.6c5.411,5.58,26.379,7.778,36.862,2.875,7.271,10.315,13.527,16.909,14.373,38.891,1.015,27.055-25.533,67.3-25.533,67.3a203.662,203.662,0,0,1,39.906,3.551c3.889,6.595,6.256,12.175,1.015,21.475-39.4,2.875-57.83,6.426-67.3-8.455-5.58-8.793,5.073-37.708,10.146-56.308a.813.813,0,0,0-1.522-.507l-27.224,39.23s16.4,27.055,19.615,61.55c-3.551,9.3-14.2,12.851-20.291,10.822-14.035-28.746-28.915-61.381-26.21-79.643,3.551-23,43.964-92.494,46.162-100.78" transform="translate(-188.797 99.897)" fill="#aeaeae"/>
  </g>
  <g id="Gruppe_8450" data-name="Gruppe 8450" clip-path="url(#clip-path)">
    <path id="Pfad_10671" data-name="Pfad 10671" d="M442.7,70.648a18.109,18.109,0,0,0-.845,8.962,6.75,6.75,0,0,0,.676,2.2,14.958,14.958,0,0,0,3.044,4.227c1.184,1.353,2.2,2.705,3.382,4.058.676.676,7.609,7.778,7.609,7.778-2.367,2.875-5.918,7.44-8.962,9.638-.169,0-8.455-9.807-9.3-10.653A46.3,46.3,0,0,0,429,88.91c-2.367-1.353-9.131-7.271-10.822-9.638a13.55,13.55,0,0,0-3.213-3.044c-1.353-1.184-3.72-3.213-5.073-4.4a8.134,8.134,0,0,1-1.522-1.86,1.746,1.746,0,0,1,.338-2.029c.845-.676,2.029.169,2.875.845,2.2,1.691,3.889,2.875,5.918,4.735a.835.835,0,0,0,1.184.169c.169-.169.338-.338.338-.507a1.92,1.92,0,0,0-.507-1.353c-2.536-2.875-6.087-7.271-8.624-10.146a2.773,2.773,0,0,1-1.015-2.367,1.678,1.678,0,0,1,2.2-.845c.846.169,2.367,2.536,2.875,3.213,1.353,1.353,2.875,2.705,4.227,4.227l2.029,2.029c.507.507,1.015,1.353,1.86,1.184.338,0,.845-.338.845-.676.169-.507-.169-1.015-.507-1.522-2.705-3.213-6.087-8.286-8.624-11.667-.507-.845-1.184-1.86-.676-2.705.338-.676,1.522-.845,2.367-.507a4.5,4.5,0,0,1,1.86,1.691l8.624,11.5c.169.169.338.338.507.338.676.338,1.014-.169,1.014-.676a6.667,6.667,0,0,0-.845-2.367c-.338-.845-.846-1.86-1.184-2.705a37.039,37.039,0,0,1-2.029-5.58c-.338-1.015-.845-2.367.169-3.044a1.829,1.829,0,0,1,2.2.338,7.993,7.993,0,0,1,1.184,2.029l3.044,7.609a43.088,43.088,0,0,0,2.2,4.9,14.778,14.778,0,0,0,2.536,4.058,1.424,1.424,0,0,0,2.367-.169c1.522-2.029,2.536-5.918,3.213-8.455.338-.845,1.015-1.86,1.86-1.691,2.874.338,1.691,7.271.507,10.822" transform="translate(-86.756 11.7)" fill="#fcb477"/>
  </g>
  <g id="Gruppe_8451" data-name="Gruppe 8451" clip-path="url(#clip-path)">
    <path id="Pfad_10672" data-name="Pfad 10672" d="M545.781,192.231c.338,3.382-18.431,2.875-36.862,4.566s-36.355,3.889-36.017.507c.338-2.2,19.446-17.248,37.877-18.938s34.664,10.484,35,13.866" transform="translate(-42.052 99.624)" fill="#ee7318"/>
  </g>
  <g id="Gruppe_8452" data-name="Gruppe 8452" clip-path="url(#clip-path)">
    <path id="Pfad_10673" data-name="Pfad 10673" d="M449.873,229.781a14.469,14.469,0,0,0,7.778,1.691c3.551-.169,13.02-.507,18.431.676a2.215,2.215,0,0,0,2.2-.676c4.227-4.227,9.131-3.213,10.991-2.029.846.507,1.691-.169,1.691-1.184,0-.338-.169-.507-.169-.845-.169-.338-1.353-7.1-2.2-11.667a3.692,3.692,0,0,0-4.735-2.874l-35.848,12.175c-.169.338.338,3.889,1.86,4.735" transform="translate(-59.267 123.455)" fill="#1c1c1a"/>
  </g>
  <g id="Gruppe_8453" data-name="Gruppe 8453" clip-path="url(#clip-path)">
    <path id="Pfad_10674" data-name="Pfad 10674" d="M482.318,225.205c35.509,3.551,54.448,33.481,54.448,33.481l-2.2,23L476.4,238.9c0-.169.845-14.2,5.918-13.7" transform="translate(-39.632 132.089)" fill="#b29e5d"/>
  </g>
  <g id="Gruppe_8454" data-name="Gruppe 8454" clip-path="url(#clip-path)">
    <path id="Pfad_10675" data-name="Pfad 10675" d="M491.208,193.777c1.691,21.137,3.889,42.1,8.116,62.9,3.551,17.924,8.117,43.457,21.813,56.815a14.2,14.2,0,0,0,8.624,4.058c5.073,0,9.3-3.889,11.329-8.624,4.565-10.822,2.875-26.717,2.029-38.046a255.087,255.087,0,0,0-7.1-43.626c-3.044-12.344-9.3-45.486-20.46-50.9-8.793-4.227-25.026,7.609-24.35,17.417" transform="translate(-29.414 97.74)" fill="#ceb969"/>
  </g>
  <g id="Gruppe_8455" data-name="Gruppe 8455" clip-path="url(#clip-path)">
    <path id="Pfad_10676" data-name="Pfad 10676" d="M443.7,221.8l-20.291-14.2-7.609,5.073,17.755,22.659c4.4,2.029,9.977,7.271,14.2,8.624l8.962,6.256c4.9,1.691,8.793-4.227,5.411-7.947Z" transform="translate(-81.502 119.934)" fill="#fcb477"/>
  </g>
  <g id="Gruppe_8456" data-name="Gruppe 8456" clip-path="url(#clip-path)">
    <path id="Pfad_10677" data-name="Pfad 10677" d="M421.49,225.069c-3.213-3.72,5.242-15.557,9.977-13.358C464.1,224.9,497.92,262.777,497.92,262.777l-12.344,28.069s-40.583-36.693-64.087-65.777" transform="translate(-78.062 122.587)" fill="#b29e5d"/>
  </g>
  <g id="Gruppe_8457" data-name="Gruppe 8457" clip-path="url(#clip-path)">
    <path id="Pfad_10678" data-name="Pfad 10678" d="M402.036,221.691a11.867,11.867,0,0,0,7.947.676c3.382-.507,12.851-2.029,18.431-1.353a2.276,2.276,0,0,0,2.029-.845,9.223,9.223,0,0,1,10.653-3.382,1.135,1.135,0,0,0,1.522-1.353c0-.338-.169-.507-.338-.845s-2.2-6.933-3.551-11.329a3.576,3.576,0,0,0-5.073-2.2l-34.157,16.4c0,.169.846,3.551,2.536,4.227" transform="translate(-92.765 115.143)" fill="#1c1c1a"/>
  </g>
  <g id="Gruppe_8458" data-name="Gruppe 8458" clip-path="url(#clip-path)">
    <path id="Pfad_10679" data-name="Pfad 10679" d="M494.678,187.86C474.386,218.8,457.308,269.7,456.8,301.491c-.169,15.726,15.049,15.388,21.813,7.947,0,0,28.577-39.4,40.582-67.468,5.073-11.836,19.108-44.472,12.513-55.463-4.9-8.455-31.452-6.933-37.032,1.353" transform="translate(-53.175 101.458)" fill="#ceb969"/>
  </g>
  <g id="Gruppe_8459" data-name="Gruppe 8459" clip-path="url(#clip-path)">
    <path id="Pfad_10680" data-name="Pfad 10680" d="M507.346,136.062l-9.3-26.717-13.02-.845-6.426,3.72s6.595,16.233,7.1,23c.338,5.242,21.644.846,21.644.846" transform="translate(-38.112 51.462)" fill="#faa05f"/>
  </g>
  <g id="Gruppe_8460" data-name="Gruppe 8460" clip-path="url(#clip-path)">
    <path id="Pfad_10681" data-name="Pfad 10681" d="M478.716,83.9c-.338-1.691,6.595-2.536,12.513.845,6.087,3.382,8.624,7.947,11.329,14.2l1.353,3.889c-.677.507-1.184-.507-1.522-1.353a17.5,17.5,0,0,0-3.551-5.749,6.457,6.457,0,0,0-2.706-1.015c-6.088-.676-18.431,7.44-20.46,12.682a3.3,3.3,0,0,0-.169,1.353c.676,3.044,4.735,7.1,6.933,9.131a2.1,2.1,0,0,1,.169,2.875l-2.536,2.875-10.315-10.315a8.508,8.508,0,0,1-1.522-9.469c2.875-6.256,12.006-13.02,10.484-19.953" transform="translate(-45.837 33.446)" fill="#8e6005"/>
  </g>
  <g id="Gruppe_8461" data-name="Gruppe 8461" clip-path="url(#clip-path)">
    <path id="Pfad_10682" data-name="Pfad 10682" d="M496.455,100.122c0-3.213-1.86-5.749-4.227-5.918S488,96.571,488,99.783s1.86,5.749,4.227,5.918c2.367,0,4.227-2.367,4.227-5.58" transform="translate(-31.617 41.579)" fill="#fcb477"/>
  </g>
  <g id="Gruppe_8462" data-name="Gruppe 8462" clip-path="url(#clip-path)">
    <path id="Pfad_10683" data-name="Pfad 10683" d="M499.465,95.022c-6.933-12.513-23.335-3.72-27.055,6.256-3.382,8.962,5.242,20.968,11.837,27.055,7.1,6.595,17.755,8.116,21.475-2.029,3.72-9.807-1.353-22.489-6.256-31.282" transform="translate(-42.913 37.886)" fill="#fcb477"/>
  </g>
  <g id="Gruppe_8463" data-name="Gruppe 8463" clip-path="url(#clip-path)">
    <path id="Pfad_10684" data-name="Pfad 10684" d="M480.736,84.1c-.338-1.691,6.595-2.029,12.344,1.691s7.947,8.455,10.315,15.049l1.184,4.058c-.676.507-1.184-.676-1.522-1.353a17.72,17.72,0,0,0-3.044-5.918,6.979,6.979,0,0,0-2.536-1.184c-6.087-1.184-18.769,6.256-21.306,11.16a1.8,1.8,0,0,0-.169,1.353c.507,3.044,4.227,7.271,6.256,9.638a2.093,2.093,0,0,1,0,2.875l-2.705,2.705-9.469-10.991a8.449,8.449,0,0,1-.845-9.469c2.875-6.426,12.682-12.682,11.5-19.615" transform="translate(-45.32 33.761)" fill="#8e6005"/>
  </g>
  <g id="Gruppe_8464" data-name="Gruppe 8464" clip-path="url(#clip-path)">
    <path id="Pfad_10685" data-name="Pfad 10685" d="M478.947,105.271c2.705,1.691,4.058,4.735,2.875,6.764s-4.4,2.2-7.271.507c-2.705-1.691-4.058-4.735-2.875-6.764s4.4-2.2,7.271-.507" transform="translate(-43.193 48.435)" fill="#fcb477"/>
  </g>
  <g id="Gruppe_8465" data-name="Gruppe 8465" clip-path="url(#clip-path)">
    <path id="Pfad_10686" data-name="Pfad 10686" d="M533.064,151.149c4.566-6.256,3.889-8.962,4.735-16.74.169-1.522,0-3.044-1.691-3.382-1.353-.338-2.367.676-2.706,2.367-.845,7.271-.845,8.962-7.778,14.2-1.353,1.015,2.2,4.058,3.382,4.735,1.691.676,4.058-1.184,4.058-1.184" transform="translate(-5.831 66.982)" fill="#fcb477"/>
  </g>
  <g id="Gruppe_8466" data-name="Gruppe 8466" clip-path="url(#clip-path)">
    <path id="Pfad_10687" data-name="Pfad 10687" d="M520.1,147.184,547.662,136.7l3.889,15.895-28.915,5.749Z" transform="translate(-9.438 70.947)" fill="#fcb477"/>
  </g>
  <g id="Gruppe_8467" data-name="Gruppe 8467" clip-path="url(#clip-path)">
    <path id="Pfad_10688" data-name="Pfad 10688" d="M546.257,147.043c.507-.676.507-2.029-.338-2.367h0l-2.537-.507c.169,0,.338-.169.507-.169.507-.338,1.184-.507,1.522-1.184a1.311,1.311,0,0,0-.338-1.691l-.338-.169c-.845-.169-1.86-.338-2.705-.507a2.335,2.335,0,0,0,.676-.507,1.622,1.622,0,0,0,.507-1.691,2.794,2.794,0,0,0-2.2-1.353,17.863,17.863,0,0,0-8.455.676c-.169,0-.338.169-.507.169a2.008,2.008,0,0,0-1.353,1.691c0,.845,1.184,1.353,2.2,1.353-.338.169-.677.169-.846.507a2.122,2.122,0,0,0-1.014,1.86.93.93,0,0,0,.507.845c.169.169.507.338.676.507a4.936,4.936,0,0,0,1.522.338h-.169a5.291,5.291,0,0,0-1.691.845,1.716,1.716,0,0,0-.507,1.691,2.214,2.214,0,0,0,2.029,1.015,47.78,47.78,0,0,0,4.9.338c-.676.169-1.353.338-1.86.507-.845.338-2.029.845-2.029,1.86s1.184,1.522,2.029,1.86h0a12.321,12.321,0,0,0,6.088-.169,3.609,3.609,0,0,0,2.029-1.184,2.5,2.5,0,0,0,.677-2.2,1.558,1.558,0,0,0-1.86-1.184H542.2a3.134,3.134,0,0,0,1.184-.338,3,3,0,0,0,2.874-.845" transform="translate(-2.114 70.918)" fill="#fcb477"/>
  </g>
  <g id="Gruppe_8468" data-name="Gruppe 8468" clip-path="url(#clip-path)">
    <path id="Pfad_10689" data-name="Pfad 10689" d="M535.9,148.352a9.824,9.824,0,0,0,5.411-.169A3.215,3.215,0,0,0,543.17,147a2.5,2.5,0,0,0,.676-2.2,1.473,1.473,0,0,0-1.691-1.184,13.213,13.213,0,0,0-6.257,1.015c-.845.338-1.691.846-1.691,1.86-.169,1.015.846,1.691,1.691,1.86Z" transform="translate(0.297 75.697)" fill="#fcb477"/>
  </g>
  <g id="Gruppe_8469" data-name="Gruppe 8469" clip-path="url(#clip-path)">
    <path id="Pfad_10690" data-name="Pfad 10690" d="M544.97,141.567a16.423,16.423,0,0,0-10.653.507,6.857,6.857,0,0,0-1.522.845c-.338.507-.676,1.184-.338,1.691a1.86,1.86,0,0,0,1.691,1.015,22.889,22.889,0,0,0,8.962-.338,3.137,3.137,0,0,0,2.029-1.184,1.821,1.821,0,0,0-.169-2.536" transform="translate(-0.997 73.858)" fill="#fcb477"/>
  </g>
  <g id="Gruppe_8470" data-name="Gruppe 8470" clip-path="url(#clip-path)">
    <path id="Pfad_10691" data-name="Pfad 10691" d="M532.407,142.662a2.333,2.333,0,0,0,.676.507,2.781,2.781,0,0,0,1.691.338,15.191,15.191,0,0,0,8.624-1.184,1.671,1.671,0,0,0,1.184-1.184,1.311,1.311,0,0,0-.338-1.691l-.338-.169a21.607,21.607,0,0,0-9.3-.338,6.06,6.06,0,0,0-1.86.676,2.422,2.422,0,0,0-.845,1.86c.169.676.169,1.015.507,1.184" transform="translate(-1.285 72.256)" fill="#fcb477"/>
  </g>
  <g id="Gruppe_8471" data-name="Gruppe 8471" clip-path="url(#clip-path)">
    <path id="Pfad_10692" data-name="Pfad 10692" d="M533.284,137.674a1.839,1.839,0,0,0-1.184,1.691c0,1.015,1.184,1.353,2.029,1.522a34.861,34.861,0,0,0,7.271-.169,3.537,3.537,0,0,0,1.015-.676,1.883,1.883,0,0,0,.507-1.691c-.169-.845-1.184-1.184-1.86-1.353a13.911,13.911,0,0,0-7.44.676Z" transform="translate(-1.147 70.988)" fill="#fcb477"/>
  </g>
  <g id="Gruppe_8472" data-name="Gruppe 8472" clip-path="url(#clip-path)">
    <path id="Pfad_10693" data-name="Pfad 10693" d="M509.8,143.52s14.711-2.029,23.335-3.72c3.889,2.536,7.271,14.035,4.9,18.093-6.933,3.889-26.378,6.256-26.378,6.256Z" transform="translate(-16.555 73.089)" fill="#ee7318"/>
  </g>
  <g id="Gruppe_8473" data-name="Gruppe 8473" clip-path="url(#clip-path)">
    <path id="Pfad_10694" data-name="Pfad 10694" d="M422.7,84.367c.338-5.242,10.653-14.035,15.895-13.866,18.769,18.262,31.62,32.466,42.95,42.612,10.484,9.469,31.282,32.3,44.64,35.171,7.948,1.691-.676,31.113-.676,31.113s-19.953,18.262-21.813,12.175c-9.638-30.437-61.888-83.532-81-107.205" transform="translate(-76.735 25.206)" fill="#f29124"/>
  </g>
  <g id="Gruppe_8474" data-name="Gruppe 8474" clip-path="url(#clip-path)">
    <path id="Pfad_10695" data-name="Pfad 10695" d="M493.189,116.542c-12.006-2.536-22.489,43.288-22.489,43.288s11.16,54.955,3.72,80.15c2.029-4.566,20.46-14.542,37.877-14.711,18.6,0,34.664,6.087,35,9.638,6.087-53.434-14.542-109.911-54.11-118.365" transform="translate(-43.57 56.948)" fill="#f29124"/>
  </g>
</svg>
