<?xml version="1.0" encoding="UTF-8"?>
<svg id="uuid-88735e16-6eef-4770-9ff7-f9f032504669" data-name="Ebene 1" xmlns="http://www.w3.org/2000/svg" width="123" height="123" xmlns:xlink="http://www.w3.org/1999/xlink" viewBox="0 0 123 123">
  <defs>
    <style>
      .uuid-55542695-76ba-42b3-8f0f-7c7ad97645d4 {
        fill: none;
      }

      .uuid-703a630f-1ab6-4ca5-8ca7-4b7a36898837 {
        clip-path: url(#uuid-6624f132-8dcb-47d1-937b-0ccaa4ea92cb);
      }

      .uuid-6dc4c05e-ac95-4af5-932b-28f043872ae7 {
        fill: #00443c;
      }

      .uuid-0b837831-feea-4d55-8c29-b27444a4dddd {
        fill: #003d3d;
      }

      .uuid-6017cf67-5c8b-4940-8746-e7460dab7d5e {
        fill: #fff;
      }

      .uuid-4613d330-d9da-49fe-af13-13244e7451f3 {
        clip-path: url(#uuid-6a55670f-0e83-4def-b236-f225fae63d76);
      }

      .uuid-c8636eaa-e758-4faf-96c9-299a8e2c6a4f {
        clip-path: url(#uuid-e7793875-9a88-44de-b4ec-e15b85c0daf9);
      }

      .uuid-16596ac1-5a5f-4cbe-8434-c972c7138d47 {
        fill: url(#uuid-e007912e-55b9-4ce3-bfb9-5819ac9c0c99);
      }
    </style>
    <clipPath id="uuid-e7793875-9a88-44de-b4ec-e15b85c0daf9">
      <rect class="uuid-55542695-76ba-42b3-8f0f-7c7ad97645d4" y=".002" width="120.53282" height="122.28302"/>
    </clipPath>
    <clipPath id="uuid-6a55670f-0e83-4def-b236-f225fae63d76">
      <rect class="uuid-55542695-76ba-42b3-8f0f-7c7ad97645d4" y=".002" width="120.53282" height="122.28302"/>
    </clipPath>
    <clipPath id="uuid-6624f132-8dcb-47d1-937b-0ccaa4ea92cb">
      <path class="uuid-55542695-76ba-42b3-8f0f-7c7ad97645d4" d="m61.5,0v4.76392c31.31981.03638,56.69983,25.41778,56.73399,56.73708h0c-.03473,31.31794-25.41556,56.69702-56.734,56.73008h0c-31.31707-.03637-56.69597-25.41352-56.73399-56.73008H0c.03857,33.94897,27.55048,61.46043,61.5,61.499h0c33.94952-.03857,61.46142-27.55003,61.5-61.499h0C122.96252,27.55125,95.4503.03857,61.5,0Z"/>
    </clipPath>
    <linearGradient id="uuid-e007912e-55b9-4ce3-bfb9-5819ac9c0c99" data-name="Unbenannter Verlauf" x1="-1186.48843" y1="1307.49303" x2="-1186.21444" y2="1307.57403" gradientTransform="translate(737728.03061 35925.43108) rotate(-45) scale(418.29101 -418.29699)" gradientUnits="userSpaceOnUse">
      <stop offset="0" stop-color="#84a214"/>
      <stop offset="1" stop-color="#a2c617"/>
    </linearGradient>
  </defs>
  <g class="uuid-c8636eaa-e758-4faf-96c9-299a8e2c6a4f">
    <path id="uuid-5e6ef4be-46e1-4867-98a2-d22037ac2fca" data-name="Pfad 10696" class="uuid-0b837831-feea-4d55-8c29-b27444a4dddd" d="m67.45552,31.79649h-29.41291c-2.10137-.22206-3.98231,1.32614-4.20119,3.45799-.02751.26793-.02745.53803.00019.80594v61.667c-.22145,2.13213,1.30274,4.04269,3.40439,4.26736.26479.0283.53178.0285.79661.00056h29.41489c2.10247.22205,3.98428-1.32705,4.20316-3.46001.02749-.26792.02743-.53802-.00019-.80592v-61.671c.21777-2.13308-1.31017-4.04138-3.41275-4.26231-.26337-.02767-.52886-.02755-.7922.00038m-10.98056,4.50493h-7.45475l-.60423-2.48796h8.65828l-.5993,2.48796Zm13.22595-.178v61.39101c0,1.90697-.57958,2.48796-2.48295,2.48796h-29.06792c-1.73481,0-2.35086-.63199-2.35086-2.40896v-61.38501c-.08173-.67783.10826-1.36058.52734-1.89497.53189-.42224,1.20732-.61288,1.87773-.52999,2.61404,0,5.22874.00233,7.8441.007.04588.00139.09148.00776.13602.019.02858.007.06506.014.11237.022l.08871.017.28092,1.12198c.19714.79999.39428,1.59997.60521,2.39996.19024.73899.4613.95298,1.20254.95398,2.83484.005,5.71009.005,8.54492,0,.74518,0,1.01526-.216,1.2055-.95298.20404-.79999.40117-1.59997.60423-2.41196l.29571-1.17998h4.17636c1.44403,0,2.93735,0,4.40701.005,1.00622-.09276,1.89605.65958,1.98749,1.68039.00904.10095.00992.20248.00262.30357v.35199"/>
  </g>
  <path id="uuid-92ac72e9-5ac6-4bfd-ae93-7daffbb0b2f2" data-name="Pfad 10700" class="uuid-6017cf67-5c8b-4940-8746-e7460dab7d5e" d="m67.16573,109.45623h5.12558V13.28979h-5.12558v96.16644Z"/>
  <path id="uuid-3ac2c053-f01a-457c-b3f3-adcf3db9bacf" data-name="Pfad 10702" class="uuid-55542695-76ba-42b3-8f0f-7c7ad97645d4" d="m60.26592.00301v4.73792c30.68773.03747,55.55584,25.26627,55.59277,56.39909h0c-.03639,31.13305-24.90482,56.36217-55.59277,56.39909h0c-30.68773-.03747-55.55584-25.26626-55.59277-56.39909H0c.03531,33.75282,26.99565,61.10687,60.26592,61.14601h0c33.2695-.03858,60.22996-27.39097,60.2669-61.14301h0C120.49534,27.39169,93.53471.04048,60.26592.00301Z"/>
  <g class="uuid-4613d330-d9da-49fe-af13-13244e7451f3">
    <path id="uuid-cc468c3b-13cf-4c90-b8bd-76dbcfcc6bbb" data-name="Pfad 10703" class="uuid-6dc4c05e-ac95-4af5-932b-28f043872ae7" d="m84.39259,18.7717h-14.96865c-1.893.0022-3.42703,1.55849-3.42921,3.47894v67.11092c.00217,1.92046,1.53621,3.47674,3.42921,3.47895h14.96865c1.893-.0022,3.42704-1.55849,3.42921-3.47895V22.25064c-.00217-1.92045-1.53621-3.47674-3.42921-3.47894m1.50514,70.58986c-.00109.84287-.67433,1.52588-1.50514,1.52698h-14.96865c-.83082-.0011-1.50406-.68411-1.50514-1.52698V22.25064c.00054-.84342.67378-1.52732,1.50514-1.52898h14.96865c.83136.00165,1.5046.68555,1.50514,1.52898v67.11092Z"/>
    <path id="uuid-6d7ff937-bf55-4f5d-9c89-aa7c2b678964" data-name="Pfad 10704" class="uuid-0b837831-feea-4d55-8c29-b27444a4dddd" d="m76.90826,67.32891c-3.51397.00055-6.36217,2.89096-6.36163,6.4559.00054,3.56494,2.84962,6.45445,6.3636,6.4539,3.51359-.00055,6.36163-2.89035,6.36163-6.4549-.00489-3.56327-2.85127-6.45049-6.3636-6.4549m0,10.95882c-2.44971,0-4.43559-2.01469-4.43559-4.49993s1.98588-4.49993,4.43559-4.49993,4.43559,2.01469,4.43559,4.49993h0c-.00488,2.48319-1.98791,4.49498-4.43559,4.49993"/>
    <path id="uuid-3f54dc96-fd8a-4bb4-8078-0249fcb16c1b" data-name="Pfad 10705" class="uuid-0b837831-feea-4d55-8c29-b27444a4dddd" d="m71.24844,57.87106c.00054.53824.4305.97443.96105.97498h9.39557c.53055-.00055.9605-.43674.96105-.97498V25.62459c-.00054-.53824-.4305-.97443-.96105-.97498h-9.39557c-.53055.00055-.9605.43674-.96105.97498v32.24648Zm9.39557-.97498h-7.47151v-30.29351h7.47151v30.29351Z"/>
  </g>
  <g class="uuid-703a630f-1ab6-4ca5-8ca7-4b7a36898837">
    <path id="uuid-c4975e4e-4226-4883-b88e-4d8914888e04" data-name="Pfad 7877" class="uuid-16596ac1-5a5f-4cbe-8434-c972c7138d47" d="m-101.72075.00202H218.17433s.00424,271.65754.00424,271.65754H-101.71652L-101.72075.00202Z"/>
  </g>
</svg>