<?xml version="1.0" encoding="UTF-8"?>
<svg id="uuid-3689298f-3112-4be0-af7c-c760c961babd" data-name="Ebene 1" xmlns="http://www.w3.org/2000/svg" width="123" height="123" xmlns:xlink="http://www.w3.org/1999/xlink" viewBox="0 0 123 123">
  <defs>
    <style>
      .uuid-19fc5b0e-fc38-4ca2-b0ab-fef16499d1fc {
        fill: none;
      }

      .uuid-c527b2d7-6218-4fbd-8e2d-33e686df1be5 {
        fill: #003d3d;
      }

      .uuid-f381457c-4777-4d26-9a1d-ad176e4308eb {
        fill: url(#uuid-ce1d875a-5607-46a5-9485-c662f2732a0a);
      }

      .uuid-7c1f1ed3-239b-44b0-96e7-ffe426c41356 {
        clip-path: url(#uuid-c4e0ffbd-5c0f-4ded-b84c-0b866492890d);
      }
    </style>
    <clipPath id="uuid-c4e0ffbd-5c0f-4ded-b84c-0b866492890d">
      <path class="uuid-19fc5b0e-fc38-4ca2-b0ab-fef16499d1fc" d="m62.35786,0v4.76392c30.88293.03638,55.90893,25.41778,55.94261,56.73708h0c-.03424,31.31794-25.06104,56.69702-55.94262,56.73008h0c-30.88023-.03637-55.90512-25.41352-55.94261-56.73008H1.71572c.03804,33.94897,27.16618,61.46043,60.64214,61.499h0c33.47619-.03802,60.60464-27.5498,60.64214-61.499h0C122.96305,27.55125,95.83459.03857,62.35786,0Z"/>
    </clipPath>
    <linearGradient id="uuid-ce1d875a-5607-46a5-9485-c662f2732a0a" data-name="Unbenannter Verlauf" x1="-1186.48692" y1="1307.49141" x2="-1186.21441" y2="1307.57197" gradientTransform="translate(737728.91889 35926.36466) rotate(-45) scale(418.29101 -418.298)" gradientUnits="userSpaceOnUse">
      <stop offset="0" stop-color="#84a214"/>
      <stop offset="1" stop-color="#a2c617"/>
    </linearGradient>
  </defs>
  <g id="uuid-80eb962d-9a99-4cb9-b954-fa7bfe0bb99c" data-name="Gruppe 8507">
    <path id="uuid-8802ee75-2b4e-47d8-a359-c3bfa52a7e54" data-name="Pfad 10702" class="uuid-19fc5b0e-fc38-4ca2-b0ab-fef16499d1fc" d="m58.73807.00202v4.61592c29.91101.03526,54.15016,24.61646,54.18548,54.95011h0c-.03315,30.33505-24.27309,54.91839-54.18548,54.95311h0c-29.91255-.03472-54.15277-24.6179-54.18646-54.95311H0c.03641,32.88337,26.31286,59.53157,58.73807,59.56904h0c32.42482-.03802,58.70069-26.68605,58.73709-59.56904h0C117.43767,26.68602,91.16197.0395,58.73807.00202Z"/>
    <g class="uuid-7c1f1ed3-239b-44b0-96e7-ffe426c41356">
      <g id="uuid-b79117a6-ab16-444c-a886-6010068d243e" data-name="Gruppe 5660">
        <g id="uuid-36e19e8a-c122-4812-a6e7-3161f51f0863" data-name="Gruppe 5659">
          <path id="uuid-9f272421-44b0-4f76-aa5a-d42687df7aa5" data-name="Pfad 7877" class="uuid-f381457c-4777-4d26-9a1d-ad176e4308eb" d="m-98.58614.00132H216.84676s.00487,271.65824.00487,271.65824H-98.58126L-98.58614.00132Z"/>
        </g>
      </g>
    </g>
    <g id="uuid-00c3db51-4eea-4672-8aa5-3bbd0fc0bce5" data-name="Gruppe 8506">
      <path id="uuid-74d6d876-2568-4191-b973-1f5cf3c01bf9" data-name="Pfad 10708" class="uuid-19fc5b0e-fc38-4ca2-b0ab-fef16499d1fc" d="m62.91399,0v4.61592c29.91095.03637,54.14962,24.61753,54.18548,54.95111h0c-.03152,30.33557-24.27258,54.91959-54.18548,54.95211h0c-29.91329-.03197-54.15494-24.61615-54.18646-54.95211h-4.55161c.03478,32.88455,26.31171,59.53456,58.73807,59.57203h0c32.4262-.03748,58.70285-26.68765,58.73709-59.57203h0C121.61304,26.68506,95.33782.03857,62.91399,0Z"/>
      <g id="uuid-4166ef83-d247-45ca-881f-6fe1b6403fe9" data-name="Gruppe 8493">
        <path id="uuid-07f65d6f-3a37-4b0a-96e4-9f049d95cece" data-name="Pfad 10709" class="uuid-c527b2d7-6218-4fbd-8e2d-33e686df1be5" d="m87.53371,69.72487c.2429.0126.47156.12012.63798.3.16622.18202.25328.42419.24158.67199-.00829.24793-.11496.48195-.29582.64899l-7.87756,7.29988c.17944.4761.21816.99491.11142,1.49298-.31165,1.418-1.69624,2.31264-3.09521,1.99997-1.39905-.31555-2.28162-1.72076-1.9721-3.13995.04128-.18168.10246-.35811.18242-.52599l-5.68557-6.2879c-.16473-.18168-.25131-.42242-.2406-.66899.00958-.24704.11608-.47996.29582-.64699.178-.16946.41573-.25919.65967-.249.24617.00965.47864.11746.64685.3l5.63923,6.2479c.50122-.22607,1.06053-.28388,1.59642-.165.22261.05192.43701.13505.63699.247l7.85488-7.27888c.17939-.16948.41873-.2582.66361-.246m-10.45214,9.68184c-.08903.41104.16737.81744.57268.90772.0004.00009.0008.00018.0012.00027.40479.09132.80611-.16675.89731-.57699.08992-.41253-.16694-.82088-.57372-.91208-.00137-.00031-.00273-.00061-.0041-.00091-.40575-.09003-.80704.16907-.89829.57999"/>
      </g>
      <g id="uuid-7f7360f1-d035-4c67-b6aa-bfe7e04fb4b1" data-name="Gruppe 8494">
        <path id="uuid-53d24a33-e0d4-42c7-ad20-9dc646b9d901" data-name="Pfad 10710" class="uuid-c527b2d7-6218-4fbd-8e2d-33e686df1be5" d="m46.28522,78.75772h-24.32588c-.44569,0-.82237-.28599-.82237-.62499V31.64049c.8454-.76366,1.84779-1.32694,2.93449-1.64897l.00493,42.55331c.00193.70984.36952,1.36703.96929,1.73297.60319.3578,1.3457.37481,1.96421.045,1.95238-1.06598,6.44877-2.85495,14.62116-2.85495,2.11311,0,3.99055.1,5.65402.25.1558-.61499.31652-1.22698.50683-1.83097-1.80645-.182-3.8456-.3-6.16183-.3-8.57864,0-13.39452,1.92797-15.49974,3.07795-.0424.02348-.09367.02348-.13607,0-.0418-.02542-.067-.07158-.06607-.121V28.41154c-.04999-.84597.36806-1.64995,1.08466-2.08597h0c3.08141-1.74497,7.7898-2.59396,14.3855-2.59396,9.98278,0,14.87754,1.90597,16.18307,2.51696v28.78353c.59163-.50599,1.21974-.97798,1.85378-1.44198v-27.37656c1.15171-.59999,5.5702-2.48096,15.74033-2.48096,8.25916,0,12.82754,1.86097,14.81837,2.97095.74972.41964,1.21511,1.21954,1.21481,2.08797v29.46652c.6383.40666,1.25623.83999,1.85378,1.29998v-29.48252c1.03715.31793,1.99645.85427,2.81518,1.57397v30.43151c.65796.69378,1.27687,1.42459,1.85378,2.18896V31.54649c0-1.79997-3.58035-3.09995-4.73304-3.47194-.20994-1.28171-.98908-2.39448-2.11311-3.01795-2.61796-1.46097-7.46835-3.19995-15.70976-3.19995-10.4058,0-15.12504,1.90997-16.6899,2.74696-1.7108-.83699-6.76037-2.74696-17.08629-2.74696-6.92799,0-11.93122.92498-15.28872,2.83095-1.18376.68945-1.94301,1.93963-2.01746,3.32195-.63206.2-4.80601,1.59997-4.80601,3.53894v46.58425c.06295,1.43718,1.25759,2.55358,2.67516,2.49996h24.32785c-.01676-.62699-.02367-1.25198,0-1.87797"/>
      </g>
      <g id="uuid-07d167f0-1d45-4009-8316-9cf094eb149a" data-name="Gruppe 8495">
        <path id="uuid-d9f1eec3-eafc-41d3-b1a0-fe6eeb467ebd" data-name="Pfad 10711" class="uuid-c527b2d7-6218-4fbd-8e2d-33e686df1be5" d="m28.84099,32.67947c.10768.0001.21452-.0192.31554-.057,3.94376-1.34987,8.07656-2.04514,12.23887-2.05897,4.35049.00068,8.67982.61386,12.86402,1.82197l.14298.037c.49401.12692.99681-.17261,1.12804-.67199.1276-.50205-.16839-1.01439-.66263-1.14698l-.141-.04c-4.33692-1.24734-8.82346-1.87868-13.33141-1.87597-4.37616.01483-8.72119.74693-12.86698,2.16796-.48141.1765-.73058.71536-.55654,1.20357.13241.37144.47966.61931.86912.6204"/>
      </g>
      <g id="uuid-68af034a-b1aa-4fd2-977b-88c8e13282a7" data-name="Gruppe 8496">
        <path id="uuid-e330ffff-115f-4300-a8d8-742abc123e28" data-name="Pfad 10712" class="uuid-c527b2d7-6218-4fbd-8e2d-33e686df1be5" d="m28.84296,40.99534c.10721-.00062.21355-.01955.31455-.056,3.94337-1.35157,8.07639-2.04722,12.23887-2.05997,4.35137.0019,8.68152.61505,12.86698,1.82197l.13805.037c.49317.13918,1.00421-.15344,1.14145-.65357.13724-.50014-.1513-1.0184-.64446-1.15758-.00982-.00277-.01969-.00538-.0296-.00782l-.14593-.04c-4.33538-1.24619-8.82032-1.87619-13.32648-1.87197-4.376.01386-8.72103.74495-12.86698,2.16496-.23141.08316-.4201.25722-.52359.48299-.10541.22526-.11678.48411-.03155.71799.1311.37336.47987.62251.87068.62199"/>
      </g>
      <g id="uuid-8d107db4-0b73-4232-bf46-1483b515ed97" data-name="Gruppe 8497">
        <path id="uuid-af0ba3c9-ea19-4d17-a664-4ced317ab3e2" data-name="Pfad 10713" class="uuid-c527b2d7-6218-4fbd-8e2d-33e686df1be5" d="m54.8688,47.23724l-.14791-.04c-4.33509-1.24628-8.81958-1.87727-13.32549-1.87497-4.376.01386-8.72103.74495-12.86698,2.16497-.47936.17672-.72819.71269-.55712,1.19998.13226.3722.48057.62022.87068.61999.10721.00051.21379-.01672.31554-.051,3.94319-1.35047,8.07592-2.04477,12.23788-2.05597,4.34948-.00011,8.678.61103,12.86205,1.81597l.14396.039c.23831.05968.49013.02387.70305-.1.44079-.26289.58797-.83838.32874-1.28539-.12426-.21427-.32723-.36983-.56441-.43258"/>
      </g>
      <g id="uuid-53989af2-7a82-4885-bcaf-ec04eb6533bb" data-name="Gruppe 8498">
        <path id="uuid-d568be23-bc4d-4524-b84c-97024288e699" data-name="Pfad 10714" class="uuid-c527b2d7-6218-4fbd-8e2d-33e686df1be5" d="m54.8688,55.5531l-.14889-.04c-4.3348-1.24608-8.81893-1.87707-13.32451-1.87497-4.37619.01356-8.72136.74534-12.86698,2.16696-.47975.17628-.72878.71266-.55712,1.19998.13233.37242.48034.62103.87068.62199.10748-.00022.21415-.01882.31554-.055,3.94343-1.34924,8.07607-2.04285,12.23788-2.05397,4.34941-.00099,8.67795.60948,12.86205,1.81397l.14396.039c.23831.05968.49013.02387.70305-.1.44059-.26431.58648-.8408.32585-1.28761-.1241-.21275-.32583-.36736-.56152-.43036"/>
      </g>
      <g id="uuid-d38ba753-4c20-476e-8aa9-eae022804742" data-name="Gruppe 8499">
        <path id="uuid-0202d14b-f709-4525-bc7c-07594c785f2c" data-name="Pfad 10715" class="uuid-c527b2d7-6218-4fbd-8e2d-33e686df1be5" d="m28.5294,64.11996c-.23094.08341-.41944.25694-.52359.48199-.10605.22499-.11814.48384-.03353.71799.13151.37319.4799.62247.87068.62299.1078-.00026.21479-.01885.31652-.055,3.94255-1.35039,8.07457-2.04502,12.23591-2.05697,2.8718-.00797,5.73779.26225,8.55892.80699.30765-.58799.65375-1.15498.9969-1.72497-3.14478-.64859-6.34668-.96958-9.55582-.95798-4.37567.01403-8.72034.7451-12.86599,2.16496"/>
      </g>
      <g id="uuid-2428fd2a-2f98-4238-90f9-f27b85432724" data-name="Gruppe 8500">
        <path id="uuid-0732c7fd-bc20-42f6-8f88-3d0d8cf66c3b" data-name="Pfad 10716" class="uuid-c527b2d7-6218-4fbd-8e2d-33e686df1be5" d="m88.52272,30.6035l-.14002-.037c-4.33697-1.24706-8.82348-1.8784-13.33141-1.87597-4.37633.01381-8.72169.74489-12.86797,2.16496-.47936.17672-.72819.71269-.55712,1.19998.13366.3727.48258.62111.87364.62199.10619-.00021.21157-.01881.31159-.055,3.94407-1.3494,8.07739-2.04301,12.23985-2.05397,4.3503-.00167,8.67973.60984,12.86402,1.81697l.141.035c.23816.06239.491.02643.70305-.1.21188-.12502.36536-.33111.42597-.57199.12635-.5014-.16937-1.01237-.66263-1.14498"/>
      </g>
      <g id="uuid-2a233d6f-33f6-4c07-81f4-39c85e5ec2b8" data-name="Gruppe 8501">
        <path id="uuid-de391c2f-6d96-4a08-8027-be03a27cda21" data-name="Pfad 10717" class="uuid-c527b2d7-6218-4fbd-8e2d-33e686df1be5" d="m88.52173,38.91937l-.14594-.037c-4.33448-1.24772-8.8188-1.87907-13.32451-1.87597-4.37678.01424-8.72249.746-12.86895,2.16696-.23122.08292-.41989.2566-.52359.48199-.10605.22499-.11814.48384-.03353.71799.13366.3727.48258.62111.87364.62199.10596.00098.21132-.01627.31159-.051,3.94396-1.35194,8.07769-2.04759,12.24084-2.05997,4.35054-.00043,8.68013.61105,12.86501,1.81697l.13805.037c.23822.06129.49065.02538.70305-.1.21295-.12566.36716-.33285.42795-.57499.12566-.50137-.17044-1.01181-.66361-1.14398"/>
      </g>
      <g id="uuid-b9b8e05d-4967-4ad6-a7d8-74e7d9a1603f" data-name="Gruppe 8502">
        <path id="uuid-ea296ca6-f2e8-48fd-ab78-b69d6518b518" data-name="Pfad 10718" class="uuid-c527b2d7-6218-4fbd-8e2d-33e686df1be5" d="m61.6262,48.69021c.13407.37123.48184.61859.87167.61999.10691.00063.21308-.01799.31356-.055,3.78387-1.29104,7.74219-1.97953,11.73401-2.04097-.0435-.64418.06114-1.2898.30568-1.88597-4.30883.03413-8.58487.76323-12.6678,2.15997-.47975.17628-.72878.71266-.55712,1.19998"/>
      </g>
      <g id="uuid-f3d59c86-0b00-4c4c-a27e-c688da812122" data-name="Gruppe 8503">
        <path id="uuid-41338e5c-506a-4b1c-a7cf-554fd350010b" data-name="Pfad 10719" class="uuid-c527b2d7-6218-4fbd-8e2d-33e686df1be5" d="m88.0573,49.0542c.23831.05968.49013.02387.70305-.1.21134-.12588.36434-.33216.42499-.57299.12763-.50095-.16749-1.01243-.66065-1.14498l-.14791-.04c-1.39033-.36799-3.13761-.82999-5.29509-1.20198l1.85082,2.28496c1.13199.252,2.13283.51199,2.98083.73499l.14396.04Z"/>
      </g>
      <g id="uuid-c2fdf3ea-4713-475d-99f6-4ddc55a72b59" data-name="Gruppe 8504">
        <path id="uuid-243be47f-f603-41ca-8878-4ae7acac3805" data-name="Pfad 10720" class="uuid-c527b2d7-6218-4fbd-8e2d-33e686df1be5" d="m77.97296,57.52107c-12.06846-.0011-21.85276,9.91966-21.85385,22.15864s9.78145,22.16154,21.84991,22.16264c12.06846.0011,21.85276-9.91966,21.85385-22.15864v-.002c-.01575-12.23158-9.78875-22.14356-21.84991-22.16064m.80659,42.41231v-3.12595c0-.51721-.41344-.93649-.92344-.93649s-.92344.41928-.92344.93649v3.11295c-10.26745-.58512-18.4399-8.94169-18.93218-19.35869h3.24707c.51082.00111.9258-.41794.92689-.93598,0-.00167,0-.00334,0-.00501-.00109-.51725-.41487-.93599-.92492-.93599h-3.24214c.55895-10.36301,8.70521-18.64634,18.92232-19.24069v3.38795c0,.51721.41344.93648.92344.93648s.92344-.41928.92344-.93648v-3.39995c10.32395.45713,18.61569,8.79417,19.15503,19.25969h-3.17804c-.51,0-.92344.41928-.92344.93648s.41344.93649.92344.93649h3.18494c-.47531,10.51429-8.78973,18.91972-19.15897,19.36869"/>
      </g>
      <g id="uuid-dd8dd0fa-3d09-499b-9c48-323b84c9def0" data-name="Gruppe 8505">
        <path id="uuid-cc834d0c-8c79-4c4b-8d78-d92cdd0c4065" data-name="Pfad 10721" class="uuid-c527b2d7-6218-4fbd-8e2d-33e686df1be5" d="m67.4656,54.77911c3.94856-1.70496,8.24402-2.42013,12.52285-2.08497l.141.012-3.29933,2.36596c-.36543.26433-.50243.74957-.33033,1.16998.0287.06503.06372.127.10452.185.30681.43801.9052.54176,1.33807.232l5.32468-3.82294c.21552-.15728.35807-.39725.39442-.66399.0332-.26838-.04221-.53895-.20904-.74999l-4.14437-5.11692c-.33988-.41359-.94547-.4708-1.35483-.128-.3236.2822-.43144.74349-.26722,1.14298.03575.08161.08218.15796.13805.227l2.6229,3.22795-.12128-.01c-15.72936-1.34559-29.55615,10.49493-30.88299,26.44654-.38406,4.61728.32902,9.26066,2.07945,13.54081.03155.082.06804.166.09861.25l.03353.069c.15842.33388.49152.54612.85688.54599.13129-.00056.26111-.02812.3816-.081.47041-.20345.69913-.74672.51866-1.23198-.00678-.02448-.01502-.04852-.02465-.072h0c-.01775-.042-.02958-.086-.04634-.128-5.64524-13.71099.65784-29.47427,14.12518-35.32543"/>
      </g>
      <path id="uuid-96201060-ec0a-45f2-b783-c6b0090e6d24" data-name="Pfad 10722" class="uuid-19fc5b0e-fc38-4ca2-b0ab-fef16499d1fc" d="m4.17591,119.13907h117.47516V.001H4.17591v119.13807Z"/>
    </g>
  </g>
</svg>